<svg version="1.2" xmlns="http://www.w3.org/2000/svg" viewBox="0 0 2234 2100" width="2234" height="2100">
	<title>vecteezy_isometric-style-illustration-of-a-cashier-serving-a-customer_6552128-ai</title>
	<defs>
		<linearGradient id="g1" x1="658.5" y1="829.8" x2="792.2" y2="829.8" gradientUnits="userSpaceOnUse">
			<stop offset="0" stop-color="#ffb888"/>
			<stop offset=".287" stop-color="#ff9b57"/>
			<stop offset="1" stop-color="#ff6801"/>
		</linearGradient>
		<linearGradient id="g2" x1="612.3" y1="545.3" x2="937.7" y2="545.3" gradientUnits="userSpaceOnUse">
			<stop offset="0" stop-color="#ffb888"/>
			<stop offset=".287" stop-color="#ff9b57"/>
			<stop offset="1" stop-color="#ff6801"/>
		</linearGradient>
		<linearGradient id="g3" x1="682.6" y1="792.4" x2="1157.1" y2="792.4" gradientUnits="userSpaceOnUse">
			<stop offset="0" stop-color="#1a232f"/>
			<stop offset="1" stop-color="#313946"/>
		</linearGradient>
		<linearGradient id="g4" x1="805.7" y1="547.6" x2="937.7" y2="547.6" gradientUnits="userSpaceOnUse">
			<stop offset="0" stop-color="#e2e3e5"/>
			<stop offset="1" stop-color="#efefef"/>
		</linearGradient>
		<linearGradient id="g5" x1="612.3" y1="611.9" x2="780.2" y2="611.9" gradientUnits="userSpaceOnUse">
			<stop offset="0" stop-color="#e2e3e5"/>
			<stop offset="1" stop-color="#efefef"/>
		</linearGradient>
		<linearGradient id="g6" x1="148.6" y1="226.5" x2="531.7" y2="226.5" gradientUnits="userSpaceOnUse">
			<stop offset="0" stop-color="#e2e3e5"/>
			<stop offset="1" stop-color="#efefef"/>
		</linearGradient>
		<linearGradient id="g7" x1="220.3" y1="292.5" x2="453.1" y2="292.5" gradientUnits="userSpaceOnUse">
			<stop offset="0" stop-color="#00c6ff"/>
			<stop offset="1" stop-color="#0072ff"/>
		</linearGradient>
		<linearGradient id="g8" x1="220.3" y1="337.3" x2="453.1" y2="337.3" gradientUnits="userSpaceOnUse">
			<stop offset="0" stop-color="#00c6ff"/>
			<stop offset="1" stop-color="#0072ff"/>
		</linearGradient>
		<linearGradient id="g9" x1="220.3" y1="382.2" x2="373" y2="382.2" gradientUnits="userSpaceOnUse">
			<stop offset="0" stop-color="#00c6ff"/>
			<stop offset="1" stop-color="#0072ff"/>
		</linearGradient>
		<linearGradient id="g10" x1="389.8" y1="1393.6" x2="583.7" y2="1393.6" gradientUnits="userSpaceOnUse">
			<stop offset="0" stop-color="#e2e3e5"/>
			<stop offset="1" stop-color="#efefef"/>
		</linearGradient>
		<linearGradient id="g11" x1="500.5" y1="1587.9" x2="90.7" y2="1392.6" gradientUnits="userSpaceOnUse">
			<stop offset="0" stop-color="#f3f7ff"/>
			<stop offset="1" stop-color="#cdd9ff"/>
		</linearGradient>
		<linearGradient id="g12" x1="220.2" y1="1294.3" x2="559.5" y2="1294.3" gradientUnits="userSpaceOnUse">
			<stop offset="0" stop-color="#f5995b"/>
			<stop offset="1" stop-color="#fb5f5c"/>
		</linearGradient>
		<linearGradient id="g13" x1="195.9" y1="1393.6" x2="389.9" y2="1393.6" gradientUnits="userSpaceOnUse">
			<stop offset="0" stop-color="#e2e3e5"/>
			<stop offset="1" stop-color="#efefef"/>
		</linearGradient>
		<linearGradient id="g14" x1="37.2" y1="1155" x2="389.9" y2="1155" gradientUnits="userSpaceOnUse">
			<stop offset="0" stop-color="#20b5d8"/>
			<stop offset="1" stop-color="#8cee98"/>
		</linearGradient>
		<linearGradient id="g15" x1="195.9" y1="1047.6" x2="408" y2="1047.6" gradientUnits="userSpaceOnUse">
			<stop offset="0" stop-color="#20b5d8"/>
			<stop offset="1" stop-color="#8cee98"/>
		</linearGradient>
		<linearGradient id="g16" x1="356.4" y1="915.4" x2="679.4" y2="915.4" gradientUnits="userSpaceOnUse">
			<stop offset="0" stop-color="#20b5d8"/>
			<stop offset="1" stop-color="#8cee98"/>
		</linearGradient>
		<linearGradient id="g17" x1="765.7" y1="1374.1" x2="367.5" y2="1500" gradientUnits="userSpaceOnUse">
			<stop offset="0" stop-color="#20b5d8"/>
			<stop offset="1" stop-color="#8cee98"/>
		</linearGradient>
		<linearGradient id="g18" x1="389.9" y1="1190.9" x2="846.2" y2="1190.9" gradientUnits="userSpaceOnUse">
			<stop offset="0" stop-color="#20b5d8"/>
			<stop offset="1" stop-color="#8cee98"/>
		</linearGradient>
		<linearGradient id="g19" x1="308.9" y1="1354.3" x2="555.1" y2="1354.3" gradientUnits="userSpaceOnUse">
			<stop offset="0" stop-color="#20b5d8"/>
			<stop offset="1" stop-color="#8cee98"/>
		</linearGradient>
	</defs>
	<style>
		.s0 { fill: #191919 } 
		.s1 { fill: #f36b1c } 
		.s2 { fill: #007ee5 } 
		.s3 { fill: #78c8ff } 
		.s4 { fill: url(#g1) } 
		.s5 { fill: #f4bb82 } 
		.s6 { fill: url(#g2) } 
		.s7 { fill: #eaae78 } 
		.s8 { fill: #e6e6ed } 
		.s9 { fill: #d4d4d8 } 
		.s10 { fill: #fb6d47 } 
		.s11 { fill: #f7f7f7 } 
		.s12 { fill: url(#g3) } 
		.s13 { fill: #6a747f } 
		.s14 { fill: #86919b } 
		.s15 { fill: url(#g4) } 
		.s16 { fill: #2d2d2d } 
		.s17 { fill: #545454 } 
		.s18 { fill: #1c1c1c } 
		.s19 { fill: #424242 } 
		.s20 { fill: url(#g5) } 
		.s21 { fill: #a4dfff } 
		.s22 { fill: #40adad } 
		.s23 { fill: #ededed } 
		.s24 { fill: #ffffff } 
		.s25 { fill: #eaa363 } 
		.s26 { fill: #0c0c0c } 
		.s27 { fill: #161616 } 
		.s28 { fill: #f7b26d } 
		.s29 { fill: #dbd6d1 } 
		.s30 { fill: #212121 } 
		.s31 { fill: #ffbe78 } 
		.s32 { fill: #eae2da } 
		.s33 { fill: #efe9e4 } 
		.s34 { fill: #a09f9c } 
		.s35 { fill: #262626 } 
		.s36 { fill: #56544d } 
		.s37 { fill: #706e62 } 
		.s38 { fill: #f9bf87 } 
		.s39 { fill: #b2b1aa } 
		.s40 { fill: #efb27f } 
		.s41 { fill: #353535 } 
		.s42 { fill: #efac6f } 
		.s43 { fill: #f9b673 } 
		.s44 { fill: #232323 } 
		.s45 { fill: #d8d8d8 } 
		.s46 { fill: #dedee2 } 
		.s47 { fill: #1e1e1e } 
		.s48 { fill: #d1d1d1 } 
		.s49 { fill: #c6c6c6 } 
		.s50 { fill: #c1c1c1 } 
		.s51 { fill: url(#g6) } 
		.s52 { fill: url(#g7) } 
		.s53 { fill: url(#g8) } 
		.s54 { fill: url(#g9) } 
		.s55 { fill: url(#g10) } 
		.s56 { fill: url(#g11) } 
		.s57 { fill: url(#g12) } 
		.s58 { fill: url(#g13) } 
		.s59 { fill: url(#g14) } 
		.s60 { fill: #4e6dc4 } 
		.s61 { fill: url(#g15) } 
		.s62 { fill: url(#g16) } 
		.s63 { fill: #5ae595 } 
		.s64 { fill: url(#g17) } 
		.s65 { fill: url(#g18) } 
		.s66 { fill: url(#g19) } 
	</style>
	<g id="_Artboards_">
	</g>
	<g id="Layer 1">
		<g id="&lt;Group&gt;">
			<g id="&lt;Group&gt;">
				<path id="&lt;Path&gt;" class="s0" d="m708.8 409.3c0 0-67.2-33.9-72.3 66.3-6 116.3-102.6 64-102.6 64 0 0 92.4 89.5 112.2 16.1 13.8-51 12.4-137.1 36.6-114.3 24.3 22.8 36-0.9 36-0.9 0 0-2.2-29.8-9.9-31.2z"/>
				<g id="&lt;Group&gt;">
					<path id="&lt;Path&gt;" class="s1" d="m714 412.3c0 0-11.4-10.1-25.5-1.4-14.1 8.6-13.3 25.3-3.8 32.2 9.5 6.9 29.3-30.8 29.3-30.8z"/>
				</g>
				<path id="&lt;Path&gt;" class="s0" d="m722.4 417.3c0 0-17.9-16.2-33.4 2.9-15.6 19.2 3 31.1 3 31.1z"/>
				<path id="&lt;Path&gt;" class="s2" d="m520.7 593.5c0 0 159.7-117.8 217-52.6 57.3 65.1 15.6 235.2 25.9 258.5 10.3 23.2-10.6 86.5-10.6 86.5l-64 37.3c0 0-69.7 15-82.1-40.4-12.4-55.3-64.7-283.6-86.2-289.3z"/>
				<path id="&lt;Path&gt;" class="s3" d="m520.7 593.5c0 0 54.6-21.1 79.5 89.2 25 110.4 37.9 221.5 88.8 240.5l-47.6 27.5c0 0-64.4-6.6-80.7-101.7-16.3-95.1-30.5-246-40-255.5z"/>
				<path id="&lt;Path&gt;" class="s4" d="m658.9 829.8c0 0-5.9 43.5 27.7 81.1 33.5 37.7 43.7 43 43.7 43 0 0-16-29.6 5.3-54.1 21.3-24.5 56.6-39.3 56.6-39.3l-56.6-16.9z"/>
				<path id="&lt;Path&gt;" class="s5" d="m836.2 860.5c0.7 0.3 2.3 1.1 4.4 2.5-2.1-1.1-3.4-2-4.4-2.5z"/>
				<path id="&lt;Path&gt;" class="s6" d="m937.7 768c0 0-2.5 0-7.6 5-5 5.1-9.6 16.5-9.6 16.5 0 0-41.9-7.5-60.4-11.9-18.8-4.1-31.2-15.6-35.1-33-4.1-17.1-13.1-48.1-13.1-48.1 0 0-10 38.3-10 55.5 0 17.1 1.8 37.8 13.2 42.6 11.5 4.8 54.8 25.4 54.8 25.4 0 0-10.7 4.1-18.3 11.7-7.6 7.5-10.6 19.7-10.6 19.7 0 0-0.2 0-0.6-0.3-3.2-0.9-16.5-4.8-30.8-8.4-15.7-4.4-29.3-7.6-29.3-7.6 0 0-4.6 2.3-12.5 7.1-5.8 3.6-8.1 13.3-9 18.3-0.2 1.8-0.2 3.2-0.2 3.2 0 0-9-3.9-37.1-3.9-28.2 0-65.7-9.1-71.7-32.3-6-23.1-33-105.1-37.1-154.8-2.3-25.4 7.1-46.5 16.9-60.9 8.9-13.5 18.3-21.3 18.3-21.3 37.4-31.4 77.7-40.1 111.6-43.8 20.4-2.1 34.6-2.1 46.2 0.9 8.1 2.1 14.7 5.3 21.4 10.1 16.5 11.7 31.3 128.1 33.9 143.2 2.3 15.1 13.5 23.1 25.4 30.4 11.7 7.1 51.3 36.7 51.3 36.7z"/>
				<path id="&lt;Path&gt;" class="s7" d="m699.4 530.9c0 0-2.4 25.1-17.8 37.2 0 0 7.2 37.7 51.2 29.5 44-8.2 45.4-29.5 45.4-29.5z"/>
				<path id="&lt;Path&gt;" class="s5" d="m817 493.4c0 0-9.3 33-16.3 43.6-6.9 10.5-16.3 49.3-44.4 46.2-28.2-3-49-27.8-59.3-51.1 0 0-30.9-23.1-23.3-39.6 7.6-16.5 35.4-38.7 71.1-38.7 35.7 0 72.2 39.6 72.2 39.6z"/>
				<path id="&lt;Path&gt;" class="s0" d="m822.3 484.6c-0.5 4.8-1.5 9-2.4 12.8-3.3 15.6-7.6 26.9-12.3 35.4q-3.5 2.2-7.1 4.3c-34 18.9-74.6-29.3-79.4-35-3.3 0-5.6 1.4-7.5 4.7-9.5 15.6-9.9 8.1-12.3 5.7-2.4-2.4-1.9 0.5-4.3 2.8-2.3 2.9-4.2-3.7-5.2-11.3-0.9-8-10.4-12.7-13.7-13.2-3.3-1-4.2 1.9-4.2 1.9 0 0-3.8-61 54.8-77.5 10.9-2.9 20.3-4.7 28.4-4.7 23.6 0 54.3 14.6 63.7 51.9 2.4 6.6 2.9 14.2 1.5 22.2z"/>
				<path id="&lt;Path&gt;" class="s0" d="m713.6 506.8c0 0-25.3 40 12.5 96.4 0 0-33.2-17.9-33-92.3 0.2-74.4 20.5-4.1 20.5-4.1z"/>
				<path id="&lt;Path&gt;" class="s0" d="m786.7 564.8c0 0-6.4 22.5 19 34.2 0 0-20.5-3.6-22.8-28.7 0 0 1.2-1.1 3.8-5.5z"/>
			</g>
			<g id="&lt;Group&gt;">
				<g id="&lt;Group&gt;">
					<g id="&lt;Group&gt;">
						<path id="&lt;Path&gt;" class="s8" d="m1543.2 250.3v380.7l-14.2 88.8-92 390c-0.4 0.4-0.4 1.1-0.7 1.5-15.1 63.8-40.2 114.1-77.3 158.5-55.7 66.9-138.4 121-254.8 188.2l-222.6 128.7-14.7 8.2-310-179.3 191-110.2c72.2-42.9 131.4-82.8 177-128.4 45.2-46 76.1-97.4 92-163.9l77.7-327.3 302.9 29.9z"/>
					</g>
				</g>
				<path id="&lt;Path&gt;" class="s9" d="m556.8 1415.7v-349.6l295.8 184.8 13-7.5 1.4 351.7z"/>
				<g id="&lt;Group&gt;">
					<g id="&lt;Group&gt;">
						<path id="&lt;Path&gt;" class="s10" d="m1565.7 186.9v58.7l-75.4 337.5-35.1 159.9c-0.4 0.4-0.4 1.1-0.8 1.5-15.4 65.3-41.3 116.7-79.2 162.4-57.2 68.8-141.9 124-261.3 193.2l-228.4 131.8-32.9 19-318.1-183.9v-58.8l51 29.4 162.8-94c74.2-44.1 134.8-85.1 181.6-131.8 46.4-47.2 78.1-99.8 94.3-168.2l20.4-95.7 506-293.4z"/>
					</g>
				</g>
				<g id="&lt;Group&gt;">
					<g id="&lt;Group&gt;">
						<path id="&lt;Path&gt;" class="s11" d="m1565.7 186.8l-75.4 337.5-35.1 159.9c-0.4 0.4-0.4 1.1-0.8 1.5-15.4 65.3-41.3 116.7-79.2 162.4-57.2 68.8-141.9 124-261.3 193.2l-228.4 131.8-32.7 18.9-318.3-183.8 213.7-123.4c74.3-44.1 134.9-85.1 181.7-131.8 46.4-47.2 78.1-99.7 94.3-168.2l20.4-95.7z"/>
					</g>
				</g>
			</g>
			<g id="&lt;Group&gt;">
				<path id="&lt;Path&gt;" class="s12" d="m1157.1 808.6l-348.7 201.3-125.8-72.6v-16.3l474.5-128.6z"/>
				<path id="&lt;Path&gt;" class="s13" d="m1157.1 792.4l-348.7 201.3-125.8-72.7 348.7-201.3z"/>
				<g id="&lt;Group&gt;">
					<path id="&lt;Path&gt;" class="s14" d="m1004.9 743.5l19.2 11 19.2-11-19.2-11.1z"/>
					<path id="&lt;Path&gt;" class="s14" d="m983.3 755.9l19.3 11.1 19.2-11.1-19.2-11.1z"/>
					<path id="&lt;Path&gt;" class="s14" d="m961.8 768.3l19.2 11.1 19.2-11.1-19.2-11.1z"/>
					<path id="&lt;Path&gt;" class="s14" d="m940.2 780.7l19.3 11.1 19.2-11.1-19.2-11.1z"/>
					<path id="&lt;Path&gt;" class="s14" d="m918.7 793.1l19.2 11.1 19.2-11.1-19.2-11.1z"/>
					<path id="&lt;Path&gt;" class="s14" d="m811 855l19.3 11.3 21.3-12.3 19.4-11.3 2.3-1.4 19-10.9 2.3-1.4 19.4-10.9 21.7-12.8-19.4-10.8-21.7 12.3-18.9 11.3-2.4 1-19.3 11.3-2.4 1.4-18.9 10.9-2.4 1.4z"/>
					<path id="&lt;Path&gt;" class="s14" d="m789.4 867.5l19.2 11.1 19.2-11.1-19.2-11.1z"/>
					<path id="&lt;Path&gt;" class="s14" d="m767.8 879.9l19.3 11.1 19.2-11.1-19.2-11.1z"/>
					<path id="&lt;Path&gt;" class="s14" d="m746.3 892.3l19.2 11.1 19.2-11.1-19.2-11.1z"/>
					<path id="&lt;Path&gt;" class="s14" d="m724.7 904.7l19.3 11.1 19.2-11.1-19.2-11.1z"/>
					<path id="&lt;Path&gt;" class="s14" d="m703.2 917.2l19.2 11 19.2-11-19.2-11.1z"/>
				</g>
				<g id="&lt;Group&gt;">
					<path id="&lt;Path&gt;" class="s14" d="m1075.5 781.2l19.2 11.1 19.3-11.1-19.3-11.1z"/>
					<path id="&lt;Path&gt;" class="s14" d="m1054 793.6l19.2 11.1 19.2-11.1-19.2-11.1z"/>
					<path id="&lt;Path&gt;" class="s14" d="m1032.4 806l19.2 11.1 19.3-11.1-19.3-11.1z"/>
					<path id="&lt;Path&gt;" class="s14" d="m1010.9 818.4l19.2 11.1 19.2-11.1-19.2-11.1z"/>
					<path id="&lt;Path&gt;" class="s14" d="m989.3 830.8l19.2 11.1 19.3-11.1-19.3-11.1z"/>
					<path id="&lt;Path&gt;" class="s14" d="m967.8 843.2l19.2 11.1 19.2-11.1-19.2-11.1z"/>
					<path id="&lt;Path&gt;" class="s14" d="m946.2 855.6l19.2 11.1 19.2-11.1-19.2-11.1z"/>
					<path id="&lt;Path&gt;" class="s14" d="m924.7 868l19.2 11.1 19.2-11.1-19.2-11.1z"/>
					<path id="&lt;Path&gt;" class="s14" d="m903.1 880.4l19.2 11.1 19.3-11.1-19.3-11.1z"/>
					<path id="&lt;Path&gt;" class="s14" d="m881.6 892.9l19.2 11 19.2-11-19.2-11.1z"/>
					<path id="&lt;Path&gt;" class="s14" d="m860 905.3l19.2 11 19.3-11-19.3-11.1z"/>
					<path id="&lt;Path&gt;" class="s14" d="m838.5 917.7l19.2 11.1 19.2-11.1-19.2-11.1z"/>
					<path id="&lt;Path&gt;" class="s14" d="m816.9 930.1l19.2 11.1 19.3-11.1-19.3-11.1z"/>
					<path id="&lt;Path&gt;" class="s14" d="m795.4 942.5l19.2 11.1 19.2-11.1-19.2-11.1z"/>
					<path id="&lt;Path&gt;" class="s14" d="m773.8 954.9l19.2 11.1 19.3-11.1-19.3-11.1z"/>
				</g>
				<g id="&lt;Group&gt;">
					<path id="&lt;Path&gt;" class="s14" d="m1051.6 768.8l19.3 11.1 19.2-11.1-19.2-11.1z"/>
					<path id="&lt;Path&gt;" class="s14" d="m1030.1 781.2l19.2 11.1 19.2-11.1-19.2-11.1z"/>
					<path id="&lt;Path&gt;" class="s14" d="m1008.5 793.6l19.3 11.1 19.2-11.1-19.2-11.1z"/>
					<path id="&lt;Path&gt;" class="s14" d="m987 806l19.2 11.1 19.2-11.1-19.2-11.1z"/>
					<path id="&lt;Path&gt;" class="s14" d="m965.4 818.4l19.2 11.1 19.3-11.1-19.2-11.1z"/>
					<path id="&lt;Path&gt;" class="s14" d="m943.9 830.8l19.2 11.1 19.2-11.1-19.2-11.1z"/>
					<path id="&lt;Path&gt;" class="s14" d="m922.3 843.2l19.3 11.1 19.2-11.1-19.2-11.1z"/>
					<path id="&lt;Path&gt;" class="s14" d="m900.8 855.6l19.2 11.1 19.2-11.1-19.2-11.1z"/>
					<path id="&lt;Path&gt;" class="s14" d="m879.2 868l19.3 11.1 19.2-11.1-19.2-11.1z"/>
					<path id="&lt;Path&gt;" class="s14" d="m857.7 880.4l19.2 11.1 19.2-11.1-19.2-11.1z"/>
					<path id="&lt;Path&gt;" class="s14" d="m836.1 892.9l19.3 11 19.2-11-19.2-11.1z"/>
					<path id="&lt;Path&gt;" class="s14" d="m814.6 905.3l19.2 11 19.2-11-19.2-11.1z"/>
					<path id="&lt;Path&gt;" class="s14" d="m793 917.7l19.3 11.1 19.2-11.1-19.2-11.1z"/>
					<path id="&lt;Path&gt;" class="s14" d="m771.5 930.1l19.2 11.1 19.2-11.1-19.2-11.1z"/>
					<path id="&lt;Path&gt;" class="s14" d="m749.9 942.5l19.3 11.1 19.2-11.1-19.2-11.1z"/>
				</g>
				<g id="&lt;Group&gt;">
					<path id="&lt;Path&gt;" class="s14" d="m1027.8 756.4l19.2 11.1 19.2-11.1-19.2-11.1z"/>
					<path id="&lt;Path&gt;" class="s14" d="m1006.2 768.8l19.2 11.1 19.2-11.1-19.2-11.1z"/>
					<path id="&lt;Path&gt;" class="s14" d="m984.6 781.2l19.3 11.1 19.2-11.1-19.2-11.1z"/>
					<path id="&lt;Path&gt;" class="s14" d="m963.1 793.6l19.2 11.1 19.2-11.1-19.2-11.1z"/>
					<path id="&lt;Path&gt;" class="s14" d="m941.6 806l19.2 11.1 19.2-11.1-19.2-11.1z"/>
					<path id="&lt;Path&gt;" class="s14" d="m920 818.4l19.2 11.1 19.2-11.1-19.2-11.1z"/>
					<path id="&lt;Path&gt;" class="s14" d="m898.5 830.8l19.2 11.1 19.2-11.1-19.2-11.1z"/>
					<path id="&lt;Path&gt;" class="s14" d="m876.9 843.2l19.2 11.1 19.2-11.1-19.2-11.1z"/>
					<path id="&lt;Path&gt;" class="s14" d="m855.4 855.6l19.2 11.1 19.2-11.1-19.2-11.1z"/>
					<path id="&lt;Path&gt;" class="s14" d="m833.8 868l19.2 11.1 19.2-11.1-19.2-11.1z"/>
					<path id="&lt;Path&gt;" class="s14" d="m812.3 880.4l19.2 11.1 19.2-11.1-19.2-11.1z"/>
					<path id="&lt;Path&gt;" class="s14" d="m790.7 892.9l19.2 11 19.2-11-19.2-11.1z"/>
					<path id="&lt;Path&gt;" class="s14" d="m769.2 905.3l19.2 11 19.2-11-19.2-11.1z"/>
					<path id="&lt;Path&gt;" class="s14" d="m747.6 917.7l19.2 11.1 19.2-11.1-19.2-11.1z"/>
					<path id="&lt;Path&gt;" class="s14" d="m726.1 930.1l19.2 11.1 19.2-11.1-19.2-11.1z"/>
				</g>
				<g id="&lt;Group&gt;">
					<path id="&lt;Path&gt;" class="s14" d="m1098.1 794.3l19.2 11.1 19.2-11.1-19.2-11.1z"/>
					<path id="&lt;Path&gt;" class="s14" d="m1076.5 806.7l19.2 11.1 19.2-11.1-19.2-11.1z"/>
					<path id="&lt;Path&gt;" class="s14" d="m1054.9 819.1l19.3 11.1 19.2-11.1-19.2-11.1z"/>
					<path id="&lt;Path&gt;" class="s14" d="m1033.4 831.5l19.2 11.1 19.2-11.1-19.2-11.1z"/>
					<path id="&lt;Path&gt;" class="s14" d="m1011.9 843.9l19.2 11.1 19.2-11.1-19.2-11.1z"/>
					<path id="&lt;Path&gt;" class="s14" d="m990.3 856.3l19.2 11.1 19.2-11.1-19.2-11.1z"/>
					<path id="&lt;Path&gt;" class="s14" d="m968.8 868.7l19.2 11.1 19.2-11.1-19.2-11.1z"/>
					<path id="&lt;Path&gt;" class="s14" d="m947.2 881.1l19.2 11.1 19.2-11.1-19.2-11.1z"/>
					<path id="&lt;Path&gt;" class="s14" d="m925.7 893.5l19.2 11.1 19.2-11.1-19.2-11.1z"/>
					<path id="&lt;Path&gt;" class="s14" d="m904.1 905.9l19.2 11.1 19.2-11.1-19.2-11.1z"/>
					<path id="&lt;Path&gt;" class="s14" d="m882.6 918.3l19.2 11.1 19.2-11.1-19.2-11.1z"/>
					<path id="&lt;Path&gt;" class="s14" d="m861 930.7l19.2 11.1 19.2-11.1-19.2-11.1z"/>
					<path id="&lt;Path&gt;" class="s14" d="m839.5 943.2l19.2 11 19.2-11-19.2-11.1z"/>
					<path id="&lt;Path&gt;" class="s14" d="m817.9 955.6l19.2 11.1 19.2-11.1-19.2-11.1z"/>
					<path id="&lt;Path&gt;" class="s14" d="m796.4 968l19.2 11.1 19.2-11.1-19.2-11.1z"/>
				</g>
			</g>
			<path id="&lt;Compound Path&gt;" fill-rule="evenodd" class="s5" d="m874.7 879.8c-3.4 0.4-15.8-6-25.7-11.7 2.1 1.6 4.2 2.9 6.7 4.6 13.3 9.1 18.8 16.2 16.7 18.3-1.8 2-7.3 0-17.4-6.2-8.9-5.5-23.4-16.3-27-18.8 1.6 1.4 5.7 5.3 13.5 11.9 10.5 9 20.6 15.8 17.2 18.4-3.5 2.3-6.2-1-16.1-6.7-8.9-5.5-24.7-16-27.2-17.4l7.3 7.3c7.8 7.8 17 17.6 12.8 20-4.3 2.5-18.1-12.6-27.4-16.5-9.7-3.7-29.4-3.7-34.4-13.5-4.8-9-14-9-14.9-9 0.9-5 3.2-14.7 9-18.3 7.9-4.8 12.5-7.1 12.5-7.1 0 0 13.6 3.2 29.3 7.6 14.3 3.6 27.6 7.5 30.8 8.4 8.9 5.5 15.3 9.2 29.7 17 14.2 7.5 10.8 11 4.6 11.7zm-34.1-16.8c-2.1-1.4-3.7-2.2-4.4-2.5 1 0.5 2.3 1.4 4.4 2.5z"/>
			<path id="&lt;Path&gt;" class="s15" d="m937.7 768c0 0-2.6 0.1-7.6 5.1-5 5-9.7 16.3-9.7 16.3 0 0-41.7-7.5-60.4-11.8-18.8-4.2-31.2-15.7-35.1-32.9-3.9-17.2-13-48.1-13-48.1 9.4-70-6.2-149-6.2-149h0.1c8 2 14.7 5.3 21.3 10.1 16.4 11.8 31.4 128.1 33.8 143.1 2.4 15.1 13.6 23.3 25.4 30.5 11.8 7.1 51.4 36.7 51.4 36.7z"/>
			<g id="&lt;Group&gt;">
				<path id="&lt;Path&gt;" class="s16" d="m1170.7 951.8h0.1v-8.8h-6.3c-0.3-0.2-0.5-0.5-0.8-0.7l-26.4-15.2c-9.6-5.6-25.1-5.6-34.7 0l-99.9 57.7c-0.3 0.2-0.5 0.4-0.8 0.7h-6.3v9.3 0.3h0.1c0.2 3.5 2.4 7 7 9.7l26.4 15.2c9.6 5.5 25.1 5.5 34.7 0l99.9-57.7c4.9-2.9 7.2-6.7 7-10.5z"/>
				<path id="&lt;Path&gt;" class="s17" d="m1163.7 933c9.5 5.5 9.5 14.5 0 20l-99.9 57.7c-9.6 5.5-25.1 5.5-34.7 0l-26.4-15.2c-9.5-5.6-9.5-14.5 0-20.1l99.9-57.6c9.6-5.6 25.1-5.6 34.7 0z"/>
				<path id="&lt;Path&gt;" class="s16" d="m1111.7 960.9l-36 20.7v-91.5l36-20.8z"/>
				<path id="&lt;Path&gt;" class="s18" d="m1051.2 876v91.5l24.5 14.1v-91.5z"/>
				<path id="&lt;Path&gt;" class="s17" d="m1244.4 601.5c-7.4-7.5-17.1-6.7-17.1-6.7l0.1 0.2c-2.7 0-5.7 0.6-8.9 2.5l-309.5 178.7c-11 6.3-19.9 21.7-19.9 34.3v191.7c0 6.1 2.1 10.2 5.4 12.4v0.2c0 0 12.6 9.4 21.1 4.9 3.5-1.8 0.5-4.7-4.2-7.5l307.1-177.2c11-6.4 19.8-21.7 19.8-34.4v-191.7c0-1.3-0.5-2.3-0.6-3.4 5.4 0.6 11.2 0.4 6.7-4z"/>
				<path id="&lt;Path&gt;" class="s19" d="m1248.8 804.9c0 12.7-8.8 28-19.8 34.3l-309.5 178.7c-10.9 6.4-19.9 1.3-19.9-11.4v-191.7c0-12.6 9-28 19.9-34.3l309.5-178.7c11-6.4 19.8-1.2 19.8 11.4z"/>
				<path id="&lt;Path&gt;" class="s16" d="m1226.8 705.8c0 2.5-1.7 5.4-3.8 6.6l-65.5 37.9c-2.1 1.2-3.9 0.2-3.9-2.2 0-2.5 1.8-5.4 3.9-6.6l65.5-37.9c2.1-1.2 3.8-0.2 3.8 2.2z"/>
				<path id="&lt;Path&gt;" class="s16" d="m1226.8 720.2c0 2.4-1.7 5.3-3.8 6.5l-65.5 37.9c-2.1 1.2-3.9 0.2-3.9-2.2 0-2.5 1.8-5.4 3.9-6.6l65.5-37.8c2.1-1.3 3.8-0.3 3.8 2.2z"/>
				<path id="&lt;Path&gt;" class="s16" d="m1226.8 734.5c0 2.4-1.7 5.4-3.8 6.6l-65.5 37.8c-2.1 1.2-3.9 0.2-3.9-2.2 0-2.5 1.8-5.4 3.9-6.6l65.5-37.9c2.1-1.2 3.8-0.2 3.8 2.3z"/>
				<path id="&lt;Path&gt;" class="s16" d="m1226.8 748.8c0 2.4-1.7 5.3-3.8 6.6l-65.5 37.8c-2.1 1.2-3.9 0.2-3.9-2.2 0-2.4 1.8-5.4 3.9-6.6l65.5-37.8c2.1-1.2 3.8-0.3 3.8 2.2z"/>
			</g>
			<path id="&lt;Path&gt;" class="s20" d="m780.2 835.2c0 0-4.5 2.1-12.4 7-8 5.1-9.3 21.6-9.3 21.6 0 0-8.9-4.1-37-4.1-28.1 0-65.7-9-71.7-32.2-5.9-23.1-32.9-105.2-37.2-154.8-2.1-25.5 7.3-46.5 16.9-60.8 15.8 5.8 35.7 21.9 41.5 65.1 10 74.3 12.4 128.7 44.2 139.2 31.7 10.4 65 19 65 19z"/>
		</g>
		<g id="&lt;Group&gt;">
			<g id="&lt;Group&gt;">
				<path id="&lt;Path&gt;" class="s21" d="m1170.9 270l66.9 38.7-66.9-6.7-63.7 36.8-66.9-38.7 63.7-36.7z"/>
				<path id="&lt;Path&gt;" class="s22" d="m1230.9 306.5l-60.2-6.1h-0.2l-63.2 36.6-63.9-36.9 60.9-35.2 66.4 6.7z"/>
				<path id="&lt;Path&gt;" class="s2" d="m1170.7 271.6v28.8h-0.2l-63.2 36.6-63.9-36.9 60.9-35.2z"/>
				<path id="&lt;Path&gt;" class="s23" d="m1098.2 260.4v174.1l114.6-66.2v-174.1z"/>
				<g id="&lt;Group&gt;">
					<path id="&lt;Path&gt;" class="s3" d="m1107.2 592.4l-66.9-38.6v-253.7l66.9 38.7z"/>
					<path id="&lt;Path&gt;" class="s24" d="m1096.1 365.8l-44.6-25.8v-9.6l44.6 25.7z"/>
					<path id="&lt;Path&gt;" class="s24" d="m1096.1 381.5l-44.6-25.8v-9.6l44.6 25.7z"/>
					<path id="&lt;Path&gt;" class="s24" d="m1096.1 397.2l-44.6-25.8v-9.6l44.6 25.7z"/>
					<path id="&lt;Path&gt;" class="s24" d="m1096.1 412.9l-44.6-25.8v-9.6l44.6 25.7z"/>
					<path id="&lt;Path&gt;" class="s24" d="m1090 561.9l-32.4-18.7v-9.7l32.4 18.8z"/>
					<path id="&lt;Path&gt;" class="s24" d="m1096.1 528.7l-44.6-25.8v-88.7l44.6 25.8z"/>
				</g>
				<path id="&lt;Path&gt;" class="s2" d="m1237.8 517v-208.3l-66.9-6.7-63.7 36.8v253.6l66.9-38.6z"/>
				<g id="&lt;Group&gt;" style="opacity: .4">
					<path id="&lt;Compound Path&gt;" fill-rule="evenodd" class="s24" d="m1129.1 554.5v-203.1l46.6-26.9 40.2 4v175.9zm1.9-202v198.7l82.9-47.9v-173.1l-37.8-3.7z"/>
				</g>
				<path id="&lt;Path&gt;" class="s11" d="m1098.2 333.6v-73.2l-32.3-18.7v73.2z"/>
				<path id="&lt;Path&gt;" class="s24" d="m1212.8 194.2l-114.6 66.2-32.3-18.7 114.6-66.1z"/>
				<path id="&lt;Path&gt;" class="s21" d="m1064.5 312.3l42.8 24.7 63.4-36.6 42.1 4.3 7.7 2.3-49.6-5-63.7 36.8-53.4-30.9z"/>
			</g>
			<g id="&lt;Group&gt;">
				<path id="&lt;Path&gt;" class="s21" d="m1247.7 314.8l66.9 38.6-66.9-6.6-63.6 36.7-66.9-38.6 63.6-36.8z"/>
				<path id="&lt;Path&gt;" class="s3" d="m1307.7 351.2l-60.2-6h-0.2l-63.2 36.5-63.9-36.8 60.9-35.2 66.4 6.6z"/>
				<path id="&lt;Path&gt;" class="s2" d="m1247.5 316.3v28.9h-0.2l-63.2 36.5-63.9-36.8 60.9-35.2z"/>
				<path id="&lt;Path&gt;" class="s23" d="m1175.1 305.1v174.2l114.6-66.2v-174.1z"/>
				<g id="&lt;Group&gt;">
					<path id="&lt;Path&gt;" class="s3" d="m1184.1 637.1l-66.9-38.6v-253.6l66.9 38.6z"/>
					<path id="&lt;Path&gt;" class="s24" d="m1172.9 410.5l-44.6-25.7v-9.7l44.6 25.8z"/>
					<path id="&lt;Path&gt;" class="s24" d="m1172.9 426.2l-44.6-25.7v-9.7l44.6 25.8z"/>
					<path id="&lt;Path&gt;" class="s24" d="m1172.9 441.9l-44.6-25.7v-9.7l44.6 25.8z"/>
					<path id="&lt;Path&gt;" class="s24" d="m1172.9 457.6l-44.6-25.7v-9.7l44.6 25.7z"/>
					<path id="&lt;Path&gt;" class="s24" d="m1166.8 606.7l-32.4-18.8v-9.6l32.4 18.7z"/>
					<path id="&lt;Path&gt;" class="s24" d="m1172.9 573.4l-44.6-25.8v-88.6l44.6 25.7z"/>
				</g>
				<path id="&lt;Path&gt;" class="s2" d="m1314.6 561.8v-208.4l-66.9-6.7v0.1l-63.6 36.7v253.6l66.9-38.6z"/>
				<g id="&lt;Group&gt;" style="opacity: .4">
					<path id="&lt;Compound Path&gt;" fill-rule="evenodd" class="s24" d="m1206 599.2v-203.1l46.6-26.9 40.1 4v175.9zm1.9-201.9v198.6l82.9-47.9v-173l-37.8-3.8z"/>
				</g>
				<path id="&lt;Path&gt;" class="s11" d="m1175.1 378.3v-73.2l-32.4-18.6v73.1z"/>
				<path id="&lt;Path&gt;" class="s24" d="m1289.7 239l-114.6 66.1-32.4-18.6 114.6-66.2z"/>
			</g>
			<g id="&lt;Group&gt;">
				<path id="&lt;Path&gt;" class="s21" d="m1321.5 357.5l66.9 38.6-66.9-6.6-63.6 36.7-66.9-38.6 63.6-36.7z"/>
				<path id="&lt;Path&gt;" class="s3" d="m1381.5 393.9l-60.2-6h-0.2l-63.2 36.6-63.9-36.9 60.9-35.2 66.4 6.6z"/>
				<path id="&lt;Path&gt;" class="s2" d="m1321.3 359v28.9h-0.2l-63.2 36.6-63.9-36.9 60.9-35.2z"/>
				<path id="&lt;Path&gt;" class="s23" d="m1248.8 347.9v174.1l114.7-66.2v-174.1z"/>
				<g id="&lt;Group&gt;">
					<path id="&lt;Path&gt;" class="s3" d="m1257.9 679.9l-66.9-38.7v-253.6l66.9 38.6z"/>
					<path id="&lt;Path&gt;" class="s24" d="m1246.7 453.3l-44.6-25.8v-9.6l44.6 25.7z"/>
					<path id="&lt;Path&gt;" class="s24" d="m1246.7 469l-44.6-25.8v-9.6l44.6 25.7z"/>
					<path id="&lt;Path&gt;" class="s24" d="m1246.7 484.7l-44.6-25.8v-9.6l44.6 25.7z"/>
					<path id="&lt;Path&gt;" class="s24" d="m1246.7 500.3l-44.6-25.7v-9.7l44.6 25.8z"/>
					<path id="&lt;Path&gt;" class="s24" d="m1240.6 649.4l-32.4-18.7v-9.7l32.4 18.8z"/>
					<path id="&lt;Path&gt;" class="s24" d="m1246.7 616.1l-44.6-25.7v-88.7l44.6 25.8z"/>
				</g>
				<path id="&lt;Path&gt;" class="s2" d="m1388.4 604.5v-208.4l-66.9-6.6-63.6 36.7v253.7l66.9-38.7z"/>
				<g id="&lt;Group&gt;" style="opacity: .4">
					<path id="&lt;Compound Path&gt;" fill-rule="evenodd" class="s24" d="m1279.8 641.9v-203l46.6-26.9 40.1 4v175.9zm1.9-202v198.7l82.9-47.9v-173.1l-37.8-3.7z"/>
				</g>
				<path id="&lt;Path&gt;" class="s11" d="m1248.8 421.1v-73.2l-32.3-18.7v73.2z"/>
				<path id="&lt;Path&gt;" class="s24" d="m1363.5 281.7l-114.7 66.2-32.3-18.7 114.6-66.2z"/>
			</g>
			<path id="&lt;Path&gt;" class="s21" d="m1141.3 357l42.8 24.7 63.4-36.5 42.2 4.2 7.7 2.3-49.7-4.9-63.6 36.7-53.5-30.9z"/>
		</g>
		<g id="&lt;Group&gt;">
			<g id="&lt;Group&gt;">
				<path id="&lt;Path&gt;" class="s25" d="m1192.6 638.9c0 0-21.4-4.8-28.2-5.8-6.9-1-9.6 1.1-6.3 5.8 3.3 4.7 6.3 4.7 6.3 4.7 0 0-3.2 7.1 3.4 10.5 6.5 3.4 18.8 4.1 27.8 7.7 8.9 3.5 8.9 3.5 8.9 3.5 0 0-9.6-2.6-19.3-3.3-9.6-0.7-6.9-0.2-6.9-0.2 0 0-3.7 7.3 10 9.5 13.8 2.1 22 3.1 30.5 11.6 8.6 8.5 22.3 20.3 35 22.5 12.6 2.2 16.4 4.3 16.4 4.3l3.6-11.5c0 0-28.2-35-36.4-42.2-8.1-7.1-31-14.1-44.8-17.1z"/>
			</g>
			<path id="&lt;Path&gt;" class="s26" d="m1414.8 1333.2c0 0-0.6 9.1-9.8 4.9-9.2-4.1-29.6-2.9-45.9 2.5-16.2 5.5-24.6 19.5 4.2 35.4 28.8 15.9 54.1 14.4 73 25.7 19 11.4 32.6 1.9 30.3-12.1-2.3-14-9.5-55.1-51.8-56.4z"/>
			<path id="&lt;Path&gt;" class="s27" d="m1318 949.7c0 0 2.2 77.2 23.8 163.5 21.6 86.3 56.8 199.8 61.3 223.7 4.5 23.8 0 24.9 0 24.9 0 0 11.9 29.6 31.2 15.9 19.3-13.6 20.5-23.8 20.5-23.8 0 0-9.7-94.8-9.7-105 0-10.2 0-10.2 0-10.2 0 0-19.3-164.9-19.3-206.5 0-41.6 0-41.6 0-41.6 0 0-12.5-35.7-12.5-63 0-45.6 1.2-27.1 1.2-27.1z"/>
			<path id="&lt;Path&gt;" class="s28" d="m1130.1 833.7c0 0-10-9.3-7.1-23.1 2.8-13.8-4.5-43.7-4.5-43.7 0 0 1.4 8.4-0.1-1-1.6-9.3-6.4-15.6-11-8.2-4.5 7.4 3.5 30.3-6.4 29.6-9.8-0.8-26.4-36.2-26.4-36.2 0 0 2.4 3.1-0.8-1.4-3.3-4.5-8-1.5-8-1.5 0 0 0 5.9 0.7 7.7 0.6 1.6-3 3.4-3 6.9 0 3.5 1.8 21.3 6.9 38.3 5.1 17 15.5 25.6 25.3 37.5 9.8 12 18.6 23.3 18.6 23.3z"/>
			<path id="&lt;Path&gt;" class="s28" d="m1288.7 685.2c0 0-20-15.7-46.5-29.7-26.5-14-30.9-14.4-47.7-21.8-16.9-7.4-29-10.4-30.1-6.4-1.1 3.9 31.8 14 31.8 14 0 0 10.1 3.2 19 6.9 9 3.7 18.3 6.3 18.3 6.3 0 0-21.6-5.9-27.4-7.4-5.8-1.4-8.1-3.7-9.4-0.5-1.3 3.1 4.4 13.7 15.9 16.7 11.5 3 21.3 6.5 23.3 14.2 2 7.7 17.4 22.8 44.9 27.4 27.4 4.5 7.9-19.7 7.9-19.7z"/>
			<path id="&lt;Path&gt;" class="s29" d="m1313.5 695.4l-32.9-15.3c0 0-10.6 13.8-14.6 25.1-4 11.4-4 11.4-4 11.4l23.5 11.3z"/>
			<path id="&lt;Path&gt;" class="s26" d="m1327.3 1428.6c0 0-19.5-18-38.6-18-19.1 0-31 26.5-9.3 48.3 21.8 21.8 42.6 25 65.3 36.3 22.7 11.4 51.1-2.9 44.9-23.5-6.2-20.6-5.7-31.8-5.7-31.8z"/>
			<path id="&lt;Path&gt;" class="s30" d="m1243.7 1018.4c0 0 2.3 77.2 23.8 163.5 21.6 86.3 56.8 199.8 61.3 223.6 4.6 23.9-7.1 17.9-7.1 17.9 0 0 16.1 32.9 39.8 32.9 21.8 0 24.9-8.7 24.9-8.7 0 0-15.6-119.8-15.6-130 0-10.3 0-10.3 0-10.3 0 0-19.3-164.8-19.3-206.4 0-41.6 0-41.6 0-41.6 0 0 34.9-31.1 34.9-60.6 0-29.5 0-29.5 0-29.5z"/>
			<path id="&lt;Path&gt;" class="s31" d="m1300.4 624.1c0 0 13.4 12 15.7 35.5 2.2 23.6-9.6 35.2-9.6 35.2 0 0 26.1 14.4 62.1-4.5 35.9-18.9 24.6-44.3 24.6-44.3 0 0-8.4-21.6-5.3-34.1 3-12.4 3-12.4 3-12.4z"/>
			<path id="&lt;Path&gt;" class="s28" d="m1266 530.2c0 0-6.2 14.8-1.3 28.6 4.9 13.8-1.7 26.7 4.5 42.4 6.3 15.6 14.5 29.5 28.1 29.5 13.7 0 30-29.3 30-29.3z"/>
			<path id="&lt;Path&gt;" class="s27" d="m1327.7 458.7c0 0-55.6-7.2-71.1 22.7-15.6 29.9 9.4 54.9 18.5 71.9 9.1 17 1.5 35.9 4.2 43.1 2.6 7.2 6 6.8 6 6.8 0 0 5.7-18.5 13.6-3.7 8 14.7 15.2 31.4 28.8 38.9 13.6 7.6 64.1 26.3 89.1-51.4 25-77.8-14.2-135.1-89.1-128.3z"/>
			<path id="&lt;Path&gt;" class="s32" d="m1300.4 694.8c0 0-61.3 31.8-78.3 85.2-17 53.3-32.2 105.2-40.9 102.5-8.7-2.6-52.6-52.9-52.6-52.9 0 0-20.8 14.3-20.8 26.4 0 12.2-4.5 11.4-4.5 11.4 0 0 43.3 63.8 62.8 83.2 19.5 19.5 44.7 26.2 57.5 6.5 12.9-19.7 28.4-54.1 28.4-54.1 0 0 0.8 36.4-6 66-6.9 29.5-6.5 95-6.5 95 0 0 75.7 28.3 125.1 2.8 49.4-25.6 72.1-62.7 72.1-62.7 0 0-32.9-128.7-8-180.2 25-51.5 37.5-100.7 28.4-137-9.1-36.4-40.3-49.3-71.5-37.1-31.2 12.1-58.9 29.4-85.2 45z"/>
			<path id="&lt;Path&gt;" class="s33" d="m1295.4 697.7c0 0 22.4-33.8 58.9-46.4 36.5-12.6 46.5-15.4 51.6-6 0 0-67.9 26.1-110.5 52.4z"/>
		</g>
		<g id="&lt;Group&gt;">
			<path id="&lt;Path&gt;" class="s34" d="m1697.2 840.6c25.7 78 29.5 211.5 23.5 236.2-5.9 24.6-46.6 49.4-46.6 49.4l-39.2-96.6z"/>
			<path id="&lt;Path&gt;" class="s35" d="m1667.7 1545.8c0 0-19.6-13.7-41.6-8.2-21.9 5.6-30.5 20.1-11.9 38.6 18.5 18.6 34.8 13.8 50.1 23.2 15.4 9.4 25.5 17.2 37.5 11.6 12-5.6 8.7-32.6 6.7-44-1.9-11.5-40.8-21.2-40.8-21.2z"/>
			<path id="&lt;Path&gt;" class="s36" d="m1607.1 1185.4c0 0-3 35.9 6.7 120.6 9.8 84.6 35.2 155 40.5 194 5.2 38.9 8.2 59.6 8.2 59.6 0 0 3 15 18.5 15 15.5 0 19.9-3.2 19.9-3.2 0 0 10.3-89.4 5.8-181.5-4.4-92.1-11.2-210.5-11.2-210.5z"/>
			<path id="&lt;Path&gt;" class="s35" d="m1582 1595.2c0 0-11.8 3.5-28.7-3-17-6.5-34.2-11.5-42.7 5.7-8.5 17.3-4.2 25.2 23.2 42.7 27.4 17.5 64.2 33.5 76.9 28.2 12.7-5.2 10-11 8.7-22-1.3-10.9-3.6-38.6-3.6-38.6z"/>
			<path id="&lt;Path&gt;" class="s37" d="m1521.8 1223.7c0 0-3 36 6.8 120.6 9.7 84.6 35.1 155 40.4 194 5.2 38.9 8.2 59.6 8.2 59.6 0 0 3 15 18.5 15 15.5 0 19.9-3.3 19.9-3.3 0 0 10.3-89.3 5.8-181.4-4.5-92.1-11.2-210.5-11.2-210.5z"/>
			<path id="&lt;Path&gt;" class="s38" d="m1457.8 1248c0 0-10.2 39.8-8.5 61.6 1.8 22 1.6 43.9 6.7 43.2 5.1-0.6 5.6-4.7 5.6-4.7 0 0 3 13.4 7.3 14.9 4.3 1.4 5.9-6.8 5.9-6.8 0 0 2.6 8.1 7.3 6.4 4.5-1.7 1.9-12.5 1.9-12.5 0 0 5.9 9.1 8.2 6.9 2.4-2 2.1-13.8-1.3-23.4-3.4-9.5 0.7-17.5 2.7-34.3 2.1-16.7 0.8-26.4-3.7-34.9-4.6-8.5 0.2-25.3 0.2-25.3z"/>
			<path id="&lt;Path&gt;" class="s39" d="m1700.5 965.5c-18.4 98.1-1.6 173.5-1.6 214.1 0 40.2-46.6 54.8-97 71.1-49.9 16.2-87.3-20.1-87.3-20.1 0 0 14.6-137.7 14.6-157.2 0-19.5-1.6-44.4-7.6-19.5-0.5 2.2-1 4.9-1.6 8.7 0 0 0 1.6-0.5 4.8-2.2 15.8-4.9 40.1-7.1 66.7-4.3 20.6-27.6 24.4-54.2 22.2q0-13 1.7-26c1.6-15.7 3.2-32.5 4.3-49.9 0.5-3.2 0.5-5.4 0.5-5.9 3.8-45.5 6-94.3 6-130.7 0-52.5 78.6-87.2 78.6-87.2 0 0 58-25 104.1-36.9 46.6-11.9 66.1 47.7 47.1 145.8z"/>
			<path id="&lt;Path&gt;" class="s38" d="m1557.6 780.9c0 0 13.6 3.7 13.6 19 0 15.2 1.8 40.6-10 48.6-11.7 8-11.7 8-11.7 8 0 0 25.9 16.4 61.9 2.8 45.9-17.5 42.2-39.5 42.2-39.5 0 0-15.8-3.7-18-25.1-2.2-21.5-39.7-38.7-51.6-42.4-12-3.8-30.9 17.9-26.4 28.6z"/>
			<path id="&lt;Path&gt;" class="s40" d="m1519.1 717.9c0 0 3.4 14.9 7 26.9 3.6 11.9 1.3 28.2 9.1 40.3 7.7 11.9 22.8 21.1 31.2 18.6 8.4-2.5 31.8-21.3 31.8-21.3 0 0-76.2-75.8-79.1-64.5z"/>
			<path id="&lt;Path&gt;" class="s35" d="m1606.8 645.6c0 0-43.3-19.9-78.4 24.9-18.1 23-23.4 44.9-7.2 56.9 16.1 11.9 21.7 20.2 21.3 27.3-0.4 7.2-1.4 11.9 1.8 13.6 3.1 1.7 2.1 8.3 4.9 13 2.7 4.6 1.4-9.4 7.2-6.3 5.9 3.1 17.8 29.8 48.4 27.3 30.5-2.6 46.7-13.7 58.2-40.3 11.6-26.5 14.7-40.7 6.4-68.4-8.4-27.6-30.6-44.3-62.6-48z"/>
			<path id="&lt;Path&gt;" class="s39" d="m1464.5 1078.6c-8.3 60.8-9.8 135.2-10.9 153.6-1.1 18.3-1.1 18.3-1.1 18.3 0 0 30.3 14 47.3 7.9 0 0 10.5-87.2 14.1-140.6 3.5-54-49.4-39.2-49.4-39.2z"/>
		</g>
		<g id="&lt;Group&gt;">
			<path id="&lt;Path&gt;" class="s35" d="m2030.8 1821.3c0 0 4.5 21.5-4.5 30.5-8.9 8.9-19.1 4.1-34.3-7.2-15.3-11.4-40.1-22.2-57.7-33.6-17.6-11.4-27.4-20.5-22.2-25.6 5.2-5.2 26.8-16.3 62.2 0 35.5 16.3 56.5 35.9 56.5 35.9z"/>
			<path id="&lt;Path&gt;" class="s41" d="m2145.7 1851.8c0 0 6.9 6.7 11.4 11.2 4.6 4.6-1.3 18-20 26.7-18.7 8.6-32.3 11.8-52.3 17.4-19.9 5.6-25.2 9.5-28.5 3.5-3.3-6.1-6.6-8.7 5.2-20.4 11.7-11.8 14.4-15.7 14.4-15.7z"/>
			<path id="&lt;Path&gt;" class="s42" d="m2061.4 1675.4c0 0-10.1 45-20.6 78.7-10.5 33.7-12.4 49.8-10.3 64.4 2.2 14.5-11.2 13-29.2 3.4-18.1-9.5-53-20.1-52-27.9 1-7.7 19.6-10.2 26.6-8.3 7 1.9 17 4.8 21.5-20.2 4.4-25 7.9-75.8 7.9-75.8 0 0 58.9-26.5 56.1-14.3z"/>
			<path id="&lt;Path&gt;" class="s43" d="m2050.5 1681.2c0 0 6.2 3.9 22.9 42.3 16.7 38.3 22.1 49.2 32.2 65.9 10 16.7 17.6 38.2 25.6 46.1 7.9 8 16 16.3 14.7 17.7-1.4 1.3-4.9 15.1-31.8 21.3-26.9 6.2-41.9 5.8-38.2 0 3.7-5.8 22.3-24.8 17.2-35.1-5-10.3-97.3-131.1-97.3-131.1 0 0 37.6-36.4 54.7-27.1z"/>
			<path id="&lt;Path&gt;" class="s35" d="m2084.8 1407.1c0 0-10.9 82.6-19.2 110-8.2 27.4-11.9 49.1-3.1 85.8 8.8 36.7 3.9 62.8 3.9 70.9 0 8.2 0 8.2 0 8.2 0 0-17.4 2.7-38.4-4.7-20.9-7.3-31.8-38-31.8-38 0 0 0-68.9 0-94.5 0-25.7-10.7-63.4-10.7-63.4l33.8-68.2z"/>
			<path id="&lt;Path&gt;" class="s41" d="m1907.4 1421.4c0 0-6.2 91.5 0 137.3 6.2 45.7 42.7 85.3 61.3 113.2 18.6 27.9 24.8 36.4 24.8 36.4 0 0 25.8 0.2 38.4-12.4 12.6-12.5 22.5-13.9 22.5-13.9 0 0-27.9-38-48.5-64-20.5-26-25.6-61.1-16.8-97.3 8.8-36.2 30.2-89.2 30.2-89.2z"/>
			<g id="&lt;Group&gt;">
				<g id="&lt;Group&gt;">
					<path id="&lt;Path&gt;" class="s44" d="m1960.3 1765.9l-10.2 4 3.1-6.8h8.8z"/>
					<path id="&lt;Path&gt;" class="s44" d="m1731.9 1482.5l-12.4 4.8 11.6 3.3 6.3-3.3z"/>
					<path id="&lt;Path&gt;" class="s44" d="m1805.8 1486.1l-9.5 4.2 10.7 4.2z"/>
					<path id="&lt;Path&gt;" class="s44" d="m1810.2 1486.5l70.1 40.4c3.4 2 6.1 6.7 6.1 10.6v36c0 3.9-2.7 5.5-6.1 3.5l-5.3-3v-33.1c0-2.8-2-6.2-4.4-7.6l-50.7-29.3c-2.4-1.4-4.4-0.2-4.4 2.6v33l-5.3-3c-3.4-2-6.1-6.7-6.1-10.6v-36c0-3.9 2.7-5.5 6.1-3.5z"/>
					<path id="&lt;Path&gt;" class="s44" d="m1723.9 1495.2v118.4c0 11.4 8.1 25.4 18 31.1l206.8 119.4c9.9 5.8 18 1.1 18-10.4v-118.4c0-11.4-8.1-25.3-18-31.1l-206.8-119.4c-9.9-5.7-18-1-18 10.4z"/>
					<path id="&lt;Path&gt;" class="s41" d="m1800.6 1490.8l70.1 40.4c3.3 2 6 6.7 6 10.6v36c0 3.9-2.7 5.4-6 3.5l-5.3-3v-33.1c0-2.8-2-6.2-4.4-7.6l-50.7-29.3c-2.4-1.4-4.4-0.2-4.4 2.6v33l-5.3-3.1c-3.4-1.9-6.1-6.6-6.1-10.5v-36c0-3.9 2.7-5.5 6.1-3.5z"/>
					<path id="&lt;Path&gt;" class="s16" d="m1714.2 1499v118.3c0 11.5 8.1 25.4 18 31.2l206.8 119.4c9.9 5.7 18 1.1 18-10.4v-118.4c0-11.4-8-25.4-18-31.1l-206.8-119.4c-9.9-5.8-18-1.1-18 10.4z"/>
					<path id="&lt;Path&gt;" class="s41" d="m1714.2 1499v61.6c0 11.4 8.1 25.4 18 31.1l206.8 119.4c9.9 5.7 18 1.1 18-10.4v-61.6c0-11.4-8-25.4-18-31.1l-206.8-119.4c-9.9-5.8-18-1.1-18 10.4z"/>
				</g>
			</g>
			<path id="&lt;Path&gt;" class="s45" d="m2090.4 1013c0 0 46.6 34.2 36.7 106-9.8 71.9-24.9 162.4-49.1 176.5-24.2 14-32.1-153.2-32.1-153.2z"/>
			<path id="&lt;Path&gt;" class="s43" d="m1876.4 1448.3c0 0-9.5 38.8-16.8 48.1-7.2 9.3-16.5 16.5-19.1 28.2q-0.1 0.5-0.2 1-0.3 1.2-0.5 2.4c-1.7 0.1-3.6-0.1-5.1-1.2-3.4-2.3-2.6-4.5-2.6-4.5 0 0-3.1 2.8-5.6 1.5-4.1-2.1-3.1-5-3-5.2-0.2 0.1-3.1 2.5-5.1 0.7-2.1-1.8-1.9-4.9-1.9-4.9 0 0-6 1.9-5-5.4 5.9-13.2 14.1-28.3 19.9-37.6 9.1-14.7 17.2-27.5 17.2-27.5z"/>
			<path id="&lt;Path&gt;" class="s43" d="m1966.5 864.5c0 0-11.3 17.6-6.2 33.7 5.1 16.2 2.7 24.8-0.4 36.5-3.2 11.7-1.6 25.5 7.5 37.1 9.1 11.6 27.3 11.4 35.3 2.1 8-9.4-36.2-109.4-36.2-109.4z"/>
			<path id="&lt;Path&gt;" class="s46" d="m1985.5 1038.9c0 0-61 31-70.3 80.1-9.3 49.2-17.8 114.8-31.8 171.4-14 56.6-29.8 119.4-34.1 137.2-4.3 17.9-6.6 22.5-6.6 22.5 0 0 11.2 5.5 22.1 5.5 10.8 0 10.8 0 10.8 0 0 0 22.2-51.6 29.5-75.6 7.4-24.1 34.9-126 34.9-126 0 0 6.2 27.9 2.1 45.9-4.2 18.1-16.2 42.4-28 83.3-11.8 40.8-11.8 40.8-11.8 40.8 0 0 80.4 37 123.8 21.5 43.4-15.5 71.3-43.5 71.3-43.5 0 0 9.3-21.7 0-79-9.3-57.4-26.3-63.6-6.2-110.9 20.2-47.3 45.8-164.4-1.5-197-47.3-32.6-104.2 23.8-104.2 23.8z"/>
			<path id="&lt;Path&gt;" class="s47" d="m2095.4 1002.7c0 0-16.8-14.8-4-31.3 12.8-16.5 34.3-49.7 29.7-86.1-4.6-36.4-27.7-64.7-56.1-70-28.5-5.2-66.6-2.9-81 10.3-14.3 13.2-50.5 41.1-10.3 96.7 35.6 49.3 10.9 76.7 13.7 98.7 2.7 21.9-7.1 12.6-9.5 27-2.5 14.4 10 1.8 22.7 6.8 12.8 5.1 20.3-13.9 28.2-7.8 7.9 6.1 50.1 5.3 48.9-4.3-1.3-9.6 4.7-20.9 13.3-17.7 8.7 3.2 16.9-16.7 4.4-22.3z"/>
			<path id="&lt;Path&gt;" class="s48" d="m1941.6 1262.8l0.2 3.3 0.7 13.2c0 0 58.4 10.2 98.3 0 40-10.2 43.4-14.5 43.4-23.4 0-3.8-0.2-7.3-0.6-10-0.4-3.7-1-6.1-1-6.1 0 0-10.3 19.3-50 23-39.9 3.5-91 0-91 0z"/>
			<path id="&lt;Path&gt;" class="s49" d="m1941.6 1262.8l0.2 3.3c9.1 0.4 31.5 1.1 74 1.1 40.7 0 59.9-13.2 67.8-21.3-0.4-3.7-1-6.1-1-6.1 0 0-10.3 19.3-50 23-39.9 3.5-91 0-91 0z"/>
			<path id="&lt;Compound Path&gt;" fill-rule="evenodd" class="s50" d="m2060.7 1226.7c17.9 10.8-1.3 43.8-1.3 43.8-19.8-9-16.5-54.7 1.3-43.8zm-2.2 31.9c0 0 9.5-15.3 1.1-20.4l-1.2-0.6c-8.4-5.1-9.2 16.7 0.1 21z"/>
			<path id="&lt;Compound Path&gt;" fill-rule="evenodd" class="s50" d="m2021 1245.5c16.9-12.3 39.9 18 39.9 18-15.9 14.8-56.8-5.8-39.9-18zm28.6 14.3c0 0-10.4-14.7-18.4-8.9l-1 0.9c-7.9 5.8 11.9 15 19.4 8z"/>
			<path id="&lt;Path&gt;" class="s50" d="m2055.8 1264.3c0 0-18 36.5-6.8 73.8 11.1 37.2-8.7 54.6-8.7 54.6l13.6 10.9c0 0 14.1-30.9 6.3-57.3-7.8-26.3-9.4-70.9-4.4-82z"/>
			<path id="&lt;Path&gt;" class="s50" d="m2054.7 1267.2c0 0 47.1 36.9 29.5 87.5-17.5 50.7 50.2 52.4 50.2 52.4l3.3-15.9c0 0-45.8 7.7-41.5-32.9 4.3-40.8-7.8-69.2-41.5-91.1z"/>
			<path id="&lt;Path&gt;" class="s49" d="m1940 1254c0 0 52-142.5-13.8-162.3 0 0 28.3 1.5 37.1 42.3 8.8 40.8-13.8 103.7-17.1 110.1-3.3 6.4-1.5 18.9-1.5 18.9l-3.1-0.2z"/>
			<path id="&lt;Path&gt;" class="s43" d="m1843.3 1527.4c0 0-1.6 0.5-3.5 0.6-1.7 0.1-3.6-0.1-5.1-1.2-3.4-2.3-2.6-4.5-2.6-4.5 0 0-3.1 2.8-5.6 1.5-4.1-2.1-3.1-5-3-5.2-0.2 0.1-3.1 2.5-5.1 0.7-2.1-1.8-1.9-4.9-1.9-4.9 0 0-6 1.9-5-5.4l28.8 16.6z"/>
		</g>
		<g id="&lt;Group&gt;">
			<path id="&lt;Path&gt;" class="s51" d="m531.7 346.2c0-66.1-85.8-119.7-191.6-119.7-105.8 0-191.5 53.6-191.5 119.7 0 66.2 85.7 119.8 191.5 119.8 64.5 0 121.5-19.9 156.3-50.5l35.3 91.7v-152.2l-0.6 0.4q0.5-4.6 0.6-9.2z"/>
			<g id="&lt;Group&gt;">
				<path id="&lt;Path&gt;" class="s52" d="m220.3 310.3h232.8v-17.8h-232.8z"/>
			</g>
			<g id="&lt;Group&gt;">
				<path id="&lt;Path&gt;" class="s53" d="m220.3 355.1h232.8v-17.8h-232.8z"/>
			</g>
			<g id="&lt;Group&gt;">
				<path id="&lt;Path&gt;" class="s54" d="m220.3 400h152.7v-17.8h-152.7z"/>
			</g>
		</g>
		<g id="&lt;Group&gt;">
			<g id="&lt;Group&gt;">
				<g id="&lt;Group&gt;">
					<g id="&lt;Group&gt;">
						<path id="&lt;Path&gt;" class="s55" d="m389.8 1504.3v8.5l0.1 196c4.2 0 8.4-1 11.6-2.8l153.2-88.5c3.2-1.8 4.8-4.3 4.8-6.7l24.2-217.2c-0.5 2.3-2.2 4.6-5.4 6.4l-175.2 101.1c-3.7 2.2-8.4 3.2-13.3 3.2z"/>
					</g>
					<g id="&lt;Group&gt;">
						<path id="&lt;Path&gt;" class="s56" d="m196 1393.7c0.5 2.3 2.3 4.5 5.4 6.3l175.1 101.1c3.7 2.2 8.5 3.2 13.3 3.2 4.9 0 9.6-1 13.3-3.2l175.2-101.1c3.2-1.8 4.9-4.1 5.4-6.4l0.1-1.3c0-2.8-1.8-5.5-5.5-7.7l-175.2-101.1c-7.3-4.3-19.2-4.3-26.6 0l-175.1 101.1c-4.3 2.5-6.1 5.9-5.4 9.1z"/>
					</g>
					<g id="&lt;Group&gt;">
						<path id="&lt;Path&gt;" class="s57" d="m220.3 1393.5c0.5 2.1 2 4 4.7 5.5l153.2 88.5c3.2 1.9 7.4 2.8 11.6 2.8 4.3 0 8.4-0.9 11.7-2.8l153.2-88.5c2.7-1.5 4.3-3.5 4.7-5.6l0.1-1.1c0-2.4-1.6-4.9-4.8-6.7l-153.2-88.5c-6.4-3.7-16.9-3.7-23.3 0l-153.2 88.5c-3.8 2.2-5.3 5.1-4.7 7.9z"/>
					</g>
					<g id="&lt;Group&gt;">
						<path id="&lt;Path&gt;" class="s58" d="m195.9 1393.6l24.2 217.2c0 2.4 1.7 4.9 4.9 6.7l153.2 88.5c3.2 1.8 7.4 2.8 11.7 2.8l-0.1-196v-8.5c-4.8 0-9.6-1-13.3-3.2l-175.1-101.1c-3.1-1.8-4.9-4-5.4-6.3z"/>
					</g>
					<g id="&lt;Group&gt;">
						<path id="&lt;Path&gt;" class="s59" d="m389.9 1392.3c0 0-7.3-120.8-122-120.8 0 0 22.1 0 37 0 15 0 31.3-46.8-77.7-46.8 0 0-39.7-2.4 15.8-10.6 55.6-8.1-88.9-94.3-202.7-42.8 0 0-24.4 60.5 63.2 71.3 87.6 10.9-14.4 10.9-36.1 2.3-21.7-8.6-14.9 32.9 27.6 51.5 42.4 18.5 79.8 20.7 100.9 20.7 21 0-8.8 10.4-52.2 5.9-43.3-4.5-59.1-16.3-59.1-16.3 0 0 95.2 87.2 165.7 77.7 70.5-9.5 139.6 7.9 139.6 7.9z"/>
					</g>
					<g id="&lt;Group&gt;">
						<path id="&lt;Path&gt;" class="s60" d="m397.9 1407.9q-0.3 0-0.6-0.3c-0.4-0.5-42.9-52.3-104.9-105.9-57.1-49.4-143.1-110.4-227.8-120.7-0.4 0-0.7-0.4-0.6-0.8 0-0.4 0.4-0.7 0.8-0.6 85.1 10.3 171.3 71.5 228.6 121 62.1 53.7 104.6 105.6 105.1 106.1 0.2 0.3 0.2 0.8-0.1 1q-0.3 0.2-0.5 0.2z"/>
					</g>
					<g id="&lt;Group&gt;">
						<path id="&lt;Path&gt;" class="s60" d="m209.7 1347.3c-13.8 0-28.8-1.1-44.9-3.7-0.4-0.1-0.6-0.5-0.6-0.9 0.1-0.4 0.5-0.6 0.9-0.6 93 15.2 149.3-21.2 149.8-21.5 0.4-0.3 0.8-0.2 1 0.2 0.3 0.3 0.2 0.8-0.2 1-0.4 0.3-39.4 25.5-106 25.5z"/>
					</g>
					<g id="&lt;Group&gt;">
						<path id="&lt;Path&gt;" class="s60" d="m267.8 1281q-0.2 0-0.3 0c-0.4-0.2-0.5-0.7-0.3-1 0.1-0.3 13.1-26.4-8.5-54.1-0.2-0.3-0.1-0.8 0.2-1 0.3-0.3 0.8-0.2 1 0.1 22.2 28.5 8.7 55.4 8.6 55.6-0.2 0.3-0.4 0.4-0.7 0.4z"/>
					</g>
					<g id="&lt;Group&gt;">
						<path id="&lt;Path&gt;" class="s60" d="m141.1 1272.4c-12.1 0-25.2-1.2-39.1-4.2-0.4-0.1-0.6-0.5-0.5-0.9 0-0.4 0.4-0.7 0.8-0.6 72.5 15.6 123.2-17.5 123.7-17.8 0.4-0.2 0.8-0.1 1.1 0.2 0.2 0.3 0.1 0.8-0.3 1-0.4 0.3-34.1 22.3-85.7 22.3z"/>
					</g>
					<g id="&lt;Group&gt;">
						<path id="&lt;Path&gt;" class="s60" d="m162.1 1212.1c-0.4 0-0.7-0.3-0.8-0.7 0-0.4-2.4-34.5-31.5-50.3-0.3-0.2-0.5-0.7-0.3-1 0.2-0.4 0.7-0.5 1-0.3 29.8 16.2 32.3 51.1 32.3 51.5 0 0.4-0.3 0.7-0.7 0.8q0 0 0 0z"/>
					</g>
					<g id="&lt;Group&gt;">
						<path id="&lt;Path&gt;" class="s60" d="m68.7 1204.8c-6.2 0-12.6-0.7-19-2.6-0.4-0.1-0.6-0.5-0.5-0.9 0.1-0.4 0.5-0.6 0.9-0.5 32.2 9.3 63.4-9.7 63.7-9.9 0.4-0.2 0.8-0.1 1 0.3 0.2 0.3 0.1 0.8-0.2 1-0.3 0.1-20.8 12.6-45.9 12.6z"/>
					</g>
					<g id="&lt;Group&gt;">
						<path id="&lt;Path&gt;" class="s61" d="m392.8 1392.4c0 0 40.6-125.3-10.8-217.4 0 0-8.2-10.6-8.2 29.9 0 40.5 6.8-34-46-86.8-52.9-52.8-122-70.5-122-70.5 0 0-35.3 122.9 27.1 157.3 0 0 12.7 17.4-24.4 0-37-17.3 25.5 56.8 87.3 83.9 0 0 11.2 20.3-21.3 5.6-32.5-14.6-7.2 66.2 118.3 98z"/>
					</g>
					<g id="&lt;Group&gt;">
						<path id="&lt;Path&gt;" class="s60" d="m397.9 1414.9c-0.4 0-0.7-0.3-0.7-0.7-0.1-0.5-6.8-50.3-31.9-116.8-23.2-61.3-67.3-149.6-145.6-222.2-0.3-0.3-0.4-0.8-0.1-1.1 0.3-0.3 0.8-0.3 1.1 0 78.5 72.9 122.7 161.4 146 222.8 25.2 66.6 31.9 116.6 31.9 117.1 0.1 0.4-0.2 0.8-0.6 0.9q-0.1 0-0.1 0z"/>
					</g>
					<g id="&lt;Group&gt;">
						<path id="&lt;Path&gt;" class="s60" d="m366.5 1338.6c-13.5 0-37.7-5-72.8-30.3-0.4-0.3-0.4-0.7-0.2-1.1 0.2-0.3 0.7-0.4 1-0.1 55.9 40.4 84.2 28.3 84.5 28.1 0.3-0.1 0.8 0 0.9 0.4 0.2 0.4 0.1 0.8-0.3 1-0.5 0.2-4.8 2-13.1 2z"/>
					</g>
					<g id="&lt;Group&gt;">
						<path id="&lt;Path&gt;" class="s60" d="m356.4 1274.1c-0.3 0-0.6-0.2-0.7-0.5-0.1-0.3 0.1-0.8 0.5-0.9 0.2-0.1 22.3-9.4 22.3-81.8 0-0.4 0.4-0.7 0.8-0.7 0.4 0 0.7 0.3 0.7 0.7 0 73.7-22.4 82.8-23.3 83.2q-0.1 0-0.3 0z"/>
					</g>
					<g id="&lt;Group&gt;">
						<path id="&lt;Path&gt;" class="s60" d="m326.9 1220.7c-15.3 0-70.9-3.1-107.3-47.2-0.3-0.3-0.2-0.7 0.1-1 0.3-0.3 0.8-0.2 1 0.1 41.9 50.6 109.5 46.6 110.1 46.6 0.5 0 0.8 0.3 0.8 0.7 0.1 0.4-0.3 0.7-0.7 0.8-0.1 0-1.5 0-4 0z"/>
					</g>
					<g id="&lt;Group&gt;">
						<path id="&lt;Path&gt;" class="s60" d="m290.9 1156.1q-0.3 0-0.5-0.2c-0.3-0.3-0.3-0.8-0.1-1.1 0.2-0.1 13.2-14.4-0.1-57.4-0.2-0.4 0.1-0.8 0.5-0.9 0.3-0.1 0.8 0.1 0.9 0.5 13.7 43.9 0.4 58.3-0.2 58.9q-0.2 0.2-0.5 0.2z"/>
					</g>
					<g id="&lt;Group&gt;">
						<path id="&lt;Path&gt;" class="s62" d="m402.6 1329.3c0 0-83-102 2.5-221.3 0 0-48.7 65.1-48.7 9.5 0-55.5 66.3-195.1 228.3-201.9 161.9-6.7 82 116.6 11.5 170.8l64.2-13.6c0 0-13.8 185.1-257.8 256.5z"/>
					</g>
					<g id="&lt;Group&gt;">
						<path id="&lt;Path&gt;" class="s60" d="m405.1 1380.3c-0.4 0-0.7-0.3-0.7-0.7-0.1-0.9-7.5-89.8 18.1-187.6 15.1-57.5 38.5-106.8 69.5-146.6 38.9-49.7 89.8-84.5 151.4-103.4 0.4-0.1 0.8 0.1 1 0.5 0.1 0.4-0.1 0.8-0.5 1-139 42.5-196.3 158.8-219.9 248.8-25.6 97.6-18.3 186.3-18.2 187.2 0.1 0.4-0.2 0.7-0.6 0.8q-0.1 0-0.1 0z"/>
					</g>
					<g id="&lt;Group&gt;">
						<path id="&lt;Path&gt;" class="s63" d="m408 1275.9c-0.3 0-0.6-0.3-0.7-0.7-0.1-0.4 0.2-0.7 0.6-0.8 0.9-0.2 92.1-17.4 179.3-122.1 0.3-0.3 0.7-0.3 1-0.1 0.3 0.3 0.4 0.7 0.1 1.1-87.5 105.1-179.2 122.4-180.1 122.5q-0.1 0.1-0.2 0.1z"/>
					</g>
					<g id="&lt;Group&gt;">
						<path id="&lt;Path&gt;" class="s60" d="m420.1 1205.6c-0.3 0-0.6-0.2-0.7-0.5-0.4-1.3-41.6-125.9 0.1-194.1 0.2-0.3 0.6-0.4 1-0.2 0.3 0.2 0.4 0.6 0.2 1-41.3 67.5-0.3 191.5 0.1 192.8 0.1 0.4-0.1 0.8-0.5 0.9q-0.1 0.1-0.2 0.1z"/>
					</g>
					<g id="&lt;Group&gt;">
						<path id="&lt;Path&gt;" class="s60" d="m447.1 1146.6c-6 0-9-0.7-9.2-0.7-0.4-0.1-0.6-0.5-0.5-0.9 0.1-0.4 0.5-0.6 0.9-0.5 0.5 0.1 49.3 10.5 145.3-55.1 0.4-0.3 0.8-0.2 1 0.2 0.3 0.3 0.2 0.8-0.2 1-72.9 49.8-118.8 56-137.3 56z"/>
					</g>
					<g id="&lt;Group&gt;">
						<path id="&lt;Path&gt;" class="s60" d="m491.3 1048.3q0 0 0 0c-0.4-0.1-0.7-0.4-0.7-0.8 0.1-0.8 7.5-78.8 43.5-114.8 0.3-0.2 0.8-0.2 1 0 0.3 0.3 0.3 0.8 0 1.1-35.6 35.6-42.9 113-43 113.8-0.1 0.4-0.4 0.7-0.8 0.7z"/>
					</g>
					<g id="&lt;Group&gt;">
						<path id="&lt;Path&gt;" class="s60" d="m610.8 1002.1c-39 0-55.7-15.7-55.9-15.9-0.3-0.3-0.3-0.7-0.1-1 0.3-0.3 0.8-0.3 1.1 0 0.3 0.2 30.2 28.2 104.3 8.3 0.4-0.1 0.8 0.1 0.9 0.5 0.1 0.4-0.2 0.8-0.6 0.9-19.5 5.3-36 7.2-49.7 7.2z"/>
					</g>
					<g id="&lt;Group&gt;">
						<path id="&lt;Path&gt;" class="s64" d="m399.4 1378.9c0 0 128.7-28 182.4-118.9 0 0 5-12.3-30 8.1-35 20.4 32.8-11.3 51.8-83.6 19.1-72.2-0.5-140.8-0.5-140.8 0 0-124 31.4-122.3 102.7 0 0-8.5 19.6-12.3-21.1-3.7-40.7-36.1 50.6-28.4 117.6 0 0-12 19.9-15.6-15.6-3.8-35.4-60.8 27.1-25.1 151.6z"/>
					</g>
					<g id="&lt;Group&gt;">
						<path id="&lt;Path&gt;" class="s60" d="m389.8 1420.4q-0.1 0-0.3-0.1c-0.3-0.1-0.5-0.6-0.4-0.9 1.1-2.7 110.7-269.2 198.2-330 0.4-0.3 0.8-0.2 1.1 0.2 0.2 0.3 0.1 0.8-0.2 1-87.2 60.6-196.6 326.6-197.7 329.3-0.1 0.3-0.4 0.5-0.7 0.5z"/>
					</g>
					<g id="&lt;Group&gt;">
						<path id="&lt;Path&gt;" class="s63" d="m412.2 1368.9c-0.4 0-0.7-0.2-0.7-0.6-0.1-0.4 0.2-0.8 0.6-0.8 0.5-0.1 58.8-11.5 136.3-65 0.3-0.2 0.8-0.1 1 0.2 0.2 0.4 0.2 0.8-0.2 1-77.8 53.7-136.3 65.1-136.9 65.2q0 0-0.1 0z"/>
					</g>
					<g id="&lt;Group&gt;">
						<path id="&lt;Path&gt;" class="s60" d="m447.3 1295.1c-0.4 0-0.7-0.3-0.7-0.6-0.1-0.7-11.3-63.2 4.7-108.9 0.2-0.4 0.6-0.6 1-0.4 0.4 0.1 0.6 0.5 0.4 0.9-15.9 45.3-4.8 107.5-4.7 108.1 0.1 0.4-0.2 0.8-0.6 0.9q0 0-0.1 0z"/>
					</g>
					<g id="&lt;Group&gt;">
						<path id="&lt;Path&gt;" class="s60" d="m511.7 1229c-19.1 0-25.6-6.6-26-7.1-0.3-0.3-0.3-0.8 0-1 0.3-0.3 0.8-0.3 1.1 0 0.2 0.2 19.8 19.8 92.2-10.3 0.4-0.1 0.8 0.1 1 0.4 0.1 0.4 0 0.8-0.4 1-31.8 13.2-53.5 17-67.9 17z"/>
					</g>
					<g id="&lt;Group&gt;">
						<path id="&lt;Path&gt;" class="s60" d="m527.8 1156.1c-0.3 0-0.5-0.2-0.7-0.5-0.1-0.4-12.9-36.6 16.7-66.1 0.3-0.3 0.7-0.3 1 0 0.3 0.2 0.3 0.7 0 1-28.9 28.9-16.4 64.2-16.3 64.6 0.2 0.4 0 0.8-0.4 0.9q-0.1 0.1-0.3 0.1z"/>
					</g>
					<g id="&lt;Group&gt;">
						<path id="&lt;Path&gt;" class="s65" d="m389.9 1392.3c0 0 16.1-156.7 96.2-170q1.5-0.3 2.9-0.5c0 0 9.4 17.2 0 38-9.3 20.8 64.7-110.8 183.3-55 0 0 12.9 8-21.6 35.1-34.5 27.1 51.8-43.1 123.7 32.7 71.8 75.7 71.8 75.7 71.8 75.7 0 0-62.5 76.8-128.6 33.4-66.1-43.3-69.5-37.1-61.8-27.4 7.7 9.6 51.7 39.3 51.7 39.3 0 0-90.5 38.7-134.4-30.9 0 0-1.4 12.1 23 30.9 24.5 18.8-107.9-71.3-206.2-1.3z"/>
					</g>
					<g id="&lt;Group&gt;">
						<path id="&lt;Path&gt;" class="s60" d="m385.5 1405.1q-0.2 0-0.4-0.2c-0.3-0.2-0.4-0.7-0.2-1 0.4-0.6 41.3-57.3 111.4-95.2 41.2-22.3 84.2-33.8 128-34.3 54.6-0.6 110.5 16.1 166 49.8 0.4 0.2 0.5 0.6 0.3 1-0.2 0.3-0.7 0.4-1 0.2-125.2-75.8-228.2-50.2-292.6-15.4-69.8 37.7-110.5 94.2-110.9 94.8-0.1 0.2-0.3 0.3-0.6 0.3z"/>
					</g>
					<g id="&lt;Group&gt;">
						<path id="&lt;Path&gt;" class="s60" d="m432 1355.6q0 0-0.1 0c-0.4-0.1-0.7-0.4-0.6-0.8 0-0.8 7-76.8 40.2-110 0.3-0.3 0.8-0.3 1 0 0.3 0.3 0.3 0.8 0 1-32.8 32.9-39.7 108.3-39.8 109.1 0 0.4-0.3 0.7-0.7 0.7z"/>
					</g>
					<g id="&lt;Group&gt;">
						<path id="&lt;Path&gt;" class="s60" d="m621.1 1364.8q-0.1 0-0.1 0c-79.3-11.6-121.3-56.2-121.7-56.6-0.3-0.3-0.3-0.8 0-1.1 0.3-0.2 0.8-0.2 1.1 0.1 0.4 0.4 42 44.6 120.8 56.2 0.4 0 0.7 0.4 0.6 0.8-0.1 0.4-0.4 0.6-0.7 0.6z"/>
					</g>
					<g id="&lt;Group&gt;">
						<path id="&lt;Path&gt;" class="s60" d="m570.9 1282q0 0 0 0c-0.4 0-0.7-0.4-0.7-0.8 0-0.5 1.2-14 12.4-29.4 10.2-14.1 31.2-32.5 73.1-39.5 0.4-0.1 0.8 0.2 0.9 0.6 0 0.4-0.2 0.8-0.6 0.9-79.2 13.3-84.3 67-84.3 67.6-0.1 0.3-0.4 0.6-0.8 0.6z"/>
					</g>
					<g id="&lt;Group&gt;">
						<path id="&lt;Path&gt;" class="s60" d="m714.5 1355.6q-0.1 0-0.3-0.1c-36.8-16.8-49.4-37.2-53.4-51.3-4.3-15.4 0-26.6 0.2-27.1 0.2-0.4 0.6-0.5 1-0.4 0.4 0.2 0.5 0.6 0.4 1-0.1 0.1-4.4 11.3-0.1 26.2 3.9 13.8 16.2 33.7 52.5 50.2 0.4 0.2 0.6 0.7 0.4 1-0.1 0.3-0.4 0.5-0.7 0.5z"/>
					</g>
					<g id="&lt;Group&gt;">
						<path id="&lt;Path&gt;" class="s60" d="m785.9 1292.6q-0.2 0-0.3-0.1c-46.3-21.5-63.5-0.4-63.7-0.2-0.3 0.3-0.7 0.4-1.1 0.2-0.3-0.3-0.3-0.8-0.1-1.1 0.2-0.2 18.1-22.3 65.5-0.2 0.4 0.2 0.5 0.6 0.4 1-0.2 0.3-0.4 0.4-0.7 0.4z"/>
					</g>
					<g id="&lt;Group&gt;">
						<path id="&lt;Path&gt;" class="s66" d="m389.9 1392.3c0 0 85.7-85.6 138.6 0 0 0 23 27.3-24.8 16.5-47.9-10.8 4.9 6.8 26.1 14 21.3 7.2 52.2 85.1-18.9 128.4 0 0-12.3 10.7-24.1-19.1-11.8-29.8-11.9 17.6 0 37.9 11.9 20.4-131.7 113.2-109.4-23.7 0 0-12.8 31.2-12.8 44.7 0 13.6-66.4-62.3-14.9-113.8 0 0 0.6-17.9-23.1 13.1-23.7 31-40-112.3 63.3-98z"/>
					</g>
					<g id="&lt;Group&gt;">
						<path id="&lt;Path&gt;" class="s60" d="m417.4 1586.8c-0.3 0-0.6-0.2-0.7-0.5-48-140.7-41.5-179.9-33.3-190.7 3.1-4.2 6.4-4 6.5-4 0.4 0 0.7 0.3 0.7 0.7 0 0.4-0.3 0.7-0.7 0.7q0 0-0.1 0c0 0-2.7 0-5.3 3.6-8 10.7-14.1 49.5 33.6 189.2 0.1 0.4-0.1 0.8-0.5 1q-0.1 0-0.2 0z"/>
					</g>
					<g id="&lt;Group&gt;">
						<path id="&lt;Path&gt;" class="s60" d="m468.9 1560.8c-0.3 0-0.6-0.2-0.7-0.4-23-57.5-73.9-50.4-74.4-50.3-0.4 0-0.8-0.2-0.9-0.6-0.1-0.5 0.2-0.8 0.6-0.9 0.6-0.1 52.6-7.4 76.1 51.2 0.1 0.4-0.1 0.8-0.5 1q-0.1 0-0.2 0z"/>
					</g>
					<g id="&lt;Group&gt;">
						<path id="&lt;Path&gt;" class="s60" d="m350.1 1560.8c-0.3 0-0.6-0.2-0.7-0.6-10.4-51.2 32.2-98.7 32.7-99.2 0.2-0.3 0.7-0.3 1-0.1 0.3 0.3 0.3 0.8 0.1 1.1-0.5 0.5-42.6 47.4-32.4 97.9 0.1 0.4-0.1 0.8-0.6 0.9q0 0-0.1 0z"/>
					</g>
					<g id="&lt;Group&gt;">
						<path id="&lt;Path&gt;" class="s60" d="m511.8 1491c-0.3 0-0.6-0.1-0.7-0.4-19-37.6-53.9-51.9-79.9-57.2-28.2-5.8-52.2-2.6-52.5-2.6-0.4 0.1-0.8-0.2-0.8-0.6-0.1-0.4 0.2-0.8 0.6-0.9 0.3 0 24.5-3.2 53 2.6 26.3 5.4 61.7 19.9 80.9 58 0.2 0.4 0.1 0.9-0.3 1q-0.2 0.1-0.3 0.1z"/>
					</g>
					<g id="&lt;Group&gt;">
						<path id="&lt;Path&gt;" class="s60" d="m319.2 1464.7q-0.2 0-0.3 0c-0.4-0.1-0.6-0.6-0.4-1 18.9-49.6 60.6-57.2 61-57.3 0.4 0 0.8 0.2 0.8 0.6 0.1 0.4-0.2 0.8-0.6 0.9-0.4 0-41.3 7.6-59.8 56.4-0.2 0.3-0.4 0.4-0.7 0.4z"/>
					</g>
					<g id="&lt;Group&gt;">
						<path id="&lt;Path&gt;" class="s60" d="m511.8 1436.3q-0.3 0-0.5-0.2c-63-63-127.8-37.5-128.4-37.3-0.4 0.2-0.8 0-1-0.4-0.1-0.3 0.1-0.8 0.4-0.9 0.2-0.1 16.7-6.7 40.9-5.4 22.3 1.2 55.8 9.7 89.1 43 0.3 0.2 0.3 0.7 0 1q-0.2 0.2-0.5 0.2z"/>
					</g>
				</g>
			</g>
		</g>
	</g>
</svg>