<svg version="1.2" xmlns="http://www.w3.org/2000/svg" viewBox="0 0 2100 2100" width="2100" height="2100">
	<title>vecteezy_24-hours-7-days-service-flat-style-illustration-vector-design_8779495-ai</title>
	<style>
		.s0 { fill: #d3d6e9 } 
		.s1 { fill: #ffffff } 
		.s2 { fill: #5763a0 } 
		.s3 { fill: #899191 } 
		.s4 { fill: #707777 } 
		.s5 { fill: #6c7ad3 } 
		.s6 { fill: #232047 } 
		.s7 { fill: #fbaea8 } 
		.s8 { fill: #e26889 } 
		.s9 { fill: #2f295a } 
		.s10 { fill: #53285a } 
		.s11 { fill: #5e2f68 } 
		.s12 { fill: #e4e1e5 } 
		.s13 { fill: #72c2ed } 
		.s14 { fill: #f6ae57 } 
		.s15 { fill: #767677 } 
		.s16 { fill: #6c7ed1 } 
	</style>
	<g id="_Artboards_">
	</g>
	<g id="design">
		<g id="&lt;Group&gt;">
			<path id="&lt;Path&gt;" class="s0" d="m1759.9 1671.7h-1264.7c-19.1 0-34.5-15.4-34.5-34.5 0-19.1 15.4-34.5 34.5-34.5h1264.7c19 0 34.5 15.4 34.5 34.5 0 19.1-15.5 34.5-34.5 34.5z"/>
			<path id="&lt;Path&gt;" class="s0" d="m1604.8 1737.6h-1264.7c-19 0-34.5-15.5-34.5-34.6 0-19.1 15.5-34.5 34.5-34.5h1264.7c19.1 0 34.5 15.4 34.5 34.5 0 19.1-15.4 34.6-34.5 34.6z"/>
			<path id="&lt;Path&gt;" class="s0" d="m1753 1772.1h-870.9c-19.1 0-34.5-15.5-34.5-34.5 0-19.1 15.4-34.6 34.5-34.6h870.9c19.1 0 34.5 15.5 34.5 34.6 0 19-15.4 34.5-34.5 34.5z"/>
			<path id="&lt;Path&gt;" class="s0" d="m1532 1841.2h-379.3c-19.1 0-34.6-15.5-34.6-34.6 0-19 15.5-34.5 34.6-34.5h379.3c19.1 0 34.6 15.5 34.6 34.5 0 19.1-15.5 34.6-34.6 34.6z"/>
			<g id="&lt;Group&gt;">
				<path id="&lt;Compound Path&gt;" class="s0" d="m897.3 1498.1q-0.1 0-0.1 0c-6.3 0-12.6-0.1-18.8-0.4-3.6-0.1-6.4-3.1-6.3-6.7 0.2-3.6 3.2-6.4 6.8-6.3 6 0.3 12.2 0.4 18.3 0.4 6.2 0 12.6-0.2 18.9-0.4 3.5-0.1 6.5 2.7 6.7 6.3 0.1 3.6-2.7 6.6-6.3 6.7-6.4 0.2-12.9 0.4-19.2 0.4zm-56.2-2.9q-0.3 0-0.7-0.1c-12.6-1.3-25.3-3-37.7-5.2-3.6-0.6-5.9-4-5.3-7.5 0.6-3.6 4-5.9 7.5-5.3 12.2 2.1 24.6 3.8 36.9 5.1 3.5 0.4 6.1 3.6 5.7 7.1-0.3 3.4-3.1 5.9-6.4 5.9zm112.7-0.1c-3.3 0-6.1-2.5-6.4-5.8-0.4-3.6 2.2-6.8 5.7-7.1 12.3-1.3 24.7-3.1 36.9-5.2 3.5-0.6 6.9 1.8 7.5 5.3 0.6 3.5-1.7 6.9-5.3 7.5-12.4 2.2-25.1 4-37.7 5.3q-0.3 0-0.7 0zm-186.8-12.9q-0.8 0-1.6-0.2c-12.3-3-24.6-6.5-36.6-10.4-3.4-1.1-5.3-4.8-4.2-8.2 1.1-3.4 4.8-5.3 8.2-4.2 11.7 3.8 23.7 7.3 35.7 10.2 3.5 0.9 5.6 4.4 4.8 7.9-0.8 3-3.4 4.9-6.3 4.9zm260.9-0.1c-2.9 0-5.6-2-6.3-4.9-0.9-3.5 1.3-7 4.7-7.9 12-3 24.1-6.4 35.8-10.2 3.4-1.2 7.1 0.7 8.2 4.1 1.1 3.4-0.8 7.1-4.2 8.2-12 3.9-24.3 7.5-36.6 10.5q-0.8 0.2-1.6 0.2zm-332.6-23.1q-1.2 0-2.4-0.4c-11.7-4.8-23.4-10-34.8-15.6-3.3-1.5-4.6-5.4-3-8.7 1.6-3.2 5.4-4.5 8.7-2.9 11.1 5.4 22.5 10.5 34 15.1 3.3 1.3 4.9 5.1 3.6 8.5-1 2.5-3.5 4-6.1 4zm404.2-0.2c-2.6 0-5-1.5-6.1-4-1.3-3.3 0.3-7.1 3.6-8.5 11.5-4.6 22.9-9.7 34-15.1 3.2-1.6 7.1-0.3 8.6 3 1.6 3.2 0.3 7.1-2.9 8.7-11.4 5.5-23.1 10.7-34.8 15.5q-1.2 0.5-2.4 0.4zm-471.8-32.8c-1.1 0-2.3-0.3-3.3-0.9-10.9-6.3-21.8-13.1-32.3-20.2-3-2-3.8-6-1.8-9 2.1-3 6.1-3.8 9.1-1.8 10.2 7 20.8 13.6 31.5 19.8 3.1 1.8 4.2 5.7 2.4 8.9-1.2 2-3.4 3.2-5.6 3.2zm539.3-0.2c-2.2 0-4.4-1.1-5.6-3.2-1.8-3.1-0.8-7.1 2.3-8.9 10.7-6.2 21.3-12.8 31.5-19.7 3-2 7.1-1.3 9.1 1.7 2 3 1.2 7-1.8 9-10.5 7.1-21.3 13.9-32.2 20.3-1.1 0.5-2.2 0.8-3.3 0.8zm-601.7-41.9c-1.4 0-2.8-0.5-4-1.4-10-7.8-19.8-16-29.2-24.5-2.7-2.4-2.9-6.5-0.5-9.2 2.4-2.6 6.5-2.9 9.2-0.5 9.2 8.3 18.7 16.4 28.5 24 2.8 2.2 3.3 6.3 1.1 9.1-1.3 1.6-3.2 2.5-5.1 2.5zm664-0.2c-1.9 0-3.8-0.8-5.1-2.5-2.2-2.8-1.7-6.9 1.1-9.1 9.7-7.6 19.3-15.7 28.5-23.9 2.6-2.4 6.8-2.2 9.2 0.5 2.4 2.6 2.1 6.7-0.5 9.1-9.4 8.5-19.2 16.7-29.2 24.5-1.2 1-2.6 1.4-4 1.4zm-720-50.2c-1.7 0-3.4-0.6-4.6-2-8.8-9-17.4-18.6-25.5-28.2-2.4-2.8-2-6.9 0.7-9.2 2.8-2.3 6.9-2 9.2 0.8 7.9 9.4 16.3 18.7 24.9 27.6 2.5 2.6 2.4 6.7-0.1 9.2-1.3 1.2-2.9 1.8-4.6 1.8zm775.9-0.1c-1.6 0-3.3-0.7-4.5-1.9-2.6-2.5-2.7-6.6-0.2-9.2 8.6-8.8 17-18.1 24.9-27.6 2.3-2.7 6.4-3.1 9.2-0.8 2.7 2.3 3.1 6.4 0.8 9.2-8.2 9.7-16.7 19.2-25.5 28.3-1.3 1.3-3 2-4.7 2zm-824.3-57.5c-2 0-4-0.9-5.2-2.6-7.5-10.2-14.7-20.9-21.4-31.6-1.9-3-1-7 2.1-8.9 3-1.9 7-1 8.9 2 6.6 10.5 13.6 20.8 20.9 30.8 2.1 2.9 1.5 7-1.4 9.1-1.2 0.8-2.5 1.2-3.9 1.2zm872.7-0.2c-1.3 0-2.7-0.4-3.8-1.2-2.9-2.1-3.6-6.2-1.4-9.1 7.2-10 14.2-20.4 20.8-30.8 1.9-3.1 5.9-4 8.9-2.1 3.1 1.9 4 5.9 2.1 9-6.7 10.7-13.9 21.3-21.3 31.5-1.3 1.8-3.3 2.7-5.3 2.7zm-912.6-63.5c-2.3 0-4.6-1.2-5.8-3.4-5.9-11.2-11.5-22.7-16.7-34.2-1.5-3.3 0-7.1 3.3-8.6 3.3-1.4 7.1 0 8.6 3.3 5 11.3 10.5 22.5 16.3 33.4 1.7 3.1 0.5 7.1-2.7 8.8-0.9 0.5-2 0.7-3 0.7zm952.6-0.3c-1.1 0-2.1-0.2-3.1-0.8-3.2-1.6-4.4-5.6-2.7-8.7 5.8-11 11.3-22.2 16.4-33.5 1.4-3.3 5.3-4.7 8.5-3.3 3.3 1.5 4.8 5.3 3.3 8.6-5.1 11.6-10.8 23.1-16.7 34.3-1.2 2.2-3.4 3.4-5.7 3.4zm-983.3-68.3c-2.6 0-5.1-1.6-6.1-4.3-4.3-11.8-8.3-24-11.8-36.2-1-3.4 1-7 4.5-8 3.4-1 7 1 8 4.4 3.4 11.9 7.3 23.8 11.5 35.4 1.3 3.4-0.5 7.1-3.8 8.3q-1.2 0.4-2.3 0.4zm1013.9-0.5q-1.1 0-2.2-0.4c-3.4-1.2-5.1-4.9-3.9-8.3 4.2-11.6 8.1-23.5 11.5-35.4 1-3.4 4.6-5.4 8-4.4 3.5 0.9 5.5 4.5 4.5 8-3.5 12.2-7.4 24.3-11.8 36.2-0.9 2.7-3.4 4.3-6.1 4.3zm-1034.6-71.8c-3.1 0-5.7-2.1-6.4-5.1-2.6-12.4-4.8-25-6.6-37.6-0.5-3.5 2-6.8 5.5-7.3 3.6-0.5 6.9 2 7.4 5.5 1.7 12.3 3.9 24.6 6.4 36.7 0.8 3.5-1.5 6.9-5 7.7q-0.7 0.1-1.3 0.1zm1055.3-0.5q-0.6 0-1.3-0.2c-3.5-0.7-5.8-4.2-5-7.7 2.5-12 4.7-24.4 6.4-36.6 0.5-3.5 3.7-6 7.3-5.5 3.6 0.5 6 3.7 5.5 7.3-1.7 12.5-3.9 25.2-6.5 37.5-0.7 3.1-3.4 5.2-6.4 5.2zm-1065.8-74c-3.4 0-6.2-2.6-6.5-6-0.9-12.6-1.3-25.4-1.3-38.1 0-3.6 2.9-6.5 6.5-6.5q0 0 0 0c3.6 0 6.5 2.9 6.5 6.5 0 12.4 0.4 24.9 1.3 37.2 0.2 3.5-2.5 6.6-6 6.9q-0.3 0-0.5 0zm1076.2-0.5q-0.2 0-0.5 0c-3.5-0.3-6.2-3.4-6-7 0.9-12.3 1.3-24.8 1.3-37.1v-1.1c0-3.6 2.9-6.5 6.5-6.5q0 0 0 0c3.6 0 6.5 2.9 6.5 6.5v1.1c0 12.6-0.5 25.4-1.3 38-0.3 3.4-3.1 6.1-6.5 6.1zm-1076.3-74.7q-0.2 0-0.4 0c-3.6-0.3-6.3-3.4-6.1-7 0.9-12.6 2.2-25.4 3.9-37.9 0.5-3.5 3.8-6 7.4-5.5 3.5 0.5 6 3.8 5.5 7.3-1.7 12.2-2.9 24.7-3.8 37-0.2 3.4-3.1 6.1-6.5 6.1zm1076.2-1.6c-3.4 0-6.2-2.6-6.5-6.1-0.8-12.3-2.2-24.7-3.9-36.9-0.5-3.6 2-6.9 5.6-7.4 3.5-0.5 6.8 2 7.3 5.5 1.8 12.5 3.1 25.3 4 37.9 0.3 3.6-2.4 6.7-6 7q-0.3 0-0.5 0zm-1065.9-73q-0.6 0-1.3-0.1c-3.5-0.7-5.8-4.2-5-7.7 2.6-12.4 5.7-24.8 9.1-37 1-3.4 4.6-5.4 8.1-4.4 3.4 0.9 5.4 4.5 4.4 8-3.4 11.9-6.4 24-8.9 36.1-0.6 3-3.3 5.1-6.4 5.1zm1055.4-1.5c-3 0-5.7-2.1-6.4-5.2-2.5-12-5.6-24.2-9-36-1-3.5 1-7.1 4.5-8.1 3.4-1 7 1 8 4.5 3.5 12.1 6.6 24.6 9.3 36.9 0.7 3.5-1.5 7-5 7.7q-0.7 0.2-1.4 0.2zm-1034.7-70.8q-1.2 0-2.3-0.4c-3.3-1.2-5.1-4.9-3.9-8.3 4.4-11.9 9.2-23.8 14.3-35.4 1.5-3.3 5.3-4.8 8.6-3.3 3.3 1.5 4.7 5.3 3.3 8.6-5 11.3-9.7 22.9-13.9 34.5-1 2.7-3.5 4.3-6.1 4.3zm1013.9-1.5c-2.7 0-5.2-1.6-6.1-4.3-4.3-11.5-9-23.1-14-34.4-1.5-3.3 0-7.1 3.2-8.6 3.3-1.4 7.2 0 8.6 3.3 5.2 11.5 10 23.4 14.4 35.3 1.2 3.3-0.5 7.1-3.9 8.3q-1.1 0.4-2.2 0.4zm-983.3-67.3c-1.1 0-2.1-0.3-3.1-0.8-3.2-1.7-4.4-5.6-2.7-8.8 6-11.2 12.4-22.3 19.1-33 1.9-3 5.9-4 8.9-2.1 3.1 1.9 4 5.9 2.1 9-6.5 10.5-12.8 21.3-18.6 32.2-1.2 2.2-3.4 3.5-5.7 3.5zm952.5-1.3c-2.3 0-4.5-1.2-5.7-3.4-5.8-10.9-12.1-21.7-18.7-32.2-1.9-3-0.9-7 2.1-8.9 3-1.9 7-1 9 2 6.7 10.7 13.1 21.8 19.1 32.9 1.7 3.2 0.5 7.1-2.7 8.8-1 0.6-2 0.8-3.1 0.8zm-912.7-62.6c-1.3 0-2.6-0.4-3.8-1.2-2.9-2.1-3.5-6.2-1.4-9.1 7.4-10.2 15.3-20.3 23.4-30 2.3-2.8 6.4-3.2 9.2-0.8 2.7 2.3 3.1 6.4 0.8 9.1-7.9 9.5-15.6 19.3-22.9 29.3-1.3 1.8-3.2 2.7-5.3 2.7zm872.7-1.1c-2 0-3.9-0.9-5.2-2.6-7.3-10-15-19.8-23-29.3-2.3-2.7-1.9-6.8 0.8-9.1 2.8-2.4 6.9-2 9.2 0.7 8.1 9.7 16 19.8 23.5 30 2.1 2.9 1.5 7-1.4 9.1-1.2 0.8-2.5 1.2-3.9 1.2zm-824.3-56.6c-1.6 0-3.3-0.6-4.5-1.8-2.6-2.5-2.7-6.6-0.2-9.2 8.8-9.1 18-18 27.4-26.5 2.7-2.4 6.8-2.2 9.2 0.5 2.4 2.7 2.2 6.8-0.5 9.2-9.2 8.3-18.2 17-26.7 25.8-1.3 1.4-3 2-4.7 2zm775.9-0.9c-1.7 0-3.4-0.7-4.7-2-8.6-8.8-17.6-17.5-26.8-25.8-2.7-2.4-2.9-6.5-0.5-9.2 2.4-2.6 6.5-2.9 9.2-0.5 9.4 8.5 18.6 17.4 27.4 26.5 2.5 2.6 2.5 6.7-0.1 9.2-1.3 1.2-2.9 1.8-4.5 1.8zm-720.1-49.5c-1.9 0-3.8-0.8-5.1-2.5-2.2-2.8-1.7-6.9 1.1-9.1 10-7.8 20.3-15.3 30.8-22.4 3-2.1 7-1.3 9 1.7 2 3 1.3 7-1.7 9-10.2 6.9-20.3 14.3-30 21.9-1.2 1-2.6 1.4-4.1 1.4zm664.1-0.8c-1.4 0-2.8-0.4-4-1.4-9.8-7.6-19.9-14.9-30.1-21.8-3-2-3.8-6.1-1.8-9 2-3 6-3.8 9-1.8 10.5 7.1 20.9 14.6 30.9 22.4 2.8 2.2 3.3 6.3 1.1 9.1-1.3 1.6-3.2 2.5-5.1 2.5zm-601.8-41.4c-2.2 0-4.4-1.1-5.6-3.2-1.8-3.1-0.8-7.1 2.3-8.9 11-6.3 22.3-12.4 33.6-17.9 3.2-1.6 7.1-0.3 8.7 3 1.6 3.2 0.3 7.1-3 8.7-11 5.4-22.1 11.3-32.7 17.5-1.1 0.6-2.2 0.8-3.3 0.8zm539.3-0.7c-1.1 0-2.2-0.2-3.2-0.8-10.7-6.2-21.8-12.1-32.9-17.5-3.2-1.6-4.5-5.4-3-8.7 1.6-3.2 5.5-4.5 8.7-3 11.4 5.6 22.7 11.6 33.7 17.9 3.1 1.8 4.2 5.8 2.4 8.9-1.2 2.1-3.4 3.2-5.7 3.2zm-471.8-32.3c-2.6 0-5-1.6-6-4.1-1.4-3.3 0.2-7.1 3.6-8.5 11.7-4.7 23.7-9.1 35.7-13 3.5-1.2 7.1 0.7 8.2 4.1 1.2 3.4-0.7 7.1-4.1 8.2-11.8 3.8-23.5 8.1-34.9 12.8q-1.3 0.5-2.5 0.5zm404.1-0.6q-1.2 0-2.4-0.5c-11.5-4.6-23.3-8.9-35-12.7-3.4-1.1-5.3-4.7-4.2-8.2 1.1-3.4 4.8-5.2 8.2-4.1 12 3.8 24.1 8.2 35.9 12.9 3.3 1.4 4.9 5.2 3.6 8.5-1.1 2.5-3.5 4.1-6.1 4.1zm-332.6-22.8c-2.9 0-5.5-1.9-6.3-4.9-0.8-3.5 1.3-7 4.8-7.9 12.2-3 24.8-5.7 37.2-7.9 3.6-0.6 6.9 1.7 7.5 5.3 0.7 3.5-1.7 6.9-5.2 7.5-12.2 2.1-24.4 4.7-36.4 7.7q-0.8 0.2-1.6 0.2zm261-0.4q-0.8 0-1.6-0.1c-12-3-24.2-5.6-36.4-7.7-3.5-0.6-5.9-4-5.3-7.5 0.7-3.5 4-5.9 7.6-5.3 12.4 2.2 25 4.8 37.2 7.8 3.5 0.9 5.7 4.4 4.8 7.9-0.7 3-3.4 4.9-6.3 4.9zm-186.9-12.7c-3.3 0-6.1-2.4-6.4-5.8-0.4-3.5 2.2-6.7 5.7-7.1 12.6-1.3 25.4-2.2 38-2.7 3.6-0.1 6.6 2.7 6.8 6.3 0.1 3.6-2.7 6.6-6.3 6.7-12.4 0.4-24.8 1.3-37.1 2.6q-0.3 0-0.7 0zm112.8-0.1q-0.4 0-0.7-0.1c-12.3-1.2-24.7-2.1-37.1-2.5-3.6-0.1-6.4-3.1-6.3-6.7 0.1-3.6 3.1-6.4 6.7-6.3 12.7 0.5 25.5 1.3 38 2.6 3.6 0.4 6.2 3.6 5.8 7.1-0.3 3.4-3.1 5.9-6.4 5.9z"/>
			</g>
			<g id="&lt;Group&gt;">
				<path id="&lt;Compound Path&gt;" class="s0" d="m1053 1459.3c-6.2 0-12.6-0.1-18.8-0.3-3.6-0.1-6.4-3.1-6.2-6.7 0.1-3.6 3-6.4 6.7-6.3 12.3 0.4 24.8 0.4 37.2 0 3.6-0.1 6.6 2.7 6.7 6.2 0.1 3.6-2.7 6.6-6.3 6.8-6.4 0.2-12.9 0.3-19.3 0.3zm-56.1-2.9q-0.3 0-0.7 0c-12.6-1.3-25.3-3.1-37.7-5.2-3.5-0.7-5.9-4-5.3-7.6 0.6-3.5 4-5.9 7.5-5.3 12.2 2.2 24.6 3.9 36.9 5.2 3.5 0.3 6.1 3.5 5.8 7.1-0.4 3.3-3.2 5.8-6.5 5.8zm112.7 0c-3.3 0-6.1-2.5-6.4-5.9-0.4-3.5 2.2-6.7 5.8-7.1 12.3-1.3 24.7-3 36.8-5.1 3.5-0.7 6.9 1.7 7.5 5.2 0.6 3.6-1.7 6.9-5.3 7.6-12.4 2.1-25.1 3.9-37.7 5.2q-0.3 0.1-0.7 0.1zm-186.8-12.9q-0.8 0-1.6-0.2c-12.3-3.1-24.6-6.6-36.6-10.5-3.4-1.1-5.3-4.7-4.2-8.2 1.1-3.4 4.8-5.2 8.2-4.1 11.7 3.8 23.8 7.2 35.8 10.2 3.4 0.8 5.6 4.4 4.7 7.8-0.7 3-3.4 5-6.3 5zm260.9-0.1c-2.9 0-5.5-2-6.3-5-0.8-3.5 1.3-7 4.8-7.9 11.9-2.9 24-6.4 35.7-10.2 3.4-1.1 7.1 0.8 8.2 4.2 1.1 3.4-0.8 7.1-4.2 8.2-12 3.9-24.3 7.4-36.6 10.5q-0.8 0.2-1.6 0.2zm-332.5-23.1q-1.3 0-2.5-0.5c-11.7-4.7-23.4-10-34.8-15.5-3.2-1.6-4.6-5.5-3-8.7 1.6-3.2 5.5-4.6 8.7-3 11.1 5.4 22.5 10.5 34 15.1 3.3 1.4 4.9 5.2 3.6 8.5-1 2.5-3.5 4.1-6 4.1zm404.1-0.2c-2.6 0-5-1.5-6-4.1-1.4-3.3 0.2-7.1 3.5-8.4 11.5-4.7 22.9-9.7 34-15.2 3.2-1.5 7.1-0.2 8.7 3 1.5 3.2 0.2 7.1-3 8.7-11.4 5.6-23.1 10.8-34.8 15.5q-1.2 0.5-2.4 0.5zm-471.8-32.8c-1.1 0-2.2-0.3-3.3-0.9-10.9-6.3-21.8-13.2-32.3-20.2-3-2-3.7-6.1-1.7-9.1 2-2.9 6-3.7 9-1.7 10.2 6.9 20.8 13.5 31.5 19.7 3.1 1.8 4.2 5.8 2.4 8.9-1.2 2.1-3.4 3.3-5.6 3.3zm539.3-0.2c-2.2 0-4.4-1.2-5.6-3.3-1.8-3.1-0.7-7 2.4-8.8 10.6-6.2 21.2-12.9 31.5-19.8 2.9-2 7-1.2 9 1.8 2 2.9 1.2 7-1.8 9-10.4 7.1-21.3 13.9-32.2 20.2-1.1 0.6-2.2 0.9-3.3 0.9zm-601.7-42c-1.4 0-2.8-0.4-4-1.4-10-7.7-19.8-16-29.2-24.4-2.7-2.4-2.9-6.6-0.5-9.2 2.4-2.7 6.5-2.9 9.2-0.5 9.2 8.3 18.8 16.3 28.5 23.9 2.8 2.2 3.3 6.3 1.1 9.1-1.3 1.7-3.2 2.5-5.1 2.5zm664-0.1c-1.9 0-3.8-0.9-5.1-2.5-2.2-2.9-1.7-6.9 1.1-9.2 9.7-7.6 19.3-15.6 28.5-23.9 2.7-2.4 6.8-2.2 9.2 0.5 2.4 2.7 2.2 6.8-0.5 9.2-9.4 8.4-19.2 16.7-29.2 24.5-1.2 0.9-2.6 1.4-4 1.4zm-719.9-50.2c-1.7 0-3.4-0.7-4.7-2-8.8-9.1-17.4-18.6-25.5-28.3-2.3-2.7-2-6.8 0.8-9.1 2.7-2.4 6.8-2 9.1 0.7 8 9.5 16.3 18.8 24.9 27.7 2.5 2.5 2.5 6.7-0.1 9.2-1.3 1.2-2.9 1.8-4.5 1.8zm775.8-0.2c-1.6 0-3.2-0.6-4.5-1.8-2.6-2.5-2.6-6.6-0.2-9.2 8.6-8.9 17-18.2 24.9-27.7 2.4-2.7 6.5-3.1 9.2-0.7 2.8 2.3 3.1 6.4 0.8 9.1-8.1 9.7-16.7 19.2-25.5 28.3-1.3 1.3-3 2-4.7 2zm-824.3-57.4c-2 0-3.9-0.9-5.2-2.7-7.5-10.2-14.6-20.8-21.4-31.5-1.9-3.1-0.9-7.1 2.1-9 3-1.9 7.1-1 9 2.1 6.5 10.4 13.5 20.8 20.8 30.8 2.1 2.9 1.5 6.9-1.4 9.1-1.2 0.8-2.5 1.2-3.9 1.2zm872.7-0.2c-1.3 0-2.6-0.4-3.8-1.3-2.9-2.1-3.5-6.2-1.4-9.1 7.2-9.9 14.3-20.3 20.8-30.8 1.9-3 5.9-3.9 9-2 3 1.9 3.9 5.9 2 8.9-6.7 10.7-13.9 21.4-21.3 31.6-1.3 1.7-3.3 2.7-5.3 2.7zm-912.6-63.5c-2.3 0-4.6-1.3-5.7-3.5-6-11.1-11.6-22.6-16.8-34.1-1.4-3.3 0-7.2 3.3-8.6 3.3-1.5 7.1 0 8.6 3.3 5 11.2 10.5 22.4 16.3 33.3 1.7 3.2 0.5 7.1-2.6 8.8-1 0.5-2.1 0.8-3.1 0.8zm952.6-0.3c-1.1 0-2.1-0.3-3.1-0.8-3.1-1.7-4.3-5.6-2.7-8.8 5.9-10.9 11.3-22.2 16.4-33.4 1.4-3.3 5.3-4.8 8.6-3.3 3.2 1.4 4.7 5.3 3.3 8.5-5.2 11.6-10.8 23.1-16.8 34.3-1.2 2.2-3.4 3.5-5.7 3.5zm-983.3-68.3c-2.6 0-5.1-1.7-6.1-4.3-4.3-11.9-8.3-24.1-11.8-36.2-1-3.5 1-7.1 4.5-8.1 3.4-1 7 1 8 4.5 3.4 11.8 7.3 23.7 11.5 35.3 1.3 3.4-0.5 7.1-3.8 8.4q-1.1 0.4-2.3 0.4zm1013.9-0.5q-1.1 0-2.2-0.4c-3.4-1.3-5.1-5-3.9-8.4 4.3-11.6 8.1-23.5 11.5-35.3 1-3.5 4.6-5.5 8.1-4.5 3.4 1 5.4 4.6 4.4 8-3.5 12.2-7.4 24.4-11.7 36.3-1 2.6-3.5 4.3-6.2 4.3zm-1034.6-71.8c-3 0-5.7-2.1-6.4-5.2-2.6-12.3-4.8-25-6.6-37.5-0.5-3.6 2-6.9 5.5-7.4 3.6-0.4 6.9 2 7.4 5.6 1.7 12.2 3.9 24.5 6.4 36.6 0.8 3.5-1.5 7-5 7.7q-0.7 0.2-1.3 0.2zm1055.3-0.6q-0.6 0-1.3-0.1c-3.5-0.8-5.8-4.2-5-7.7 2.5-12.1 4.7-24.4 6.4-36.6 0.5-3.6 3.7-6.1 7.3-5.6 3.6 0.5 6.1 3.8 5.6 7.3-1.8 12.6-4 25.2-6.6 37.6-0.7 3-3.4 5.1-6.4 5.1zm-1065.8-73.9c-3.4 0-6.2-2.7-6.5-6.1-0.8-12.6-1.3-25.4-1.3-38.1 0-3.6 2.9-6.5 6.5-6.5q0 0 0 0c3.6 0 6.5 2.9 6.5 6.5 0 12.4 0.4 24.9 1.3 37.2 0.3 3.6-2.4 6.7-6 6.9q-0.3 0.1-0.5 0.1zm1076.2-0.6q-0.2 0-0.4 0c-3.6-0.2-6.3-3.3-6.1-6.9 0.9-12.3 1.3-24.8 1.3-37.2v-1c0-3.6 2.9-6.5 6.5-6.6q0 0 0 0c3.6 0 6.5 2.9 6.5 6.5v1.1c0 12.7-0.4 25.5-1.3 38.1-0.2 3.4-3.1 6-6.5 6zm-1076.2-74.7q-0.3 0-0.5 0c-3.6-0.2-6.3-3.3-6-6.9 0.8-12.7 2.1-25.4 3.9-37.9 0.5-3.6 3.7-6 7.3-5.6 3.5 0.5 6 3.8 5.5 7.4-1.6 12.2-2.9 24.6-3.8 37-0.2 3.4-3.1 6-6.4 6zm1076.1-1.6c-3.3 0-6.2-2.6-6.4-6-0.9-12.4-2.2-24.8-4-37-0.5-3.6 2-6.8 5.6-7.3 3.5-0.5 6.8 1.9 7.3 5.5 1.8 12.5 3.1 25.2 4 37.9 0.3 3.5-2.4 6.7-6 6.9q-0.2 0-0.5 0zm-1065.8-72.9q-0.7 0-1.4-0.1c-3.5-0.8-5.7-4.2-5-7.7 2.6-12.4 5.7-24.9 9.1-37 1-3.5 4.6-5.5 8.1-4.5 3.4 1 5.4 4.6 4.4 8-3.3 11.9-6.3 24-8.9 36.1-0.6 3.1-3.3 5.2-6.3 5.2zm1055.3-1.6c-3 0-5.7-2.1-6.3-5.1-2.6-12.1-5.7-24.2-9.1-36.1-1-3.4 1-7 4.5-8 3.4-1 7 1 8 4.4 3.5 12.2 6.6 24.6 9.3 37 0.7 3.5-1.5 6.9-5 7.7q-0.7 0.1-1.4 0.1zm-1034.7-70.8q-1.1 0-2.2-0.3c-3.4-1.3-5.2-5-3.9-8.4 4.3-11.9 9.1-23.8 14.2-35.4 1.5-3.2 5.3-4.7 8.6-3.3 3.3 1.5 4.8 5.3 3.3 8.6-5 11.3-9.7 22.9-13.9 34.6-1 2.6-3.5 4.2-6.1 4.2zm1013.9-1.5c-2.7 0-5.2-1.6-6.1-4.2-4.3-11.6-9-23.2-14-34.4-1.5-3.3 0-7.2 3.3-8.6 3.2-1.5 7.1 0 8.6 3.3 5.1 11.5 9.9 23.4 14.3 35.2 1.2 3.4-0.5 7.1-3.9 8.3q-1.1 0.4-2.2 0.4zm-983.3-67.3c-1.1 0-2.1-0.2-3.1-0.7-3.1-1.7-4.4-5.7-2.7-8.8 6-11.2 12.4-22.3 19.1-33.1 1.9-3 5.9-3.9 9-2 3 1.9 3.9 5.9 2 8.9-6.5 10.5-12.8 21.4-18.6 32.3-1.2 2.2-3.4 3.4-5.7 3.4zm952.6-1.2c-2.4 0-4.6-1.3-5.8-3.5-5.8-10.8-12.1-21.7-18.6-32.1-1.9-3.1-1-7.1 2-9 3-1.9 7.1-1 9 2.1 6.7 10.7 13.1 21.8 19.1 32.9 1.7 3.2 0.5 7.1-2.7 8.8-1 0.5-2 0.8-3 0.8zm-912.7-62.6c-1.4 0-2.7-0.4-3.9-1.3-2.9-2.1-3.5-6.2-1.4-9.1 7.4-10.2 15.3-20.3 23.5-30 2.3-2.7 6.4-3.1 9.1-0.8 2.8 2.3 3.1 6.4 0.8 9.2-7.9 9.4-15.6 19.3-22.9 29.3-1.2 1.7-3.2 2.7-5.2 2.7zm872.7-1.1c-2.1 0-4-0.9-5.3-2.7-7.3-10-15-19.8-23-29.2-2.3-2.8-1.9-6.9 0.8-9.2 2.8-2.3 6.9-2 9.2 0.8 8.1 9.7 16 19.7 23.5 29.9 2.1 2.9 1.5 7-1.4 9.1-1.2 0.9-2.5 1.3-3.8 1.3zm-824.4-56.6c-1.6 0-3.2-0.6-4.5-1.8-2.6-2.5-2.7-6.6-0.2-9.2 8.8-9.1 18-18 27.4-26.5 2.7-2.4 6.8-2.2 9.2 0.4 2.4 2.7 2.2 6.8-0.5 9.2-9.1 8.3-18.1 17-26.7 25.9-1.3 1.3-3 2-4.7 2zm775.9-1c-1.7 0-3.4-0.6-4.7-1.9-8.6-8.9-17.6-17.6-26.8-25.8-2.7-2.4-2.9-6.5-0.5-9.2 2.4-2.7 6.5-2.9 9.2-0.5 9.4 8.4 18.7 17.3 27.4 26.4 2.5 2.6 2.5 6.7-0.1 9.2-1.3 1.2-2.9 1.8-4.5 1.8zm-720-49.4c-2 0-3.9-0.9-5.2-2.5-2.2-2.8-1.7-6.9 1.2-9.2 9.9-7.8 20.3-15.3 30.7-22.4 3-2 7-1.2 9 1.7 2.1 3 1.3 7.1-1.7 9.1-10.2 6.9-20.3 14.3-30 21.9-1.2 0.9-2.6 1.4-4 1.4zm664-0.9c-1.4 0-2.8-0.4-4-1.3-9.7-7.6-19.9-15-30.1-21.9-3-2-3.8-6-1.8-9 2-3 6.1-3.8 9-1.8 10.5 7.1 20.9 14.6 30.9 22.4 2.8 2.2 3.3 6.3 1.1 9.1-1.3 1.7-3.2 2.5-5.1 2.5zm-601.8-41.3c-2.2 0-4.4-1.2-5.6-3.2-1.8-3.2-0.7-7.1 2.4-8.9 10.9-6.4 22.2-12.4 33.5-18 3.3-1.6 7.2-0.2 8.7 3 1.6 3.2 0.3 7.1-2.9 8.7-11.1 5.4-22.1 11.3-32.8 17.5-1 0.6-2.2 0.9-3.3 0.9zm539.4-0.7c-1.1 0-2.3-0.3-3.3-0.9-10.7-6.2-21.8-12-32.9-17.4-3.2-1.6-4.5-5.5-3-8.7 1.6-3.3 5.5-4.6 8.7-3 11.4 5.5 22.7 11.5 33.7 17.9 3.1 1.7 4.2 5.7 2.4 8.8-1.2 2.1-3.4 3.3-5.6 3.3zm-471.9-32.4c-2.5 0-5-1.5-6-4-1.3-3.4 0.3-7.2 3.6-8.5 11.7-4.8 23.7-9.2 35.8-13.1 3.4-1.1 7 0.8 8.2 4.2 1.1 3.4-0.8 7-4.2 8.2-11.7 3.8-23.5 8.1-34.9 12.7q-1.2 0.5-2.5 0.5zm404.1-0.6q-1.2 0-2.4-0.4c-11.5-4.7-23.2-8.9-35-12.7-3.4-1.1-5.3-4.8-4.2-8.2 1.1-3.4 4.8-5.3 8.2-4.2 12.1 3.9 24.1 8.3 35.9 13 3.3 1.3 4.9 5.1 3.6 8.5-1 2.5-3.5 4-6.1 4zm-332.6-22.7c-2.9 0-5.5-2-6.3-4.9-0.8-3.5 1.3-7.1 4.8-7.9 12.2-3.1 24.8-5.8 37.2-8 3.6-0.6 6.9 1.8 7.6 5.3 0.6 3.5-1.8 6.9-5.3 7.5-12.2 2.2-24.4 4.8-36.4 7.8q-0.8 0.2-1.6 0.2zm261-0.4q-0.8 0-1.6-0.2c-11.9-3-24.2-5.5-36.3-7.6-3.6-0.7-6-4-5.3-7.6 0.6-3.5 3.9-5.9 7.5-5.2 12.4 2.1 25 4.8 37.3 7.8 3.4 0.8 5.6 4.4 4.7 7.8-0.7 3-3.4 5-6.3 5zm-186.9-12.7c-3.3 0-6.1-2.5-6.4-5.8-0.4-3.6 2.2-6.8 5.8-7.2 12.5-1.3 25.3-2.2 37.9-2.6 3.6-0.2 6.6 2.6 6.8 6.2 0.1 3.6-2.7 6.6-6.3 6.7-12.3 0.5-24.8 1.4-37.1 2.7q-0.3 0-0.7 0zm112.8-0.2q-0.3 0-0.7 0c-12.2-1.3-24.7-2.1-37.1-2.5-3.6-0.1-6.4-3.1-6.3-6.7 0.1-3.6 3.2-6.4 6.7-6.3 12.7 0.4 25.5 1.3 38 2.6 3.6 0.3 6.2 3.5 5.8 7.1-0.3 3.3-3.1 5.8-6.4 5.8z"/>
			</g>
			<g id="&lt;Group&gt;">
				<path id="&lt;Path&gt;" class="s0" d="m1463.2 1256.7c-0.8 2-0.6 4.2 0.5 5.9 0.7 1.1 1.7 2 3 2.6 3.4 1.4 7.2-0.2 8.5-3.5 4.9-11.7 9.4-23.7 13.4-35.7 1.1-3.4-0.7-7.1-4.1-8.2-3.4-1.2-7.1 0.7-8.3 4.1-3.9 11.7-8.3 23.4-13 34.8z"/>
				<path id="&lt;Path&gt;" class="s0" d="m1363.9 1412.7c-8.3 9.1-17.1 18-26.1 26.5-2.2 2.1-2.6 5.5-1.1 8.1q0.4 0.5 0.9 1c2.4 2.7 6.6 2.8 9.2 0.3 9.1-8.7 18.1-17.8 26.7-27.2 2.4-2.6 2.2-6.7-0.4-9.1-2.7-2.5-6.8-2.3-9.2 0.4z"/>
				<path id="&lt;Path&gt;" class="s0" d="m1489.3 928.2c2.9 12.1 5.4 24.3 7.4 36.5q0.3 1.3 0.9 2.4c1.3 2.2 3.9 3.4 6.6 3 3.6-0.6 6-4 5.4-7.5-2.1-12.5-4.7-25.1-7.6-37.4-0.9-3.5-4.4-5.6-7.9-4.8-3.5 0.8-5.6 4.4-4.8 7.8z"/>
				<path id="&lt;Path&gt;" class="s0" d="m1501.6 1001.7c1.1 12.2 1.9 24.7 2.2 37.1 0 1.2 0.4 2.3 0.9 3.2 1.2 1.9 3.3 3.2 5.7 3.1 3.6 0 6.5-3 6.4-6.6-0.3-12.7-1.1-25.5-2.3-38.1-0.3-3.6-3.5-6.2-7.1-5.8-3.6 0.3-6.2 3.5-5.8 7.1z"/>
				<path id="&lt;Path&gt;" class="s0" d="m1503.4 1076c-0.6 12.3-1.6 24.8-3 37.1-0.1 1.5 0.2 2.9 0.9 4.1 1 1.7 2.8 2.9 4.8 3.1 3.6 0.4 6.8-2.1 7.2-5.7 1.5-12.6 2.5-25.4 3.1-38 0.2-3.6-2.6-6.6-6.2-6.8-3.6-0.1-6.6 2.6-6.8 6.2z"/>
				<path id="&lt;Path&gt;" class="s0" d="m1494.9 1149.9c-2.3 12.1-5 24.4-8.1 36.3-0.4 1.8-0.1 3.6 0.8 5 0.8 1.4 2.2 2.5 3.9 2.9 3.5 0.9 7-1.2 7.9-4.6 3.2-12.3 6-24.8 8.3-37.2 0.6-3.5-1.7-6.9-5.2-7.6-3.6-0.7-7 1.7-7.6 5.2z"/>
				<path id="&lt;Path&gt;" class="s0" d="m1430.1 1323.2c-1.3 2.1-1.1 4.7 0.1 6.7 0.5 0.9 1.3 1.6 2.2 2.2 3.1 1.8 7.1 0.8 8.9-2.3 6.4-10.9 12.5-22.2 18.2-33.5 1.6-3.2 0.3-7.1-3-8.7-3.2-1.6-7.1-0.3-8.7 2.9-5.5 11.1-11.4 22.1-17.7 32.7z"/>
				<path id="&lt;Path&gt;" class="s0" d="m1120.4 1570.9c-0.9-3.4-4.5-5.5-8-4.5-11.6 3.2-23.5 6-35.3 8.4q3.7 5.9 7.4 11.8c10.5-2.3 21-4.8 31.4-7.7 3.5-0.9 5.5-4.5 4.5-8z"/>
				<path id="&lt;Path&gt;" class="s0" d="m568.8 683.1c-8.6 9.3-16.9 19.1-24.8 29-1.7 2.1-1.8 5.1-0.5 7.4q0.6 0.9 1.5 1.7c2.9 2.2 6.9 1.8 9.2-1 7.7-9.7 15.8-19.2 24.2-28.3 2.4-2.6 2.2-6.7-0.4-9.2-2.7-2.4-6.8-2.2-9.2 0.4z"/>
				<path id="&lt;Path&gt;" class="s0" d="m632.4 640.9c2.8-2.3 3.2-6.4 0.9-9.2-2.3-2.8-6.4-3.2-9.2-0.9-9.8 8-19.4 16.5-28.5 25.2-2.3 2.1-2.7 5.5-1.1 8.1q0.3 0.6 0.8 1.1c2.5 2.6 6.6 2.7 9.2 0.2 8.9-8.4 18.3-16.7 27.9-24.5z"/>
				<path id="&lt;Path&gt;" class="s0" d="m1258.3 1509c-1.9-3.1-5.9-4-8.9-2.1l-0.9 0.5c-10.6 6.5-21.5 12.6-32.4 18.3-3.2 1.6-4.4 5.6-2.8 8.7q0.1 0.2 0.2 0.4c1.8 2.9 5.5 4 8.6 2.4 11.2-5.8 22.3-12.1 33.2-18.7l0.9-0.6c3-1.8 4-5.8 2.1-8.9z"/>
				<path id="&lt;Path&gt;" class="s0" d="m1319.1 1464.7c-2.3-2.8-6.4-3.2-9.2-0.9-9.5 7.8-19.4 15.4-29.5 22.6-2.8 1.9-3.5 5.7-1.8 8.6q0.2 0.2 0.3 0.4c2.1 2.9 6.1 3.6 9.1 1.5 10.3-7.3 20.4-15.1 30.2-23.1 2.8-2.3 3.2-6.4 0.9-9.1z"/>
				<path id="&lt;Path&gt;" class="s0" d="m1144.5 1564.8c1.6 2.5 4.8 3.8 7.7 2.7 12-4.2 23.9-8.9 35.5-13.9 3.3-1.4 4.8-5.3 3.4-8.6-1.5-3.3-5.3-4.8-8.6-3.3-11.3 4.9-23 9.5-34.6 13.6-3.4 1.2-5.1 4.9-4 8.3q0.3 0.6 0.6 1.2z"/>
				<path id="&lt;Path&gt;" class="s0" d="m1388.1 1384.4c-1.8 2.2-1.9 5.2-0.5 7.4q0.6 1 1.5 1.7c2.8 2.3 6.9 1.8 9.1-1 7.9-9.9 15.5-20.2 22.7-30.6 2-3 1.3-7-1.7-9-3-2.1-7-1.3-9 1.6-7 10.2-14.5 20.3-22.1 29.9z"/>
				<path id="&lt;Path&gt;" class="s0" d="m857.5 525q0.2 1.1 0.8 2c1.4 2.3 4.1 3.6 6.8 3 12.2-2.4 24.5-4.5 36.8-6.1 3.5-0.4 6-3.7 5.6-7.3-0.5-3.5-3.7-6-7.3-5.6-12.6 1.7-25.2 3.8-37.6 6.3-3.6 0.7-5.8 4.1-5.1 7.7z"/>
				<path id="&lt;Path&gt;" class="s0" d="m932.1 514.3c0 1.1 0.4 2.1 0.9 3 1.2 2 3.4 3.3 5.9 3.1 12.4-0.7 24.9-1 37.2-0.9 3.6 0.1 6.6-2.8 6.6-6.4 0-3.6-2.8-6.5-6.4-6.6-12.7-0.1-25.5 0.2-38.1 0.9-3.6 0.3-6.4 3.3-6.1 6.9z"/>
				<path id="&lt;Path&gt;" class="s0" d="m1007.4 514.2c-0.2 1.4 0.2 2.8 0.9 3.9 1 1.7 2.9 2.9 5 3.1 12.3 1 24.8 2.4 37 4.3 3.5 0.5 6.8-1.9 7.4-5.5 0.5-3.5-1.9-6.8-5.5-7.4-12.5-1.9-25.2-3.3-37.8-4.3-3.6-0.3-6.8 2.3-7 5.9z"/>
				<path id="&lt;Path&gt;" class="s0" d="m652.6 616.4q0.1 0.2 0.3 0.4c2.1 2.9 6.1 3.6 9 1.5 10.1-7.1 20.5-14 31.1-20.5 3-1.9 4-5.9 2.1-8.9-1.8-3.1-5.8-4.1-8.9-2.2-10.8 6.6-21.5 13.7-31.8 21-2.8 2-3.5 5.8-1.8 8.7z"/>
				<path id="&lt;Path&gt;" class="s0" d="m785.2 545.9q0.3 0.7 0.6 1.2c1.6 2.6 4.8 3.8 7.7 2.8 11.7-4.2 23.6-7.9 35.5-11.2 3.4-1 5.5-4.6 4.5-8-0.9-3.5-4.5-5.5-8-4.5-12.2 3.3-24.4 7.2-36.3 11.4-3.4 1.2-5.2 4.9-4 8.3z"/>
				<path id="&lt;Path&gt;" class="s0" d="m1082.7 529.4c0.9 1.4 2.3 2.5 4.1 2.9 12.1 2.7 24.2 5.9 36 9.4 3.5 1 7.1-1 8.1-4.4 1-3.5-0.9-7.1-4.4-8.1-12.1-3.6-24.5-6.8-36.8-9.6-3.5-0.7-7 1.5-7.8 5-0.4 1.7 0 3.4 0.8 4.8z"/>
				<path id="&lt;Path&gt;" class="s0" d="m716.6 576.8q0.1 0.2 0.2 0.3c1.8 2.9 5.5 4 8.6 2.4 10.9-5.7 22.2-11.1 33.5-16 3.3-1.4 4.8-5.3 3.4-8.6-1.4-3.2-5.3-4.8-8.6-3.3-11.5 5-23.1 10.5-34.3 16.4-3.2 1.6-4.5 5.6-2.8 8.8z"/>
				<path id="&lt;Path&gt;" class="s0" d="m1223.3 582c0.5 0.9 1.4 1.7 2.4 2.3 10.9 5.9 21.6 12.2 32 18.9 3.1 1.9 7.1 1 9-2 1.9-3.1 1-7.1-2-9-10.6-6.8-21.7-13.3-32.8-19.3-3.1-1.7-7.1-0.6-8.8 2.6-1.1 2.1-1 4.6 0.2 6.5z"/>
				<path id="&lt;Path&gt;" class="s0" d="m1154.8 550.8c0.8 1.2 1.9 2.2 3.3 2.7 11.6 4.3 23.1 9.1 34.3 14.2 3.3 1.5 7.2 0.1 8.7-3.2 1.4-3.3 0-7.1-3.3-8.6-11.5-5.3-23.3-10.2-35.1-14.6-3.4-1.2-7.2 0.5-8.4 3.8-0.7 2-0.5 4 0.5 5.7z"/>
				<path id="&lt;Path&gt;" class="s0" d="m1343.8 671.3q0.4 0.6 1 1.2c8.8 8.7 17.4 17.8 25.6 27 2.3 2.7 6.4 3 9.1 0.6 2.7-2.4 3-6.5 0.6-9.2-8.4-9.5-17.2-18.8-26.2-27.6-2.5-2.6-6.6-2.5-9.2 0-2.1 2.2-2.4 5.5-0.9 8z"/>
				<path id="&lt;Path&gt;" class="s0" d="m1434.9 790.3c6.1 10.8 11.9 21.9 17.2 33q0.2 0.3 0.3 0.6c1.7 2.8 5.3 3.9 8.4 2.4 3.2-1.5 4.6-5.4 3-8.6-5.4-11.4-11.3-22.8-17.6-33.8-1.7-3.1-5.7-4.2-8.8-2.5-3.1 1.8-4.2 5.8-2.5 8.9z"/>
				<path id="&lt;Path&gt;" class="s0" d="m1393.6 727.7q0.1 0.3 0.4 0.6c7.4 9.8 14.7 20 21.5 30.3 2 3 6 3.8 9 1.8 3-2 3.8-6 1.9-9-7-10.6-14.4-21-22.1-31-2.2-2.9-6.3-3.4-9.1-1.2-2.7 2-3.3 5.7-1.6 8.5z"/>
				<path id="&lt;Path&gt;" class="s0" d="m1467 857.4c4.5 11.5 8.7 23.2 12.4 35q0.2 0.8 0.6 1.5c1.6 2.4 4.6 3.7 7.6 2.8 3.4-1.1 5.3-4.8 4.2-8.2-3.8-12.1-8.1-24.1-12.7-35.9-1.4-3.3-5.1-5-8.5-3.7-3.3 1.4-5 5.1-3.6 8.5z"/>
				<path id="&lt;Path&gt;" class="s0" d="m1286.7 622.4q0.6 1 1.6 1.8c10 7.4 19.7 15.1 29.1 23.2 2.7 2.3 6.9 2 9.2-0.7 2.3-2.8 2-6.9-0.7-9.2-9.6-8.2-19.7-16.2-29.8-23.7-2.9-2.2-7-1.6-9.1 1.3-1.6 2.2-1.7 5.1-0.3 7.3z"/>
			</g>
			<g id="&lt;Group&gt;">
				<g id="&lt;Group&gt;">
					<path id="&lt;Path&gt;" class="s1" d="m1404.1 1185.7v115.3h-48.4v-115.3z"/>
					<path id="&lt;Path&gt;" class="s1" d="m1355.7 1185.7v115.3h-88.4v-40.3h66.4v-75z"/>
					<path id="&lt;Path&gt;" class="s1" d="m1355.7 1301v209.4h-14.2l5-15.7v-66.8h-45.5v68.7l-0.5 1.6v-197.2z"/>
					<g id="&lt;Group&gt;">
						<path id="&lt;Path&gt;" class="s1" d="m1529.5 1688.2c-6.3 3-13.3 4.6-20.7 4.6-26.3 0-47.7-21.3-47.7-47.6 0-26.4 21.4-47.7 47.7-47.7v23.7c-4.1 7.1-6.4 15.2-6.4 24 0 18.9 11.1 35.3 27.1 43z"/>
						<path id="&lt;Path&gt;" class="s1" d="m1597.8 1645.2c0 26.3-21.4 47.6-47.7 47.6-7.4 0-14.4-1.6-20.6-4.6-16-7.7-27.1-24.1-27.1-43 0-8.8 2.3-16.9 6.4-24 4.8-8.2 12-14.9 20.7-19.1 4-1.9 8.2-3.3 12.8-4q3.8-0.6 7.8-0.6c26.3 0 47.7 21.3 47.7 47.7z"/>
						<path id="&lt;Path&gt;" class="s1" d="m1542.3 1566.3v31.8c-4.6 0.7-8.8 2.1-12.8 4-8.7 4.2-15.9 10.9-20.7 19.1v-48.1l-153.1-78v-67.2c0 0 155.2 107.9 172.1 117.7 17 9.7 14.5 20.7 14.5 20.7z"/>
					</g>
					<g id="&lt;Group&gt;">
						<path id="&lt;Path&gt;" class="s1" d="m1126.8 1679.7c-6.3 3-13.3 4.7-20.7 4.7-26.3 0-47.6-21.4-47.6-47.7 0-26.4 21.3-47.7 47.6-47.7q4.1 0 7.9 0.6v13.1c-8.8 8.6-14.3 20.7-14.3 34 0 18.9 11.1 35.3 27.1 43z"/>
						<path id="&lt;Path&gt;" class="s1" d="m1300.5 1427.9v67.2l-153.1 78v15.9c-7.4 0-14.4 1.7-20.6 4.7-4.8 2.3-9.1 5.3-12.8 9v-36.4c0 0-2.6-11 14.4-20.7 17-9.8 172.1-117.7 172.1-117.7z"/>
						<path id="&lt;Path&gt;" class="s1" d="m1195.1 1636.7c0 26.3-21.4 47.7-47.7 47.7-7.4 0-14.4-1.7-20.6-4.7-16-7.7-27.1-24.1-27.1-43 0-13.3 5.5-25.4 14.3-34 3.7-3.7 8-6.7 12.8-9 6.2-3 13.2-4.7 20.6-4.7 26.3 0 47.7 21.3 47.7 47.7z"/>
					</g>
					<path id="&lt;Path&gt;" class="s1" d="m1330.9 1427.9v66.8l-5 15.7-26.4 82.6-5-0.2c-10 1.4-18.5 23.3-19 49.1h-24.7l15-43.4 34.7-100.3 0.5-1.6v-68.7z"/>
					<path id="&lt;Path&gt;" class="s1" d="m1346.5 1427.9v66.8l-5 15.7-26.6 83.3-15.4-0.7 26.4-82.6 5-15.7v-66.8z"/>
					<g id="&lt;Group&gt;">
						<g id="&lt;Group&gt;">
							<path id="&lt;Path&gt;" class="s1" d="m1334.5 1689.8q0.3 0 0.6 0l-43.2-1.7c-9.6-0.4-16.8-20-16.5-45.1q0-0.5 0.1-1.1c0.5-25.8 9-47.7 19-49.1l5 0.2 15.4 0.7 23 0.9c-10.2 1.5-18.7 23.9-19.1 50.2q0 2 0 4 0 0.6 0.1 1.2 0 2.3 0.2 4.5 0 1 0.1 2 0.1 0.3 0.1 0.6 0 0.7 0.1 1.3 0.1 1.1 0.3 2.3 0.1 0.9 0.2 1.8 0.1 0.5 0.2 1 0.3 2.1 0.7 4 0.2 0.8 0.3 1.6 0.1 0.2 0.1 0.4 0.1 0.3 0.2 0.7 0.1 0.5 0.3 1.1 0.2 0.9 0.5 1.8 0.2 0.8 0.5 1.6 0.2 0.6 0.4 1.2 0.3 1 0.7 2 0.3 0.7 0.6 1.4 0.2 0.4 0.4 0.9 0.3 0.6 0.7 1.2 0 0.1 0.1 0.2 0.2 0.4 0.4 0.8 0.1 0.3 0.3 0.6 0.2 0.2 0.3 0.5 0.2 0.3 0.4 0.5 1.2 1.8 2.4 3 0.3 0.2 0.5 0.4 1.1 1 2.2 1.6 0.4 0.2 0.9 0.4 0 0 0.1 0 0.4 0.2 0.7 0.2 0.3 0.1 0.7 0.2z"/>
						</g>
						<g id="&lt;Group&gt;">
							<path id="&lt;Path&gt;" class="s1" d="m1355.7 1639.6c-0.3 26.2-8.9 48.7-19.1 50.2q-0.7 0.1-1.5 0-0.3 0-0.6 0-0.4-0.1-0.7-0.2-0.3-0.1-0.7-0.2-0.1 0-0.1 0-0.5-0.2-0.9-0.4-1.1-0.6-2.2-1.6-0.3-0.2-0.5-0.4-1.2-1.2-2.4-3-0.2-0.2-0.4-0.5-0.1-0.3-0.3-0.5-0.2-0.3-0.3-0.6-0.2-0.4-0.4-0.8-0.1-0.1-0.1-0.2-0.4-0.6-0.7-1.2-0.2-0.5-0.4-0.9-0.3-0.7-0.6-1.4-0.4-1-0.7-2-0.2-0.6-0.4-1.2-0.3-0.8-0.5-1.6-0.3-0.9-0.5-1.8-0.2-0.6-0.3-1.1-0.1-0.4-0.2-0.7 0-0.2-0.1-0.4-0.1-0.8-0.3-1.6-0.4-1.9-0.7-4-0.1-0.5-0.2-1-0.1-0.9-0.2-1.8-0.2-1.2-0.3-2.3-0.1-0.6-0.1-1.3 0-0.3-0.1-0.6-0.1-1-0.1-2-0.2-2.2-0.2-4.5-0.1-0.6-0.1-1.2 0-2 0-4c0.4-26.3 8.9-48.7 19.1-50.2 10.2-1.4 18.2 18.7 17.8 45z"/>
						</g>
					</g>
					<g id="&lt;Group&gt;">
						<g id="&lt;Group&gt;">
							<path id="&lt;Path&gt;" class="s1" d="m1255 1689.8l-43.4-1.8c-9.6-0.3-16.8-19.9-16.5-45 0.4-26.3 8.9-48.7 19.1-50.2l43.4 1.8c-10.2 1.5-18.7 23.9-19.1 50.2-0.3 25.1 6.9 44.6 16.5 45z"/>
						</g>
						<g id="&lt;Group&gt;">
							<path id="&lt;Path&gt;" class="s1" d="m1275.3 1641.9c-0.8 25.3-9.1 46.5-19 47.9q-0.8 0.1-1.5 0-0.2 0-0.4 0-0.2 0-0.5-0.1-0.2 0-0.4-0.1-0.3-0.1-0.7-0.2-0.1 0-0.1 0-0.5-0.2-0.9-0.4-0.3-0.2-0.6-0.4-0.3-0.2-0.6-0.4-0.1 0-0.1 0-0.1-0.1-0.1-0.1-0.2-0.1-0.4-0.3-0.2-0.2-0.4-0.3-0.4-0.4-0.8-0.8-0.3-0.4-0.7-0.8-0.2-0.2-0.4-0.4-0.2-0.4-0.5-0.7-0.3-0.4-0.5-0.8-0.2-0.2-0.4-0.5-0.1-0.3-0.3-0.5-0.2-0.3-0.3-0.6-0.9-1.5-1.6-3.1-0.3-0.7-0.6-1.4-0.3-0.7-0.6-1.5-0.2-0.6-0.4-1.2-0.4-1.3-0.8-2.6-0.1-0.4-0.2-0.9-0.3-0.9-0.5-1.8-0.1-0.4-0.2-0.8-0.2-1-0.4-1.9-0.1-0.8-0.3-1.6-0.2-1-0.3-2.1-0.1-0.5-0.2-1-0.1-0.6-0.2-1.3 0-0.1 0-0.1-0.1-0.7-0.2-1.3 0-0.1 0-0.1 0-0.7-0.1-1.3-0.1-0.8-0.2-1.6 0-0.7-0.1-1.4-0.2-2.7-0.3-5.5 0-0.5 0-1.1 0-2 0-4c0.4-26.3 8.9-48.7 19.1-50.2 3-0.4 5.8 1 8.2 3.9l-15 43.4z"/>
						</g>
					</g>
				</g>
				<path id="&lt;Path&gt;" class="s2" d="m1408.3 816.9l3.1 89.8-22.6 58.9h22.6l21.5-58.9v-89.8z"/>
				<path id="&lt;Path&gt;" class="s3" d="m1503.3 816.9v89.8h-48.4v-89.8z"/>
				<path id="&lt;Path&gt;" class="s3" d="m1454.9 816.9v89.8h-22v-89.8z"/>
				<path id="&lt;Path&gt;" class="s4" d="m1503.3 906.7l-99.2 279h-48.4l99.2-279z"/>
				<path id="&lt;Path&gt;" class="s3" d="m1454.9 906.7l-99.2 279h-22l99.2-279z"/>
				<g id="&lt;Group&gt;">
					<path id="&lt;Path&gt;" class="s4" d="m1404.1 1185.7v115.3h-48.4v-115.3z"/>
					<path id="&lt;Path&gt;" class="s3" d="m1355.7 1185.7v115.3h-88.4v-40.3h66.4v-75z"/>
					<path id="&lt;Path&gt;" class="s4" d="m1355.7 1301v209.4h-14.2l5-15.7v-66.8h-45.5v68.7l-0.5 1.6v-197.2z"/>
					<g id="&lt;Group&gt;">
						<path id="&lt;Path&gt;" class="s4" d="m1529.5 1688.2c-6.3 3-13.3 4.6-20.7 4.6-26.3 0-47.7-21.3-47.7-47.6 0-26.4 21.4-47.7 47.7-47.7v23.7c-4.1 7.1-6.4 15.2-6.4 24 0 18.9 11.1 35.3 27.1 43z"/>
						<path id="&lt;Path&gt;" class="s3" d="m1597.8 1645.2c0 26.3-21.4 47.6-47.7 47.6-7.4 0-14.4-1.6-20.6-4.6-16-7.7-27.1-24.1-27.1-43 0-8.8 2.3-16.9 6.4-24 4.8-8.2 12-14.9 20.7-19.1 4-1.9 8.2-3.3 12.8-4q3.8-0.6 7.8-0.6c26.3 0 47.7 21.3 47.7 47.7z"/>
						<path id="&lt;Path&gt;" class="s4" d="m1542.3 1566.3v31.8c-4.6 0.7-8.8 2.1-12.8 4-8.7 4.2-15.9 10.9-20.7 19.1v-48.1l-153.1-78v-67.2c0 0 155.2 107.9 172.1 117.7 17 9.7 14.5 20.7 14.5 20.7z"/>
					</g>
					<g id="&lt;Group&gt;">
						<path id="&lt;Path&gt;" class="s4" d="m1126.8 1679.7c-6.3 3-13.3 4.7-20.7 4.7-26.3 0-47.6-21.4-47.6-47.7 0-26.4 21.3-47.7 47.6-47.7q4.1 0 7.9 0.6v13.1c-8.8 8.6-14.3 20.7-14.3 34 0 18.9 11.1 35.3 27.1 43z"/>
						<path id="&lt;Path&gt;" class="s4" d="m1300.5 1427.9v67.2l-153.1 78v15.9c-7.4 0-14.4 1.7-20.6 4.7-4.8 2.3-9.1 5.3-12.8 9v-36.4c0 0-2.6-11 14.4-20.7 17-9.8 172.1-117.7 172.1-117.7z"/>
						<path id="&lt;Path&gt;" class="s3" d="m1195.1 1636.7c0 26.3-21.4 47.7-47.7 47.7-7.4 0-14.4-1.7-20.6-4.7-16-7.7-27.1-24.1-27.1-43 0-13.3 5.5-25.4 14.3-34 3.7-3.7 8-6.7 12.8-9 6.2-3 13.2-4.7 20.6-4.7 26.3 0 47.7 21.3 47.7 47.7z"/>
					</g>
					<path id="&lt;Path&gt;" class="s3" d="m1330.9 1427.9v66.8l-5 15.7-26.4 82.6-5-0.2c-10 1.4-18.5 23.3-19 49.1h-24.7l15-43.4 34.7-100.3 0.5-1.6v-68.7z"/>
					<path id="&lt;Path&gt;" class="s4" d="m1346.5 1427.9v66.8l-5 15.7-26.6 83.3-15.4-0.7 26.4-82.6 5-15.7v-66.8z"/>
					<g id="&lt;Group&gt;">
						<g id="&lt;Group&gt;">
							<path id="&lt;Path&gt;" class="s3" d="m1334.5 1689.8q0.3 0 0.6 0l-43.2-1.7c-9.6-0.4-16.8-20-16.5-45.1q0-0.5 0.1-1.1c0.5-25.8 9-47.7 19-49.1l5 0.2 15.4 0.7 23 0.9c-10.2 1.5-18.7 23.9-19.1 50.2q0 2 0 4 0 0.6 0.1 1.2 0 2.3 0.2 4.5 0 1 0.1 2 0.1 0.3 0.1 0.6 0 0.7 0.1 1.3 0.1 1.1 0.3 2.3 0.1 0.9 0.2 1.8 0.1 0.5 0.2 1 0.3 2.1 0.7 4 0.2 0.8 0.3 1.6 0.1 0.2 0.1 0.4 0.1 0.3 0.2 0.7 0.1 0.5 0.3 1.1 0.2 0.9 0.5 1.8 0.2 0.8 0.5 1.6 0.2 0.6 0.4 1.2 0.3 1 0.7 2 0.3 0.7 0.6 1.4 0.2 0.4 0.4 0.9 0.3 0.6 0.7 1.2 0 0.1 0.1 0.2 0.2 0.4 0.4 0.8 0.1 0.3 0.3 0.6 0.2 0.2 0.3 0.5 0.2 0.3 0.4 0.5 1.2 1.8 2.4 3 0.3 0.2 0.5 0.4 1.1 1 2.2 1.6 0.4 0.2 0.9 0.4 0 0 0.1 0 0.4 0.2 0.7 0.2 0.3 0.1 0.7 0.2z"/>
						</g>
						<g id="&lt;Group&gt;">
							<path id="&lt;Path&gt;" class="s4" d="m1355.7 1639.6c-0.3 26.2-8.9 48.7-19.1 50.2q-0.7 0.1-1.5 0-0.3 0-0.6 0-0.4-0.1-0.7-0.2-0.3-0.1-0.7-0.2-0.1 0-0.1 0-0.5-0.2-0.9-0.4-1.1-0.6-2.2-1.6-0.3-0.2-0.5-0.4-1.2-1.2-2.4-3-0.2-0.2-0.4-0.5-0.1-0.3-0.3-0.5-0.2-0.3-0.3-0.6-0.2-0.4-0.4-0.8-0.1-0.1-0.1-0.2-0.4-0.6-0.7-1.2-0.2-0.5-0.4-0.9-0.3-0.7-0.6-1.4-0.4-1-0.7-2-0.2-0.6-0.4-1.2-0.3-0.8-0.5-1.6-0.3-0.9-0.5-1.8-0.2-0.6-0.3-1.1-0.1-0.4-0.2-0.7 0-0.2-0.1-0.4-0.1-0.8-0.3-1.6-0.4-1.9-0.7-4-0.1-0.5-0.2-1-0.1-0.9-0.2-1.8-0.2-1.2-0.3-2.3-0.1-0.6-0.1-1.3 0-0.3-0.1-0.6-0.1-1-0.1-2-0.2-2.2-0.2-4.5-0.1-0.6-0.1-1.2 0-2 0-4c0.4-26.3 8.9-48.7 19.1-50.2 10.2-1.4 18.2 18.7 17.8 45z"/>
						</g>
					</g>
					<g id="&lt;Group&gt;">
						<g id="&lt;Group&gt;">
							<path id="&lt;Path&gt;" class="s3" d="m1255 1689.8l-43.4-1.8c-9.6-0.3-16.8-19.9-16.5-45 0.4-26.3 8.9-48.7 19.1-50.2l43.4 1.8c-10.2 1.5-18.7 23.9-19.1 50.2-0.3 25.1 6.9 44.6 16.5 45z"/>
						</g>
						<g id="&lt;Group&gt;">
							<path id="&lt;Path&gt;" class="s4" d="m1275.3 1641.9c-0.8 25.3-9.1 46.5-19 47.9q-0.8 0.1-1.5 0-0.2 0-0.4 0-0.2 0-0.5-0.1-0.2 0-0.4-0.1-0.3-0.1-0.7-0.2-0.1 0-0.1 0-0.5-0.2-0.9-0.4-0.3-0.2-0.6-0.4-0.3-0.2-0.6-0.4-0.1 0-0.1 0-0.1-0.1-0.1-0.1-0.2-0.1-0.4-0.3-0.2-0.2-0.4-0.3-0.4-0.4-0.8-0.8-0.3-0.4-0.7-0.8-0.2-0.2-0.4-0.4-0.2-0.4-0.5-0.7-0.3-0.4-0.5-0.8-0.2-0.2-0.4-0.5-0.1-0.3-0.3-0.5-0.2-0.3-0.3-0.6-0.9-1.5-1.6-3.1-0.3-0.7-0.6-1.4-0.3-0.7-0.6-1.5-0.2-0.6-0.4-1.2-0.4-1.3-0.8-2.6-0.1-0.4-0.2-0.9-0.3-0.9-0.5-1.8-0.1-0.4-0.2-0.8-0.2-1-0.4-1.9-0.1-0.8-0.3-1.6-0.2-1-0.3-2.1-0.1-0.5-0.2-1-0.1-0.6-0.2-1.3 0-0.1 0-0.1-0.1-0.7-0.2-1.3 0-0.1 0-0.1 0-0.7-0.1-1.3-0.1-0.8-0.2-1.6 0-0.7-0.1-1.4-0.2-2.7-0.3-5.5 0-0.5 0-1.1 0-2 0-4c0.4-26.3 8.9-48.7 19.1-50.2 3-0.4 5.8 1 8.2 3.9l-15 43.4z"/>
						</g>
					</g>
				</g>
				<path id="&lt;Path&gt;" class="s2" d="m1437.9 1268.8c-16.4 8.4-119.7 12-119.7 12 0 0-79.9 0.6-152.9-2.6-47.3-2-91.8-5.7-109.7-12-45.3-16.1-31.8-80.5-10.6-97.7 21.2-17.2 56-2.3 144.3 7 88.3 9.3 228.3-3.4 241.8-6.2 5.9-1.2 14.3-1.4 22.2 1.3 10.1 3.6 19.6 12.2 22.4 30.3 4.9 32.2-21.4 59.4-37.8 67.9z"/>
				<path id="&lt;Path&gt;" class="s5" d="m1453.3 1170.6c-14.7 9.9-43.5 23.6-90.5 24-73.7 0.7-161.5-3.2-188.8-8.9-27.2-5.8-59.2 30.4-43.8 67.4 5.2 12.5 17.1 20.2 35.1 25.1-47.3-2-91.8-5.7-109.7-12-45.3-16.1-31.8-80.5-10.6-97.7 21.2-17.2 56-2.3 144.3 7 88.3 9.3 228.3-3.4 241.8-6.2 5.9-1.2 14.3-1.4 22.2 1.3z"/>
				<path id="&lt;Path&gt;" class="s2" d="m1581 968.5h-240.3c-19 0-32.1-15.4-29.4-34.4l20.9-144.6c2.8-19 20.4-34.4 39.4-34.4h240.3c18.9 0 32.1 15.4 29.4 34.4l-21 144.6c-2.7 19-20.3 34.4-39.3 34.4z"/>
				<path id="&lt;Path&gt;" class="s5" d="m1534.2 965.6h-207.2c-19 0-32.2-15.3-29.4-34.3l20.9-144.7c2.7-19 20.3-34.3 39.3-34.3h207.3c18.9 0 32.1 15.3 29.4 34.3l-21 144.7c-2.7 19-20.3 34.3-39.3 34.3z"/>
			</g>
			<g id="&lt;Group&gt;">
				<path id="&lt;Path&gt;" class="s6" d="m1066.7 1673.8c-0.3 4.8-25.3-18.7-30-17-4.6 1.6-20.3 26-21.3 27-1 1-62 7-88 5.3-26-1.7-44-10-44-10l61.3-36 92-55 8 4c0 0 3-0.7 4.7 6 1.7 6.7 18 67 17.3 75.7z"/>
				<path id="&lt;Path&gt;" class="s6" d="m1145.6 1687.4c-0.4 4.8-25.4-18.7-30-17-4.7 1.7-20.4 26-21.4 27-1 1-62 7-88 5.3-26-1.6-44-10-44-10l61.4-36 92-55 8 4c0 0 3-0.6 4.6 6 1.7 6.7 18 67 17.4 75.7z"/>
				<path id="&lt;Path&gt;" class="s7" d="m1080.1 1228.4l-20 3.4c0 0 1.3 37.3 0 64-1.4 26.6-21.7 214-23 236.3-1.4 22.3 10 54.7 7.6 60-2.3 5.3-74 67-78 66-1.9-0.5-7.2-4.1-12.2-7.6-5.1-3.8-9.8-7.4-9.8-7.4 0 0 4.7-8 11-18 6.2-10 31.5-42.1 31.5-61.4 0-19.4-17.1-223.9-22.5-258.6-4.7-30.8-16.8-107.1-1.6-156.9 1.9-6.1 4.2-11.9 7-17.1 3.9-7.2 8.2-13.3 12.9-18.4 25.7-28 59.4-25.6 59.4-25.6 0 0 14.7 13.7 19.3 17.3 1.4 1.1 6.6 4.4 13.3 9 16.7 11.4 42.9 30.6 43.1 42.7 0.4 17-38 72.3-38 72.3z"/>
				<path id="&lt;Path&gt;" class="s8" d="m1080.1 1228.4l-20 3.4c0 0 1.3 37.3 0 64-1.4 26.6-21.7 214-23 236.3-1.4 22.3 10 54.7 7.6 60-2.3 5.3-74 67-78 66-1.9-0.5-7.2-4.1-12.2-7.6 17.5-14.1 52.9-44.9 60.9-68.4 10.8-31.5-14.7-393-14.7-393 0 0-16.3-34.9-37.6-40.9 1.9-6.1 4.2-11.9 7-17.1 3.9-7.2 8.2-13.3 12.9-18.4q0 0 0 0c32.5-2.1 65.7-1 92 0.7 16.7 11.4 42.9 30.6 43.1 42.7 0.4 17-38 72.3-38 72.3z"/>
				<path id="&lt;Path&gt;" class="s7" d="m1158.9 1242.1l-20 3.3c0 0 1.3 37.3 0 64-1.3 26.7-21.7 214-23 236.3-1.3 22.4 10 54.7 7.7 60-2.4 5.4-74 67-78 66-4-1-22-15-22-15 0 0 4.6-8 10.9-18 6.2-10 28.7-43 28.7-62.3 0-19.3-14.3-223-19.6-257.7-5.4-34.6-20-126.6 5.3-174 2.6-4.9 5.5-9.3 8.5-13.1 9.8-12.6 21.2-20.1 31.7-24.5 17.4-7.4 32.1-6.4 32.1-6.4 0 0 14.7 13.7 19.4 17.4 2.7 2.1 10.7 19.2 16.8 36.2 4.1 11.6 7.4 23.2 7.5 30.1 0.3 17-6 57.7-6 57.7z"/>
				<path id="&lt;Path&gt;" class="s8" d="m1158.9 1242.1l-20 3.3c0 0 1.3 37.3 0 64-1.3 26.7-21.7 214-23 236.3-1.3 22.4 10 54.7 7.7 60-2.4 5.4-74 67-78 66-4-1-22-15-22-15l22.6 7.4c0 0 63.4-57.4 64.7-62.4 1.3-5-4-41-4-41 0 0 5.4-216.7 11.2-261.7 5.9-45-11.8-73.5-11.8-73.5l27-10.5c0 0-1.5-21-12.1-42-8.9-17.7-50.6-36-63.8-41.4 9.8-12.6 21.2-20.1 31.7-24.5 6.1-1.7 10.5-2.4 10.5-2.4l57.8 49.6c4.1 11.6 7.4 23.2 7.5 30.1 0.3 17-6 57.7-6 57.7z"/>
				<path id="&lt;Path&gt;" class="s9" d="m1394.9 1156.7c0 0-24.2 47.9-53.9 58.7-29.8 10.7-133.4 24.7-182.1 26.7 0 0-3.8-28.6-9.8-52.4-1.9-7.4-4-14.3-6.3-19.8-9.6-23-36.4-42.7-79.9-44.7-43.5-2-83.7-3.3-83.7-3.3l-10 15.5c0 0-7.5-39 23.5-55.5 8.3-4.4 25.1-8.7 45.1-12.5 54.8-10.5 134.4-18 134.4-18 0 0 63-20 128-16 65 4 93.5 16.5 105.5 50 12 33.5-10.8 71.3-10.8 71.3z"/>
				<path id="&lt;Path&gt;" class="s6" d="m1394.9 1156.7c0 0-24.2 47.9-53.9 58.7-29.8 10.7-133.4 24.7-182.1 26.7 0 0-3.8-28.6-9.8-52.4 55.3-11.5 192.3-40.9 193.1-51.2 1-13-14-48.1-41.8-59.1-27.8-11-255.2-10-255.2-10h-7.4c54.8-10.5 134.4-18 134.4-18 0 0 63-20 128-16 65 4 93.5 16.5 105.5 50 12 33.5-10.8 71.3-10.8 71.3z"/>
				<path id="&lt;Path&gt;" class="s10" d="m1453.8 785.6c-6 8.6-15 15.8-27.6 21.1-37.1 15.7-76.7 5.4-109.8-11.6q0 0 0 0c-8.5-4.3-16.6-9.1-24-14-31.5-20.6-52.8-43-52.8-43l-31.2-180.7-46.2-32.3c0 0-17.8 0.1-35.4-9.6-13.4-7.3-26.7-20.4-31.9-43.4q-0.5-2.2-0.9-4.3c-9.5-51.7 20.2-98.7 68.2-108.4 6.4-1.3 13.9-2.6 22.2-3.7 21-2.9 47.1-5.2 72.1-5.8 41.5-0.9 80.1 3.1 88.4 16.8 5.6 9.3 13.5 35.1 22.2 66.7 15 54.8 32.1 126.8 43.1 159.3 14.8 43.9 79.4 142.4 43.6 192.9z"/>
				<path id="&lt;Path&gt;" class="s11" d="m1367.1 433.4l-21.9-49.8v11.3c0 0-4.5-9-7.7-8.8-3.1 0.3-0.3 14 0 15.4-0.3-0.7-1.7-5.1-6.3-12.1-5-7.8-24.2-12.3-24.2-12.3 0 0 5.7-0.7 7.2-6 1.5-5.2-9.1-8.5-9.1-8.5l14.1-3c-7.4-3-55.4-8.8-62.7-9.7 41.5-0.9 80.1 3.1 88.4 16.8 5.6 9.3 13.5 35.1 22.2 66.7z"/>
				<path id="&lt;Path&gt;" class="s9" d="m1453.8 785.6c-6 8.6-15 15.8-27.6 21.1-37.1 15.7-76.7 5.4-109.8-11.6q0 0 0 0c-8.1-4.6-16.2-9.3-24-14-31.5-20.6-52.8-43-52.8-43l-31.2-180.7-46.2-32.3c0 0-17.8 0.1-35.4-9.6-10.2-13.5-17.5-32.9-13.6-60.1 10-69 80.4-91.3 80.4-91.3 0 0 40 78.6 98 80.6 58 2 68 20.9 71.3 33.4 0 0-16.7-3.4-21.3-2.7-4.7 0.7-2.7 73.5 16 106.7 15.5 27.7 91.6 135.8 96.2 203.5z"/>
				<path id="&lt;Path&gt;" class="s9" d="m1425.6 1112.7c-10.5 31.5-30.1 43.6-30.7 44 0.3-0.7 11.9-33.5 0-52-12-18.6-51.3-50-82.1-58-30.7-8-140.6 4.7-140.6 4.7l16.7-44.7c0 0 18-68 19.3-78 1.4-10-4.6-34-11.3-48.6-1.3-2.8-4-8.3-7.6-15.5-15-30-45.3-89.1-46.4-97.2-1.3-10 16-85.3 21.3-100 5.4-14.7 15.4-43.3 15.4-43.3l1.3-4.4 14.7-5 94-25.3c0 0 41.3 27.3 55.3 34.7 14 7.3 35.6 17.8 35.6 17.8l10.7 152.7 0.4 4.8c0 0 27.3 181.3 34 210.7 6.6 29.3 10.6 70.6 0 102.6z"/>
				<path id="&lt;Path&gt;" class="s6" d="m1425.6 1112.7c-10.5 31.5-30.1 43.6-30.7 44 0.3-0.7 11.9-33.5 0-52-12-18.6-51.3-50-82.1-58-30.7-8-140.6 4.7-140.6 4.7l16.7-44.7c0 0 18-68 19.3-78 1.4-10-4.6-34-11.3-48.6-1.3-2.8-4-8.3-7.6-15.5 35.6-3.1 131.8 4.4 137.6 2.8 7-1.9 48.3-123 48.3-123 0 0 6.7 20.8 16 50.2l0.4 4.8c0 0 27.3 181.3 34 210.7 6.6 29.3 10.6 70.6 0 102.6z"/>
				<path id="&lt;Path&gt;" class="s12" d="m1189.3 673.4c0 0-14.4 28.2-14.4 28.7 0 0.6 33.9 115.9 33.9 115.9l68.4-85.9 14.4-80.4-17.3 11z"/>
				<path id="&lt;Path&gt;" class="s9" d="m1181.2 631.4c0 0-15 3.5-26 14-11 10.5-20 89-25 116.5-5 27.5-11.5 111.2-11.5 111.2l-12.4 97.4 36.5 71.3 49-17.1-12.6-86.3 24-118v-139z"/>
				<path id="&lt;Path&gt;" class="s7" d="m1287.5 601.7c0 0-2.3 8.4-5.6 14.4-1.8 3.2-14.4 23.1-25.4 40.4-9.1 14.5-17.3 27.2-17.3 27.2l-23 3c0 0-2.6-11.3-4.6-20-0.7-2.7-2.1-8.3-3.8-14.8h-0.1c-3.8-14.2-8.8-32.5-8.8-32.5 0 0 2.9-6.3 4.3-16.3 0.6-3.7 0.7-9.1 0.7-14.5-0.1-9.3-0.7-18.5-0.7-18.5 0 0 14.4-41 29.4-44.4 15-3.3 37.9 0.9 37.9 0.9 0 0 8.7 56.8 10.1 62.8 1.3 6 6.9 12.3 6.9 12.3z"/>
				<path id="&lt;Path&gt;" class="s8" d="m1207.8 651.9l19.9 33.3-11.5 1.5c0 0-2.6-11.3-4.6-20-0.7-2.7-2.1-8.3-3.8-14.8z"/>
				<path id="&lt;Path&gt;" class="s8" d="m1287.5 601.7c0 0-2.3 8.4-5.6 14.4-1.8 3.2-14.4 23.1-25.4 40.4l17.8-52.5-11.4-32.6c0 0-2.7-0.7-19.7 6.7-12.6 5.4-30.7 9-39.3 10.5-0.1-9.3-0.7-18.5-0.7-18.5 0 0 14.4-41 29.4-44.4 15-3.3 37.9 0.9 37.9 0.9 0 0 8.7 56.8 10.1 62.8 1.3 6 6.9 12.3 6.9 12.3z"/>
				<path id="&lt;Path&gt;" class="s7" d="m1283.7 511.9c0 0-23.5 38-40.5 52.5-17 14.5-46.5 22-48.5 22-2 0-31.9-24-39.9-48.5-2.2-6.7-4-15.1-5.2-24.2-3.2-24.2-2.4-54.1 5.2-75.8 10.4-30 36.9-68 36.9-68 0 0 8 57.5 34.5 76.5 26.5 19 57.5 18 57.5 18 0 0 14.5-14.5 22.5-5.5 8 9 11.5 48.5-22.5 53z"/>
				<path id="&lt;Path&gt;" class="s8" d="m1283.7 511.9c0 0-23.5 38-40.5 52.5-17 14.5-46.5 22-48.5 22 10.9-3.7 37.5-18.7 53.5-34.3 16-15.7 26.1-45.4 26.1-45.4 0 0 4.6 0 11.3-2.6 6.6-2.7 9.7-10.2 9.7-10.2l-3.7-15.8c-92.7 9.5-110.4-66.7-110.4-66.7-20.2 22.3-28.5 73.5-31.6 102.3-3.2-24.2-2.4-54.1 5.2-75.8 10.4-30 36.9-68 36.9-68 0 0 8 57.5 34.5 76.5 26.5 19 57.5 18 57.5 18 0 0 14.5-14.5 22.5-5.5 8 9 11.5 48.5-22.5 53z"/>
				<path id="&lt;Path&gt;" class="s5" d="m1332.9 461.4c0 19.1-12.5 34.7-27.8 34.7-15.4 0-27.9-15.6-27.9-34.7 0-19.2 12.5-34.7 27.9-34.7 15.3 0 27.8 15.5 27.8 34.7z"/>
				<g id="&lt;Group&gt;">
					<path id="&lt;Path&gt;" class="s5" d="m1246.2 307.4c-28.7 0-45.2 12.9-54 23.7-9.5 11.7-12.1 23.3-12.2 23.8q-0.1 0.5-0.1 0.9 4.2-0.6 8.4-0.9c2.4-7.7 14.8-39.5 57.9-39.5 20.2 0 35.4 17.9 45.4 53.1 7.9 28 9.5 58.3 9.5 64.9 0 2.2 1.8 4 4 4 2.2 0 4-1.8 4-4 0-1.3-2.7-126-62.9-126z"/>
				</g>
				<path id="&lt;Path&gt;" class="s1" d="m1216.6 688.9l-11-8.3-15.7 8.3-8.7-69.7 17.7-5.8 9.1 37.8z"/>
				<path id="&lt;Path&gt;" class="s1" d="m1236.6 689.4l11-6.3 13 13.6 51.4-92.7-22.4-14.6-2.1 12.3c0 0-3.6 11.5-14.6 28.9-11 17.5-36 56.8-36.3 58.8z"/>
				<path id="&lt;Path&gt;" class="s10" d="m1216.2 686.7v15.4h14.5l8.5-18.4z"/>
				<path id="&lt;Path&gt;" class="s10" d="m1216.2 702.1l-13 33.8-4.3 71.2 14.2 15.6 26.1-63.6-8.5-57z"/>
				<path id="&lt;Path&gt;" class="s3" d="m1215.9 1044.6h-287.9l-0.5-2.8-36.2-170.9c-1.7-7.9 4.3-15.3 12.4-15.3h261.9q0.5 0 0.9 0c5.6 0.4 10.3 4.5 11.5 10z"/>
				<path id="&lt;Path&gt;" class="s3" d="m1308.2 1044.6l-13 16.8h-367.2v-16.8z"/>
				<path id="&lt;Path&gt;" class="s9" d="m1203.2 873.1c0 0 7.3-79.1 36.4-135 29.1-56 72.4-134.1 72.4-134.1l21.5 13.5c0 0-37.5 159.9-40.4 164.1-2.9 4.1-34.5 9.1-34.5 9.1l-8 37.7c0 0-31.7 20.3-47.4 44.7z"/>
				<path id="&lt;Path&gt;" class="s9" d="m1180.9 619.7l-15.4 18.2 3.7 135.5 21 2.2-8.7 23 24.7 51.7 6.9-35.8-23.8-127.8z"/>
				<g id="&lt;Group&gt;">
					<path id="&lt;Path&gt;" class="s5" d="m1213.3 566.6l-0.4-5c38.5-2.7 66.2-16 80.1-38.4 10.5-16.8 9.6-32.8 9.6-33l5-0.3c0 0.7 0.9 17.8-10.3 36-10.3 16.6-33.3 37.1-84 40.7z"/>
				</g>
				<path id="&lt;Path&gt;" class="s5" d="m1220.8 562.6c0 4.9-3.9 8.8-8.8 8.8-4.8 0-8.8-3.9-8.8-8.8 0-4.9 4-8.8 8.8-8.8 4.9 0 8.8 3.9 8.8 8.8z"/>
				<path id="&lt;Path&gt;" class="s11" d="m1184.4 355.7c-36.3 7.4-40.2 23.6-56.7 36.2-17 13-25.5 49-25.5 49v-17c-5.8 13.3-7.7 30.1-8.2 43.9-9.5-51.7 20.2-98.7 68.2-108.4 6.4-1.3 13.9-2.6 22.2-3.7z"/>
				<path id="&lt;Path&gt;" class="s9" d="m1458.2 893.4c-4 10.7-30.6 35.7-48.6 51.7-18 16-78.7 77.3-83.4 78.6-4.6 1.4-12.3 2-22.6-2.6-3.7-1.7-8-5.6-12-10.1-7.6-8.3-14.4-18.3-14.4-18.3v-4c0 0 8-7.6 12-12 4-4.3 64-72.3 74-82.3 10-10 24.3-16.5 24.3-16.5-4-20.3-49.9-135.8-53.9-167.8-2-15.7 2-31.3 9.3-43.7 7.5-12.9 18.6-22.2 30-24.3 17.7-3.4 28.3 13.6 35 34.3 6.7 20.7 26.7 110.3 38.7 144.7 6.9 19.8 11.1 37.3 12.5 50.6 1.1 9.7 0.8 17.2-0.9 21.7z"/>
				<path id="&lt;Path&gt;" class="s6" d="m1412.2 867.4l-24.7 10.5c-4-20.3-49.9-135.8-53.9-167.8-2-15.7 2-31.3 9.3-43.7-1.3 11.8-2.7 31.3 1.3 42 6 16 52 152.3 52 152.3z"/>
				<path id="&lt;Path&gt;" class="s6" d="m1458.2 893.4c-4 10.7-30.6 35.7-48.6 51.7-18 16-78.7 77.3-83.4 78.6-4.6 1.4-12.3 2-22.6-2.6-3.7-1.7-8-5.6-12-10.1 0 0 27.1 2.4 41.9-7.6 14.7-10 108.5-105.3 117.4-114 3.4-3.3 6.1-10.3 8.2-17.7 1.1 9.7 0.8 17.2-0.9 21.7z"/>
				<path id="&lt;Path&gt;" class="s12" d="m1280.9 999.1c0 0-1.3-8.7 3.3-10 4.7-1.4 28 2.3 32.4 10 4.3 7.6 4.3 16.2 2 19.7-2.4 3.6-15.3 4.4-15.3 4.4z"/>
				<path id="&lt;Path&gt;" class="s7" d="m1300.2 1000.7c-5.9-3.1-11.6-5.6-28-4.6-16.3 1-38 9-40.3 11.3-2.3 2.3-20 23.7-19 26 1 2.3 35.3 10.3 46.7 8 11.3-2.3 49.6-20.9 52.6-22.6 3-1.7-5.6-14.7-12-18.1z"/>
				<path id="&lt;Path&gt;" class="s4" d="m1215.9 1044.6h-287.9l-0.5-2.8h275.7l-36.7-186.2c5.6 0.4 10.3 4.5 11.5 10z"/>
				<path id="&lt;Path&gt;" class="s4" d="m1308.2 1044.6l-13 16.8h-92v-16.8z"/>
				<path id="&lt;Path&gt;" class="s4" d="m1061 958.1c0 9.1-7.4 16.5-16.5 16.5-9.1 0-16.5-7.4-16.5-16.5 0-9.2 7.4-16.6 16.5-16.6 9.1 0 16.5 7.4 16.5 16.6z"/>
			</g>
			<g id="&lt;Group&gt;">
				<g id="&lt;Group&gt;">
					<path id="&lt;Path&gt;" class="s13" d="m954.7 669.2h-127.3c-2.5 0-4.4-1.9-4.4-4.4v-80c0-2.4 1.9-4.3 4.4-4.3 2.4 0 4.3 1.9 4.3 4.3v75.7h118.6v-75.7c0-2.4 1.9-4.3 4.4-4.3 2.4 0 4.3 1.9 4.3 4.3v80c0 2.5-1.9 4.4-4.3 4.4z"/>
				</g>
				<g id="&lt;Group&gt;">
					<path id="&lt;Compound Path&gt;" fill-rule="evenodd" class="s13" d="m891 629.2c-0.8 0-1.6-0.2-2.3-0.7l-63.7-40c-1.2-0.8-2-2.2-2-3.6 0-1.5 0.7-2.9 2-3.7l63.9-41.7c1.4-0.9 3.3-0.9 4.8 0l63.3 41.7c1.3 0.8 2 2.2 2 3.7 0 1.5-0.8 2.8-2 3.6l-63.7 40c-0.7 0.5-1.5 0.7-2.3 0.7zm-55.6-44.4l55.6 34.9 55.6-35-55.3-36.3z"/>
				</g>
				<g id="&lt;Group&gt;">
					<path id="&lt;Path&gt;" class="s13" d="m840.8 652.5c3.8-2.9 7.8-5.6 11.8-8.3q6-3.9 12.1-7.7 6.1-3.7 12.4-7.3 6.2-3.6 12.5-7l1.5-0.8 1.5 0.9q2.8 1.7 5.5 3.5 2.7 1.8 5.4 3.6 5.5 3.6 10.8 7.3 5.3 3.7 10.6 7.7c3.4 2.6 6.9 5.2 10.2 8.1-4-1.8-7.9-3.8-11.7-5.7q-5.9-3-11.5-6.2-5.7-3.2-11.4-6.5-2.8-1.6-5.5-3.3-2.8-1.7-5.6-3.4l3.1 0.1q-6.3 3.4-12.6 6.8-6.4 3.3-12.8 6.5-6.5 3.2-13 6.1c-4.4 1.9-8.8 3.9-13.3 5.6z"/>
				</g>
				<g id="&lt;Group&gt;">
					<path id="&lt;Path&gt;" class="s13" d="m930 604.7c-2.4 0-4.4-2-4.4-4.4v-17.7h-70.3v17.1c0 2.4-1.9 4.3-4.3 4.3-2.4 0-4.4-1.9-4.4-4.3v-21.5c0-2.4 2-4.3 4.4-4.3h79c2.4 0 4.3 1.9 4.3 4.3v22.1c0 2.4-1.9 4.4-4.3 4.4z"/>
				</g>
			</g>
			<g id="&lt;Group&gt;">
				<path id="&lt;Path&gt;" class="s14" d="m345.4 898.8h178.3c10.5 0 19 8.5 19 19v56.2c0 10.5-8.5 19.1-19 19.1h-33.6c0.7 4.4 2.9 18.9 6.4 24.3 0 0-18.9-8.5-29.5-24.3h-121.6c-10.5 0-19-8.6-19-19.1v-56.2c0-10.5 8.5-19 19-19z"/>
				<g id="&lt;Group&gt;">
					<path id="&lt;Path&gt;" class="s1" d="m345.9 934.7h175.8v-7.4h-175.8z"/>
					<path id="&lt;Path&gt;" class="s1" d="m345.9 949.6h175.8v-7.4h-175.8z"/>
					<path id="&lt;Path&gt;" class="s1" d="m425.8 964.5h95.9v-7.4h-95.9z"/>
				</g>
			</g>
			<g id="&lt;Group&gt;">
				<g id="&lt;Group&gt;">
					<path id="&lt;Compound Path&gt;" fill-rule="evenodd" class="s13" d="m614.7 829.9c-39.2 0-71.2-32-71.2-71.2 0-39.2 32-71.1 71.2-71.1 39.2 0 71.1 31.9 71.1 71.1 0 39.2-31.9 71.2-71.1 71.2zm0-134.3c-34.8 0-63.1 28.3-63.1 63.1 0 34.8 28.3 63.1 63.1 63.1 34.8 0 63.1-28.3 63.1-63.1 0-34.8-28.3-63.1-63.1-63.1z"/>
				</g>
				<g id="&lt;Group&gt;">
					<path id="&lt;Path&gt;" class="s13" d="m668.5 724.6c-8.2-3.7-17.5-6.5-27.7-8.3-8.4-1.5-17.2-2.2-26.1-2.2-9 0-17.8 0.7-26.2 2.2-10.1 1.8-19.4 4.6-27.6 8.3l-3.4-7.3c8.9-4 18.8-7 29.6-8.9 8.9-1.6 18.2-2.4 27.6-2.4 9.4 0 18.7 0.8 27.6 2.4 10.7 1.9 20.7 4.9 29.5 8.9z"/>
				</g>
				<g id="&lt;Group&gt;">
					<path id="&lt;Path&gt;" class="s13" d="m614.7 811.4c-9.4 0-18.7-0.8-27.6-2.3-10.8-2-20.7-5-29.6-8.9l3.4-7.4c8.2 3.7 17.5 6.5 27.6 8.3 8.4 1.5 17.3 2.3 26.2 2.3 8.9 0 17.7-0.8 26.1-2.3 10.2-1.8 19.5-4.6 27.7-8.3l3.3 7.4c-8.8 3.9-18.8 6.9-29.5 8.9-8.9 1.5-18.2 2.3-27.6 2.3z"/>
				</g>
				<g id="&lt;Group&gt;">
					<path id="&lt;Path&gt;" class="s13" d="m681.8 762.7h-134.2v-8h134.2z"/>
				</g>
				<g id="&lt;Group&gt;">
					<path id="&lt;Compound Path&gt;" fill-rule="evenodd" class="s13" d="m614.7 829.9c-23.1 0-41.2-31.3-41.2-71.2 0-39.9 18.1-71.1 41.2-71.1 23.1 0 41.2 31.2 41.2 71.1 0 39.9-18.1 71.2-41.2 71.2zm0-134.3c-18 0-33.1 28.9-33.1 63.1 0 34.2 15.1 63.1 33.1 63.1 17.9 0 33.1-28.9 33.1-63.1 0-34.2-15.2-63.1-33.1-63.1z"/>
				</g>
			</g>
			<g id="&lt;Group&gt;">
				<g id="&lt;Group&gt;">
					<path id="&lt;Compound Path&gt;" fill-rule="evenodd" class="s9" d="m434.6 591.7c-34 0-61.5-27.6-61.5-61.6 0-33.9 27.5-61.5 61.5-61.5 33.9 0 61.5 27.6 61.5 61.5 0 34-27.6 61.6-61.5 61.6zm0-108.3c-25.8 0-46.7 21-46.7 46.7 0 25.8 20.9 46.7 46.7 46.7 25.7 0 46.7-20.9 46.7-46.7 0-25.7-21-46.7-46.7-46.7z"/>
				</g>
				<g id="&lt;Group&gt;">
					<path id="&lt;Path&gt;" class="s9" d="m334.8 641.9c2.2-3.4 4.5-6.6 6.9-9.8 2.5-3.2 5-6.3 7.5-9.4q7.7-9.2 15.9-17.9l2.1-2.2 2.1-2.2 2.1-2.1q0.2-0.3 0.5-0.6 0.1-0.1 0.5 0c0.3 0.1 0.7 0.2 1.1 0.4l1.2 0.5 0.3 0.2 0.3 0.1 0.3 0.1h0.1l0.1 0.1q0.5 0.1 0.7 0 0.1 0 0.2-0.1l0.1-0.1q4.2-4.3 8.2-8.8 3.9-4.6 7.4-9.4 1.8-2.5 3.4-5c1.1-1.7 2.1-3.4 3-5.2l11.5 9.4c-1.6 1.2-3.1 2.6-4.6 4q-2.1 2.1-4.2 4.3-4.1 4.4-7.8 9.1-3.6 4.7-7 9.7l-0.1 0.1q-0.1 0.1-0.1 0.2 0 0.2 0.2 0.7v0.1l0.1 0.1 0.2 0.3 0.1 0.2 0.2 0.3 0.8 1.1c0.2 0.3 0.5 0.7 0.6 0.9q0.1 0.4 0 0.6-0.2 0.3-0.4 0.6l-1.7 2.5-1.7 2.5-1.8 2.4q-7 9.8-14.5 19.1c-2.5 3.1-5.1 6.1-7.7 9.1-2.7 3-5.4 6-8.3 8.8z"/>
				</g>
			</g>
			<g id="&lt;Group&gt;">
				<path id="&lt;Path&gt;" class="s13" d="m716.2 312.5c0 0-15.2 19.7-12.2 44.9 3 25.2 15.7 37.9 15.7 37.9 0 0 8.7-15.3 27.1-15.9 0 0 19.1 34.2 17.5 37.4-1.5 3.3-29.2 25.8-64.4-1.7-29.6-42.5-26.6-75.2-22.3-90.9 4.3-15.8 10.8-36.7 18.7-45 8-8.4 37.9-26.6 51-18.3 13.2 8.4-0.7 45.2-4.6 48.2-4 3.1-26.5 3.4-26.5 3.4z"/>
				<g id="&lt;Group&gt;">
					<path id="&lt;Path&gt;" class="s13" d="m779.8 439.1c-23.7 0-47.3-9-65.4-27-1.9-2-1.9-5 0-6.9 1.9-1.9 5-1.9 6.9 0 15.6 15.6 36.4 24.2 58.5 24.2q0 0 0.1 0c22.1-0.1 42.9-8.7 58.5-24.3 10.5-10.5 17.9-23.6 21.6-37.8 0.7-2.6 3.3-4.2 5.9-3.5 2.6 0.6 4.2 3.3 3.5 5.9-4.1 15.9-12.4 30.5-24.1 42.2-18 18.1-41.8 27.2-65.5 27.2z"/>
				</g>
				<g id="&lt;Group&gt;">
					<path id="&lt;Compound Path&gt;" class="s14" d="m747.7 359.8l1.9-10.4 15.6-12c14.5-11.8 23.8-20.3 23.8-28.9 0-5.2-3.6-8.8-10-8.8-6.5 0-11.5 1.9-15.3 4.2l-3.2-11.5c5.8-3.5 14.2-6.2 22.4-6.2 14.7 0 22.6 8.6 22.6 19.7 0 14.8-11.8 25-24.6 34.8l-7.1 5.1v0.3h25.9l-2.6 13.7z"/>
					<path id="&lt;Compound Path&gt;" fill-rule="evenodd" class="s14" d="m836.9 359.8l3.3-17.6h-30.8l2-10.7 34.5-44.1h19.7l-8 42.5h8.4l-2.2 12.3h-8.6l-3.3 17.6zm5.7-29.9l3.3-15.7c1-4.5 2.3-9.5 3.4-14.1h-0.4c-3.2 4.9-6 9.5-9.5 14.2l-11.9 15.4-0.1 0.2z"/>
				</g>
			</g>
			<g id="&lt;Group&gt;">
				<g id="&lt;Group&gt;">
					<path id="&lt;Path&gt;" class="s14" d="m689.3 1107.5l-11.5-10.6c-3.2-2.9-3.4-7.9-0.4-11.1l51.4-52.4 19.5 18-48 55.6c-2.9 3.2-7.8 3.4-11 0.5z"/>
					<path id="&lt;Path&gt;" class="s14" d="m746.9 1050l-17-15.5c-2.2-2.1-2.4-5.5-0.3-7.8 2-2.2 5.5-2.3 7.7-0.3l17 15.6c2.2 2.1 2.3 5.5 0.3 7.7-2.1 2.2-5.5 2.4-7.7 0.3z"/>
					<path id="&lt;Path&gt;" class="s14" d="m748.1 1040.2l-8.3-7.7 58.6-63.7 8-0.3 0.3 8z"/>
				</g>
				<g id="&lt;Group&gt;">
					<path id="&lt;Path&gt;" class="s14" d="m677.9 1012.6c5.7 5.4 13.5 7.3 20.6 6l20.5 19 4.3-4.4q-0.4-1.1-0.5-2.2c0-1.8 0.6-3.5 1.8-4.8l3.9-4.3c1.3-1.3 3.1-2.1 4.9-2.1 1.7 0 3.3 0.6 4.5 1.7l3.5 3.3 2.3-2.5-26-24.3c0.9-7.2-1.6-14.8-7.3-20.2-6.6-6.1-15.7-7.8-23.7-5.2l14.5 13.6-3 12.8-12.6 3.9-14.5-13.6c-2.1 8.2 0.2 17.2 6.8 23.3z"/>
					<path id="&lt;Path&gt;" class="s14" d="m804.1 1065.4c-5.7-5.4-13.4-7.3-20.6-6l-25.5-23.8-2.2 2.4 3.3 3.1c1.3 1.2 2.1 2.8 2.2 4.6 0 1.7-0.6 3.4-1.8 4.7l-3.9 4.3c-1.3 1.4-3.1 2.2-4.9 2.2q0 0 0 0-0.8 0-1.5-0.2l-4.4 5.1 19.5 18.2c-0.9 7.2 1.6 14.8 7.4 20.2 6.4 5.9 15.2 7.7 23 5.4l-14.1-13.2 3-12.9 12.6-3.8 14.6 13.6c2.3-8.3 0.1-17.6-6.7-23.9z"/>
				</g>
				<path id="&lt;Path&gt;" class="s14" d="m750 1038.1l56.7-61.6-0.3-8-8 0.3-56.7 61.7-6.5-6.1c-1.1-0.9-2.7-0.8-3.6 0.2l-4 4.3c-0.9 1-0.9 2.6 0.2 3.6l12.4 11.4-11.4-10.5-51.4 52.4c-3 3.2-2.8 8.2 0.4 11.1l11.5 10.6c3.2 2.9 8.1 2.7 11-0.5l48-55.6 0.7 0.6c1 1 2.6 0.9 3.6-0.1l4-4.3c0.9-1.1 0.8-2.7-0.2-3.6z"/>
			</g>
			<g id="&lt;Group&gt;">
				<g id="&lt;Group&gt;">
					<path id="&lt;Compound Path&gt;" fill-rule="evenodd" class="s9" d="m570.6 1321.8c-0.7 2.5-1.7 5-3 7.2l6.4 6.4-12 11.9-6.3-6.4q-3.4 2-7.3 3.1v9h-16.9v-9q-3.8-1.1-7.2-3.1l-6.4 6.4-11.9-11.9 6.3-6.4c-1.2-2.2-2.3-4.7-3-7.2h-9v-16.9h9c0.7-2.6 1.8-5 3-7.3l-6.3-6.4 11.9-11.9 6.4 6.4q3.4-1.9 7.2-3v-9h16.9v9q3.9 1.1 7.3 3l6.3-6.4 12 11.9-6.4 6.4c1.3 2.3 2.3 4.7 3 7.3h9v16.9zm-7.9-8.5c0-3-0.6-5.8-1.6-8.4q-0.1-0.3-0.2-0.5c-2.3-5.4-6.6-9.7-12-12q-0.2-0.1-0.5-0.2c-2.6-1-5.4-1.6-8.4-1.6-3 0-5.8 0.6-8.5 1.6q-0.2 0.1-0.5 0.2c-5.3 2.3-9.6 6.6-11.9 12q-0.1 0.2-0.2 0.5c-1.1 2.6-1.6 5.4-1.6 8.4 0 3 0.5 5.8 1.6 8.5q0.1 0.2 0.2 0.5c2.3 5.3 6.6 9.6 11.9 11.9q0.3 0.1 0.5 0.2c2.7 1.1 5.5 1.6 8.5 1.6 3 0 5.8-0.5 8.4-1.6q0.3-0.1 0.5-0.2c5.4-2.3 9.7-6.6 12-11.9q0.1-0.3 0.2-0.5c1-2.7 1.6-5.5 1.6-8.5z"/>
					<path id="&lt;Path&gt;" class="s9" d="m544.8 1313.3c0 2.7-2.2 4.8-4.8 4.8-2.7 0-4.8-2.1-4.8-4.8 0-2.6 2.1-4.8 4.8-4.8 2.6 0 4.8 2.2 4.8 4.8z"/>
				</g>
				<g id="&lt;Group&gt;">
					<path id="&lt;Compound Path&gt;" fill-rule="evenodd" class="s9" d="m531 1251.5c-0.7 2.6-1.8 5-3.1 7.3l6.4 6.3-11.9 12-6.4-6.4q-3.4 1.9-7.2 3v9h-16.9v-9q-3.9-1.1-7.3-3l-6.4 6.4-11.9-12 6.4-6.3c-1.3-2.3-2.3-4.7-3-7.3h-9v-16.9h9c0.7-2.5 1.7-5 3-7.2l-6.4-6.4 11.9-11.9 6.4 6.4q3.4-2 7.3-3.1v-9h16.9v9q3.8 1.1 7.2 3.1l6.4-6.4 11.9 11.9-6.4 6.4c1.3 2.2 2.4 4.7 3.1 7.2h9v16.9zm-7.9-8.4c0-3-0.6-5.9-1.7-8.5q-0.1-0.2-0.2-0.5c-2.3-5.3-6.6-9.6-11.9-11.9q-0.3-0.1-0.5-0.2c-2.6-1.1-5.5-1.7-8.5-1.7-2.9 0-5.8 0.6-8.4 1.7q-0.3 0.1-0.5 0.2c-5.4 2.3-9.7 6.6-11.9 11.9q-0.2 0.3-0.3 0.5c-1 2.6-1.6 5.5-1.6 8.5 0 2.9 0.6 5.8 1.6 8.4q0.1 0.3 0.3 0.5c2.2 5.4 6.5 9.7 11.9 12q0.2 0.1 0.5 0.2c2.6 1 5.5 1.6 8.4 1.6 3 0 5.9-0.6 8.5-1.6q0.2-0.1 0.5-0.2c5.3-2.3 9.6-6.6 11.9-12q0.1-0.2 0.2-0.5c1.1-2.6 1.7-5.5 1.7-8.4z"/>
					<path id="&lt;Path&gt;" class="s9" d="m505.1 1243.1c0 2.6-2.1 4.8-4.8 4.8-2.6 0-4.8-2.2-4.8-4.8 0-2.7 2.2-4.8 4.8-4.8 2.7 0 4.8 2.1 4.8 4.8z"/>
				</g>
				<g id="&lt;Group&gt;">
					<path id="&lt;Compound Path&gt;" fill-rule="evenodd" class="s9" d="m590.6 1253.8q-0.1 2.7-0.9 5.3l5.3 3.2-6 9.9-5.3-3.2q-1.9 1.8-4.3 3.2l1.4 6-11.2 2.7-1.4-6q-2.8-0.1-5.4-0.8l-3.2 5.2-9.9-6 3.3-5.2q-1.9-2-3.2-4.4l-6 1.5-2.8-11.2 6-1.5q0.1-2.8 0.9-5.3l-5.3-3.2 6-9.9 5.3 3.2q1.9-1.9 4.3-3.2l-1.4-6 11.2-2.7 1.4 6q2.8 0.1 5.4 0.8l3.2-5.3 9.8 6-3.2 5.3q1.9 2 3.2 4.4l6-1.5 2.8 11.2zm-6.7-4.3c-0.5-2-1.3-3.8-2.4-5.4q-0.1-0.1-0.3-0.3c-2.4-3.2-5.9-5.3-9.8-6q-0.2 0-0.4 0c-1.9-0.3-3.9-0.2-5.9 0.2-2 0.5-3.8 1.4-5.3 2.5q-0.2 0.1-0.4 0.2c-3.1 2.4-5.3 6-6 9.9q0 0.2 0 0.4c-0.3 1.9-0.2 3.9 0.3 5.9 0.5 1.9 1.3 3.7 2.4 5.3q0.1 0.2 0.2 0.3c2.4 3.2 6 5.4 9.9 6q0.2 0.1 0.4 0.1c1.9 0.3 3.9 0.2 5.9-0.3 2-0.5 3.8-1.3 5.3-2.4q0.2-0.2 0.4-0.3c3.1-2.4 5.3-5.9 6-9.8q0-0.2 0-0.4c0.3-1.9 0.2-3.9-0.3-5.9z"/>
					<path id="&lt;Path&gt;" class="s9" d="m572 1252.4c0.4 1.7-0.7 3.5-2.4 3.9-1.8 0.5-3.6-0.6-4-2.4-0.4-1.8 0.7-3.5 2.4-4 1.8-0.4 3.6 0.7 4 2.5z"/>
				</g>
			</g>
			<g id="&lt;Group&gt;">
				<g id="&lt;Group&gt;">
					<path id="&lt;Compound Path&gt;" fill-rule="evenodd" class="s15" d="m1634.5 1234.6h-92.6c-4.3 0-8.3-1.9-11-5.3-2.8-3.3-3.9-7.6-3.1-11.8l21.4-110.3c1.3-6.8 7.2-11.7 14.1-11.7h92.6c4.3 0 8.3 1.9 11.1 5.3 2.7 3.3 3.8 7.6 3 11.8l-21.4 110.3c-1.3 6.8-7.2 11.7-14.1 11.7zm-71.2-129.3c-2.2 0-4.1 1.5-4.6 3.7l-21.3 110.3c-0.4 1.9 0.4 3.2 1 3.9 0.5 0.6 1.6 1.6 3.5 1.6h92.6c2.2 0 4.2-1.5 4.6-3.7l21.3-110.3c0.4-1.9-0.4-3.2-0.9-3.9-0.6-0.6-1.7-1.6-3.6-1.6z"/>
				</g>
				<g id="&lt;Group&gt;">
					<g id="&lt;Group&gt;">
						<path id="&lt;Compound Path&gt;" fill-rule="evenodd" class="s15" d="m1592.1 1209.8c-3.6 0-6.6-1.3-8.9-3.8-1.5-1.5-3.2-4.4-3.2-8.8 0-3.2 0.6-9 5.4-25.7-1.4-0.2-2.6-0.7-3.7-1.5l-2.6-2.1c-1.7-1.3-2.8-3.2-2.9-5.3-0.2-2.1 0.5-4.2 1.9-5.7 4.6-5.1 8.8-8.6 12.8-10.9 4.5-2.5 8.5-3.8 12.1-3.8 3.1 0 5.7 0.9 7.8 2.6 2.4 2 3.7 4.9 3.7 8.1 0 1.3 0 2.8-4.2 16.9q-1.8 5.9-3 10.6c2.1-0.2 4.3 0.6 5.9 2.1l2.3 2.3c1.5 1.4 2.3 3.4 2.3 5.4 0 2.1-0.9 4.1-2.4 5.5-6 5.7-10.3 9.1-13.4 10.9-3.7 2.1-7 3.2-9.9 3.2zm5.3-55.3l-3.6 12.2c-4.8 16-7.2 26-7.2 30.5 0 2.3 0.8 3.6 1.5 4.3q1.5 1.6 4 1.6c1.7 0 3.9-0.8 6.6-2.3 2.5-1.5 6.6-4.8 12.1-10q0.3-0.3 0.3-0.6 0-0.4-0.3-0.6l-2.3-2.3c-0.2-0.2-0.4-0.3-0.6-0.3-0.1 0-0.4 0.1-0.6 0.3q-1.7 1.6-3.1 2.8l-7.9 6.9 2.4-10.1c1-4.5 2.8-10.9 5.2-19 3.9-13.1 3.9-14.5 3.9-15 0-1.2-0.4-2.2-1.3-2.9q-1.3-1.1-3.5-1.1c-2.5 0-5.4 1-8.8 2.9-3.4 1.9-7.1 5.1-11.2 9.6-0.1 0.2-0.2 0.4-0.2 0.6q0 0.4 0.3 0.6l2.7 2.1c0.2 0.1 0.4 0.2 0.5 0.2 0.1 0 0.4-0.1 0.6-0.3q0.7-0.7 1.3-1.3z"/>
					</g>
					<g id="&lt;Group&gt;">
						<path id="&lt;Compound Path&gt;" fill-rule="evenodd" class="s15" d="m1608.2 1142.8c-3.3 0-6.2-1.2-8.5-3.6-2.1-2.2-3.2-5.1-3.2-8.5 0-3.6 1.3-7 3.7-9.7 2.6-2.8 6-4.3 9.7-4.3 3.3 0 6.2 1.2 8.4 3.5 2.2 2.3 3.4 5.2 3.4 8.4 0 3.7-1.3 7-3.8 9.8-3.4 3.7-7.1 4.4-9.7 4.4zm1.7-19.4q-2.8 0-4.8 2.2-1.9 2.1-1.9 5.1 0 2.4 1.4 3.9 1.4 1.6 3.6 1.6 2.7 0 4.8-2.3c1.3-1.5 2-3.3 2-5.3q0-2.2-1.4-3.7-1.5-1.5-3.7-1.5z"/>
					</g>
				</g>
			</g>
			<g id="&lt;Group&gt;">
				<g id="&lt;Group&gt;">
					<path id="&lt;Compound Path&gt;" fill-rule="evenodd" class="s15" d="m1539.7 562.6q-0.2 0-0.4 0c-10.1-0.2-18.9-6.4-22.5-15.8l-23.6-63.2c-2.3-5-3.7-10.3-4.2-15.8-1.4-13.7 2.6-27.1 11.3-37.8 8.9-10.9 21.4-17.6 35.4-19 28.6-2.9 54.3 17.8 57.2 46.3 1.1 10.7-1.1 21.3-6.5 30.7l-24.2 59.4c-3.8 9.3-12.6 15.2-22.5 15.2zm1.3-137.9q-1.9 0-3.9 0.2c-10.3 1-19.5 6-25.9 13.9-6.4 7.8-9.3 17.6-8.3 27.5 0.4 4.1 1.5 8 3.1 11.7l0.2 0.5 23.8 63.4c2.3 6.1 7.8 6.7 9.5 6.7 1.7 0 7.3-0.4 9.7-6.5l24.6-60.3 0.3-0.4c4-6.9 5.7-14.8 4.9-22.7-2-19.5-18.6-34-38-34zm0 68.4c-15.2 0-28.2-11.4-29.8-26.7-0.8-7.8 1.5-15.5 6.5-21.7 5.1-6.2 12.3-10.1 20.3-10.9 16.4-1.6 31.2 10.3 32.8 26.6 0.8 7.9-1.5 15.6-6.5 21.7-5.1 6.2-12.3 10.1-20.3 10.9q-1.5 0.1-3 0.1zm0.1-45.4q-0.9 0-1.7 0.1c-4.3 0.4-8.1 2.5-10.8 5.8-2.6 3.2-3.9 7.3-3.4 11.4 0.8 8.6 8.7 14.9 17.4 14.1 4.3-0.5 8.2-2.5 10.9-5.8 2.6-3.3 3.8-7.3 3.4-11.5-0.8-8.1-7.8-14.1-15.8-14.1z"/>
				</g>
				<g id="&lt;Group&gt;">
					<path id="&lt;Path&gt;" class="s15" d="m1537.3 581.4c-36.1 0-74.9-8.7-74.9-27.9 0-20.7 43.1-26 56.3-27.1l1.2 14c-30.7 2.6-42.7 10.5-43.5 13.1 1.2 3.9 21.4 13.9 60.9 13.9 39.5 0 59.7-10 60.9-13.9-0.8-2.3-11.5-9.7-38.8-12.7l1.5-13.9c15.4 1.7 51.3 7.7 51.3 26.6 0 19.2-38.8 27.9-74.9 27.9z"/>
				</g>
			</g>
			<g id="&lt;Group&gt;">
				<path id="&lt;Path&gt;" class="s16" d="m863.7 1620.4h-246.2c-6.8 0-12.3-5.5-12.3-12.2v-159c0-6.8 5.5-12.3 12.3-12.3h246.2c6.8 0 12.3 5.5 12.3 12.3v159c0 6.7-5.5 12.2-12.3 12.2z"/>
				<g id="&lt;Group&gt;">
					<path id="&lt;Path&gt;" class="s1" d="m691.8 1524.5h-60.5v-60.5h60.5z"/>
					<path id="&lt;Path&gt;" class="s1" d="m691.8 1597.5h-60.5v-60.5h60.5z"/>
					<path id="&lt;Path&gt;" class="s1" d="m770.8 1524.1h-60.5v-60.5h60.5z"/>
					<path id="&lt;Path&gt;" class="s1" d="m770.8 1597.1h-60.5v-60.5h60.5z"/>
					<path id="&lt;Path&gt;" class="s1" d="m849.9 1523.8h-60.5v-60.5h60.5z"/>
					<path id="&lt;Path&gt;" class="s1" d="m849.9 1596.7h-60.5v-60.5h60.5z"/>
					<path id="&lt;Path&gt;" class="s15" d="m644.8 1477.5h-8.5v-8.4h8.5z"/>
					<path id="&lt;Path&gt;" class="s15" d="m724.6 1477.5h-8.5v-8.4h8.5z"/>
					<path id="&lt;Path&gt;" class="s15" d="m804.3 1477.5h-8.4v-8.4h8.4z"/>
					<path id="&lt;Path&gt;" class="s15" d="m643.8 1548.4h-8.5v-8.5h8.5z"/>
					<path id="&lt;Path&gt;" class="s15" d="m723.5 1548.4h-8.4v-8.5h8.4z"/>
					<path id="&lt;Path&gt;" class="s15" d="m803.3 1548.4h-8.4v-8.5h8.4z"/>
				</g>
				<g id="&lt;Group&gt;">
					<path id="&lt;Path&gt;" class="s16" d="m626.5 1449.2h-3.1c-3.6 0-6.4-2.9-6.4-6.4v-43c0-3.5 2.8-6.4 6.4-6.4h3.1c3.5 0 6.4 2.9 6.4 6.4v43c0 3.5-2.9 6.4-6.4 6.4z"/>
					<path id="&lt;Path&gt;" class="s16" d="m652.2 1449.2h-3.1c-3.6 0-6.4-2.9-6.4-6.4v-43c0-3.5 2.8-6.4 6.4-6.4h3.1c3.5 0 6.4 2.9 6.4 6.4v43c0 3.5-2.9 6.4-6.4 6.4z"/>
					<path id="&lt;Path&gt;" class="s16" d="m677.9 1449.2h-3.1c-3.6 0-6.4-2.9-6.4-6.4v-43c0-3.5 2.8-6.4 6.4-6.4h3.1c3.5 0 6.4 2.9 6.4 6.4v43c0 3.5-2.9 6.4-6.4 6.4z"/>
					<path id="&lt;Path&gt;" class="s16" d="m703.6 1449.2h-3.1c-3.5 0-6.4-2.9-6.4-6.4v-43c0-3.5 2.9-6.4 6.4-6.4h3.1c3.5 0 6.4 2.9 6.4 6.4v43c0 3.5-2.9 6.4-6.4 6.4z"/>
					<path id="&lt;Path&gt;" class="s16" d="m729.3 1449.2h-3.1c-3.5 0-6.4-2.9-6.4-6.4v-43c0-3.5 2.9-6.4 6.4-6.4h3.1c3.5 0 6.4 2.9 6.4 6.4v43c0 3.5-2.9 6.4-6.4 6.4z"/>
					<path id="&lt;Path&gt;" class="s16" d="m755 1449.2h-3.1c-3.5 0-6.4-2.9-6.4-6.4v-43c0-3.5 2.9-6.4 6.4-6.4h3.1c3.5 0 6.4 2.9 6.4 6.4v43c0 3.5-2.9 6.4-6.4 6.4z"/>
					<path id="&lt;Path&gt;" class="s16" d="m780.7 1449.2h-3.1c-3.5 0-6.4-2.9-6.4-6.4v-43c0-3.5 2.9-6.4 6.4-6.4h3.1c3.5 0 6.4 2.9 6.4 6.4v43c0 3.5-2.9 6.4-6.4 6.4z"/>
					<path id="&lt;Path&gt;" class="s16" d="m806.4 1449.2h-3.1c-3.5 0-6.4-2.9-6.4-6.4v-43c0-3.5 2.9-6.4 6.4-6.4h3.1c3.5 0 6.4 2.9 6.4 6.4v43c0 3.5-2.9 6.4-6.4 6.4z"/>
					<path id="&lt;Path&gt;" class="s16" d="m832.1 1449.2h-3.1c-3.5 0-6.4-2.9-6.4-6.4v-43c0-3.5 2.9-6.4 6.4-6.4h3.1c3.5 0 6.4 2.9 6.4 6.4v43c0 3.5-2.9 6.4-6.4 6.4z"/>
					<path id="&lt;Path&gt;" class="s16" d="m857.8 1449.2h-3.1c-3.5 0-6.4-2.9-6.4-6.4v-43c0-3.5 2.9-6.4 6.4-6.4h3.1c3.5 0 6.4 2.9 6.4 6.4v43c0 3.5-2.9 6.4-6.4 6.4z"/>
				</g>
			</g>
		</g>
	</g>
</svg>