<svg version="1.2" xmlns="http://www.w3.org/2000/svg" viewBox="0 0 5000 4000" width="5000" height="4000">
	<title>vecteezy_q-and-a-or-faq-concept-with-tiny-people-characters-big_6959758-ai</title>
	<style>
		.s0 { fill: #dff4ff } 
		.s1 { fill: #bcdfff } 
		.s2 { fill: #d0eaff } 
		.s3 { fill: #ffa23b } 
		.s4 { fill: #ffc627 } 
		.s5 { fill: #ffd970 } 
		.s6 { fill: #ffc7c7 } 
		.s7 { fill: #30304a } 
		.s8 { fill: #245ad9 } 
		.s9 { fill: #29293d } 
		.s10 { fill: #ffa6a6 } 
		.s11 { fill: #f6fcff } 
		.s12 { fill: #3871e2 } 
		.s13 { fill: #464666 } 
		.s14 { fill: #5b5b86 } 
		.s15 { fill: #f3f3f7 } 
		.s16 { fill: #3883e2 } 
		.s17 { fill: #6e3fca } 
		.s18 { fill: #212236 } 
		.s19 { fill: #5b5b7c } 
		.s20 { fill: #cc0000 } 
		.s21 { fill: #000000 } 
		.s22 { fill: #ff3e3e } 
		.s23 { fill: #ffffff } 
		.s24 { fill: #ffdcdc } 
	</style>
	<g id="_Artboards_">
	</g>
	<g id="artwork">
		<g id="&lt;Group&gt;">
			<path id="&lt;Path&gt;" class="s0" d="m4215.4 2248.8c-35.5-46.6-94.4-72.6-146-54.5-70.3 24.8-114.4 121.2-188.1 123.1-62 1.6-109.4-69.8-117.8-139.7-8.4-69.9 10.6-139.5 21.3-208.8 10.7-69.4 11.3-147.5-27.4-202.9-59.7-85.6-182.6-70.4-260-6.7-77.3 63.7-126.7 161.5-192.5 240.2-65.8 78.8-165 141.1-255.1 103.2-96.4-40.6-134.5-176.6-126.7-292.9 7.8-116.4 47.6-227.8 51.4-344.4 3.9-116.7-44.8-251.1-144.7-278.8-113.8-31.5-212.7 87.9-277.4 198.2-64.7 110.3-145.4 238.6-262.3 235.6-121.5-3.2-211.7-151.7-333.1-156.4-111.7-4.3-197.8 118.3-223.6 241.7-25.8 123.5-11 253.4-25.3 379.3-14.3 125.9-71.3 260.9-178.5 296-118.8 38.9-254.6-58.9-366.5 0.8-84.4 45.1-118.3 167.7-102.2 272.5 37.8 244.9 261.2 368.8 402.5 556.2 41 54.3 76.9 112.6 104.3 174.4 17.9 40.6 31.5 159.7 63.1 177.3 22.3 12.4 95-1.8 121.7-2.2q66.2-1.2 132.5-2.4 127.3-2.3 254.7-4.6 509.6-9.2 1019.2-18.5 0 0 0.1 0 61.1-1.1 122.2-2.2c26.9-0.5 88.6 10 111.8-2.1 39.1-20.5 62.8-120.9 83-161.4 57.2-114.7 129.9-226.4 239.3-301.4 89.4-61.3 186.3-104 269.2-175 138.1-118.3 277.7-274.4 280-471.6 0.8-61.5-13.6-125.3-49.1-172z"/>
			<g id="&lt;Group&gt;">
				<path id="&lt;Path&gt;" class="s0" d="m404.9 1450.6c286.2-0.9 740.1-14.4 815.5-14.4 39.6-69.7-0.3-175.7-80.6-178.2-41.4-1.3-85 38.5-79 66.4-13.6-46.8-28.3-95.3-61.1-131.5-32.8-36.1-89.4-55.9-132.1-31.9-24.3 13.7-40.1 39.2-47.9 65.8-7.9 26.7-8.7 54.8-9.4 82.6-3.2-21.4-21.1-39.8-42.5-43.7-48.9-8.8-70.1 37-69.4 77.9-9.6-9.2-19.3-22.3-30.6-29.3-23.7-14.5-68-11.4-87 12.6-12.7 16-13.8 40-2.6 57.1-64.1-10.8-143.7 6.5-173.3 66.6z"/>
				<path id="&lt;Path&gt;" class="s0" d="m2094 594q456.5-1.5 913-3 1.1-3 1.9-6.2c4.7-18.4 2.2-39.8-11.3-53.3-13.4-13.5-50.1-10-61.5 5.2 25.6-49.7 24.1-115-18-134.7-55-25.6-133 28.2-126.6 57.8 14.4-59.6-17.7-153.7-111.2-153-87.7 0.7-154.4 107.5-155.2 137-3.4-22.7-10-45.5-32.4-51-68.1-16.4-103.2 50.7-102.5 94.2-10.2-9.8-5.9-64.8-70-63-53.2 1.5-88.5 94.6-76.6 112.7-68.2-11.4-118-6.6-149.6 57.3z"/>
				<path id="&lt;Path&gt;" class="s0" d="m3619.1 1106.6q409-1.4 818-2.7 0.9-2.8 1.6-5.6c4.3-16.4 2-35.6-10-47.7-12.1-12.1-35-13.2-45.3 0.4-5.3-26.6-11-53.9-25.2-77-14.3-23.2-39.2-41.8-66.5-41-27.3 0.8-53.4 26.8-47.7 53.3-13-44.5-26.9-90.7-58.2-125.2-31.2-34.4-85.2-53.3-125.8-30.4-23.2 13-38.2 37.3-45.7 62.7-7.5 25.4-8.3 52.2-9 78.6-3-20.3-20-37.9-40.4-41.5-46.6-8.4-66.8 35.2-66.1 74.1-9.2-8.7-18.4-21.2-29.2-27.9-22.5-13.8-64.7-10.8-82.9 12-12 15.2-13.1 38.2-2.4 54.4-61.1-10.2-136.9 6.2-165.2 63.5z"/>
			</g>
			<path id="&lt;Path&gt;" class="s1" d="m4443.5 3565.9c0 63.6-507.3 114.2-1929.2 114.2-1421.9 0-1978.5-35.7-1978.5-99.2 0-63.6 630.5-114.6 2052.4-114.6 1421.8 0 1855.3 36.1 1855.3 99.6z"/>
			<g id="&lt;Group&gt;">
				<g id="&lt;Group&gt;">
					<g id="&lt;Group&gt;">
						<path id="&lt;Path&gt;" class="s1" d="m2283.9 3056.1c-55.8 26.1-154.5 86.5-196.1 133.4-39.4 44.5-69.9 96.6-89.4 151.8-11.8 33.2-19.4 67.6-22.8 102-0.4 4.3-6.9 3.5-6.5-0.8 5.9-60.1 25.1-120.1 55.3-174.4 30-53.9 64.8-95.9 121.8-134.8 37.5-25.6 67.9-47.2 99.9-62.2 4-1.9 37.8-15 37.8-15z"/>
					</g>
					<g id="&lt;Group&gt;">
						<path id="&lt;Path&gt;" class="s1" d="m1995.5 3328.3c15.4-49.9 4-105.3-15.1-103.3-5.6 0.5-10 6.6-11.2 12.3-1.3 5.7-0.1 11.3 1.4 16.7 5.3 20.1 13.9 57.2 24.9 74.3z"/>
					</g>
					<g id="&lt;Group&gt;">
						<path id="&lt;Path&gt;" class="s1" d="m2042.3 3239.9q3-30.2 6-60.5c0.8-7.9 1.6-16.3-1.9-23.1-3.4-6.8-12.6-10.8-19.3-6.1-6.8 4.7-7 14.3-5.9 22 2.4 17.8 14 51.7 21.1 67.7z"/>
					</g>
					<g id="&lt;Group&gt;">
						<path id="&lt;Path&gt;" class="s1" d="m2096.5 3176.6q7.6-34.4 15.1-68.8c1.5-6.8 3-13.8 1.9-20.4-1.1-6.6-5.5-12.9-12-13.9-7.5-1.3-15.3 4.7-18.8 11.9-3.6 7.2-3.7 15.3-3.3 23 1.3 22.7 7.8 48.2 17.1 68.2z"/>
					</g>
					<g id="&lt;Group&gt;">
						<path id="&lt;Path&gt;" class="s1" d="m2161 3125.4c11.9-18.2 21.3-38 27.6-58.5 2.5-8.1 3.8-18.5-2.9-22.4-4.5-2.6-10.8-0.9-15.1 2.9-4.2 3.8-6.7 9.1-8.6 14.3-7.6 21-8 43.9-1 63.7z"/>
					</g>
					<g id="&lt;Group&gt;">
						<path id="&lt;Path&gt;" class="s1" d="m2230.2 3078q0.1-0.1 0.3-0.1c13.3-17 28.8-48.4 30-65.6 0.9-12.7-21.8-21.3-27.6-1.2-5.3 18.4-5.6 34.8-2.7 66.9z"/>
					</g>
					<g id="&lt;Group&gt;">
						<path id="&lt;Path&gt;" class="s1" d="m2262.5 3064.8q1.6 0.3 3.1 0.7 28 5.9 56 11.9c12.4 2.6 28.7 3.6 35.8-8 4.2-6.7 3-15.4-1.3-21.2-4.3-5.8-11.2-9.1-18.2-11.1-25.1-7.2-55.4 7.8-75.4 27.7z"/>
					</g>
					<g id="&lt;Group&gt;">
						<path id="&lt;Path&gt;" class="s1" d="m2233.6 3083.4q28.5 24.9 57.1 49.8c5.7 5 11.8 10.2 19.3 12 7.6 1.8 17.2-0.7 21.4-7.9 6.6-11.2-3.3-23.5-13.4-29.7-19.7-12.1-60.4-25.1-84.4-24.2z"/>
					</g>
					<g id="&lt;Group&gt;">
						<path id="&lt;Path&gt;" class="s1" d="m2161.3 3126.4q21.2 20.2 42.4 40.3c6.7 6.4 13.7 13 22.7 15.7 9 2.8 20.6 0.7 26.6-7.5 9.2-12.3 0.6-28.8-10.4-37.5-20.1-15.8-55-18.3-81.3-11z"/>
					</g>
					<g id="&lt;Group&gt;">
						<path id="&lt;Path&gt;" class="s1" d="m2095.9 3178.4q23.8 24.9 47.6 49.8c6.7 6.9 17.6 14.1 25.6 7.2 5.1-4.5 5.3-12.2 4.1-18.4-6.1-30.7-45.8-43.7-77.3-38.6z"/>
					</g>
					<g id="&lt;Group&gt;">
						<path id="&lt;Path&gt;" class="s1" d="m2046.5 3243.1q26.8 17.7 53.5 35.4c5.9 4 13 8.1 20.2 5.6 7.4-2.5 11.7-11.5 10.8-19.1-0.8-7.6-5.7-13.8-11.2-18.6-18.1-15.7-49.2-12.7-73.3-3.3z"/>
					</g>
					<g id="&lt;Group&gt;">
						<path id="&lt;Path&gt;" class="s1" d="m2002 3328.4c4.8-0.7 9.9 0.2 14.2 2.1 8 3.6 14.2 9.9 21.9 13.9 7.7 4.1 18.3 5.3 25.4-0.9 7.5-6.5 7.6-18.7 1.7-25.6-5.8-6.8-15.8-8.9-25.2-7.5-6.8 1-25.2 11.1-38 18z"/>
					</g>
				</g>
				<g id="&lt;Group&gt;">
					<path id="&lt;Compound Path&gt;" class="s2" d="m1605.2 3488.6c-61.8-15.1-121.4-38.6-177-69-55.8-30.6-107.5-68.4-153.3-112.5-45.6-43.9-85.3-94-117-148.9-41.4-72-68-151.6-92.5-230.9-2.3-7.4-4.7-14.8-7.1-22.3 56 22.2 110.4 48.5 163.3 77.2 55.3 30 108.8 63.2 160.4 99.1 51.6 35.9 101.1 74.7 148.3 116.2 47.2 41.5 92.1 85.7 134.3 132.3 46.4 51.2 90.5 105.7 122.9 167.2q2.9 5.6 5.7 11.1c-63.4 2.6-126.7-4.5-188-19.5z"/>
					<path id="&lt;Compound Path&gt;" class="s2" d="m1729 3553.9q-3.9 0.4-7.9 0.8c-43.9 3.7-88-0.7-131.1-7.2-39.2-6-78.1-14.1-116.2-24.2-38.2-10.1-75.7-22.2-112.4-36.4-36.7-14.1-72.5-30-107.3-47.9-33.2-17.1-65.7-35.7-96.5-56.4 4.8-1.2 9.6-2.4 14.3-3.7 50.8-13.4 102.4-25.9 155-28.5 40.2-1.9 80.4 1.6 119.3 10.2 39.1 8.5 76.8 22.1 112 40 35.2 17.9 67.8 40 96.9 65.9 28.7 25.7 53.8 55 73.9 87.4z"/>
					<g id="&lt;Group&gt;">
						<g id="&lt;Group&gt;">
							<path id="&lt;Path&gt;" class="s1" d="m1098 3187.2c75.9 5.6 215.1 32.6 281.6 70 63 35.5 118.1 84.5 161.3 142.4 26 34.8 47.6 73.1 64.1 113.3 2 5 9.4 0.9 7.3-4.1-28.8-70.3-73.2-134.1-128.9-185.9-55.2-51.4-111.8-86.1-193.6-106.5-54-13.4-97.9-25.5-141.4-28.7-5.4-0.4-50.4-0.5-50.4-0.5z"/>
						</g>
						<g id="&lt;Group&gt;">
							<path id="&lt;Path&gt;" class="s1" d="m1539.6 3382.5c-36.4-53.4-42.9-126.1-19.5-132.7 7-1.9 14.3 3.4 17.9 9.7 3.5 6.3 4.1 13.8 4.4 21 0.9 26.9 4.1 76-2.8 102z"/>
						</g>
						<g id="&lt;Group&gt;">
							<path id="&lt;Path&gt;" class="s1" d="m1452 3297.1q-14.6-35.4-29.2-70.7c-3.8-9.3-7.7-19.1-6.1-29 1.6-9.9 11.2-19.1 20.9-16.5 9.7 2.5 13.4 14.2 14.9 24 3.6 22.8 2.1 69.3-0.5 92.2z"/>
						</g>
						<g id="&lt;Group&gt;">
							<path id="&lt;Path&gt;" class="s1" d="m1364.5 3245.6q-21.4-38.2-42.8-76.5c-4.3-7.5-8.6-15.3-9.7-23.9-1-8.5 1.9-18.2 9.3-22.6 8.4-5 19.9-1.4 26.7 5.7 6.8 7.1 9.9 16.9 12.1 26.5 6.7 28.2 8.3 62.2 4.4 90.8z"/>
						</g>
						<g id="&lt;Group&gt;">
							<path id="&lt;Path&gt;" class="s1" d="m1269.3 3213.7c-20.8-16.5-39.1-36.2-54.1-58.1-5.9-8.6-11.1-20.6-4.6-28.6 4.4-5.3 12.6-6.1 19-3.5 6.4 2.6 11.3 7.9 15.4 13.3 16.7 21.9 25.4 49.6 24.3 76.9z"/>
						</g>
						<g id="&lt;Group&gt;">
							<path id="&lt;Path&gt;" class="s1" d="m1169.9 3188.7q-0.3-0.1-0.5-0.1c-21.9-14.3-51.7-45.2-59.4-65.5-5.7-15.1 18.2-36.2 32.3-14.5 13.1 19.9 19.4 39.7 27.6 80.1z"/>
						</g>
						<g id="&lt;Group&gt;">
							<path id="&lt;Path&gt;" class="s1" d="m1126.6 3187.8q-1.7 1.1-3.4 2.2-31.2 20.4-62.3 40.8c-13.9 9-32.9 17.9-45.6 7.2-7.3-6.3-9-17.4-6-26.4 3-9.1 10-16.4 17.6-22.1 27.2-20.5 68.7-16.4 99.7-1.7z"/>
						</g>
						<g id="&lt;Group&gt;">
							<path id="&lt;Path&gt;" class="s1" d="m1167.8 3196.8q-25 43.7-50 87.3c-5 8.8-10.3 17.9-18.6 23.7-8.4 5.8-20.7 7.1-28.3 0.4-11.9-10.5-4.5-30 5.2-42.3 19.1-24 62.8-58.9 91.7-69.1z"/>
						</g>
						<g id="&lt;Group&gt;">
							<path id="&lt;Path&gt;" class="s1" d="m1269.2 3215.1q-17.8 34.4-35.7 68.8c-5.7 11-11.7 22.2-21.3 29.8-9.7 7.6-24.3 10.5-34.5 3.4-15.3-10.7-11.1-34.7-1.1-50.4 18.1-28.7 58.8-48.1 92.6-51.6z"/>
						</g>
						<g id="&lt;Group&gt;">
							<path id="&lt;Path&gt;" class="s1" d="m1365.9 3247.6q-19.3 41.3-38.6 82.7c-5.4 11.6-15.8 25.4-27.8 20.8-7.7-3-10.7-12.3-11.5-20.4-4-40.1 38.6-74.6 77.9-83.1z"/>
						</g>
						<g id="&lt;Group&gt;">
							<path id="&lt;Path&gt;" class="s1" d="m1448 3302.9q-25.3 34.1-50.7 68.2c-5.6 7.6-12.5 15.8-22 16.2-9.8 0.5-18.1-8.5-19.8-18.1-1.7-9.6 1.8-19.4 6.6-27.8 15.9-27.6 54-38.6 85.9-38.5z"/>
						</g>
						<g id="&lt;Group&gt;">
							<path id="&lt;Path&gt;" class="s1" d="m1532 3385.6c-6 1.4-11.8 4.9-16.2 9.2-8.2 8.1-13.3 18.8-21 27.3-7.7 8.5-19.8 14.9-30.6 10.8-11.2-4.4-15.7-19.2-11.3-30.3 4.4-11 15.6-18.2 27.3-21 8.5-2 34 1.6 51.8 4z"/>
						</g>
					</g>
				</g>
				<g id="&lt;Group&gt;">
					<g id="&lt;Group&gt;">
						<path id="&lt;Path&gt;" class="s1" d="m1491.2 2919c13 55.6 47.6 155.4 80 200.1 30.7 42.3 69.1 77.1 111.8 101.9 25.8 15 53.1 26.3 81.1 33.5 3.5 0.9 1.7 6.9-1.8 6-48.9-12.7-95.5-37.7-135.9-72.6-39.9-34.5-69.4-72.2-92.7-130.4-15.3-38.3-28.5-69.3-36-101.2-0.9-4-6.5-37.3-6.5-37.3z"/>
					</g>
					<g id="&lt;Group&gt;">
						<path id="&lt;Path&gt;" class="s1" d="m1671.8 3222.2c-38.9-20.3-86.6-16.2-88 2-0.4 5.4 4 10.2 8.5 12 4.5 1.9 9.4 1.4 14.1 0.7 17.4-2.6 49.6-6.3 65.4-14.7z"/>
					</g>
					<g id="&lt;Group&gt;">
						<path id="&lt;Path&gt;" class="s1" d="m1605.9 3167.8q-24.6-6.4-49.2-12.8c-6.5-1.7-13.3-3.4-19.5-1-6.2 2.4-10.9 10.6-8.1 17.5 2.9 6.9 10.8 8.2 17.4 8.1 15.1-0.2 45-7 59.4-11.8z"/>
					</g>
					<g id="&lt;Group&gt;">
						<path id="&lt;Path&gt;" class="s1" d="m1561.8 3109.3q-27.3-11.1-54.6-22.2c-5.4-2.2-11-4.5-16.6-4.2-5.7 0.2-11.5 3.6-13.4 9.6-2.2 6.9 1.5 15 6.9 19.1 5.4 4.2 12.2 5.3 18.6 5.8 19 1.4 41.1-1.6 59.1-8.1z"/>
					</g>
					<g id="&lt;Group&gt;">
						<path id="&lt;Path&gt;" class="s1" d="m1529.5 3042.7c-13.3-13.4-28.2-24.5-44.2-32.9-6.3-3.3-14.7-5.7-19 0.2-2.9 3.9-2.4 10 0 14.4 2.5 4.5 6.5 7.4 10.6 9.8 16.1 9.7 35.1 12.7 52.6 8.5z"/>
					</g>
					<g id="&lt;Group&gt;">
						<path id="&lt;Path&gt;" class="s1" d="m1501 2972.1q0-0.2-0.1-0.3c-12-14.5-35.6-32.8-49.6-36-10.4-2.3-21.1 18-5.4 25.8 14.5 7.2 28.1 9.4 55.1 10.5z"/>
					</g>
					<g id="&lt;Group&gt;">
						<path id="&lt;Path&gt;" class="s1" d="m1495.1 2940.1q0.5-1.4 1-2.8 9.3-25.6 18.6-51.2c4.1-11.4 7.5-26.6-1-34.7-4.9-4.6-12.3-4.5-17.8-1.2-5.5 3.4-9.3 9.4-12.1 15.8-9.8 22.7-2.1 53 11.3 74.1z"/>
					</g>
					<g id="&lt;Group&gt;">
						<path id="&lt;Path&gt;" class="s1" d="m1506 2969.5q25.1-23.9 50.2-47.8c5-4.8 10.2-9.9 12.9-16.8 2.7-6.9 2.1-16.2-3.2-21-8.3-7.5-20 0.4-26.7 9.1-13.1 17.1-30.2 53.8-33.2 76.5z"/>
					</g>
					<g id="&lt;Group&gt;">
						<path id="&lt;Path&gt;" class="s1" d="m1530.4 3042.5q20-17.5 40-35c6.3-5.6 12.8-11.4 16.5-19.5 3.7-8.2 3.8-19.3-2-26-8.8-10-23.8-3.9-32.7 5.4-16.3 17-23.8 49.6-21.8 75.1z"/>
					</g>
					<g id="&lt;Group&gt;">
						<path id="&lt;Path&gt;" class="s1" d="m1563.3 3110.2q24.3-19.5 48.6-38.9c6.8-5.5 14.4-14.9 10-23.2-2.9-5.4-9.3-6.4-14.7-6-26.3 2-43.3 37.8-43.9 68.1z"/>
					</g>
					<g id="&lt;Group&gt;">
						<path id="&lt;Path&gt;" class="s1" d="m1609.2 3164.2q18.8-23 37.7-46.1c4.2-5.1 8.6-11.2 7.7-18.3-0.9-7.3-7.7-12.4-14.1-12.5-6.4 0-12.3 3.8-17.1 8.4-15.9 15.2-18.3 44.8-14.2 68.5z"/>
					</g>
					<g id="&lt;Group&gt;">
						<path id="&lt;Path&gt;" class="s1" d="m1672.9 3216.1c0.2-4.6 1.7-9.3 4-13.1 4.2-7 10.4-12.2 14.9-18.9 4.6-6.8 7.2-16.6 3.2-24-4.2-7.8-14.3-9.3-20.9-4.7-6.6 4.7-9.8 13.9-10.2 22.8-0.2 6.6 5.3 25.1 9 37.9z"/>
					</g>
				</g>
				<g id="&lt;Group&gt;">
					<g id="&lt;Group&gt;">
						<path id="&lt;Path&gt;" class="s3" d="m1847.5 3221.7l-99.7 0.1v383.7h104z"/>
						<path id="&lt;Path&gt;" class="s3" d="m1654.5 3414.1q0-92.2 50-142.3 50-50.1 147.3-50.1 93.4 0 143.5 50.6 50 50.6 50 141.8 0 91.2-51.9 141.3-51.9 50.1-141.6 50.1-92.6 0-144.9-49.6-52.4-49.6-52.4-141.8z"/>
						<path id="&lt;Path&gt;" class="s4" d="m1559 3414.1q0-92.2 50-142.3 50-50.1 147.3-50.1 93.4 0 143.5 50.6 50 50.6 50 141.8 0 91.2-51.9 141.3-51.9 50.1-141.6 50.1-92.6 0-144.9-49.6-52.4-49.6-52.4-141.8z"/>
						<path id="&lt;Path&gt;" class="s5" d="m1767.3 3221.8l-206.8 221.7c4.9 47.3 21.8 84.8 50.9 112.4 0.6 0.5 1.2 1.1 1.9 1.7l275.5-295.4c-30.4-25.2-70.9-38.7-121.5-40.4z"/>
						<path id="&lt;Path&gt;" class="s5" d="m1677.9 3594.3l254.7-273q-7.4-17.1-17.9-31.5l-270.6 290q15.7 8.8 33.8 14.5z"/>
					</g>
					<g id="&lt;Group&gt;">
						<path id="&lt;Path&gt;" class="s3" d="m1869.1 1690.2h123.7l-72.1 146z"/>
						<path id="&lt;Path&gt;" class="s3" d="m1544.6 2250.4h-135.9l-27.7-368z"/>
						<g id="&lt;Group&gt;">
							<path id="&lt;Compound Path&gt;" class="s3" d="m1728.1 2998.5v-116.3q0-132.6 47.1-223.9 47-91.4 167-177.9 95.3-69 137.1-124.5 41.7-55.5 41.8-127.2c0-37.9-15-67.8-44.8-90q-44.7-33.1-116.4-33.1-177.7 0-415.3 144.8l-163.6-368q293-192.1 611.8-192.2 262.4 0 411.8 132.6 149.4 132.6 149.4 361.3 0 163.7-66.5 283.4-66.5 119.7-212.3 226.6-123.6 92-154.7 134.6-31.2 42.7-31.2 100.8v69z"/>
						</g>
						<g id="&lt;Group&gt;">
							<path id="&lt;Compound Path&gt;" class="s4" d="m1592.2 2998.5v-116.3q0-132.6 47.1-223.9 47-91.4 167-177.9 95.3-69 137.1-124.5 41.8-55.5 41.8-127.2c0-37.9-14.9-67.8-44.7-90q-44.8-33.1-116.5-33.1-177.7 0-415.3 144.8l-163.5-368q292.9-192.1 611.7-192.2 262.4 0 411.8 132.6 149.4 132.6 149.4 361.3 0 163.7-66.4 283.4-66.5 119.7-212.4 226.6-123.5 92-154.7 134.6-31.2 42.7-31.2 100.8v69z"/>
						</g>
						<path id="&lt;Path&gt;" class="s5" d="m2047.3 1711.1l-395.3 423.8c61.3-19.5 118.7-29.3 172-29.3 28.2 0 53.3 3.9 75.2 11.6l314-336.5q-72.6-47-165.9-69.6z"/>
						<path id="&lt;Path&gt;" class="s5" d="m2268.7 1822.8c-4.6-4-9.2-8-14-11.8l-309.3 331.6q27.5 22.5 36 55.2l319.9-342.9c-10.2-11.1-21-21.8-32.6-32.1z"/>
					</g>
				</g>
			</g>
			<g id="&lt;Group&gt;">
				<path id="&lt;Path&gt;" class="s2" d="m3100.1 3574.1c-26.9-117.8-99.9-188.7-154.4-225.7-85.5-57.9-180.7-104.9-281.6-107.8 66.1-71.6 173.5-101.2 270-74.5 96.4 26.7 202.1 140.7 204.5 240.8 1.1 43.3-38.5 167.2-38.5 167.2z"/>
				<g id="&lt;Group&gt;">
					<path id="&lt;Compound Path&gt;" class="s2" d="m3390.1 3422.4c23.7-56.4 54-108.3 89.6-154.5 35.7-46.3 76.9-86.7 122.4-119.5 45.2-32.7 94.8-57.9 147-74 68.4-21.1 140.7-25.5 212.4-28 6.7-0.2 13.4-0.6 20.2-0.9-28.7 48.8-60.6 94.9-94.2 138.8-35.1 46-72.7 89.3-112.3 130.1-39.5 40.8-81.1 78.7-124.6 113.7-43.5 34.9-88.9 66.8-135.9 95.4-51.7 31.5-105.6 59.9-163.6 75q-5.2 1.3-10.5 2.5c9-62.7 26-122.8 49.5-178.6z"/>
					<g id="&lt;Group&gt;">
						<g id="&lt;Group&gt;">
							<path id="&lt;Path&gt;" class="s1" d="m3431.9 3533.2c11.6-28.6 31.9-54.7 53.9-75.7 28-26.6 58.2-50.4 90.8-71 35.1-22.1 70.1-37.4 113.5-59.2 102.4-51.6 203.8-49.8 200.1-50.6-5.9-1.2-11.6-2.6-17.6-3.2-6.6-0.5-13.2-0.6-19.8-0.3-15.5 0.6-30.8 3.1-46 6.3-37.2 7.9-73.3 20.7-108.2 35.4-38.9 16.3-76.5 35.6-112.4 57.5-34.4 21-67.5 44.4-97.1 71.7-24 22.1-46.2 47.3-60.3 77.1q-2.3 4.8-4.2 9.8c-1.8 4.6 5.5 6.7 7.3 2.2z"/>
						</g>
						<g id="&lt;Group&gt;">
							<path id="&lt;Path&gt;" class="s1" d="m3868.9 3276.7c26.1-16.2 69.6-33.6 100.3-38.1 16.4-2.5 37.6-0.6 44.1 15 4.3 10.3-0.3 22.8-9 29.5-19.2 15-98 2.3-135.4-6.4z"/>
						</g>
						<path id="&lt;Path&gt;" class="s1" d="m3902.3 3165.9c-8.1-5-18.8-3.6-26.8 1.1-8.1 4.7-14 12.1-19.5 19.6-22.3 30.1-37.2 68-52.3 102.4 5.7-12.1 64.7-53 75.9-60.3 11.2-7.3 22.9-14.9 29.3-26.6 6.3-11.8 5-29-6.6-36.2z"/>
						<g id="&lt;Group&gt;">
							<path id="&lt;Path&gt;" class="s1" d="m3701.3 3319.9c16.7-16.6 54.4-70.2 62.6-92.4 3.5-9.4 5.8-21-0.7-28.9-7.4-9.2-22.8-7.3-31.1 0.7-8.3 8.1-11.3 20.1-13.9 31.5-5.9 26.6-12.5 62.2-16.9 89.1z"/>
						</g>
						<g id="&lt;Group&gt;">
							<path id="&lt;Path&gt;" class="s1" d="m3576.4 3384.4c3.5-11.6 38.6-70.6 46-80.1 7.4-9.4 14.6-19.9 15.5-32 0.9-12.1-6.9-25.8-19-27.3-9.2-1.1-17.8 5.2-22.3 13.1-4.6 7.9-5.8 17.2-7 26.3q-6.6 50-13.2 100z"/>
						</g>
						<g id="&lt;Group&gt;">
							<path id="&lt;Path&gt;" class="s1" d="m3806.6 3286.3c32.2 0.9 63.6 24.1 84 49.4 8.1 10 14 25.9 4.8 34.5-5.3 4.9-13.8 5.1-20.6 2.3-6.9-2.8-12.4-8-17.8-13.1-19-18.1-31.4-55-50.4-73.1z"/>
						</g>
						<g id="&lt;Group&gt;">
							<path id="&lt;Path&gt;" class="s1" d="m3701.7 3315.6c17.2-0.4 46.5-3.1 62.8 2.5 16.4 5.6 31.5 18.6 34.7 35.5 3.2 16.9-9.6 36.2-26.7 35.5-17.7-0.8-28.9-19.4-36.1-35.7-7.3-16.3-17.1-35.2-34.7-37.8z"/>
						</g>
						<g id="&lt;Group&gt;">
							<path id="&lt;Path&gt;" class="s1" d="m3596.5 3371.7c31.5-15.1 71-12.9 101.2 5.8 7.5 4.6 14.6 10.5 18 18.5 3.3 8.1 1.6 18.6-5.7 23-10.9 6.5-24.1-3.3-34.7-10.8-29.6-20.7-46.4-51-78.8-36.5z"/>
						</g>
					</g>
				</g>
				<g id="&lt;Group&gt;">
					<g id="&lt;Group&gt;">
						<path id="&lt;Path&gt;" class="s1" d="m2933.2 2998.2c13.5 64.1 50.3 180 85.5 233 33.4 50.3 75.7 92.5 122.9 123.7 28.4 18.8 58.6 33.5 89.7 43.7 3.9 1.2 1.9 7.9-2 6.6-54.3-17.7-105.9-49.5-150.3-91.9-43.9-42-76-86.9-100.9-154.6-16.4-44.7-30.5-80.9-38.3-117.6-0.9-4.6-6.6-42.9-6.6-42.9z"/>
					</g>
					<g id="&lt;Group&gt;">
						<path id="&lt;Path&gt;" class="s1" d="m3129 3355.4c-43.1-25.8-96.3-24.3-98.2-3.8-0.5 6.1 4.2 11.9 9.2 14.3 5 2.4 10.5 2.2 15.7 1.7 19.6-1.7 55.5-3.7 73.3-12.2z"/>
					</g>
					<g id="&lt;Group&gt;">
						<path id="&lt;Path&gt;" class="s1" d="m3056.5 3289.1q-27.3-9.1-54.7-18.1c-7.1-2.3-14.7-4.7-21.7-2.4-6.9 2.3-12.4 11.3-9.3 19.3 3 8.1 11.9 10.1 19.2 10.5 16.9 0.8 50.3-4.9 66.5-9.3z"/>
					</g>
					<g id="&lt;Group&gt;">
						<path id="&lt;Path&gt;" class="s1" d="m3008.5 3219.5q-30.3-14.5-60.6-29.1c-6-2.9-12.1-5.8-18.4-5.9-6.4-0.1-13 3.3-15.2 10-2.6 7.7 1.4 17.1 7.4 22.2 6 5.1 13.5 6.8 20.6 7.8 21.2 3 46 1.1 66.2-5z"/>
					</g>
					<g id="&lt;Group&gt;">
						<path id="&lt;Path&gt;" class="s1" d="m2973.6 3141.5c-14.5-16.1-31-29.8-48.7-40.5-6.9-4.2-16.2-7.5-21.2-1.1-3.3 4.2-2.8 11.3-0.2 16.5 2.7 5.1 7.1 8.8 11.6 11.8 17.8 12.1 38.9 16.9 58.5 13.3z"/>
					</g>
					<g id="&lt;Group&gt;">
						<path id="&lt;Path&gt;" class="s1" d="m2943.2 3059.2q0-0.2-0.1-0.3c-13.1-17.3-39.1-39.8-54.7-44.3-11.6-3.4-23.8 18.9-6.4 28.9 16 9.2 31.1 12.6 61.2 15.7z"/>
					</g>
					<g id="&lt;Group&gt;">
						<path id="&lt;Path&gt;" class="s1" d="m2937.2 3022.4q0.6-1.5 1.2-3.1 10.9-28.5 21.7-57c4.8-12.6 8.9-29.7-0.5-39.4-5.4-5.7-13.6-6.1-19.8-2.6-6.2 3.4-10.5 10-13.7 17.1-11.4 25.2-3.4 60.1 11.1 85z"/>
					</g>
					<g id="&lt;Group&gt;">
						<path id="&lt;Path&gt;" class="s1" d="m2948.8 3056.7q28.5-25.5 56.9-51c5.7-5.1 11.7-10.5 14.8-18.1 3.1-7.7 2.6-18.3-3.2-24.2-9.1-9-22.3-0.9-29.9 8.6-15 18.5-34.8 59.1-38.6 84.7z"/>
					</g>
					<g id="&lt;Group&gt;">
						<path id="&lt;Path&gt;" class="s1" d="m2974.7 3141.3q22.6-18.5 45.2-37.1c7.2-5.8 14.6-12 18.9-21 4.2-9 4.5-21.6-1.9-29.6-9.6-12.1-26.4-6.1-36.5 3.8-18.5 18.2-27.5 54.7-25.7 83.9z"/>
					</g>
					<g id="&lt;Group&gt;">
						<path id="&lt;Path&gt;" class="s1" d="m3010.1 3220.5q27.5-20.4 54.9-40.8c7.8-5.7 16.4-15.9 11.6-25.7-3.1-6.3-10.2-7.9-16.2-7.8-29.4 0.4-49 40-50.3 74.3z"/>
					</g>
					<g id="&lt;Group&gt;">
						<path id="&lt;Path&gt;" class="s1" d="m3060.2 3285.1q21.5-24.8 43-49.7c4.7-5.5 9.9-12.2 9-20.3-0.9-8.4-8.4-14.7-15.6-15.2-7.1-0.5-13.7 3.4-19.2 8.4-18 16.1-21.2 49.6-17.2 76.8z"/>
					</g>
					<g id="&lt;Group&gt;">
						<path id="&lt;Path&gt;" class="s1" d="m3130.4 3348.6c0.2-5.2 2-10.5 4.6-14.6 4.8-7.7 11.9-13.2 17.1-20.5 5.2-7.4 8.3-18.4 4-27.1-4.5-9.1-15.8-11.6-23.3-6.7-7.4 4.8-11.2 15.1-11.7 25.2-0.4 7.5 5.3 28.9 9.3 43.7z"/>
					</g>
				</g>
				<g id="&lt;Group&gt;">
					<g id="&lt;Group&gt;">
						<g id="&lt;Group&gt;">
							<path id="&lt;Path&gt;" class="s1" d="m3660.8 2913.2c-16.6 66.1-59.8 185-99.2 238-37.3 50.3-83.7 91.5-135 120.9-30.9 17.7-63.6 31-97 39.4-4.2 1.1-2.2 8.2 1.9 7.2 58.4-14.8 114.4-44.5 163.1-85.8 48.2-40.9 84-85.6 112.8-154.8 19-45.6 35.4-82.5 44.9-120.4 1.1-4.8 8.5-44.5 8.5-44.5z"/>
						</g>
						<g id="&lt;Group&gt;">
							<path id="&lt;Path&gt;" class="s1" d="m3439.9 3273.5c46.8-24 103.4-18.8 104.6 2.9 0.4 6.4-4.9 12.1-10.3 14.3-5.4 2.1-11.2 1.5-16.8 0.7-20.7-3.2-58.8-7.8-77.5-17.9z"/>
						</g>
						<g id="&lt;Group&gt;">
							<path id="&lt;Path&gt;" class="s1" d="m3519.4 3209.1q29.4-7.5 58.8-15.1c7.7-1.9 15.9-3.9 23.2-1 7.2 2.9 12.8 12.7 9.2 20.9-3.5 8.2-13 9.7-20.8 9.6-18-0.3-53.3-8.6-70.4-14.4z"/>
						</g>
						<g id="&lt;Group&gt;">
							<path id="&lt;Path&gt;" class="s1" d="m3573 3139.6q32.7-13.1 65.4-26.2c6.5-2.6 13.1-5.2 19.8-4.9 6.8 0.3 13.7 4.3 15.8 11.5 2.5 8.2-2.1 17.8-8.6 22.8-6.6 4.9-14.6 6.1-22.3 6.7-22.6 1.6-48.9-2.1-70.1-9.9z"/>
						</g>
						<g id="&lt;Group&gt;">
							<path id="&lt;Path&gt;" class="s1" d="m3612.8 3060.4c16-15.9 34-29 53.2-39 7.5-3.8 17.6-6.7 22.6 0.3 3.3 4.7 2.6 12-0.4 17.3-3 5.2-7.8 8.8-12.7 11.6-19.4 11.4-42 14.9-62.7 9.8z"/>
						</g>
						<g id="&lt;Group&gt;">
							<path id="&lt;Path&gt;" class="s1" d="m3648 2976.4q0.1-0.2 0.1-0.4c14.6-17.1 43-38.8 59.8-42.5 12.4-2.7 24.7 21.5 5.8 30.7-17.3 8.5-33.5 11.1-65.7 12.2z"/>
						</g>
						<g id="&lt;Group&gt;">
							<path id="&lt;Path&gt;" class="s1" d="m3655.7 2938.3q-0.6-1.6-1.1-3.3-10.6-30.6-21.1-61.1c-4.7-13.6-8.4-31.8 1.9-41.3 5.9-5.6 14.7-5.4 21.2-1.4 6.4 4.1 10.8 11.3 14 18.9 11.2 27.1 1.4 63.2-14.9 88.2z"/>
						</g>
						<g id="&lt;Group&gt;">
							<path id="&lt;Path&gt;" class="s1" d="m3642.1 2973.3q-29.3-28.6-58.7-57.2c-5.9-5.8-12-11.8-15-20-3.1-8.3-2.1-19.4 4.3-25.1 9.9-8.9 23.7 0.6 31.5 11 15.2 20.5 34.8 64.3 37.9 91.3z"/>
						</g>
						<g id="&lt;Group&gt;">
							<path id="&lt;Path&gt;" class="s1" d="m3611.7 3060.2q-23.4-21-46.8-42c-7.5-6.7-15.1-13.6-19.3-23.3-4.3-9.7-4.1-23 2.9-30.9 10.7-11.9 28.4-4.6 38.8 6.6 19 20.3 27.3 59.1 24.4 89.6z"/>
						</g>
						<g id="&lt;Group&gt;">
							<path id="&lt;Path&gt;" class="s1" d="m3571.2 3140.6q-28.5-23.3-57-46.6c-8-6.5-16.9-17.8-11.4-27.7 3.5-6.3 11.1-7.6 17.5-7 31.3 2.5 50.7 45.3 50.9 81.3z"/>
						</g>
						<g id="&lt;Group&gt;">
							<path id="&lt;Path&gt;" class="s1" d="m3515.6 3204.7q-22-27.5-43.9-55c-4.9-6.2-10.1-13.5-8.9-21.9 1.3-8.7 9.5-14.7 17.1-14.8 7.6 0 14.5 4.5 20.2 10.1 18.5 18.2 20.8 53.4 15.5 81.6z"/>
						</g>
						<g id="&lt;Group&gt;">
							<path id="&lt;Path&gt;" class="s1" d="m3438.7 3266.3c0-5.5-1.8-11.1-4.4-15.6-4.8-8.5-12.1-14.6-17.4-22.7-5.3-8.1-8.3-19.8-3.3-28.6 5.1-9.2 17.2-11 24.9-5.4 7.8 5.6 11.5 16.5 11.7 27.2 0.1 7.8-6.7 29.8-11.5 45.1z"/>
						</g>
					</g>
				</g>
				<g id="&lt;Group&gt;">
					<g id="&lt;Group&gt;">
						<path id="&lt;Path&gt;" class="s3" d="m3339.9 3219.5l-100.3 0.1v385.9h104.7z"/>
						<g id="&lt;Group&gt;">
							<path id="&lt;Compound Path&gt;" class="s3" d="m3145.6 3413q0-92.7 50.4-143.1 50.3-50.4 148.3-50.4 94.1 0 144.5 50.9 50.3 50.9 50.3 142.6 0.1 91.7-52.2 142.1-52.3 50.4-142.6 50.4-93.3 0-146-49.9-52.7-49.9-52.7-142.6z"/>
						</g>
						<g id="&lt;Group&gt;">
							<path id="&lt;Compound Path&gt;" class="s4" d="m3049.4 3413q0-92.7 50.4-143.1 50.4-50.4 148.3-50.4 94.1 0 144.5 50.9 50.4 50.9 50.4 142.6 0 91.7-52.3 142.1-52.2 50.4-142.6 50.4-93.2 0-145.9-49.9-52.8-49.9-52.8-142.6z"/>
						</g>
						<path id="&lt;Path&gt;" class="s5" d="m3276.9 3220.9l-223.6 239.2c7 39.4 23.2 71.2 48.9 95.5 3.9 3.7 8 7.2 12.3 10.5l277.2-296.6q-42.3-41.9-114.8-48.6z"/>
						<path id="&lt;Path&gt;" class="s5" d="m3431.2 3333.8q-6.3-18.4-15.8-34.1l-267.6 286.4q16.8 7.7 36.1 12.4z"/>
					</g>
					<g id="&lt;Group&gt;">
						<path id="&lt;Compound Path&gt;" class="s3" d="m3481.2 3006.8h-300.6l-46.4-1316.6h393.5z"/>
					</g>
					<g id="&lt;Group&gt;">
						<path id="&lt;Compound Path&gt;" class="s4" d="m3385.1 3006.8h-300.6l-46.5-1316.6h393.5z"/>
					</g>
					<path id="&lt;Path&gt;" class="s5" d="m3069.3 2576l344-368.2 9.1-258.5-361.6 387z"/>
					<path id="&lt;Path&gt;" class="s5" d="m3075 2739.4l332.1-355.3 3.4-98.1-338.7 362.5z"/>
				</g>
			</g>
			<g id="&lt;Group&gt;">
				<g id="&lt;Group&gt;">
					<path id="&lt;Path&gt;" class="s6" d="m859.4 3221.8c5.7-19 11-38.1 15.2-57.4-101.5-1.5-209-6.8-233.1-25.4l-22.6-7.7c0 0-57.8 40.8-59.2 42.1-1.4 1.3-0.5 35.4-0.5 35.4l10.9-4.4 2.2-1.5 1.8-2.2c9.7-11.4 25.7-17.7 40.2-14 24.6 6.3 133.1 37 237.5 59.3q3.8-12.1 7.6-24.2z"/>
					<path id="&lt;Path&gt;" class="s7" d="m551.1 3169.8c-3.2 2.4-6.8 5.8-7.6 9.9l-7.2 38.2c-1 5.2 0 10.6 2.8 15 0.7 1.1 1.9 2.4 3.2 3.6 2.6 2.5 9.8 2.5 11.8-0.6 6.3-10 18.9-30.1 18.2-33-4.8-10.6-1.4-23.6 7.9-30.4l15.1-10.9c7.9-5.8 16.5-10.5 25.4-14.1l20.8-8.7-3.1-7.7c-5.3-13-18.9-19.5-31.7-15.3l-8.2 2.6-9.9 2.7-35.3-0.5-1.1 5.8 37.2 7c1.1 0.2 1.8 1.3 1.5 2.5l-0.3 1.7c-0.5 2.7-1.8 4.6-3.9 6.2z"/>
				</g>
				<path id="&lt;Path&gt;" class="s8" d="m998.7 2188.3c46.9 130.8 41.9 164.4 51.9 220.7-11 13.9-76.9-3.1-76.9-3.1l-48.3-190.6c0 0 65.9-47.4 73.3-27z"/>
				<path id="&lt;Path&gt;" class="s9" d="m751.7 2440.5l2.7 43.6c0 0 3.1 14.3 2.2 26.9-0.6 9.5-9.9 19-15.3 23.8-1.4 1.3-0.7 3.7 1.2 3.9 6.5 0.4 18.2-0.9 26.2-13.8 7.4 16.8-2.3 28.9-8.8 34.7-1.5 1.3-0.6 4 1.4 3.9 12.7-0.4 41.5-5.8 57.4-44.8 7.4-18.1 57.9-2.1 72.3-30.1 15.9-31.2 35.1-26.6 44.1-32.8 8.5-6 18.9-2.8 25.4-11.3 4.6-6.2 8.7-17.6 19.8-15.8 22 3.5 18-17.8 30.1-13.8 19.1 6.2 21 31.3 22.5 26.6 16.2-48.9 0.1-67.5-13.5-82.2-21.7-23.3-88.5-91.2-88.5-91.2l-42.5 12.6-65.4 15.6-27.9 72.5z"/>
				<path id="&lt;Path&gt;" class="s8" d="m1230.8 2568.9c0 0-49.6 19-64.6 31.5-23.2 19.4-35.6 56.4-59 88.4-29.4 40.3-83.6 63.8-109.4 87.4-99.5 90.8-224.8 77.6-224.8 77.6l46.7-91.7 58.6-218.1 11.3-72.9 79.1-43c0 0 142.7 7 181.8 34.5 27.5 19.3 80.3 106.3 80.3 106.3z"/>
				<path id="&lt;Path&gt;" class="s10" d="m861.5 2372.5c5.6 11.7 2.3 25-7.4 29.7-9.7 4.7-22.2-0.9-27.8-12.6-5.7-11.7-2.4-25 7.3-29.7 9.8-4.7 22.2 0.9 27.9 12.6z"/>
				<path id="&lt;Path&gt;" class="s10" d="m747 1954c-7.3 11.4 87.9-6.3 108.8 36 9.1 18.4-10.6-32.5-23.1-37.5-15.7-6.3-75.4-14.8-85.7 1.5z"/>
				<path id="&lt;Path&gt;" class="s6" d="m880.7 2403.5l9.1 99.6 91.2-16-61.8-117z"/>
				<path id="&lt;Path&gt;" class="s11" d="m929.4 2762.3c0 0-68.7-178.6-112.2-248.8 5.8-19.5 69.5-42.4 69.5-42.4 0 0 28.1 15.3 45.1 8.6 26.9-10.6 29.8-29.4 29.8-29.4 0 0 16.3-4.7 23.4-2 32.1 12.1 75.4 46.1 87.4 122.6 13.4 85.2-12 200-12 200l-63.8 87.7z"/>
				<path id="&lt;Path&gt;" class="s12" d="m1230.8 2568.9c0 0-50.6-58.1-94.7-80.4-74.7-37.6-95.6 23.3-174.5-38.2-6.4-12.2-8.8-16.7-8.8-16.7 0 0 61.2-39.2 98.4-33.4 24.6 3.8 61.6 10.9 79.7 28.2 32.7 31.2 99.9 140.5 99.9 140.5z"/>
				<path id="&lt;Path&gt;" class="s10" d="m859.4 3221.8c5.7-19 11-38.1 15.2-57.4-41.2-0.6-83.3-1.8-120.5-4.3-12 16.5-20.5 34.7-13.8 59.8 34.9 8.7 73.5 18 111.5 26.1q3.8-12.1 7.6-24.2z"/>
				<g id="&lt;Group&gt;">
					<g id="&lt;Group&gt;">
						<path id="&lt;Path&gt;" class="s6" d="m1092 3288.4c-15.1-12.9-51 0.4-66.9-11.3-42.4 92.3-70.2 162.5-97 177.1l-16.2 17.5c0 0 13.9 69.4 14.5 71.2 0.6 1.8 32.3 14.8 32.3 14.8l0.3-11.8-0.5-2.5-1.2-2.7c-6.6-13.5-5.9-30.6 3.4-42.4 15.7-19.9 87.7-106.7 150.3-193.2q-9.5-8.3-19-16.7z"/>
						<path id="&lt;Path&gt;" class="s7" d="m919.6 3549.3c1 3.9 2.6 8.6 6.1 11l31.9 22c4.5 3 9.8 4.4 14.9 3.5 1.3-0.1 3-0.8 4.6-1.5 3.3-1.3 6.2-7.9 4.2-11-6.5-9.8-19.9-29.4-22.8-29.9-11.7 0-22.2-8.3-24.6-19.6l-3.9-18.2c-2-9.6-2.9-19.3-2.6-29l0.5-22.5-8.3-0.2c-14-0.5-25.5 9.3-26.9 22.7l-0.8 8.6-1.5 10.1-14.9 32.1 4.9 3.4 21.5-31.2c0.6-0.9 1.9-1.1 2.8-0.5l1.5 1.1c2.2 1.5 3.5 3.5 4.1 6z"/>
					</g>
					<path id="&lt;Path&gt;" class="s10" d="m1092 3288.4c-15.1-12.9-51 0.4-66.9-11.3-21.1 45.8-38.5 86.1-54 117 10.6 18.8 30.5 29.8 47.7 31.9 27.7-34.9 61.1-77.9 92.2-120.9q-9.5-8.3-19-16.7z"/>
				</g>
				<path id="&lt;Path&gt;" class="s6" d="m923.8 2192.1c0 0-42.7-173.1-78.2-217.9-12.3-15.5-62.7-40.4-62.7-40.4-4.6-2.9-2.2-10 3.2-9.6 5.1 0.5 9.8 1 12.7 1.5 23.2 4.6 67.5 23.5 84.8 41.2 49.6 50.5 103.6 205 103.6 205z"/>
				<g id="&lt;Group&gt;">
					<path id="&lt;Path&gt;" class="s10" d="m563.5 2869.3c-7.8 8.4 52.9 22.4 74.2 17.3 23.3-5.8 16.4-18.2 40.7-11.1 13.9 4-13-26.1-22.5-17.5-33.2 29.7-80.9-1.1-92.4 11.3z"/>
					<path id="&lt;Path&gt;" class="s6" d="m762.1 2740.2q-11.9-9-23.8-18c-26.7 50.2-67.6 124.3-95.6 147.3-15.3 12.5-70.5 24.8-70.5 24.8-5.1 2-4.2 9.5 1.2 10.1 5 0.7 9.8 1.2 12.7 1.2 23.6 0.5 70.9-8.7 91.6-22.4 36.1-23.8 82-85.2 112.2-129.4q-14.2-5.8-27.8-13.6z"/>
				</g>
				<path id="&lt;Path&gt;" class="s13" d="m1060.4 2770.9c-22 16.9-96.4 13.7-131-8.6-30.7 32.6-56.1 52.7-70.3 129.4-17.5 94.4 54.4 272.1 54.4 272.1 0 0-82-11.4-137.8-11.7-17 21.3-32.2 43.5-18.2 79 80.8 30.7 198.2 54.6 239.1 7 24.1-27.9 4-160.4-4.6-228.3-0.4-3.3 4.3-4.4 5.3-1.2l75.7 151.6c0 0-55.3 114.4-99.8 206.5 7.6 34.4 43.6 52.5 65.9 48.1 58.6-74.4 132.3-200.7 132-266.4-0.3-83.2-107.1-347.5-110.7-377.5z"/>
				<path id="&lt;Path&gt;" class="s10" d="m945.4 2419.7l-26.2-49.6-38.5 33.4 3.5 38.3q2.4 0.9 4.8 1.6c27.6 8.3 46.8-3.8 56.4-23.7z"/>
				<path id="&lt;Path&gt;" class="s12" d="m903.5 2177.3c23-14.4 51.7-23 85.8-35.3 12.7-4.5 24.2 43.2 20 50.1-18.2 14.8-89.5 32.5-89.5 32.5 0 0-27.1-40.5-16.3-47.3z"/>
				<path id="&lt;Path&gt;" class="s10" d="m966.1 2336.9c4 12.4-1.1 25.1-11.4 28.5-10.3 3.3-21.8-4-25.8-16.4-4-12.3 1-25.1 11.3-28.4 10.3-3.3 21.9 4 25.9 16.3z"/>
				<path id="&lt;Path&gt;" class="s6" d="m823.5 2343.3c-12.7-40.4 38.7-82.6 76.8-69.3 34.3 12 54.7 71.8 56.2 104.8 1.7 36-20.2 70-59.4 56.5-37.4-12.9-62.4-56.2-73.6-92z"/>
				<path id="&lt;Path&gt;" class="s10" d="m900.3 2274c-5.6-1.9-11.6-2.7-17.6-2.4q-1.4 0.8-2.8 1.8-1.1-0.7-2.1-1.3c-32.8 4.5-64.6 38.5-54.3 71.2 1.3 4.4 3 9 4.8 13.6-0.1-2.2 0-4.4 0.4-6.6 7.4-52.2 65.8-56 79.6-52.1 12.3 3.4 23 10.9 31 20q1.3 1.5 2.6 3.1c-9.6-21.7-23.7-41-41.6-47.3z"/>
				<path id="&lt;Path&gt;" class="s14" d="m754.7 2484.1c0 0-17.8-20.3-11-55 3.4-17 29.7-43.2 36.5-59.2 7.9-18.4-8.2-43 21.9-78.3 11.7-13.8 45.4-32.5 62.3-28.5 13.9 3.2 24.3 17.6 24.3 17.6 0 0-25.4 14.4-25.4 14.4-18.3 10.3-34.1 27.5-31.4 50.7 1.9 16.7 7.5 31.5-3.7 46.4-16.5 21.8-46.8 25.1-63.4 42.7-12.4 13.1-10.1 49.2-10.1 49.2z"/>
				<path id="&lt;Path&gt;" class="s15" d="m898.6 2618.3c-2-17.8-17.2-47.2-20.6-65.5-5.2-27.5-2.6-53.5 7.5-81.2-8.8 3.2-63 24-68.3 41.9 23.1 37.4 53.5 105.6 76.8 161.1 4.8-20.3 6.2-42.1 4.6-56.3z"/>
				<path id="&lt;Path&gt;" class="s13" d="m859.6 2297.3c-4.7-13.9 10.6-25.3 21.4-31.2 12-6.4 26.4-7.5 39.7-7.1 39.9 1.3 40.6 30.5 57.3 48.8 9.4 10.3 18.1 7.9 28.6 19.5 6.2 6.9 20 40.2 20 40.2 0 0-16.3-17.6-30.2-20.2-18.6-3.5-22.7 1.5-35.8-5.2-12.3-6.2-20.3-17.9-28.8-28.3-7.4-9.1-15-17.4-26.4-20.9-13.1-3.9-28.7-5.2-45.8 4.4z"/>
				<path id="&lt;Path&gt;" class="s12" d="m886.7 2471.1c-45.3 7.7-84.7 39.3-97.1 74.3-9.5 26.8-18.4 73-33.4 118.8-17.4 36.5-72.9 131.1-72.9 131.1 0 0 46.6 38.4 62.5 34.5 44.1-76 66.7-98.4 93.8-176.1 0.7 62.5-66.6 200.1-66.6 200.1 0 0 25.4-46.5 36.2-61.1 14.8-19.9 48.5-49.9 61.6-71.9 12.9-21.5 24.8-70.1 22.7-95-1.4-17.8-17.1-47.7-19.9-66.1-4.7-30.2-0.3-58.3 13.1-88.6z"/>
				<path id="&lt;Path&gt;" class="s16" d="m732.3 2852.6c-23.2-3.3-40.8-18.7-66.6-35.7-9.3-6.1 16.1-41.1 23.6-42.5 21.9 8.2 56 24 69.2 41.1 4.3 5.6-19.2 38.1-26.2 37.1z"/>
			</g>
			<g id="&lt;Group&gt;">
				<path id="&lt;Path&gt;" class="s8" d="m4525.9 2046.2c2.1-4.3 21.5-1.7 37 5.8 15.5 7.5 29.7 18.6 27.6 22.9-2 4.2-19.5 0-35-7.5-15.6-7.5-31.6-17-29.6-21.2z"/>
				<path id="&lt;Path&gt;" class="s6" d="m4527.6 2012.1c6.1 7.9 10.1 17.2 11.6 27 0.4 2.9 0.6 5.5 0.4 7.6-0.6 5.8-2.7 11-4.8 16.4-2 5.4-4 10.7-6.2 16.1-1.1 2.7-14.9 32.1-15.2 32 10.6 6.5 25.9 16.4 37.8 19.8 0.3 0.1 15.3-39.2 16.9-42.7 5.4-12.4 11.4-24 20.1-34.4 5.6-6.8 11.7-13.3 16.4-20.8 5.1-8.1 6.9-16.9 9.6-26 1.5-4.9 4.1-8.7 6.8-13.1q4.6-7.7 9.3-15.4c1.3-2.1 2.6-4.3 2.8-6.8 0.2-2.4-1-5.2-3.3-5.9-3.4-1.1-6.4 2.3-8.3 5.3-5 7.6-10.3 15.2-15 23-0.8 1.1-1.9 2.3-3.4 1.9-0.7-0.2-1.3-0.7-1.6-1.3-0.8-1.5-0.5-3.1 0.1-4.5 4.9-11.4 9.9-22.6 14.8-34 1.1-2.6 2.2-5.9 0.4-8.2-1.7-2.2-5.2-2.1-7.5-0.5-2.3 1.6-3.6 4.2-4.8 6.6q-4.4 8.7-8.8 17.4-2.1 4.3-4.2 8.6c-1.1 2-1.8 5-4.4 5.7-1.3 0.4-2.7-0.1-3.5-1.2-1.1-1.5-0.8-3.3-0.2-4.9 4.9-13 8.5-26.6 12.4-39.9 0.9-3 1.6-6.8-0.7-8.9-2.1-1.9-5.6-1.2-7.6 0.7-2.1 2-3 4.8-3.9 7.4-4.1 13-8.4 26-12.4 39-0.2 0.6-0.5 1.2-0.9 1.7-1.8 1.8-3.5 0.6-4-0.9-0.7-2.2 0.5-5.9 0.7-8.2q0.4-4.9 0.7-9.8 0.6-9.7 0.5-19.5c-0.1-3.6-0.8-8.1-4.3-9.1-2.4-0.7-5.1 1-6.3 3.2-1.3 2.2-1.4 4.9-1.6 7.4q-0.7 13.4-1.1 26.8c-0.2 9.3-1.2 18.5-3.1 27.6-0.4 1.7-0.7 3.4-1.1 5.3-0.1 0.9-0.3 1.7-0.8 2.5-0.5 0.7-1.2 1.2-2 1.5-1 0.3-2 0.5-2.9 0.1-0.3-0.1-1.8-1.2-3.8-2.6-6.2-4.4-11.5-9.9-16-15.9-1.9-2.5-4.4-5.5-6.4-4.5-8.2 3.9 1.3 18.7 8.8 28.4z"/>
				<path id="&lt;Path&gt;" class="s12" d="m4525.9 2046.2c-8 18.5-79.9 141-92.6 141.4-3 0.1-5.8-1.8-7.1-4.4-1.3-2.4-1.6-5.7-4.2-6.6-4-1.5-7.2 4.5-11.5 1.6-2.6-1.8-2.9-5.4-4.5-7.9-2.2-3.6-7.6-3.1-11.2-2.9-4.1 0.2-8.1-0.2-12.1-1.1-8.6-1.9-16.7-5.7-24.2-10.3-14.3-8.8-26.7-20.5-37.9-32.9-0.7-0.9-13-14.6-12.8-14.8-16.2 17.4-49 23.8-49.6 47.6-0.6 25.7 7 51.1 18.3 74.2 4.3 8.9 141 91.3 190.5 66.5 58.2-29.3 109.7-176.5 123.5-221.7-5.5 6.3-64.9-18-64.6-28.7z"/>
				<path id="&lt;Path&gt;" class="s8" d="m3984.8 2473.7c4.6-10.5 10.7-18.4 10.7-18.4 0 0 143-15.4 145.8-15.5 2.9 0 82.9 30.6 82.9 30.6l9 20.5c0 0-261.6 12.3-248.4-17.2z"/>
				<path id="&lt;Path&gt;" class="s2" d="m3991.3 2502c1.6-9 10.7-18.5 10.7-18.5 0 0 151.8-16.4 154.8-16.5 3 0 87.9 32.4 87.9 32.4l9.5 21.8c0 0-268.9 14.6-262.9-19.2z"/>
				<path id="&lt;Path&gt;" class="s8" d="m4078.7 1774.6c1.5-4.2-8.5-12.9-23.9-18.5-15.3-5.5-28.9-5.8-30.4-1.6-1.6 4.2 9.6 11.4 25 16.9 15.3 5.5 27.8 7.4 29.3 3.2z"/>
				<path id="&lt;Path&gt;" class="s6" d="m4107.7 1741.6c-9.1 1.1-17.9 4.4-25.3 9.8-2.1 1.6-4 3.1-5.3 4.6-3.4 4.2-5.4 9-7.7 13.8-2.2 4.8-4.5 9.6-6.6 14.5-1 2.5-11.5 30.7-11.3 30.8-11.1-2.8-27.5-6.5-37.5-12.1-0.3-0.1 15.9-35.5 17.3-38.8 4.6-11.6 8.4-23.1 9.6-35.5 0.8-8.2 1.1-16.4 3.1-24.3 2.1-8.7 6.7-15.6 10.9-23.2 2.3-4.2 3.1-8.4 4.3-13q2-8 4.1-16.1c0.6-2.2 1.2-4.5 2.6-6.2 1.5-1.8 4.1-2.8 6.1-1.7 2.9 1.5 2.6 5.7 1.9 8.9-1.8 8.2-3.4 16.6-5.4 24.8-0.4 1.2-0.3 2.7 0.9 3.5 0.6 0.3 1.3 0.4 1.9 0.2 1.4-0.4 2.3-1.7 2.8-3 4.4-10.6 8.6-21.2 12.9-31.7 1-2.5 2.5-5.3 5.1-5.6 2.6-0.3 4.8 2.1 5.2 4.6 0.5 2.5-0.4 5-1.2 7.4q-2.9 8.6-5.8 17.1-1.5 4.2-2.9 8.3c-0.7 2-2.2 4.5-1 6.6 0.6 1.1 1.9 1.7 3.1 1.5 1.7-0.2 2.7-1.6 3.4-3 5.4-11.6 12-22.8 18.2-34 1.4-2.6 3.5-5.5 6.4-5.3 2.6 0.1 4.4 2.9 4.4 5.5 0.1 2.6-1.2 5-2.4 7.3-5.8 11.2-11.6 22.4-17.6 33.5-0.3 0.5-0.5 1.1-0.5 1.7-0.1 2.3 1.9 2.7 3.1 2 2-1 3.6-4.1 5-5.8q3-3.4 6-6.8 6.1-6.7 12.6-12.9c2.4-2.3 5.8-4.7 8.7-3.1 2.1 1.2 2.7 4 2 6.2-0.6 2.3-2.3 4.1-3.9 5.9q-8.3 9.2-16.9 18.1c-6 6.1-11.4 12.8-16.2 20-0.8 1.2-1.8 2.6-2.8 4.1-0.5 0.6-0.9 1.3-1.1 2.1-0.2 0.7 0 1.6 0.3 2.3 0.4 0.8 1 1.6 1.8 2 0.3 0.1 2 0.4 4.2 0.8 6.9 1.2 13.9 1.2 20.9 0.2 2.8-0.4 6.4-0.6 7.1 1.4 2.7 7.9-13.3 11.2-24.5 12.6z"/>
				<path id="&lt;Path&gt;" class="s12" d="m4151.7 2140.9c-15 19.2-35.8 33.2-57.9 43.4-8.4 3.9-17.3 9.1-26.1 12.1-44.5-58.6-88.3-126.4-125.4-189.9-7.3-12.5-10-34.1-6-48 31.6-109.9 55.8-139.8 88.1-204 15.9 11.3 34.9 18.3 54.3 20.1-15.4 68-34.4 104.5-50.9 183.7-0.7 3.6 1.1 7.2 4.4 8.9 5 2.4 10.7 5.4 12.2 9.3 1.4 3.5 1.4 9.3 4.1 11.9 2.3 2.3 5.3 2.6 8.1 4.1 3.9 2.1 3.8 7.4 4.3 11.8 1.1 9.9 28.4 32.1 41.5 45.4 9.5 9.7 19.3 19.6 31.8 24.7 12 4.8 25.3 4.8 38.3 3.7 1.4 22.4-7 45-20.8 62.8z"/>
				<path id="&lt;Path&gt;" class="s6" d="m4228.7 3261.9c-16.4 0.3-32.7-1.3-48.7-4.8 3-43.1 3.1-86.4 0.4-129.5q29 6.6 57.9 13.3c-4.9 40.2-8.1 80.5-9.6 121z"/>
				<path id="&lt;Path&gt;" class="s10" d="m4182.3 3193.7c14.6 7.5 34.5 7.5 50.2 4.4 1.3-13.1 4.2-44.1 5.8-57.2q-28.9-6.7-57.9-13.3c1 15 1.7 51.1 1.9 66.1z"/>
				<path id="&lt;Path&gt;" class="s6" d="m4090 3030.8c-14 11.2-27.3 23.3-40 36-11.1-23.7-25.9-47.4-41.2-68.9 11-14 24.5-26 39.6-35.3 12.8 23.4 26.6 46.1 41.6 68.2z"/>
				<path id="&lt;Path&gt;" class="s10" d="m4070 2999.9q-11.3-18.4-21.6-37.3c-15.1 9.3-28.6 21.3-39.6 35.3 6.4 9.1 12.8 18.5 18.8 28.2 15.2-4.6 32.7-15.3 42.4-26.2z"/>
				<g id="&lt;Group&gt;">
					<path id="&lt;Path&gt;" class="s13" d="m4272.8 2929.3c0.1 8.4-8.9 152.7-25.4 254.2-17.1 13.5-63.6 8.5-77.8-8.2-1.6-95.3-0.9-267.2-0.9-267.2l-50.2-302.9c0 0-42.4 87.4-120.7 185.1 21.5 57.4 35.8 98.1 75.4 188.2-4.7 19.5-50.5 45.9-69.6 39.8-55.4-80.8-109.9-177.7-105.9-245.3 4.7-77.2 93.5-203.2 122.5-279.4 11.8-30.9 130-24.5 130-24.5 0 0 100.3 6 106.2 33.2 19.9 93.2 15.9 340.6 17.2 345.6 1.4 5.4-1.8 18.6 0.3 23.7 1.2 3 2.7 6.1 2.4 9.4-0.3 3.2-2.2 6.3-1.5 9.4 0.6 3 1.7 4.2 2.6 7.2 1.7 5.4-1.8 10.8-3.9 16-2 4.9-0.9 10.4-0.7 15.7z"/>
				</g>
				<path id="&lt;Path&gt;" class="s7" d="m4256.9 2505q-0.2-1.4-0.5-2.7c-5.9-27.2-106.2-33.2-106.2-33.2 0 0-118.2-6.4-130 24.5-4.7 12.4-11.1 26.3-18.4 41 46.7-26.3 193.7-45 255.1-29.6z"/>
				<path id="&lt;Path&gt;" class="s17" d="m4175.1 2070.1c25.8-9.2 110.7 9.5 121.9 22.3 7.9 9-7.8 47.2-7.8 47.2l-72.8 9.2c0 0-43.4-78-41.3-78.7z"/>
				<g id="&lt;Group&gt;">
					<path id="&lt;Path&gt;" class="s6" d="m4231.9 2022.9c-10.2 21.9-60.9 96.7-60.9 96.7l31.8 53.9 72.5-16.5c0 0 8.4-75.8 22.2-101 7.8-14.3-58.4-48.4-65.6-33.1z"/>
				</g>
				<g id="&lt;Group&gt;">
					<g id="&lt;Group&gt;">
						<g id="&lt;Group&gt;">
							<path id="&lt;Path&gt;" class="s11" d="m3991.3 2502c23.8-33.8 236.6-24.3 272.7 16.5 12.2-90.7 49.7-364.7 49.7-364.7 0 0-25.1-23.5-34.1-27.9-34.1 10.6-69.4-1-88.3-36.7-4.1-2.1-40.1 20.6-40.1 20.6l-29.3-7.8c0 0-114.6 310.3-130.6 400z"/>
						</g>
						<g id="&lt;Group&gt;">
							<path id="&lt;Path&gt;" class="s2" d="m4236.9 2132.6q-4.6-1.2-9.1-3c-18.7-7.3-33.6-20.9-43.3-39.1-1.4-2.6-0.4-6 2.3-7.4 2.6-1.4 5.9-0.4 7.4 2.3 16.7 31.6 52 46.3 85.9 35.9 2.9-0.9 5.9 0.7 6.8 3.6 0.9 2.9-0.7 5.9-3.6 6.8-15.1 4.7-31.2 5-46.4 0.9z"/>
						</g>
					</g>
					<path id="&lt;Path&gt;" class="s2" d="m4049.7 2285.2c4.9-69.5 91.7-186.3 104.4-182.6-14.7 16.6-28.1 32.7-40.7 50.9-27.2 39.2 5.3 119.6 14.8 135.2 15.1 24.9-83.2 62.7-78.5-3.5z"/>
				</g>
				<path id="&lt;Path&gt;" class="s12" d="m4165.2 2524.1c22.8 20.3 117.7 45.9 131.5 33.4 7.9-114.7-18.8-147.6 43.6-300 19.9-48.5-22.1-117.9-22.1-117.9l-18.4-41.6c0 0-35.1 71.7-44.3 96.6-32.3 87.5-1.3 149.8-15.2 214.7-12.4 58.3-30.1 73.6-75.1 114.8z"/>
				<path id="&lt;Path&gt;" class="s8" d="m4320.2 2109.2c-18.8 32.5-53.5 56.1-66.6 91 1.6-50.5 35.7-113 35.7-113 0 0 19.1 11.7 29.6 17.5 1.6 0.9 2.2 2.9 1.3 4.5z"/>
				<path id="&lt;Path&gt;" class="s12" d="m4131.9 2451.5c-25.9 20.4-119.9-14.9-147.1 22.2 13.9-64.8 34.2-129.1 45.3-194.4 11.8-68.7 35.6-138.9 86.1-186.6q18.7 7.4 37.4 14.8c-16.4 15-32.5 30.7-44 49.6-13.1 21.3-19.9 47.9-12.3 71.8 5.6 17.5 18.1 31.8 26.1 48.3 12.9 26.4 13.6 57 11.6 86.3-2 29.3-6.5 58.8-3.1 88z"/>
				<path id="&lt;Path&gt;" class="s8" d="m4206.7 2065.3c-11.8-1.3-28.3-4.1-40.8 1.3-2.2 1-3.9 2.9-4.4 5.3-5 19.9-23.1 49-35.6 63.2 42.6-20.7 68-43.1 80.8-69.8z"/>
				<path id="&lt;Path&gt;" class="s10" d="m4231.9 2023.7c-2.6 5.5-7.7 14.3-13.9 24.4 2.5 27.4 19.6 49.4 51.7 42.7 6.3-1.3 12.3-3.5 18.2-6.4 2.7-11.1 5.9-21 9.5-27.6 7.9-14.3-58.4-48.4-65.5-33.1z"/>
				<path id="&lt;Path&gt;" class="s18" d="m4072.3 3005.3c-1.1-8.8 33.8 1.7 33 10.5-1.7 19.1-9.8 97.6-40.9 154.6-4 7.3-19.6 0.8-18.7-7.4 9.2-84.1-2.1-102.1-13.8-116.2-3.6-4.3 16.2-15.5 19.6-11 8.5 11.4 14.7 11.6 14.7 11.6 0 0 7.7-29.8 6.1-42.1z"/>
				<path id="&lt;Path&gt;" class="s18" d="m4214.6 3234.7c4.8-5.4 29.4-10 28.6-2.9-3.8 33.9-8.9 30.8 24.4 147.5 1.7 6.2-10.6 9.5-14.8 8.4-6.1-1.5-12.3-9.1-16.4-13.5-12.1-12.8-21.9-27.8-30.7-43.1-15.2-26.2-27.6-54-39.2-82-3-7.2 11.2-26.4 15.3-26.1 11.6 0.7 13.9 25.8 28 29.3 4.9 1.2 1.5-13.9 4.8-17.6z"/>
				<path id="&lt;Path&gt;" class="s19" d="m4224.3 1982.7c0 0 9.1-70.2 39.4-81.6 26.9-10.1 79.7-8.9 107.9 6.7 3.9 2.1 8.2 5.2 8 9.6-2.7 75.9-36.6 104.9-36.6 104.9l-11.9-1.8c0 0 26.4-44.1 20.9-62.4-5.9-19.9-65.9-38.1-85.6-31.4-14 4.7-32.4 59.3-32.4 59.3z"/>
				<g id="&lt;Group&gt;">
					<path id="&lt;Path&gt;" class="s6" d="m4352.2 1989.6c22.6-49.8-41.9-79.9-80.7-68.5-34.8 10.3-51.9 64.3-55.6 98-4 36.7 15.5 72.8 55.4 61.2 38-11 65-55.6 80.9-90.7z"/>
				</g>
				<path id="&lt;Path&gt;" class="s10" d="m4239.2 1964.8c7.8-13.8 17.5-28.3 24.8-30 20.2-4.8 78.2 19 82.2 39.4 1 4.7-1.6 16.2-4 22.7l12.4-2.4c5.1-13.9 7.2-29.6 3.4-44.2-6-22.9-56.8-47.8-86.6-39.8-18.5 5.1-30.1 32.1-39.1 52.5z"/>
				<path id="&lt;Path&gt;" class="s13" d="m4223.2 1982.7c0 0 13.1-69.7 44.1-79.1 29.6-8.9 86.1-4.2 111.1 16.7 0.5 0.5 0.9 1.3 0.9 2-2.6 80.5-42.9 106.9-42.9 106.9l-11.8-2.6c0 0 29.4-42.3 25.1-60.8-4.6-20.3-63.2-42.5-83.3-37.1-14.3 3.8-36.4 57.1-36.4 57.1z"/>
				<path id="&lt;Path&gt;" class="s6" d="m4236.3 1979.5c1.1 12.5-5.2 23.3-14.1 24.3-8.9 0.9-17-8.5-18.1-21-1.1-12.4 5.2-23.3 14.1-24.2 8.9-0.9 17 8.5 18.1 20.9z"/>
				<path id="&lt;Path&gt;" class="s6" d="m4339.9 2041.1c9.8-7.2 13.7-19 8.6-26.3-5.1-7.4-17.1-7.5-26.9-0.3-9.8 7.2-13.6 18.9-8.5 26.3 5 7.3 17.1 7.5 26.8 0.3z"/>
			</g>
			<g id="&lt;Group&gt;">
				<g id="&lt;Group&gt;">
					<g id="&lt;Group&gt;">
						<path id="&lt;Path&gt;" class="s20" d="m2950.7 2753.8c2.7 12-69.1 37.9-161.3 57.6-92.2 19.7-183.3 23.6-186.1 11.5-2.8-12 83.8-35.4 176-55.1 92.2-19.8 168.6-26.1 171.4-14z"/>
						<g id="&lt;Group&gt;">
							<path id="&lt;Path&gt;" class="s21" d="m2774.7 2120.3z"/>
							<path id="&lt;Path&gt;" class="s21" d="m2803.4 2100.2z"/>
							<path id="&lt;Path&gt;" class="s7" d="m2887.6 2140.3c-5.8-6.4-12.3-12.1-19.5-16.9l-2.9-14.6c-0.6-3.2-3.1-5.7-6.4-6.4-11.9-2.7-24.1-3.4-36.1-2.3l-14-7.1c-3-1.6-6.6-1.3-9.2 0.7-8.3 6.1-15.5 13.3-21.5 21.3l-8.9 0.9c-3.3 0.4-6.1 2.6-7.2 5.6-7.5 22-7.3 45.8 0.5 67.6 0 0 103.4 21 103.8 20.6l19.8-22.6c2.1-2.5 2.6-6 1.1-8.9q-2.9-5.9-6.6-11.4l8.4-17.7c1.4-3 0.9-6.4-1.3-8.8z"/>
							<g id="&lt;Group&gt;">
								<path id="&lt;Path&gt;" class="s14" d="m2822.8 2101.4c12-1.2 24-0.4 35.7 2.2 2.7 0.6 4.8 2.8 5.4 5.4l0.7 3.6q1.3-0.3 2.6-0.5l-0.7-3.6c-0.7-3.6-3.6-6.6-7.4-7.4-11.9-2.7-24-3.5-36.2-2.3l-13.6-7c-3.4-1.7-7.6-1.4-10.7 0.9-8.1 6-15.3 13.1-21.4 21.1l-8.2 0.9c-3.9 0.3-7.2 2.9-8.4 6.4-3.4 10.2-5.3 20.7-5.5 31.4q1.3-0.2 2.7-0.2c0.2-10.3 2-20.5 5.4-30.4 0.9-2.5 3.2-4.4 6-4.7l9.5-0.9 0.4-0.5c6-8 13.1-15 21.2-21.1 1.2-0.9 2.7-1.4 4.2-1.4 1.2 0 2.4 0.2 3.5 0.8l14.4 7.4z"/>
							</g>
						</g>
						<path id="&lt;Path&gt;" class="s10" d="m2643.5 2773.8l-14.7-390.4c-0.4-11.2 7.2-21.3 18.4-24.5l96.8-27.5h70l53.8 11.8c40 8.7 37.3 43.4 36.4 82.9l28.9 358.6-127.9 42.8z"/>
						<path id="&lt;Path&gt;" class="s13" d="m2931.9 2769.7l-156.3 4.2c-3.7 29.9-4.8 129.4 10.8 215.3l31.1 304.6c7.8 89.4 25.6 199.1 36.6 236.2l25.3-3.4c23-64.8 47.3-200.2 46.5-300.6 0 0 19.3-386.6 6-456.3z"/>
						<path id="&lt;Path&gt;" class="s10" d="m2863.8 2192c15.5-33.7-25.9-75.3-61.5-67.4-32 7-52.6 52-57.3 80.4-5.2 31.1 11.1 62.7 47.7 54.8 34.9-7.6 57.4-37.8 71.1-67.8z"/>
						<path id="&lt;Path&gt;" class="s13" d="m2778.9 2842.6c-0.5-21.4 1.1-42.6-3.3-69.9l-150.7 12c-7 32.3-37.1 208-29.6 316.2 0.1 36.3 1.5 71.5 4.5 107.3q0 0 0 0c6.7 113.4 28.7 272.1 43 327.6h29.5c42.9-108.6 55.3-299 37-407.9 45.1-80 71.1-220.2 69.6-285.3z"/>
						<path id="&lt;Path&gt;" class="s9" d="m2931.9 2769.7l-156.3 1.7-150.7 13.3c-2 9.1-5.8 29.6-10.1 56.8 26.7-13.3 94.6-31.7 164.5-46.6 66.8-14.3 125.2-21.6 153.4-19.9q-0.4-2.9-0.8-5.3z"/>
						<path id="&lt;Path&gt;" class="s22" d="m2923.2 2366.4c-31.3-50.4-178.6-57-227.2-67.4-28.3-6.1-79.5 24.7-94.8 88.8-7.8 32.4-22.3 102.6-34.1 171.7-3.3 19.1 36.2 72.2 36.2 72.2v191.2c5.7-12.8 89.4-36.6 176-55.1 92.2-19.8 168.6-26.1 171.4-14l-16.4-186.2c0 0 36.6-25.9 36.4-41.6-0.5-40-24.7-123.1-47.5-159.6z"/>
						<path id="&lt;Path&gt;" class="s10" d="m2772 2165.6c-0.5 8.7-6.3 15.5-13 15.1-6.6-0.3-11.6-7.7-11.1-16.4 0.5-8.7 6.3-15.5 12.9-15.2 6.7 0.4 11.7 7.7 11.2 16.5z"/>
						<path id="&lt;Path&gt;" class="s6" d="m2862.2 2222.6c7.7-4.7 11-12.9 7.4-18.3-3.6-5.4-12.7-6-20.3-1.3-7.7 4.7-11 12.9-7.4 18.3 3.6 5.4 12.7 6 20.3 1.3z"/>
						<path id="&lt;Path&gt;" class="s20" d="m2680.9 2575.2c0 33.1-26 60-58.2 60-32.1 0-58.1-26.9-58.1-60 0-33.1 26-59.9 58.1-59.9 32.2 0 58.2 26.8 58.2 59.9z"/>
						<path id="&lt;Path&gt;" class="s20" d="m2971.3 2527.4c0 33.1-26.6 60.5-58.8 60.5-32.1 0-50.7-26-61.4-45.7-15.9-29.4 29.3-73.2 61.4-74.2 42.5-1.2 58.8 26.3 58.8 59.4z"/>
						<g id="&lt;Group&gt;">
							<path id="&lt;Path&gt;" class="s6" d="m2822 2305.2c2.6 90.4-126.4 130.4-84-0.5 15.4-11.9 18-46.8 11.6-66 20 6.4 41 9.5 62.1 9.3-8.1 20.1 3.6 44.4 10.3 57.2z"/>
							<path id="&lt;Path&gt;" class="s23" d="m2758.2 2403.1c16.6 0 34.5-8.3 49.1-22.9 9.2-9.1 16.7-20.3 21.8-32.4q4.5-10.7 6.4-22-7.2-2.1-14.5-4.1c-6.2 40.1-38.3 66.9-62.8 66.9-23.2 0-39.5-24.1-20.2-83.9q0 0 0.1 0c-2.5-3.3-8.7-6.7-15.1-2.3-5.8 20.8-8.8 35.2-8.6 49.2 0.2 14.7 3.8 26.6 10.6 35.6 7.8 10.2 19.6 15.9 33.2 15.9z"/>
						</g>
						<path id="&lt;Path&gt;" class="s6" d="m2800.4 2127.2c-12.4 2.7-23.1 11.1-31.9 22.1-12.6 17-20.8 39.2-23.5 55.7-5.2 31.1 11.1 62.7 47.7 54.8 31.8-6.9 53.4-32.6 67.3-59.8q1.2-2.5 2.3-5c15.6-33.9-26-75.7-61.9-67.8z"/>
						<path id="&lt;Path&gt;" class="s10" d="m2822 2305.2c-6-11.6-16.3-32.7-12.1-51.6 5.3-2.6 10.3-5.9 15.1-9.5-5.8-13.8-14.9-35.4-17.2-40-3.8-7.7-23.9-6.9-18.6 12.9l4.4 19.9-49-12.3c0.9 7 3.1 13.5 6.4 19.1 2.1 9.3 2.5 21.4 0.7 32.7q2.3 3.4 4.9 6.7c5.8 7.2 12.9 14 21.7 17.6 5 2.1 10.3 3.1 15.6 3.5l8.8 58.9c11.8-14.7 19.9-34.6 19.3-57.9z"/>
						<path id="&lt;Path&gt;" class="s6" d="m2590 2599.8c41.5 71 312.1-59.5 304.9-98.5-5.9-31.9-179.6-3-245.3 12.6-46.1 11-84.4 43.3-59.6 85.9z"/>
						<path id="&lt;Path&gt;" class="s10" d="m2825.3 2487.5c8 22 17.3 41.9 27.8 57.6 26.8-17.3 43.7-33.7 41.8-43.8-2.3-12.7-31.4-15.8-69.6-13.8z"/>
						<path id="&lt;Path&gt;" class="s24" d="m2632.6 2527.1c47.5-13.9 149.2-37.5 211.4-40.2-58.1 0.2-150.4 16.6-194.4 27-23.6 5.7-45.2 16.9-57.3 32.3 11.3-8.2 25.3-14.7 40.3-19.1z"/>
						<path id="&lt;Path&gt;" class="s6" d="m2918.3 2569c-87.2 14.9-135.4-285.6-111.4-311.2 24.2-25.9 120.2 137.2 137.9 204 8.2 30.8 25.8 98.2-26.5 107.2z"/>
						<g id="&lt;Group&gt;">
							<path id="&lt;Path&gt;" class="s6" d="m2840.4 2273.7c-4.8 1.7-19.1 20.3-19.1 20.3 0 0-39.9-2.1-42.4-2.2-14.5-0.8-13.4-14-6-13.8 0 0-0.2 0-0.3 0-16.7-0.2-14.4-16-6.6-16.1-19.1-0.4-19.1-15.5-11.1-14.4-4.8-0.3-21.4-4.3-21.4-15.8 0-9.6 33.4 4.1 64.9 11.1-2.5-11.3-3.8-15.9-5.1-25.3-0.3-2.2-0.6-4.4-0.2-6.5 0.4-2.2 1.7-4.3 3.7-5.1 2.2-0.8 4.7 0.1 6.4 1.7 1.6 1.6 2.7 3.7 3.5 5.9 3.9 9.6 16.3 46.2 33.7 60.2z"/>
							<g id="&lt;Group&gt;">
								<path id="&lt;Path&gt;" class="s10" d="m2770.3 2250.8q-0.1 0-0.2 0l-17.6-1.6c-0.9-0.1-1.5-0.8-1.4-1.7 0.1-0.8 0.8-1.4 1.7-1.3l17.6 1.6c0.9 0.1 1.5 0.8 1.4 1.7 0 0.7-0.7 1.3-1.5 1.3z"/>
							</g>
							<g id="&lt;Group&gt;">
								<path id="&lt;Path&gt;" class="s10" d="m2773.5 2264.6q0 0-0.1 0l-9.6-0.8c-0.9 0-1.5-0.8-1.5-1.6 0.1-0.8 0.9-1.4 1.7-1.4l9.7 0.8c0.8 0.1 1.5 0.8 1.4 1.6-0.1 0.8-0.8 1.4-1.6 1.4z"/>
							</g>
							<g id="&lt;Group&gt;">
								<path id="&lt;Path&gt;" class="s10" d="m2779.5 2281.1q-0.1 0-0.1 0l-8.9-1c-0.8-0.1-1.5-0.9-1.4-1.7 0.1-0.8 0.9-1.4 1.8-1.3l8.8 1c0.9 0.1 1.5 0.8 1.4 1.6-0.1 0.8-0.8 1.4-1.6 1.4z"/>
							</g>
						</g>
					</g>
					<g id="&lt;Group&gt;">
						<path id="&lt;Path&gt;" class="s10" d="m2944.6 2461.2c-8.8-33.4-37.2-90.8-66.4-136.7 27.4 53.6 53.9 126.8 59.3 166.5 2.4 17.3 6.1 45.2 1.3 68.4 26-21.4 12.6-72.6 5.8-98.2z"/>
					</g>
				</g>
				<g id="&lt;Group&gt;">
					<path id="&lt;Path&gt;" class="s7" d="m2885.3 3516.5c-0.7-1.2-2.1-1.6-3.3-0.9-4.5 2.9-15.3 12.6-26.4 4.9-2.4-1.6-6-3.1-6.6 1.2-2.2 13.5-11.2 34.2-5.6 48.8h53.8c8.3-8.9-10.1-50.9-11.9-54z"/>
				</g>
				<path id="&lt;Path&gt;" class="s7" d="m2578.1 3558.9c4.7-5.8 11.2-8.3 17.6-10.2 8.5-2.5 31.9-9.6 43.8-16.7 1.8-1.1 3.9-1.2 5.7-0.3 13.6 6.8 24.8 0.1 28.2-4.1 1.6-1.8 4.4-1.1 4.9 1.3q0.1 1.1 0.2 2.2c0 1.6 5.8 40 5.8 40h-107.5c0 0-1.7-8.6 1.3-12.2z"/>
			</g>
		</g>
	</g>
</svg>