<svg version="1.2" xmlns="http://www.w3.org/2000/svg" viewBox="0 0 3000 2500" width="3000" height="2500">
	<title>vecteezy_isometric-style-illustration-of-login-to-website_6552114-ai</title>
	<defs>
		<linearGradient id="g1" x1="1573.6" y1="1565.1" x2="1594.1" y2="1565.1" gradientUnits="userSpaceOnUse">
			<stop offset="0" stop-color="#00c6ff"/>
			<stop offset="1" stop-color="#0072ff"/>
		</linearGradient>
		<linearGradient id="g2" x1="2301.2" y1="799.4" x2="2054.7" y2="657.1" gradientUnits="userSpaceOnUse">
			<stop offset="0" stop-color="#eeeeee"/>
			<stop offset=".207" stop-color="#efefef"/>
			<stop offset="1" stop-color="#e2e3e5"/>
		</linearGradient>
		<linearGradient id="g3" x1="2151.3" y1="504" x2="2296.8" y2="588" gradientUnits="userSpaceOnUse">
			<stop offset="0" stop-color="#eeeeee"/>
			<stop offset=".207" stop-color="#efefef"/>
			<stop offset="1" stop-color="#e2e3e5"/>
		</linearGradient>
		<linearGradient id="g4" x1="2162.9" y1="547.7" x2="2225.6" y2="547.7" gradientUnits="userSpaceOnUse">
			<stop offset="0" stop-color="#00c6ff"/>
			<stop offset="1" stop-color="#0072ff"/>
		</linearGradient>
		<linearGradient id="g5" x1="2260.3" y1="793.5" x2="2032" y2="793.5" gradientUnits="userSpaceOnUse">
			<stop offset="0" stop-color="#e2e3e5"/>
			<stop offset="1" stop-color="#efefef"/>
		</linearGradient>
		<linearGradient id="g6" x1="2078.8" y1="832.9" x2="2217.6" y2="832.9" gradientUnits="userSpaceOnUse">
			<stop offset="0" stop-color="#00c6ff"/>
			<stop offset="1" stop-color="#0072ff"/>
		</linearGradient>
		<linearGradient id="g7" x1="2078.8" y1="859.6" x2="2217.6" y2="859.6" gradientUnits="userSpaceOnUse">
			<stop offset="0" stop-color="#00c6ff"/>
			<stop offset="1" stop-color="#0072ff"/>
		</linearGradient>
		<linearGradient id="g8" x1="2078.8" y1="886.3" x2="2169.9" y2="886.3" gradientUnits="userSpaceOnUse">
			<stop offset="0" stop-color="#00c6ff"/>
			<stop offset="1" stop-color="#0072ff"/>
		</linearGradient>
		<linearGradient id="g9" x1="609.1" y1="971.7" x2="835.1" y2="971.7" gradientUnits="userSpaceOnUse">
			<stop offset="0" stop-color="#e2e3e5"/>
			<stop offset="1" stop-color="#efefef"/>
		</linearGradient>
		<linearGradient id="g10" x1="788.8" y1="1010.7" x2="651.4" y2="1010.7" gradientUnits="userSpaceOnUse">
			<stop offset="0" stop-color="#ffb888"/>
			<stop offset=".287" stop-color="#ff9b57"/>
			<stop offset="1" stop-color="#ff6801"/>
		</linearGradient>
		<linearGradient id="g11" x1="788.8" y1="1037.1" x2="651.4" y2="1037.1" gradientUnits="userSpaceOnUse">
			<stop offset="0" stop-color="#ffb888"/>
			<stop offset=".287" stop-color="#ff9b57"/>
			<stop offset="1" stop-color="#ff6801"/>
		</linearGradient>
		<linearGradient id="g12" x1="741.5" y1="1063.6" x2="651.4" y2="1063.6" gradientUnits="userSpaceOnUse">
			<stop offset="0" stop-color="#ffb888"/>
			<stop offset=".287" stop-color="#ff9b57"/>
			<stop offset="1" stop-color="#ff6801"/>
		</linearGradient>
		<linearGradient id="g13" x1="1574.3" y1="325.1" x2="1742.5" y2="325.1" gradientUnits="userSpaceOnUse">
			<stop offset="0" stop-color="#00c6ff"/>
			<stop offset="1" stop-color="#0072ff"/>
		</linearGradient>
		<linearGradient id="g14" x1="1778" y1="432.2" x2="2005.1" y2="432.2" gradientUnits="userSpaceOnUse">
			<stop offset="0" stop-color="#00c6ff"/>
			<stop offset="1" stop-color="#0072ff"/>
		</linearGradient>
		<linearGradient id="g15" x1="1002.4" y1="462.3" x2="774.3" y2="462.3" gradientUnits="userSpaceOnUse">
			<stop offset="0" stop-color="#00c6ff"/>
			<stop offset="1" stop-color="#0072ff"/>
		</linearGradient>
		<linearGradient id="g16" x1="713" y1="565.8" x2="496.9" y2="565.8" gradientUnits="userSpaceOnUse">
			<stop offset="0" stop-color="#00c6ff"/>
			<stop offset="1" stop-color="#0072ff"/>
		</linearGradient>
		<linearGradient id="g17" x1="2328.2" y1="943.6" x2="2509.7" y2="943.6" gradientUnits="userSpaceOnUse">
			<stop offset="0" stop-color="#ffb888"/>
			<stop offset=".287" stop-color="#ff9b57"/>
			<stop offset="1" stop-color="#ff6801"/>
		</linearGradient>
		<linearGradient id="g18" x1="2426" y1="838.5" x2="2607.5" y2="838.5" gradientUnits="userSpaceOnUse">
			<stop offset="0" stop-color="#ffb888"/>
			<stop offset=".287" stop-color="#ff9b57"/>
			<stop offset="1" stop-color="#ff6801"/>
		</linearGradient>
		<linearGradient id="g19" x1="1312.6" y1="345.8" x2="1483.3" y2="345.8" gradientUnits="userSpaceOnUse">
			<stop offset="0" stop-color="#00c6ff"/>
			<stop offset="1" stop-color="#0072ff"/>
		</linearGradient>
		<linearGradient id="g20" x1="1315.1" y1="345.8" x2="1480.9" y2="345.8" gradientUnits="userSpaceOnUse">
			<stop offset="0" stop-color="#00c6ff"/>
			<stop offset="1" stop-color="#0072ff"/>
		</linearGradient>
		<linearGradient id="g21" x1="1315.1" y1="438.7" x2="1480.8" y2="438.7" gradientUnits="userSpaceOnUse">
			<stop offset="0" stop-color="#00c6ff"/>
			<stop offset="1" stop-color="#0072ff"/>
		</linearGradient>
		<linearGradient id="g22" x1="1056.9" y1="844.8" x2="1151" y2="844.8" gradientUnits="userSpaceOnUse">
			<stop offset="0" stop-color="#00c6ff"/>
			<stop offset="1" stop-color="#0072ff"/>
		</linearGradient>
		<linearGradient id="g23" x1="1081.1" y1="778.8" x2="1146.1" y2="778.8" gradientUnits="userSpaceOnUse">
			<stop offset="0" stop-color="#00c6ff"/>
			<stop offset="1" stop-color="#0072ff"/>
		</linearGradient>
		<linearGradient id="g24" x1="1075.3" y1="824.4" x2="1140.3" y2="824.4" gradientUnits="userSpaceOnUse">
			<stop offset="0" stop-color="#00c6ff"/>
			<stop offset="1" stop-color="#0072ff"/>
		</linearGradient>
		<linearGradient id="g25" x1="1077.2" y1="809.2" x2="1142.3" y2="809.2" gradientUnits="userSpaceOnUse">
			<stop offset="0" stop-color="#00c6ff"/>
			<stop offset="1" stop-color="#0072ff"/>
		</linearGradient>
		<linearGradient id="g26" x1="1079.2" y1="794" x2="1144.2" y2="794" gradientUnits="userSpaceOnUse">
			<stop offset="0" stop-color="#00c6ff"/>
			<stop offset="1" stop-color="#0072ff"/>
		</linearGradient>
		<linearGradient id="g27" x1="1085.9" y1="615.7" x2="1174.7" y2="615.7" gradientUnits="userSpaceOnUse">
			<stop offset="0" stop-color="#ffb888"/>
			<stop offset=".287" stop-color="#ff9b57"/>
			<stop offset="1" stop-color="#ff6801"/>
		</linearGradient>
		<linearGradient id="g28" x1="1598.6" y1="834.2" x2="1780" y2="834.2" gradientUnits="userSpaceOnUse">
			<stop offset="0" stop-color="#00c6ff"/>
			<stop offset="1" stop-color="#0072ff"/>
		</linearGradient>
		<linearGradient id="g29" x1="1244.3" y1="785.4" x2="1315.7" y2="785.4" gradientUnits="userSpaceOnUse">
			<stop offset="0" stop-color="#00c6ff"/>
			<stop offset="1" stop-color="#0072ff"/>
		</linearGradient>
		<linearGradient id="g30" x1="1883" y1="1745" x2="1937.6" y2="1745" gradientUnits="userSpaceOnUse">
			<stop offset="0" stop-color="#00c6ff"/>
			<stop offset="1" stop-color="#0072ff"/>
		</linearGradient>
		<linearGradient id="g31" x1="1893.1" y1="1664.9" x2="1947.8" y2="1664.9" gradientUnits="userSpaceOnUse">
			<stop offset="0" stop-color="#00c6ff"/>
			<stop offset="1" stop-color="#0072ff"/>
		</linearGradient>
		<linearGradient id="g32" x1="1903.3" y1="1584.9" x2="1958" y2="1584.9" gradientUnits="userSpaceOnUse">
			<stop offset="0" stop-color="#00c6ff"/>
			<stop offset="1" stop-color="#0072ff"/>
		</linearGradient>
		<linearGradient id="g33" x1="1949.3" y1="1792" x2="2087.5" y2="1792" gradientUnits="userSpaceOnUse">
			<stop offset="0" stop-color="#00c6ff"/>
			<stop offset="1" stop-color="#0072ff"/>
		</linearGradient>
		<linearGradient id="g34" x1="1913.5" y1="1504.9" x2="1968.1" y2="1504.9" gradientUnits="userSpaceOnUse">
			<stop offset="0" stop-color="#00c6ff"/>
			<stop offset="1" stop-color="#0072ff"/>
		</linearGradient>
		<linearGradient id="g35" x1="1959.4" y1="1712" x2="2097.6" y2="1712" gradientUnits="userSpaceOnUse">
			<stop offset="0" stop-color="#00c6ff"/>
			<stop offset="1" stop-color="#0072ff"/>
		</linearGradient>
		<linearGradient id="g36" x1="1923.6" y1="1424.8" x2="1978.3" y2="1424.8" gradientUnits="userSpaceOnUse">
			<stop offset="0" stop-color="#00c6ff"/>
			<stop offset="1" stop-color="#0072ff"/>
		</linearGradient>
		<linearGradient id="g37" x1="1969.6" y1="1631.9" x2="2107.8" y2="1631.9" gradientUnits="userSpaceOnUse">
			<stop offset="0" stop-color="#00c6ff"/>
			<stop offset="1" stop-color="#0072ff"/>
		</linearGradient>
		<linearGradient id="g38" x1="1933.8" y1="1344.8" x2="1988.4" y2="1344.8" gradientUnits="userSpaceOnUse">
			<stop offset="0" stop-color="#00c6ff"/>
			<stop offset="1" stop-color="#0072ff"/>
		</linearGradient>
		<linearGradient id="g39" x1="1979.7" y1="1551.9" x2="2118" y2="1551.9" gradientUnits="userSpaceOnUse">
			<stop offset="0" stop-color="#00c6ff"/>
			<stop offset="1" stop-color="#0072ff"/>
		</linearGradient>
		<linearGradient id="g40" x1="1989.9" y1="1471.8" x2="2128.1" y2="1471.8" gradientUnits="userSpaceOnUse">
			<stop offset="0" stop-color="#00c6ff"/>
			<stop offset="1" stop-color="#0072ff"/>
		</linearGradient>
		<linearGradient id="g41" x1="2000.1" y1="1391.8" x2="2138.3" y2="1391.8" gradientUnits="userSpaceOnUse">
			<stop offset="0" stop-color="#00c6ff"/>
			<stop offset="1" stop-color="#0072ff"/>
		</linearGradient>
		<linearGradient id="g42" x1="2129" y1="1636.4" x2="2159.1" y2="1636.4" gradientUnits="userSpaceOnUse">
			<stop offset="0" stop-color="#ffb888"/>
			<stop offset=".287" stop-color="#ff9b57"/>
			<stop offset="1" stop-color="#ff6801"/>
		</linearGradient>
		<linearGradient id="g43" x1="2154.9" y1="1647.9" x2="2178.1" y2="1647.9" gradientUnits="userSpaceOnUse">
			<stop offset="0" stop-color="#20b5d8"/>
			<stop offset="1" stop-color="#8cee98"/>
		</linearGradient>
		<linearGradient id="g44" x1="1959.2" y1="1195.3" x2="2045.5" y2="1195.3" gradientUnits="userSpaceOnUse">
			<stop offset="0" stop-color="#00c6ff"/>
			<stop offset="1" stop-color="#0072ff"/>
		</linearGradient>
		<linearGradient id="g45" x1="2094.6" y1="1093.9" x2="2151" y2="1093.9" gradientUnits="userSpaceOnUse">
			<stop offset="0" stop-color="#00c6ff"/>
			<stop offset="1" stop-color="#0072ff"/>
		</linearGradient>
		<linearGradient id="g46" x1="1964.1" y1="1156.3" x2="2191.6" y2="1156.3" gradientUnits="userSpaceOnUse">
			<stop offset="0" stop-color="#00c6ff"/>
			<stop offset="1" stop-color="#0072ff"/>
		</linearGradient>
		<linearGradient id="g47" x1="1850.9" y1="1278.8" x2="2327.3" y2="1278.8" gradientUnits="userSpaceOnUse">
			<stop offset="0" stop-color="#00c6ff"/>
			<stop offset="1" stop-color="#0072ff"/>
		</linearGradient>
		<linearGradient id="g48" x1="1015.4" y1="1692" x2="581.9" y2="1698.2" gradientUnits="userSpaceOnUse">
			<stop offset="0" stop-color="#ffb888"/>
			<stop offset=".287" stop-color="#ff9b57"/>
			<stop offset="1" stop-color="#ff6801"/>
		</linearGradient>
		<linearGradient id="g49" x1="1231.3" y1="1810.7" x2="706.3" y2="2116.8" gradientUnits="userSpaceOnUse">
			<stop offset="0" stop-color="#ffb888"/>
			<stop offset=".287" stop-color="#ff9b57"/>
			<stop offset="1" stop-color="#ff6801"/>
		</linearGradient>
		<linearGradient id="g50" x1="685.4" y1="1593.5" x2="858.5" y2="1593.5" gradientUnits="userSpaceOnUse">
			<stop offset="0" stop-color="#ffb888"/>
			<stop offset=".287" stop-color="#ff9b57"/>
			<stop offset="1" stop-color="#ff6801"/>
		</linearGradient>
		<linearGradient id="g51" x1="764.2" y1="1510.9" x2="921.2" y2="1510.9" gradientUnits="userSpaceOnUse">
			<stop offset="0" stop-color="#ffb888"/>
			<stop offset=".287" stop-color="#ff9b57"/>
			<stop offset="1" stop-color="#ff6801"/>
		</linearGradient>
		<linearGradient id="g52" x1="887.6" y1="1306.7" x2="968.6" y2="1306.7" gradientUnits="userSpaceOnUse">
			<stop offset="0" stop-color="#e2e3e5"/>
			<stop offset="1" stop-color="#efefef"/>
		</linearGradient>
		<linearGradient id="g53" x1="722.1" y1="1352.2" x2="858.5" y2="1352.2" gradientUnits="userSpaceOnUse">
			<stop offset="0" stop-color="#e2e3e5"/>
			<stop offset="1" stop-color="#efefef"/>
		</linearGradient>
		<linearGradient id="g54" x1="756.3" y1="1295.9" x2="910.9" y2="1295.9" gradientUnits="userSpaceOnUse">
			<stop offset="0" stop-color="#ffb888"/>
			<stop offset=".287" stop-color="#ff9b57"/>
			<stop offset="1" stop-color="#ff6801"/>
		</linearGradient>
		<linearGradient id="g55" x1="1249.1" y1="1022.1" x2="1530.9" y2="1022.1" gradientUnits="userSpaceOnUse">
			<stop offset="0" stop-color="#e2e3e5"/>
			<stop offset="1" stop-color="#efefef"/>
		</linearGradient>
		<linearGradient id="g56" x1="1375.4" y1="1022.1" x2="1530.9" y2="1022.1" gradientUnits="userSpaceOnUse">
			<stop offset="0" stop-color="#00c6ff"/>
			<stop offset="1" stop-color="#0072ff"/>
		</linearGradient>
		<linearGradient id="g57" x1="1249.1" y1="1078.1" x2="1286.5" y2="1078.1" gradientUnits="userSpaceOnUse">
			<stop offset="0" stop-color="#00c6ff"/>
			<stop offset="1" stop-color="#0072ff"/>
		</linearGradient>
		<linearGradient id="g58" x1="1676.2" y1="1981" x2="1788.6" y2="1981" gradientUnits="userSpaceOnUse">
			<stop offset="0" stop-color="#e2e3e5"/>
			<stop offset="1" stop-color="#efefef"/>
		</linearGradient>
		<linearGradient id="g59" x1="1740.4" y1="2093.6" x2="1502.8" y2="1980.4" gradientUnits="userSpaceOnUse">
			<stop offset="0" stop-color="#f3f7ff"/>
			<stop offset="1" stop-color="#cdd9ff"/>
		</linearGradient>
		<linearGradient id="g60" x1="1577.9" y1="1923.5" x2="1774.6" y2="1923.5" gradientUnits="userSpaceOnUse">
			<stop offset="0" stop-color="#f5995b"/>
			<stop offset="1" stop-color="#fb5f5c"/>
		</linearGradient>
		<linearGradient id="g61" x1="1563.8" y1="1981" x2="1676.2" y2="1981" gradientUnits="userSpaceOnUse">
			<stop offset="0" stop-color="#e2e3e5"/>
			<stop offset="1" stop-color="#efefef"/>
		</linearGradient>
		<linearGradient id="g62" x1="1471.8" y1="1842.7" x2="1676.2" y2="1842.7" gradientUnits="userSpaceOnUse">
			<stop offset="0" stop-color="#20b5d8"/>
			<stop offset="1" stop-color="#8cee98"/>
		</linearGradient>
		<linearGradient id="g63" x1="1563.8" y1="1780.5" x2="1686.8" y2="1780.5" gradientUnits="userSpaceOnUse">
			<stop offset="0" stop-color="#20b5d8"/>
			<stop offset="1" stop-color="#8cee98"/>
		</linearGradient>
		<linearGradient id="g64" x1="1656.9" y1="1703.8" x2="1844" y2="1703.8" gradientUnits="userSpaceOnUse">
			<stop offset="0" stop-color="#20b5d8"/>
			<stop offset="1" stop-color="#8cee98"/>
		</linearGradient>
		<linearGradient id="g65" x1="1894" y1="1969.7" x2="1663.3" y2="2042.7" gradientUnits="userSpaceOnUse">
			<stop offset="0" stop-color="#20b5d8"/>
			<stop offset="1" stop-color="#8cee98"/>
		</linearGradient>
		<linearGradient id="g66" x1="1676.2" y1="1863.5" x2="1940.8" y2="1863.5" gradientUnits="userSpaceOnUse">
			<stop offset="0" stop-color="#20b5d8"/>
			<stop offset="1" stop-color="#8cee98"/>
		</linearGradient>
		<linearGradient id="g67" x1="1629.3" y1="1958.2" x2="1772" y2="1958.2" gradientUnits="userSpaceOnUse">
			<stop offset="0" stop-color="#20b5d8"/>
			<stop offset="1" stop-color="#8cee98"/>
		</linearGradient>
	</defs>
	<style>
		.s0 { fill: url(#g1) } 
		.s1 { fill: url(#g2) } 
		.s2 { fill: url(#g3) } 
		.s3 { fill: url(#g4) } 
		.s4 { fill: url(#g5) } 
		.s5 { fill: url(#g6) } 
		.s6 { fill: url(#g7) } 
		.s7 { fill: url(#g8) } 
		.s8 { fill: url(#g9) } 
		.s9 { fill: url(#g10) } 
		.s10 { fill: url(#g11) } 
		.s11 { fill: url(#g12) } 
		.s12 { fill: url(#g13) } 
		.s13 { fill: #ffffff } 
		.s14 { fill: url(#g14) } 
		.s15 { fill: url(#g15) } 
		.s16 { fill: url(#g16) } 
		.s17 { fill: url(#g17) } 
		.s18 { fill: url(#g18) } 
		.s19 { fill: url(#g19) } 
		.s20 { fill: url(#g20) } 
		.s21 { fill: url(#g21) } 
		.s22 { fill: #020e3e } 
		.s23 { fill: #020a26 } 
		.s24 { fill: #1c5ba0 } 
		.s25 { fill: #1d5ea5 } 
		.s26 { fill: #1d61a9 } 
		.s27 { fill: #1e63ae } 
		.s28 { fill: #1f66b3 } 
		.s29 { fill: #1b589b } 
		.s30 { fill: url(#g22) } 
		.s31 { fill: url(#g23) } 
		.s32 { fill: #efefef } 
		.s33 { fill: url(#g24) } 
		.s34 { fill: url(#g25) } 
		.s35 { fill: url(#g26) } 
		.s36 { fill: #2069b8 } 
		.s37 { fill: #216cbd } 
		.s38 { fill: #226ec2 } 
		.s39 { fill: #2271c6 } 
		.s40 { fill: #2374cb } 
		.s41 { fill: #2477d0 } 
		.s42 { fill: #2579d5 } 
		.s43 { fill: #267cda } 
		.s44 { fill: #277fdf } 
		.s45 { fill: #2782e3 } 
		.s46 { fill: #2884e8 } 
		.s47 { fill: #2987ed } 
		.s48 { fill: #2a8af2 } 
		.s49 { fill: #4498f4 } 
		.s50 { fill: #4e9ef4 } 
		.s51 { fill: #56a2f5 } 
		.s52 { fill: #5da6f5 } 
		.s53 { fill: #1a5696 } 
		.s54 { fill: #195391 } 
		.s55 { fill: #18508c } 
		.s56 { fill: #184d88 } 
		.s57 { fill: #174b83 } 
		.s58 { fill: #16487e } 
		.s59 { fill: url(#g27) } 
		.s60 { fill: url(#g28) } 
		.s61 { fill: #dddddd } 
		.s62 { fill: #0c64d1 } 
		.s63 { fill: url(#g29) } 
		.s64 { fill: url(#g30) } 
		.s65 { fill: url(#g31) } 
		.s66 { fill: url(#g32) } 
		.s67 { fill: url(#g33) } 
		.s68 { fill: #7b7b7b } 
		.s69 { fill: url(#g34) } 
		.s70 { fill: #476e93 } 
		.s71 { fill: url(#g35) } 
		.s72 { fill: url(#g36) } 
		.s73 { fill: url(#g37) } 
		.s74 { fill: url(#g38) } 
		.s75 { fill: #020d38 } 
		.s76 { fill: url(#g39) } 
		.s77 { fill: url(#g40) } 
		.s78 { fill: url(#g41) } 
		.s79 { fill: #406485 } 
		.s80 { fill: url(#g42) } 
		.s81 { fill: url(#g43) } 
		.s82 { fill: url(#g44) } 
		.s83 { fill: #8f8f8f } 
		.s84 { fill: #949494 } 
		.s85 { fill: #999999 } 
		.s86 { fill: #9e9e9e } 
		.s87 { fill: #a3a3a3 } 
		.s88 { fill: #a8a8a8 } 
		.s89 { fill: #adadad } 
		.s90 { fill: #b3b3b3 } 
		.s91 { fill: #b8b8b8 } 
		.s92 { fill: #bdbdbd } 
		.s93 { fill: #c2c2c2 } 
		.s94 { fill: #747474 } 
		.s95 { fill: url(#g45) } 
		.s96 { fill: url(#g46) } 
		.s97 { fill: #858585 } 
		.s98 { fill: #c7c7c7 } 
		.s99 { fill: #cccccc } 
		.s100 { fill: #d1d1d1 } 
		.s101 { fill: #d6d6d6 } 
		.s102 { fill: #dbdbdb } 
		.s103 { fill: #e0e0e0 } 
		.s104 { fill: #e6e6e6 } 
		.s105 { fill: #ebebeb } 
		.s106 { fill: #f0f0f0 } 
		.s107 { fill: #f5f5f5 } 
		.s108 { fill: #fafafa } 
		.s109 { fill: url(#g47) } 
		.s110 { fill: url(#g48) } 
		.s111 { fill: url(#g49) } 
		.s112 { fill: url(#g50) } 
		.s113 { fill: #000000 } 
		.s114 { fill: #1e1e1e } 
		.s115 { fill: #2d2d2d } 
		.s116 { fill: url(#g51) } 
		.s117 { fill: #d69c63 } 
		.s118 { fill: #e5b076 } 
		.s119 { fill: url(#g52) } 
		.s120 { fill: #f2bf81 } 
		.s121 { fill: url(#g53) } 
		.s122 { fill: url(#g54) } 
		.s123 { fill: #e8b277 } 
		.s124 { fill: #2b2b2b } 
		.s125 { fill: #3f3f3f } 
		.s126 { fill: #f2b177 } 
		.s127 { fill: #ffc285 } 
		.s128 { fill: url(#g55) } 
		.s129 { fill: url(#g56) } 
		.s130 { fill: url(#g57) } 
		.s131 { fill: url(#g58) } 
		.s132 { fill: url(#g59) } 
		.s133 { fill: url(#g60) } 
		.s134 { fill: url(#g61) } 
		.s135 { fill: url(#g62) } 
		.s136 { fill: #4e6dc4 } 
		.s137 { fill: url(#g63) } 
		.s138 { fill: url(#g64) } 
		.s139 { fill: #5ae595 } 
		.s140 { fill: url(#g65) } 
		.s141 { fill: url(#g66) } 
		.s142 { fill: url(#g67) } 
	</style>
	<g id="_Artboards_">
	</g>
	<g id="Layer 1">
		<path id="&lt;Path&gt;" class="s0" d="m1576.8 1565.1l15.9 8.8 1.4 14.7-6.1 6.3c0 0-5.8 0-7.1-1.9-1.4-1.8-3.7-4.4-4.1-5.2-0.3-0.9-2.3-8.7-2.3-8.7l-0.9-7z"/>
		<g id="&lt;Group&gt;">
			<path id="&lt;Path&gt;" class="s1" d="m2094.8 569.6c0 61.1 44.5 136.4 99.4 168.1 54.9 31.7 99.4 7.8 99.4-53.3 0-61.2-44.5-136.4-99.4-168.1-54.9-31.7-99.4-7.8-99.4 53.3z"/>
			<path id="&lt;Path&gt;" class="s2" d="m2282.4 677.9c0 54.2-39.5 75.4-88.2 47.3-48.7-28.1-88.1-94.9-88.1-149.1 0-54.3 39.4-75.4 88.1-47.3 48.7 28.1 88.2 94.8 88.2 149.1z"/>
			<g id="&lt;Group&gt;">
				<path id="&lt;Compound Path&gt;" class="s3" d="m2188.5 700.3v-18.8c-9.7-5.8-19.7-15-25.6-23.1l4-10.1c6.1 7.9 14.8 16.5 24.2 21.9 11.9 6.9 19.9 3.9 19.9-6.8 0-10.2-6.5-20.3-18.9-33.1-17.1-17.3-27.7-32-27.7-48.3 0-15.5 9.9-21.5 25.3-15.4v-18.9l10.4 6v18.1c10.1 6.2 16.9 13.2 21.8 19.2l-4.2 9.9c-3.5-4.3-10.4-12.4-21.1-18.6-12.9-7.4-17.8-1.6-17.8 5.8 0 9.7 6.2 18.2 20.8 33.3 17.3 17.8 26 32.5 26 49.1 0 14.8-9.2 23.3-26.5 16.5v19.4z"/>
			</g>
		</g>
		<g id="&lt;Group&gt;">
			<path id="&lt;Path&gt;" class="s4" d="m2032 864.9c0-39.4 51.1-71.4 114.2-71.4 63 0 114.1 32 114.1 71.4 0 39.4-51.1 71.4-114.1 71.4-38.5 0-72.5-11.9-93.1-30.1l-21.1 54.6v-90.7l0.3 0.2q-0.3-2.7-0.3-5.4z"/>
			<g id="&lt;Group&gt;">
				<path id="&lt;Path&gt;" class="s5" d="m2217.6 843.5h-138.8v-10.6h138.8z"/>
			</g>
			<g id="&lt;Group&gt;">
				<path id="&lt;Path&gt;" class="s6" d="m2217.6 870.2h-138.8v-10.6h138.8z"/>
			</g>
			<g id="&lt;Group&gt;">
				<path id="&lt;Path&gt;" class="s7" d="m2169.9 896.9h-91.1v-10.6h91.1z"/>
			</g>
		</g>
		<g id="&lt;Group&gt;">
			<path id="&lt;Path&gt;" class="s8" d="m835.1 1042.3c0-39-50.6-70.6-113-70.6-62.4 0-113 31.6-113 70.6 0 39.1 50.6 70.7 113 70.7 38.1 0 71.7-11.8 92.2-29.8l20.8 54.1v-89.8l-0.3 0.2q0.3-2.6 0.3-5.4z"/>
			<g id="&lt;Group&gt;">
				<path id="&lt;Path&gt;" class="s9" d="m651.4 1021.1h137.4v-10.4h-137.4z"/>
			</g>
			<g id="&lt;Group&gt;">
				<path id="&lt;Path&gt;" class="s10" d="m651.4 1047.6h137.4v-10.5h-137.4z"/>
			</g>
			<g id="&lt;Group&gt;">
				<path id="&lt;Path&gt;" class="s11" d="m651.4 1074h90.1v-10.4h-90.1z"/>
			</g>
		</g>
		<g id="&lt;Group&gt;" style="opacity: .8">
			<path id="&lt;Path&gt;" class="s12" d="m1742.5 603.8c0 5.1-3.6 7.2-8 4.6l-152.3-87.9c-4.3-2.5-7.9-8.7-7.9-13.8v-175.9c0-5 3.6-7.1 7.9-4.6l152.3 87.9c4.5 2.6 8 8.8 8 13.9z"/>
			<g id="&lt;Group&gt;">
				<path id="&lt;Path&gt;" class="s13" d="m1675.4 389c3.4 4 5.4 8.5 6.8 13.2 2.4 8.4 3.1 15.9 1.1 22-0.4 1.4-1.3 2.4-2.1 3.5-2.2 3.2-4.6 6.2-6.6 9.6-1.5 2.4-0.9 4.2 1.7 7.8 2 2.6 4.1 4.4 6.4 5.5 7.9 4 15.6 8.8 23.4 14.1 6.1 4 10.6 10.8 12.4 18.5 0.7 2.8 0.1 4.7-0.7 6.3-0.7 1.4-1.5 2.8-2.4 4.1-0.7 0.9-0.5 2.2 0.2 3.9q1.2 3 2.3 6.1c1.2 3.5 1.2 6.2-0.4 7.9q-1.6 1.7-3.3 3.2c-0.7 0.7-1 1.7-0.5 3.5 0.7 2.1 1.2 4.2 1.4 6.3 0.2 1.4 0 2.9-0.5 3.8-1 1.6-2.3 2.9-3.6 4.1-1.2 1-1.6 2.5-1.1 4.8 0.2 1.3 0.3 2.5 0.6 3.8 0.6 2.4 0 3.7-1.2 4.6-2.5 2-6 1.7-9.7 0.6-7.9-2.4-15.9-5.6-24-9.6-5.4-2.7-10.7-6.9-15.9-11.3-5.4-4.5-10.6-9.4-16-13.7-4.1-3.3-8.3-5.9-12.5-8.8-0.4-0.3-0.8-0.6-1.3-0.9 0-0.6 0-1.1 0-1.6q0-27.5 0-55.1c0-1 0.2-1.5 1.1-1.6 5.8-0.3 9.5-3.8 11.9-9.4 1-2.3 2.2-4.5 3-7.1 1.5-4.8 4.5-7.7 8-9.8 1.3-0.7 2.6-1.6 4-2.1 4.8-2 7.5-6.7 9-12.9 0.8-3.4 1.3-7.1 1.9-10.7 0.4-2.8 1.6-4.5 4.3-3.9q1.1 0.7 2.3 1.3z"/>
				<path id="&lt;Path&gt;" class="s13" d="m1598 454q0-14.1 0-28.1c0-3.4 1.5-4.3 4.5-2.6q9.5 5.5 19 10.9c2.7 1.6 4.4 4.4 4.4 7.6q0 28.4 0 56.8c0 3.2-1.7 4.1-4.4 2.5q-9.5-5.5-19.1-11c-2.8-1.6-4.4-4.4-4.4-7.6q0-14.3 0-28.5z"/>
			</g>
		</g>
		<g id="&lt;Group&gt;" style="opacity: .8">
			<path id="&lt;Path&gt;" class="s14" d="m1992 550l-200.9-116c-7.2-4.2-13.1-0.8-13.1 7.6v88.7 64.5 64.1l34.1-29.3 179.9 103.8c7.2 4.2 13.1 0.8 13.1-7.5v-153.3c0-8.3-5.9-18.4-13.1-22.6z"/>
			<g id="&lt;Group&gt;">
				<path id="&lt;Path&gt;" class="s13" d="m1975.1 587.6c0 4.7-3.3 6.6-7.3 4.3l-152.5-88c-4.1-2.4-7.4-8.1-7.4-12.8 0-4.7 3.3-6.6 7.4-4.2l152.5 88c4 2.4 7.3 8.1 7.3 12.7z"/>
				<path id="&lt;Path&gt;" class="s13" d="m1975.1 632c0 4.7-3.3 6.6-7.3 4.2l-152.5-88c-4.1-2.4-7.4-8.1-7.4-12.8 0-4.6 3.3-6.5 7.4-4.2l152.5 88.1c4 2.3 7.3 8 7.3 12.7z"/>
				<path id="&lt;Path&gt;" class="s13" d="m1975.1 676.3c0 4.7-3.3 6.6-7.3 4.3l-152.5-88.1c-4.1-2.3-7.4-8-7.4-12.7 0-4.7 3.3-6.6 7.4-4.2l152.5 88c4 2.3 7.3 8.1 7.3 12.7z"/>
			</g>
		</g>
		<g id="&lt;Group&gt;" style="opacity: .8">
			<path id="&lt;Path&gt;" class="s15" d="m774.3 675.4c0 72.7 51.1 102.2 114 65.8 63-36.3 114.1-124.8 114.1-197.5 0-72.8-51.1-102.3-114.1-65.9-62.9 36.4-114 124.8-114 197.6z"/>
			<path id="&lt;Path&gt;" class="s13" d="m962.8 620.4c-1.6-1.3-2.8-3.2-4.7-3.8-8.1-2.6-16.3-4.9-24.6-7.2-7.1-2-11.3 0.7-17.5 11.5-1.9 3.3-3.6 6.6-5.6 10.1-20-5.3-37.6-14.4-52.3-29.4 2.4-4.1 5-8.3 7.4-12.6 4.1-7 5.1-12.9 1.8-16.4-6.9-7.4-14.2-14.2-21.6-20.8-1.2-1.2-4-0.2-6-0.2q-0.6 0.4-1.3 0.8c-2.9 3.8-6 7.4-8.6 11.4-3.2 4.9-6.2 10.1-8.9 15.3-2.6 5.2-4.7 10.5-7 15.7q0 3.1 0 6.1c1.8 5.1 2.7 11.3 5.5 15 18.7 25 41.4 43.7 71.1 51.1 13.2 3.2 25.8 8.6 42.5 2.7q1.3-0.8 2.7-1.5c5.2-4.1 9.2-9.6 12.7-16.1 2.9-5.4 6.2-10.5 9-15.8 2.1-3.9 3.6-8.1 5.4-12.1q0-1.9 0-3.8z"/>
		</g>
		<g id="&lt;Group&gt;" style="opacity: .8">
			<path id="&lt;Path&gt;" class="s16" d="m496.9 697.8v226.7c0 6.3 4.5 8.9 9.9 5.7l8.1-4.7 180.2-104 8-4.7c5.5-3.2 9.9-10.8 9.9-17.2v-226.6c0-6.4-4.4-9-10-5.9l-196.2 113.4c-5.4 3.2-9.9 11-9.9 17.3z"/>
			<path id="&lt;Path&gt;" class="s13" d="m562.9 736.7c0 26.8 18.9 37.7 42.1 24.3 23.2-13.4 42-46 42-72.8 0-26.8-18.8-37.6-42-24.3-23.3 13.4-42.1 46-42.1 72.8z"/>
			<path id="&lt;Path&gt;" class="s13" d="m514.9 925.5l180.2-104c-0.6-56.6-40.8-79.2-90.1-50.7-49.4 28.5-89.6 97.6-90.1 154.7z"/>
		</g>
		<g id="&lt;Group&gt;">
			<g id="&lt;Group&gt;" style="opacity: .8">
				<g id="&lt;Group&gt;">
					<path id="&lt;Compound Path&gt;" fill-rule="evenodd" class="s17" d="m2328.2 984.5q0-1.7 0-3.5c0.1-0.2 0.1-0.3 0.2-0.4 0.3-1.8 0.7-3.7 1.1-5.4q1.5-5.1 4.5-8.5c0.9-1.2 2.1-2 3.7-2.1 1.1-0.2 2.4 0.3 3.7 1.5 1.4 1.2 2.8 2.5 4.2 3.8 3.4 3.3 7 5.6 10.5 7.1 3.1 1.2 6 1.5 8.6 0.9 2.1-0.6 3.9-1.6 5-3.8 1.3-2.4 1.9-5.5 2.2-8.8 0.4-4.5 0.1-9.3-1-14.5-0.2-1-0.4-2.1-0.2-2.9 0.5-1.7 1.5-2.7 2.8-3.4 1.9-0.9 4-1 6.3-0.9 2.4 0.1 5 0.6 7.7 1.4 1.9 0.6 3.9 1.3 6 2.4 2.2 1.2 3.9 3.2 5.1 6 0.7 1.7 1.2 3.5 1.8 5.2 1.5 4.6 3.8 9 6.6 13.2 2.3 3.5 4.9 6.4 7.9 8.7 3.5 2.7 7 4.5 10.5 5.1 5.5 0.8 9.5-1.1 11.9-5.9 0.8-1.7 1.8-2.9 3.3-3.6 0.9-0.5 2.1-0.3 3.4 0.5 2.1 1.3 4.2 2.9 6.2 4.7 2.8 2.4 5.6 5.1 8.1 8.3 2.8 3.5 5.3 7.2 7.1 11.4 0.7 1.5 1.3 3.1 1.1 4.4-0.1 1.2-0.4 2.3-0.8 3.2-0.9 2.1-1.6 4.3-1.8 6.9-0.2 2.6 0 5.3 0.5 8.2 0.7 3.5 1.9 7.1 3.7 10.7 3.4 7.1 8 12.5 13.7 16 2.3 1.5 4.7 2.7 7 3.4 1.8 0.6 3.5 1 5.2 1 2.5-0.1 5.5 2.2 7.6 5.7 2.2 3.7 3.6 7.6 4.8 11.6 1.2 3.9 2.1 7.8 2.7 11.5q0.5 2.9 0.6 5.6c0.2 3.6-2.1 5-4.1 4.7-2.5-0.3-4.8-0.3-6.8 0.6-4.1 1.6-7 4.8-7.7 10.7-0.3 3.5-0.2 7.2 0.9 11.3 1.8 7 5.2 13.2 10.1 18.8 1.6 1.8 3.2 3.5 4.5 5.6 1.7 2.7 2.8 5.5 2.8 8.2 0 2.7-0.4 5-0.9 7.3-0.9 3.4-2.2 6.2-4.1 8.5-1.5 1.7-3.2 2.8-5.6 2.6-1.8-0.1-3.6-0.9-5.5-2.5-1.4-1.3-2.9-2.6-4.3-3.8-1.9-1.6-3.9-3.1-5.9-4.3-2.5-1.4-5-2.4-7.4-3.1-1.7-0.4-3.3-0.6-4.6-0.1-3.8 1.5-6.2 4.7-7 10q-0.9 6.8 1.7 15c0.6 1.7 1 3.5 0.9 5-0.2 2.3-1.1 3.9-2.7 4.6-2.8 1.2-6.2 1.2-9.7 0.9q-4.2-0.5-8.8-2.6c-1.1-0.5-2.2-1.1-3.3-2.2-2.2-2.3-3.4-5-4.3-7.8-1.1-3.7-2.5-7.4-4.5-11.1-3.4-6.2-7.4-11.4-12.5-15-3.2-2.1-6.2-3.4-9.1-3.7-2.1-0.2-4 0.2-5.8 1-2.9 1.3-5.1 3.5-6.5 6.8-0.7 1.9-2.1 2.8-4.2 2.5-2-0.4-4.1-1.7-6.2-3.3q-2.6-2.2-5.2-4.7c-3.1-2.9-6.1-6.1-8.9-9.6-2-2.6-3.9-5.3-5.4-8.2-1-2-1.6-3.9-1.6-5.7 0-1.3 0.3-2.4 0.7-3.3 0.6-1.5 1.3-2.9 1.8-4.4 0.8-2.7 0.9-5.9 0.4-9.4-0.4-3.5-1.5-7.1-3.2-10.7-1.4-3-3.1-5.9-5.4-8.5-1.8-2.1-3.8-3.7-5.9-5.2-4-2.9-8.1-4.6-11.9-5.5-1.5-0.3-3-0.9-4.5-2.1-2.3-1.9-4.1-4.5-5.5-7.6-1.8-4.3-3.3-8.5-4.4-12.8-0.7-2.7-1.3-5.4-1.6-8q-0.1-1.3-0.3-2.6 0-0.7 0-1.4 0.2-1.1 0.4-2.1c0.4-1.7 1.1-3 2.6-3.2 0.5 0 1 0.1 1.6 0.1 3.3 0.3 6.2-0.5 8.7-2 3.1-1.8 5.3-4.7 5.9-9.6 0.4-4.6-0.3-9.5-2.7-14.9-2.7-6.2-6.5-11.8-10.8-16.8-0.8-0.9-1.7-1.7-2.5-2.7-1.6-2.1-2.3-4.4-2.8-6.7q-0.2-0.8-0.4-1.7zm90.5 130.8c23.8 13.8 42.3 2.1 42.5-24.2 0.1-26.8-18.6-59.7-42.4-73.6-23-13.4-42.2-2.7-42.3 24.3-0.1 25.8 18.1 59.5 42.2 73.5z"/>
				</g>
			</g>
			<g id="&lt;Group&gt;" style="opacity: .8">
				<g id="&lt;Group&gt;">
					<path id="&lt;Compound Path&gt;" fill-rule="evenodd" class="s18" d="m2426 879.5q0-1.8 0-3.6c0.1-0.2 0.1-0.3 0.2-0.4 0.3-1.8 0.7-3.7 1.1-5.4q1.5-5.1 4.5-8.5c1-1.2 2.1-1.9 3.7-2.1 1.2-0.2 2.4 0.3 3.7 1.5 1.4 1.2 2.8 2.5 4.2 3.8 3.4 3.3 7 5.6 10.5 7.1q4.7 1.9 8.6 0.9c2.1-0.6 3.9-1.6 5-3.8 1.3-2.4 1.9-5.5 2.2-8.8q0.6-6.7-1-14.5c-0.2-1-0.4-2.1-0.2-2.9 0.5-1.7 1.5-2.7 2.8-3.4 1.9-0.9 4-1 6.3-0.9 2.4 0.1 5 0.6 7.7 1.4 1.9 0.6 3.9 1.3 6 2.4 2.2 1.2 3.9 3.2 5.1 6 0.7 1.7 1.2 3.5 1.8 5.2 1.5 4.7 3.8 9 6.6 13.2 2.3 3.5 4.9 6.5 7.9 8.7 3.5 2.7 7.1 4.5 10.5 5.1 5.5 0.8 9.5-1.1 11.9-5.9 0.8-1.7 1.8-2.9 3.3-3.6 0.9-0.5 2.1-0.3 3.4 0.5 2.1 1.3 4.2 2.9 6.2 4.7 2.8 2.4 5.6 5.1 8.1 8.3 2.8 3.5 5.3 7.2 7.1 11.4 0.7 1.6 1.3 3.1 1.1 4.4-0.1 1.2-0.4 2.3-0.8 3.2-0.9 2.1-1.6 4.3-1.8 7-0.2 2.5 0 5.2 0.5 8.1 0.7 3.5 1.9 7.1 3.7 10.7 3.5 7.1 8 12.5 13.6 16 2.4 1.5 4.8 2.7 7.1 3.4 1.8 0.6 3.5 1 5.2 1 2.5-0.1 5.5 2.2 7.6 5.7 2.2 3.8 3.6 7.6 4.8 11.6 1.2 3.9 2.1 7.8 2.7 11.6q0.5 2.8 0.6 5.5c0.2 3.6-2.1 5-4.1 4.7-2.5-0.3-4.8-0.3-6.8 0.6-4.1 1.7-7 4.8-7.7 10.7-0.3 3.5-0.1 7.2 0.9 11.3 1.8 7 5.2 13.3 10.1 18.8 1.6 1.8 3.2 3.5 4.5 5.6 1.7 2.8 2.8 5.5 2.8 8.2 0 2.7-0.4 5.1-0.9 7.3-0.9 3.4-2.2 6.2-4.1 8.5-1.5 1.7-3.2 2.8-5.6 2.6-1.7-0.1-3.6-0.9-5.5-2.5-1.4-1.3-2.9-2.6-4.3-3.8-1.9-1.6-3.9-3.1-5.9-4.3-2.5-1.4-5-2.4-7.4-3.1-1.7-0.4-3.3-0.6-4.6-0.1-3.8 1.5-6.2 4.7-7 10-0.6 4.5 0 9.5 1.7 15 0.6 1.7 1 3.5 0.9 5-0.2 2.3-1.1 3.9-2.7 4.6-2.8 1.2-6.2 1.3-9.7 0.9q-4.2-0.5-8.8-2.6c-1.1-0.5-2.2-1.1-3.3-2.2-2.2-2.3-3.4-5-4.3-7.8-1.1-3.7-2.5-7.4-4.5-11-3.4-6.3-7.4-11.5-12.5-15.1-3.2-2.1-6.2-3.4-9.1-3.7-2.1-0.2-4 0.2-5.8 1-2.9 1.3-5.1 3.5-6.5 6.9-0.7 1.8-2.1 2.7-4.2 2.4-2-0.4-4.1-1.7-6.2-3.3q-2.6-2.2-5.2-4.6c-3.1-3-6.1-6.1-8.9-9.7-2-2.6-3.9-5.3-5.4-8.2-1-2-1.6-3.9-1.6-5.7 0-1.3 0.3-2.3 0.7-3.3 0.6-1.5 1.3-2.9 1.8-4.4 0.8-2.7 0.9-5.9 0.4-9.4-0.4-3.5-1.5-7.1-3.2-10.7-1.4-3-3.1-5.9-5.4-8.5-1.8-2.1-3.8-3.7-5.9-5.2-4-2.9-8-4.6-11.9-5.5-1.5-0.3-3-0.9-4.5-2.1-2.3-1.9-4.1-4.5-5.5-7.6-1.8-4.3-3.3-8.5-4.4-12.8-0.7-2.7-1.2-5.4-1.6-8q-0.1-1.3-0.3-2.6 0-0.7 0-1.4 0.2-1.1 0.4-2.1c0.4-1.7 1.1-3 2.6-3.1 0.5-0.1 1 0 1.6 0 3.3 0.3 6.2-0.5 8.7-2 3.1-1.8 5.4-4.7 5.9-9.6 0.4-4.5-0.3-9.5-2.7-14.9-2.7-6.2-6.5-11.8-10.8-16.8-0.8-0.9-1.7-1.7-2.5-2.7-1.6-2.1-2.3-4.4-2.8-6.7q-0.2-0.8-0.4-1.6zm90.5 130.7c23.8 13.8 42.3 2.1 42.5-24.2 0.1-26.8-18.6-59.7-42.4-73.6-23-13.4-42.2-2.7-42.3 24.3-0.1 25.8 18.1 59.5 42.2 73.5z"/>
				</g>
			</g>
		</g>
		<g id="&lt;Group&gt;">
			<g id="&lt;Group&gt;">
				<path id="&lt;Compound Path&gt;" fill-rule="evenodd" class="s19" d="m1470.8 564.2c-3.2 0-6.9-1.1-10.5-3.2l-129.2-74.5c-10.3-6-18.5-18.9-18.5-29.3v-97.8c0-5.4 2.1-8.5 3.9-10.3 4.5-4.4 11.7-4.5 19.1-0.1l129.2 74.5c6.4 3.7 12.2 10.2 15.6 17.4 1.9 4.1 2.9 8.2 2.9 11.9v97.8c0 5.4-2.1 9.7-6.1 12-1.9 1.1-4 1.6-6.4 1.6zm-145.7-209.4c-1 0-1.8 0.2-2.4 0.8-0.7 0.7-1.1 2.1-1.1 3.8v97.8c0 7.2 6.4 17.1 14 21.5l129.2 74.5c3.9 2.3 6.7 2.3 7.9 1.6 1.4-0.8 1.6-3 1.6-4.2v-97.8c0-2.4-0.7-5.2-2-8-2.6-5.6-7.2-10.7-12-13.5l-129.2-74.6c-2.2-1.2-4.3-1.9-6-1.9z"/>
			</g>
			<g id="&lt;Group&gt;">
				<path id="&lt;Compound Path&gt;" fill-rule="evenodd" class="s20" d="m1411 482.7c-4.8 0-10-1.6-15.3-4.6-8.4-4.9-16.3-13.2-22.2-23.4l-57.8-100.1c-1-1.8-0.7-4 0.8-5.5 4.5-4.4 11.7-4.5 19.1-0.1l129.2 74.5c6.4 3.7 12.2 10.2 15.6 17.4 1 2.2 0.2 4.7-1.8 5.8l-57.8 33.4c-2.9 1.7-6.3 2.6-9.8 2.6zm-84.7-127.8l55 95.3c5.1 8.9 11.8 16 18.9 20.1 3.7 2.1 10.7 5.2 16.1 2l54-31.1c-2.7-4.1-6.3-7.7-10-9.9l-129.2-74.6c-1.7-1-3.4-1.6-4.8-1.8z"/>
			</g>
			<g id="&lt;Group&gt;">
				<path id="&lt;Path&gt;" class="s21" d="m1470.9 564.2c-3.3 0-6.9-1-10.6-3.2l-129.2-74.5c-6.3-3.7-12.2-10.2-15.6-17.4-1-2.2-0.2-4.7 1.9-5.9l41.5-23.9c2.1-1.3 4.9-0.5 6.1 1.6 1.2 2.2 0.5 4.9-1.6 6.2l-37.7 21.7c2.6 4.1 6.2 7.7 9.9 9.9l129.2 74.5c1.8 1.1 3.5 1.7 4.9 1.9l-40.8-70.7c-1.3-2.2-0.5-4.9 1.6-6.1 2.2-1.3 4.9-0.6 6.2 1.6l43.5 75.5c1.1 1.8 0.8 4-0.7 5.5-2.3 2.2-5.3 3.3-8.6 3.3z"/>
			</g>
		</g>
		<path id="&lt;Path&gt;" class="s22" d="m1989.4 1894.1l37.3 21.7c0 0-11.2 25.7-11.8 26.7-0.6 1-16.3 4.8-18.2 3.6-1.9-1.2-7.7-5.5-10.3-6.8-2.6-1.3-10.9-12.3-10.9-12.3z"/>
		<g id="&lt;Group&gt;">
			<g id="&lt;Group&gt;">
				<g id="&lt;Group&gt;">
					<path id="&lt;Compound Path&gt;" fill-rule="evenodd" class="s23" d="m1955 864.5l-119.2 939.7c-1.2 8.9-5.1 15.4-10.5 18.6l-21.8 12.6 4.2-10.2 1.4-1.5q-1.7-0.7-3.5-1.7l-33.3-18.9-318.7-180.5-33.4-18.8c-4.5-2.6-8.5-6.4-11.9-11-7.4-10.1-11.6-24-10-36.3l119.1-938.5-12.2-6.5 22.2-12.9q0.8-0.5 1.5-0.9l0.1-0.1h0.1c1.7-0.9 3.7-1.5 5.7-1.7 4-0.4 8.4 0.6 12.9 3.1l33.4 18.9 318.7 180.5 33.3 18.8c2.7 1.6 5.3 3.5 7.6 5.9q2.3 2.3 4.3 5.1 2.1 2.8 3.7 5.8c5.1 9.3 7.6 20.4 6.3 30.5zm-29.4-10.1l-79.1-52.7c1.3-9.6-13.1-5.5-20.8-9.8l-170.1-75.7c-7.7-4.3-15.1-41.5-16.4-31.9l-105.8-59.9-119.7 943.2 386.5 218.9z"/>
				</g>
			</g>
			<g id="&lt;Clip Group&gt;">
				<g id="&lt;Group&gt;">
					<path id="&lt;Path&gt;" class="s24" d="m1041.9 871q-0.2-0.1-0.3-0.3 0.1 0.2 0.3 0.3z"/>
					<path id="&lt;Path&gt;" class="s25" d="m1041.6 870.7q-1.6-0.9-3.2-2 1.6 1.1 3.2 2z"/>
					<path id="&lt;Path&gt;" class="s26" d="m1038.4 868.7q-1.6-1.3-3.2-2.8 1.6 1.5 3.2 2.8z"/>
					<path id="&lt;Path&gt;" class="s27" d="m1035.2 865.9q-2.3-2.2-4.3-4.8 2 2.6 4.3 4.8z"/>
					<path id="&lt;Path&gt;" class="s28" d="m1030.9 861.1c-3.6-4.5-6.4-9.8-8.3-15.5 1.9 5.7 4.8 11 8.3 15.5z"/>
					<path id="&lt;Path&gt;" class="s27" d="m1022.6 845.6q-1.2-3.4-1.9-6.9 0.7 3.5 1.9 6.9z"/>
					<path id="&lt;Path&gt;" class="s26" d="m1020.7 838.7q-0.5-2.4-0.8-4.8 0.3 2.4 0.8 4.8z"/>
					<path id="&lt;Path&gt;" class="s25" d="m1019.9 833.9q-0.2-1.9-0.2-3.9 0 2 0.2 3.9z"/>
					<path id="&lt;Path&gt;" class="s24" d="m1019.7 830q0-1.7 0-3.3 0 1.6 0 3.3z"/>
					<path id="&lt;Path&gt;" class="s29" d="m1019.7 826.7q0.1-1.6 0.3-3-0.2 1.4-0.3 3z"/>
				</g>
			</g>
			<g id="&lt;Group&gt;">
				<path id="&lt;Path&gt;" class="s30" d="m1151 897l-1.9 15.5-92.2-52.2 2-15.5z"/>
			</g>
			<g id="&lt;Group&gt;">
				<path id="&lt;Path&gt;" class="s31" d="m1146.1 814.8l-1.5 11.7-63.5-36 1.5-11.7z"/>
			</g>
			<g id="&lt;Group&gt;">
				<path id="&lt;Path&gt;" class="s13" d="m1335.2 734.5l-9.8 77.6-1.4 10.4-16.7 132-2.5 19.5-8.3-4.7 2.5-19.5 16.7-132 1.3-10.4 9.9-77.6z"/>
			</g>
			<g id="&lt;Group&gt;">
				<path id="&lt;Compound Path&gt;" fill-rule="evenodd" class="s32" d="m1228.9 885.7c-2.9 23.3 9.9 50.9 28.5 61.5l168.4 95.3-1.3 10.2c-2.2 18-15.7 26-30.1 17.8l-352.5-199.5c-14.4-8.2-24.2-29.4-21.9-47.3l33.2-261.9 184.1 104.3c10 5.6 16.9 20.5 15.3 33.1l-19.2 151.1zm-91.3-264.2c-24.1-13.7-46.4-3.3-51.3 34.8-4.8 38.1 30.2 113.5 32 117.5 2.6-1.5 50.7-29.8 55.6-67.9 4.8-38.1-12.1-70.7-36.3-84.4zm20.2 303.6l4.3-33.6-14.4-8.1 10.2-80-82.8-46.9-10.2 80-14.3-8.1-4.3 33.6z"/>
			</g>
			<g id="&lt;Group&gt;">
				<path id="&lt;Compound Path&gt;" fill-rule="evenodd" class="s13" d="m1075.1 756.4l82.8 46.9-10.2 80.1-82.8-46.9zm67.6 85.2l1.5-11.7-63.5-36-1.5 11.7zm1.9-15.1l1.5-11.7-63.5-36-1.5 11.7zm-5.8 45.5l1.5-11.7-63.5-35.9-1.5 11.7zm1.9-15.2l1.5-11.7-63.5-36-1.5 11.7z"/>
			</g>
			<g id="&lt;Group&gt;">
				<path id="&lt;Path&gt;" class="s33" d="m1140.3 860.3l-1.5 11.8-63.5-36 1.5-11.7z"/>
			</g>
			<g id="&lt;Group&gt;">
				<path id="&lt;Path&gt;" class="s34" d="m1142.3 845.2l-1.5 11.7-63.6-36 1.5-11.7z"/>
			</g>
			<g id="&lt;Group&gt;">
				<path id="&lt;Compound Path&gt;" fill-rule="evenodd" class="s13" d="m1147.7 883.4l14.4 8.1-4.3 33.6-111.5-63.1 4.3-33.6 14.3 8.1zm1.4 29.1l1.9-15.5-92.1-52.2-2 15.5z"/>
			</g>
			<g id="&lt;Group&gt;">
				<path id="&lt;Path&gt;" class="s35" d="m1144.2 830l-1.5 11.7-63.5-36 1.5-11.7z"/>
			</g>
			<g id="&lt;Clip Group&gt;">
				<g id="&lt;Group&gt;">
					<path id="&lt;Path&gt;" class="s26" d="m1086.3 656.3q-0.1 0.9-0.2 1.8 0.1-0.9 0.2-1.8z"/>
					<path id="&lt;Path&gt;" class="s27" d="m1086.1 658.1q-0.2 2-0.2 4 0-2 0.2-4z"/>
					<path id="&lt;Path&gt;" class="s28" d="m1085.9 662.1q-0.1 1.9 0 3.8-0.1-1.9 0-3.8z"/>
					<path id="&lt;Path&gt;" class="s36" d="m1085.9 665.9q0 2 0.2 4.1-0.2-2.1-0.2-4.1z"/>
					<path id="&lt;Path&gt;" class="s37" d="m1086.1 670q0.1 2.1 0.4 4.3-0.3-2.2-0.4-4.3z"/>
					<path id="&lt;Path&gt;" class="s38" d="m1086.5 674.3q0.2 2.3 0.5 4.7-0.3-2.4-0.5-4.7z"/>
					<path id="&lt;Path&gt;" class="s39" d="m1087 679q0.4 2.3 0.8 4.8-0.4-2.5-0.8-4.8z"/>
					<path id="&lt;Path&gt;" class="s40" d="m1087.8 683.8q0.4 2.4 0.9 4.9-0.5-2.5-0.9-4.9z"/>
					<path id="&lt;Path&gt;" class="s41" d="m1088.7 688.7q0.6 2.5 1.1 5.1-0.5-2.6-1.1-5.1z"/>
					<path id="&lt;Path&gt;" class="s42" d="m1089.8 693.8q0.6 2.6 1.3 5.2-0.7-2.6-1.3-5.2z"/>
					<path id="&lt;Path&gt;" class="s43" d="m1091.1 699q0.7 2.8 1.4 5.5-0.7-2.7-1.4-5.5z"/>
					<path id="&lt;Path&gt;" class="s44" d="m1092.5 704.5q0.8 2.8 1.7 5.7-0.9-2.9-1.7-5.7z"/>
					<path id="&lt;Path&gt;" class="s45" d="m1094.2 710.2q0.8 3 1.8 6-1-3-1.8-6z"/>
					<path id="&lt;Path&gt;" class="s46" d="m1096 716.2q1 3.2 2 6.3-1-3.1-2-6.3z"/>
					<path id="&lt;Path&gt;" class="s47" d="m1098 722.5q1.2 3.4 2.3 6.7-1.1-3.3-2.3-6.7z"/>
					<path id="&lt;Path&gt;" class="s48" d="m1100.3 729.2q1.3 3.6 2.6 7.1-1.3-3.5-2.6-7.1z"/>
					<path id="&lt;Path&gt;" class="s49" d="m1102.9 736.3q1.4 4 2.9 7.7-1.5-3.7-2.9-7.7z"/>
					<path id="&lt;Path&gt;" class="s50" d="m1105.8 744q1.6 4.3 3.2 8.1-1.6-3.8-3.2-8.1z"/>
					<path id="&lt;Path&gt;" class="s51" d="m1109 752.1c1.3 3.1 2.4 6 3.5 8.5-1.1-2.5-2.2-5.4-3.5-8.5z"/>
					<path id="&lt;Path&gt;" class="s52" d="m1112.5 760.6c1.2 2.7 2.2 5.1 3.1 7-0.9-1.9-1.9-4.3-3.1-7z"/>
					<path id="&lt;Path&gt;" class="s51" d="m1115.6 767.6q0 0.1 0 0.1 0 0 0-0.1z"/>
					<path id="&lt;Path&gt;" class="s50" d="m1115.6 767.7q0 0.1 0.1 0.1-0.1 0-0.1-0.1z"/>
					<path id="&lt;Path&gt;" class="s49" d="m1115.7 767.8q0 0.1 0 0.1 0 0 0-0.1z"/>
					<path id="&lt;Path&gt;" class="s48" d="m1115.7 767.9q0 0.1 0.1 0.2-0.1-0.1-0.1-0.2z"/>
					<path id="&lt;Path&gt;" class="s47" d="m1115.8 768.1q0 0 0 0.1 0-0.1 0-0.1z"/>
					<path id="&lt;Path&gt;" class="s46" d="m1115.8 768.2q0 0 0.1 0.1-0.1-0.1-0.1-0.1z"/>
					<path id="&lt;Path&gt;" class="s45" d="m1115.9 768.3q0 0 0 0.1 0-0.1 0-0.1z"/>
					<path id="&lt;Path&gt;" class="s44" d="m1115.9 768.4q0 0.1 0.1 0.1-0.1 0-0.1-0.1z"/>
					<path id="&lt;Path&gt;" class="s43" d="m1116 768.5q0 0.1 0 0.1 0 0 0-0.1z"/>
					<path id="&lt;Path&gt;" class="s42" d="m1116 768.6q0 0.1 0.1 0.1-0.1 0-0.1-0.1z"/>
					<path id="&lt;Path&gt;" class="s41" d="m1116.1 768.7q0 0.1 0 0.1 0 0 0-0.1z"/>
					<path id="&lt;Path&gt;" class="s40" d="m1116.1 768.8q0 0.1 0.1 0.1-0.1 0-0.1-0.1z"/>
					<path id="&lt;Path&gt;" class="s39" d="m1116.2 768.9q0 0.1 0 0.1 0 0 0-0.1z"/>
					<path id="&lt;Path&gt;" class="s38" d="m1116.2 769q0 0.1 0.1 0.2-0.1-0.1-0.1-0.2z"/>
					<path id="&lt;Path&gt;" class="s37" d="m1116.3 769.2q0 0 0 0.1 0-0.1 0-0.1z"/>
					<path id="&lt;Path&gt;" class="s36" d="m1116.3 769.3q0 0 0 0.1 0-0.1 0-0.1z"/>
					<path id="&lt;Path&gt;" class="s28" d="m1116.3 769.4q0.1 0 0.1 0.1 0-0.1-0.1-0.1z"/>
					<path id="&lt;Path&gt;" class="s27" d="m1116.4 769.5q0 0 0 0.1 0-0.1 0-0.1z"/>
					<path id="&lt;Path&gt;" class="s26" d="m1116.4 769.6q0.1 0 0.1 0.1 0-0.1-0.1-0.1z"/>
					<path id="&lt;Path&gt;" class="s25" d="m1116.5 769.7q0 0 0 0.1 0-0.1 0-0.1z"/>
					<path id="&lt;Path&gt;" class="s24" d="m1116.5 769.8q0 0 0.1 0.1-0.1-0.1-0.1-0.1z"/>
					<path id="&lt;Path&gt;" class="s29" d="m1116.6 769.9q0 0 0 0.1 0-0.1 0-0.1z"/>
					<path id="&lt;Path&gt;" class="s53" d="m1116.6 770q0 0 0.1 0-0.1 0-0.1 0z"/>
					<path id="&lt;Path&gt;" class="s54" d="m1116.7 770q0 0.1 0 0.1 0 0 0-0.1z"/>
					<path id="&lt;Path&gt;" class="s55" d="m1116.7 770.1q0 0.1 0 0.1 0 0 0-0.1z"/>
					<path id="&lt;Path&gt;" class="s56" d="m1116.7 770.2q0.1 0.1 0.1 0.1 0 0-0.1-0.1z"/>
					<path id="&lt;Path&gt;" class="s57" d="m1116.8 770.3q0 0.1 0 0.1 0 0 0-0.1z"/>
					<path id="&lt;Path&gt;" class="s58" d="m1116.8 770.4c0.8 1.8 1.3 2.9 1.5 3.3-0.2-0.4-0.7-1.5-1.5-3.3z"/>
				</g>
			</g>
			<g id="&lt;Group&gt;">
				<path id="&lt;Path&gt;" class="s32" d="m1154.2 688c-2.1 16.1-14.2 23.2-27 15.9-12.9-7.3-21.6-26.2-19.6-42.2 2.1-16.1 14.1-23.2 27-15.9 12.8 7.2 21.6 26.2 19.6 42.2z"/>
			</g>
			<g id="&lt;Clip Group&gt;">
				<g id="&lt;Group&gt;">
					<path id="&lt;Path&gt;" class="s58" d="m1063.2 483c1.7-13.2 9.4-21 19.1-21-9.7 0-17.4 7.8-19.1 21z"/>
				</g>
			</g>
			<g id="&lt;Group&gt;">
				<path id="&lt;Compound Path&gt;" fill-rule="evenodd" class="s59" d="m1137.7 621.5c24.1 13.7 41 46.2 36.2 84.3-4.9 38.1-53 66.4-55.6 67.9-1.8-3.9-36.8-79.3-32-117.4 4.9-38.1 27.2-48.5 51.4-34.8zm-10.5 82.4c12.8 7.3 24.9 0.2 27-15.9 2-16-6.8-35-19.6-42.2-12.9-7.3-24.9-0.2-27 15.9-2 16 6.7 34.9 19.6 42.2z"/>
			</g>
			<g id="&lt;Group&gt;">
				<path id="&lt;Path&gt;" class="s13" d="m1661 1613.7c3.7 2.1 6.2 7.5 5.6 12.1-0.6 4.7-4.1 6.7-7.7 4.6l-4.1-2.3c-3.6-2-6.1-7.5-5.6-12.1 0.3-2.3 1.3-4 2.7-4.8 1.4-0.8 3.2-0.8 5.1 0.2z"/>
			</g>
			<g id="&lt;Group&gt;">
				<path id="&lt;Path&gt;" class="s13" d="m1789.7 1339.8c14.4 8.1 24.2 29.3 21.9 47.2l-29.3 231c-2.3 17.9-15.8 25.9-30.2 17.8l-277.9-157.4c-14.3-8.1-24.1-29.3-21.9-47.2l29.3-231c2.3-18 15.8-25.9 30.2-17.8z"/>
			</g>
			<g id="&lt;Group&gt;">
				<path id="&lt;Path&gt;" class="s13" d="m1815.3 1231c2.9 1.6 4.9 5.8 4.4 9.4-0.4 3.6-3.1 5.2-6 3.6l-296.9-168.1c-2.9-1.6-4.8-5.8-4.4-9.4 0.5-3.6 3.2-5.2 6.1-3.6z"/>
			</g>
			<g id="&lt;Group&gt;">
				<path id="&lt;Path&gt;" class="s13" d="m1810.6 1198.1c2.9 1.6 4.8 5.8 4.4 9.4-0.5 3.6-3.2 5.2-6.1 3.6l-288.5-163.4c-2.9-1.6-4.8-5.9-4.4-9.4 0.5-3.6 3.2-5.2 6.1-3.6z"/>
			</g>
			<g id="&lt;Group&gt;">
				<path id="&lt;Path&gt;" class="s13" d="m1690.2 950c34.3 19.4 57.6 69.7 52.2 112.5q-0.8 5.8-2.1 10.9c-18.4 9.8-41.5 9.1-65.2-4.4-23.7-13.4-43.8-37.1-57.4-65q0-5.9 0.7-11.7c5.5-42.8 37.6-61.7 71.8-42.3z"/>
			</g>
			<g id="&lt;Group&gt;">
				<path id="&lt;Path&gt;" class="s13" d="m1698.7 883.4c13.8 7.8 23.2 28.1 21 45.4-2.2 17.2-15.1 24.9-28.9 17-13.9-7.8-23.3-28.1-21.1-45.3 2.2-17.3 15.2-25 29-17.1z"/>
			</g>
			<g id="&lt;Group&gt;">
				<path id="&lt;Compound Path&gt;" fill-rule="evenodd" class="s60" d="m1703.5 845.2c49.5 28 83.2 100.8 75.4 162.6-4.1 32.2-18.6 55.1-38.6 65.6q1.3-5.1 2.1-10.9c5.4-42.8-17.9-93.1-52.2-112.5-34.2-19.4-66.3-0.5-71.8 42.3q-0.7 5.8-0.7 11.7c-14.9-30.3-22-65.4-18-97.6 7.9-61.8 54.3-89.2 103.8-61.2zm-12.7 100.6c13.8 7.9 26.7 0.2 28.9-17 2.2-17.3-7.2-37.6-21-45.4-13.8-7.9-26.8-0.2-29 17.1-2.2 17.2 7.2 37.5 21.1 45.3z"/>
			</g>
			<g id="&lt;Group&gt;">
				<path id="&lt;Compound Path&gt;" fill-rule="evenodd" class="s61" d="m1825.5 813.8l93 52.7-119.7 943.2-406.2-230 119.7-943.2 105.9 59.9c-1.2 9.7 4 21 11.7 25.3l179.4 101.6c7.7 4.4 15 0.1 16.2-9.5zm-43.2 804.2l29.3-231c2.3-17.9-7.6-39.1-21.9-47.2l-277.9-157.4c-14.4-8.1-27.9-0.2-30.2 17.8l-29.3 231c-2.3 17.9 7.6 39.1 21.9 47.2l277.9 157.4c14.4 8.1 27.9 0.1 30.2-17.8zm-78.8-772.8c-49.5-28-95.9-0.6-103.8 61.2-4 32.2 3.1 67.3 18 97.6 13.6 27.9 33.7 51.6 57.4 65 23.7 13.5 46.8 14.2 65.2 4.4 20-10.5 34.5-33.4 38.6-65.6 7.8-61.8-25.9-134.6-75.4-162.6zm-177.7 160.2c-2.9-1.6-5.6 0-6.1 3.6-0.4 3.6 1.5 7.8 4.4 9.4l303.5 171.9c2.8 1.6 5.5 0 6-3.6 0.5-3.6-1.5-7.8-4.4-9.5zm-7.3 57.5c-2.9-1.6-5.5 0-6 3.6-0.5 3.6 1.5 7.8 4.4 9.4l296.8 168.1c2.9 1.6 5.6 0.1 6.1-3.5 0.4-3.6-1.5-7.9-4.4-9.5zm3.6-28.2c-2.9-1.6-5.6 0-6.1 3.6-0.4 3.6 1.5 7.8 4.4 9.4l288.5 163.4c2.9 1.6 5.6 0 6.1-3.6 0.4-3.6-1.5-7.8-4.4-9.4zm-7.2 56.4c-2.8-1.6-5.5-0.1-6 3.5-0.5 3.6 1.5 7.9 4.4 9.5l220.5 124.8c2.8 1.7 5.5 0.1 6-3.5 0.4-3.6-1.5-7.8-4.4-9.5zm-3.6 28.2c-2.8-1.6-5.5 0-6 3.6-0.4 3.6 1.5 7.8 4.4 9.4l85.4 48.4c2.9 1.6 5.6 0 6-3.6 0.5-3.6-1.5-7.8-4.4-9.4zm122.9 497.1c3.7 2.1 7.2 0.1 7.8-4.5 0.6-4.6-2-10.1-5.6-12.2l-4-2.2c-1.9-1.1-3.7-1.1-5.1-0.3-1.4 0.9-2.4 2.5-2.7 4.8-0.6 4.7 1.9 10.1 5.6 12.2zm-73.9-41.9c3.7 2.1 7.2 0.1 7.7-4.6 0.6-4.6-1.9-10-5.6-12.1l-4-2.3c-1.8-1-3.6-1-5-0.2-1.4 0.8-2.4 2.5-2.7 4.8-0.6 4.6 1.9 10 5.6 12.1zm98.6 55.9c3.7 2.1 7.2 0 7.7-4.6 0.6-4.6-1.9-10-5.6-12.1l-4-2.3c-1.8-1-3.6-1-5-0.2-1.4 0.8-2.4 2.5-2.7 4.8-0.6 4.6 1.9 10 5.6 12.1zm-49.3-27.9c3.7 2.1 7.2 0 7.7-4.6 0.6-4.6-1.9-10-5.6-12.1l-4-2.3c-1.8-1-3.6-1-5-0.2-1.4 0.8-2.4 2.5-2.7 4.8-0.6 4.6 1.9 10 5.6 12.1zm-24.7-13.9c3.7 2.1 7.2 0 7.8-4.6 0.6-4.6-2-10.1-5.6-12.1l-4-2.3c-1.9-1-3.7-1.1-5.1-0.2-1.4 0.8-2.4 2.5-2.7 4.8-0.6 4.6 2 10 5.6 12.1z"/>
			</g>
			<g id="&lt;Group&gt;">
				<g id="&lt;Group&gt;">
					<g id="&lt;Group&gt;">
						<path id="&lt;Compound Path&gt;" fill-rule="evenodd" class="s62" d="m1927.7 846.2c5 9.2 7.6 20.3 6.3 30.4l-119.3 939.7c-1.3 10.1-6.1 17.1-12.6 19.8q-2.2 0.9-4.6 1.1-2.4 0.3-5-0.2c-2.6-0.4-5.3-1.4-7.9-2.9l-33.4-18.9-318.7-180.4-33.3-18.9c-4.5-2.6-8.6-6.4-11.9-11-7.5-10.1-11.6-24-10-36.3l119.2-939.7c1.6-12.3 8.4-20 17.3-20.9 4-0.4 8.4 0.6 12.9 3.1l33.3 18.9 318.7 180.5 33.4 18.8c2.7 1.6 5.2 3.6 7.5 5.9q2.4 2.3 4.4 5.1 2 2.8 3.7 5.9zm-128.9 963.5l119.7-943.2-93-52.7c1.2-9.6-4.1-20.9-11.8-25.3l-179.4-101.6c-7.7-4.3-14.9-0.1-16.1 9.5l-105.9-59.9-119.7 943.2z"/>
					</g>
				</g>
			</g>
			<g id="&lt;Group&gt;">
				<path id="&lt;Path&gt;" class="s13" d="m1562.4 1557.9c3.7 2.1 6.2 7.5 5.6 12.1-0.6 4.6-4.1 6.7-7.8 4.6l-3.9-2.3c-3.7-2.1-6.3-7.5-5.7-12.1 0.3-2.3 1.3-4 2.7-4.8 1.4-0.8 3.2-0.8 5.1 0.2z"/>
			</g>
			<g id="&lt;Group&gt;">
				<path id="&lt;Path&gt;" class="s13" d="m1306.7 825.2l-11.7 92.3-43.3-24.4 11.8-92.4z"/>
			</g>
			<g id="&lt;Group&gt;">
				<path id="&lt;Compound Path&gt;" fill-rule="evenodd" class="s63" d="m1299 949.8l-39.1-22.2c-10-5.6-16.9-20.5-15.3-33l13.8-109.2 57.3 32.4zm-35.5-149.1l-11.7 92.4 43.2 24.5 11.7-92.4z"/>
			</g>
			<g id="&lt;Group&gt;">
				<path id="&lt;Path&gt;" class="s13" d="m1239.8 646.5c18.6 10.6 31.4 38.2 28.4 61.5l-4.4 35.4-15.7-8.9-14.7 115.8 19.2-151.1c1.6-12.6-5.3-27.5-15.3-33.1l-184.1-104.3 2.5-19.5z"/>
			</g>
			<g id="&lt;Group&gt;">
				<path id="&lt;Path&gt;" class="s13" d="m1251.9 770.5l7.8 4.5 57.3 32.4-1.3 10.4-57.3-32.4-7.8-4.4z"/>
			</g>
			<g id="&lt;Group&gt;">
				<path id="&lt;Path&gt;" class="s13" d="m1611.7 1585.8c3.7 2.1 6.2 7.5 5.6 12.1-0.6 4.6-4.1 6.7-7.7 4.6l-4-2.3c-3.7-2.1-6.2-7.5-5.7-12.1 0.3-2.3 1.3-4 2.7-4.8 1.4-0.8 3.2-0.8 5.1 0.2z"/>
			</g>
			<g id="&lt;Group&gt;">
				<path id="&lt;Path&gt;" class="s13" d="m1263.8 743.4l-4.1 31.6-7.8-4.5-1.3 10.5 7.8 4.4-13.8 109.2c-1.6 12.5 5.3 27.4 15.3 33l39.1 22.2-2.5 19.5 8.3 4.7 2.5-19.5 121 68.5-2.5 19.5-168.4-95.3c-18.6-10.6-31.4-38.2-28.5-61.5l4.5-35.4 14.7-115.8z"/>
			</g>
			<g id="&lt;Group&gt;">
				<path id="&lt;Path&gt;" class="s13" d="m1423.7 938.7l-6.6 52.1-86.4-49 6.6-52.1z"/>
			</g>
			<g id="&lt;Group&gt;">
				<path id="&lt;Path&gt;" class="s13" d="m1325.4 812.1l118.2 67-1.3 10.4-118.3-67z"/>
			</g>
			<g id="&lt;Group&gt;">
				<path id="&lt;Path&gt;" class="s13" d="m1596.7 1167.7c2.9 1.6 4.9 5.8 4.4 9.4-0.4 3.6-3.1 5.2-6 3.6l-85.4-48.4c-2.9-1.6-4.9-5.8-4.4-9.4 0.4-3.6 3.1-5.2 6-3.6z"/>
			</g>
			<g id="&lt;Group&gt;">
				<path id="&lt;Compound Path&gt;" fill-rule="evenodd" class="s32" d="m1445.9 664.8c14.4 8.1 24.2 29.3 21.9 47.3l-39.5 310.9-121-68.5 16.7-132 118.3 67 1.3-10.4-118.2-67 9.8-77.6-8.3-4.7-9.9 77.6-57.3-32.4 4.1-31.6 4.4-35.4c3-23.3-9.8-50.9-28.4-61.5l-184.1-104.2 7.5-59.3c2.3-18 15.8-25.9 30.2-17.8zm-28.7 326l6.6-52.1-86.5-48.9-6.6 52.1z"/>
			</g>
			<g id="&lt;Group&gt;">
				<path id="&lt;Path&gt;" class="s64" d="m1921 1756c10.8 6.1 18.1 21.9 16.4 35.3-1.7 13.4-11.8 19.4-22.5 13.3l-15.3-8.7c-10.8-6-18.1-21.8-16.4-35.3 1.7-13.4 11.8-19.3 22.6-13.2z"/>
			</g>
			<g id="&lt;Group&gt;">
				<path id="&lt;Path&gt;" class="s13" d="m1735.4 1215.9c2.8 1.7 4.8 5.9 4.3 9.5-0.4 3.6-3.1 5.2-6 3.5l-220.5-124.8c-2.8-1.6-4.8-5.9-4.3-9.4 0.4-3.6 3.1-5.2 6-3.6z"/>
			</g>
			<g id="&lt;Group&gt;">
				<path id="&lt;Path&gt;" class="s65" d="m1931.2 1676c10.7 6 18.1 21.9 16.3 35.3-1.7 13.4-11.7 19.3-22.5 13.3l-15.3-8.7c-10.7-6.1-18-21.9-16.3-35.3 1.7-13.4 11.8-19.4 22.5-13.3z"/>
			</g>
			<g id="&lt;Group&gt;">
				<path id="&lt;Path&gt;" class="s66" d="m1941.3 1595.9c10.8 6.1 18.1 21.9 16.4 35.3-1.7 13.5-11.8 19.4-22.5 13.3l-15.3-8.6c-10.7-6.1-18.1-21.9-16.4-35.3 1.7-13.5 11.8-19.4 22.6-13.3z"/>
			</g>
			<g id="&lt;Group&gt;">
				<path id="&lt;Path&gt;" class="s67" d="m2081 1862.5c4.2 2.4 7 8.5 6.4 13.7-0.7 5.3-4.6 7.6-8.8 5.2l-122.9-69.6c-4.1-2.4-7-8.5-6.3-13.7 0.6-5.2 4.5-7.5 8.7-5.2z"/>
			</g>
			<g id="&lt;Clip Group&gt;">
				<g id="&lt;Group&gt;">
					<path id="&lt;Path&gt;" class="s68" d="m2081.9 1882.3c2.8 0 5-2.2 5.5-6.1-0.5 3.9-2.7 6.1-5.5 6.1z"/>
				</g>
			</g>
			<g id="&lt;Group&gt;">
				<path id="&lt;Path&gt;" class="s13" d="m1829.2 1177.2c2.9 1.7 4.9 5.9 4.4 9.5-0.5 3.6-3.2 5.2-6 3.6l-303.5-171.9c-2.9-1.6-4.8-5.8-4.4-9.4 0.5-3.6 3.2-5.2 6.1-3.6z"/>
			</g>
			<g id="&lt;Group&gt;">
				<path id="&lt;Path&gt;" class="s69" d="m1951.5 1515.9c10.7 6.1 18.1 21.9 16.4 35.3-1.7 13.4-11.8 19.4-22.6 13.3l-15.2-8.7c-10.8-6.1-18.1-21.9-16.4-35.3 1.7-13.4 11.8-19.3 22.5-13.3z"/>
			</g>
			<g id="&lt;Group&gt;">
				<path id="&lt;Path&gt;" class="s70" d="m2147 1964.4l-0.5 3.7-288-163.1 0.5-3.7z"/>
			</g>
			<g id="&lt;Group&gt;">
				<path id="&lt;Path&gt;" class="s71" d="m2091.2 1782.5c4.2 2.3 7 8.5 6.3 13.7-0.6 5.2-4.5 7.5-8.7 5.2l-122.9-69.6c-4.2-2.4-7-8.5-6.4-13.8 0.7-5.2 4.6-7.5 8.8-5.1z"/>
			</g>
			<g id="&lt;Group&gt;">
				<path id="&lt;Path&gt;" class="s72" d="m1961.7 1435.8c10.7 6.1 18 21.9 16.3 35.3-1.7 13.5-11.8 19.4-22.5 13.3l-15.3-8.6c-10.7-6.1-18-21.9-16.3-35.3 1.7-13.4 11.7-19.4 22.5-13.3z"/>
			</g>
			<g id="&lt;Group&gt;">
				<path id="&lt;Path&gt;" class="s73" d="m2101.3 1702.5c4.2 2.3 7.1 8.4 6.4 13.7-0.7 5.2-4.6 7.5-8.8 5.1l-122.9-69.6c-4.1-2.3-7-8.5-6.3-13.7 0.6-5.2 4.6-7.5 8.7-5.1z"/>
			</g>
			<g id="&lt;Group&gt;">
				<path id="&lt;Path&gt;" class="s74" d="m1971.8 1355.8c10.8 6.1 18.1 21.9 16.4 35.3-1.7 13.4-11.8 19.4-22.5 13.3l-15.3-8.7c-10.8-6-18.1-21.8-16.4-35.3 1.7-13.4 11.8-19.3 22.5-13.3z"/>
			</g>
			<g id="&lt;Clip Group&gt;">
				<g id="&lt;Group&gt;">
					<path id="&lt;Path&gt;" class="s75" d="m2117.9 1636.1c-0.5 3.8-2.8 6.1-5.6 6.1 2.8 0 5.1-2.3 5.6-6.1z"/>
				</g>
			</g>
			<g id="&lt;Group&gt;">
				<path id="&lt;Path&gt;" class="s76" d="m2111.5 1622.4c4.2 2.4 7 8.5 6.4 13.7-0.7 5.2-4.6 7.5-8.8 5.2l-122.9-69.6c-4.2-2.4-7-8.5-6.4-13.7 0.7-5.2 4.6-7.6 8.8-5.2z"/>
			</g>
			<g id="&lt;Clip Group&gt;">
				<g id="&lt;Group&gt;">
					<path id="&lt;Path&gt;" class="s68" d="m2117.9 1636.1c0.6-5.2-2.2-11.3-6.4-13.7 4.2 2.4 7 8.5 6.4 13.7z"/>
				</g>
			</g>
			<g id="&lt;Group&gt;">
				<path id="&lt;Path&gt;" class="s77" d="m2121.7 1542.4c4.1 2.3 7 8.5 6.3 13.7-0.6 5.2-4.6 7.5-8.7 5.1l-122.9-69.6c-4.2-2.3-7.1-8.5-6.4-13.7 0.7-5.2 4.6-7.5 8.7-5.1z"/>
			</g>
			<g id="&lt;Group&gt;">
				<path id="&lt;Path&gt;" class="s70" d="m2179.2 1710.6l-0.5 3.7-288-163.1 0.5-3.7z"/>
			</g>
			<g id="&lt;Clip Group&gt;">
				<g id="&lt;Group&gt;">
					<path id="&lt;Path&gt;" class="s68" d="m2177.9 1670.1c1-7.9-3.3-17.2-9.6-20.8 6.3 3.6 10.6 12.9 9.6 20.8z"/>
				</g>
			</g>
			<g id="&lt;Group&gt;">
				<path id="&lt;Path&gt;" class="s78" d="m2131.8 1462.3c4.2 2.4 7 8.5 6.4 13.7-0.7 5.2-4.6 7.6-8.8 5.2l-122.9-69.6c-4.2-2.4-7-8.5-6.3-13.7 0.6-5.2 4.5-7.5 8.7-5.2z"/>
			</g>
			<g id="&lt;Group&gt;">
				<path id="&lt;Compound Path&gt;" fill-rule="evenodd" class="s32" d="m2619.9 1974.4l-79.4 625.7-267.3-151.4c-14.4-8.1-24.2-29.3-22-47.3l71.2-560.6c2.3-17.9 15.8-25.9 30.2-17.8zm-213.5-0.8l122.9 69.6c4.2 2.4 8.1 0.1 8.8-5.2 0.7-5.2-2.2-11.3-6.4-13.7l-122.9-69.6c-4.1-2.3-8.1 0-8.7 5.2-0.7 5.2 2.2 11.3 6.3 13.7zm182.6 221.6l0.4-3.7-288-163.1-0.5 3.7zm-238.6-237.4l15.3 8.6c10.7 6.1 20.8 0.1 22.5-13.3 1.7-13.4-5.6-29.2-16.4-35.3l-15.3-8.6c-10.7-6.1-20.8-0.2-22.5 13.2-1.7 13.5 5.6 29.3 16.4 35.4zm-10.2 80l15.3 8.7c10.7 6 20.8 0.1 22.5-13.3 1.7-13.5-5.6-29.3-16.3-35.3l-15.3-8.7c-10.8-6.1-20.8-0.1-22.5 13.3-1.7 13.4 5.6 29.2 16.3 35.3zm-40.6 320.2l15.3 8.6c10.7 6.1 20.8 0.1 22.5-13.3 1.7-13.4-5.6-29.2-16.4-35.3l-15.2-8.6c-10.8-6.1-20.9-0.2-22.6 13.3-1.7 13.4 5.6 29.2 16.4 35.3zm68.7-83.1c-4.2-2.4-8.1 0-8.8 5.2-0.6 5.2 2.2 11.3 6.4 13.7l122.9 69.6c4.2 2.3 8.1 0 8.7-5.2 0.7-5.2-2.1-11.3-6.3-13.7zm7.7-61.2l123 69.6c4.1 2.4 8 0.1 8.7-5.1 0.7-5.2-2.2-11.4-6.3-13.7l-123-69.6c-4.1-2.4-8-0.1-8.7 5.1-0.7 5.2 2.2 11.4 6.3 13.7zm-17.9 141.2c-4.1-2.3-8.1 0-8.7 5.2-0.7 5.2 2.2 11.3 6.3 13.7l122.9 69.6c4.2 2.4 8.1 0.1 8.8-5.2 0.7-5.2-2.2-11.3-6.4-13.7zm221.1-82.3l-288-163.1-0.5 3.7 288.1 163.1zm-285.9-30c-1.7 13.4 5.7 29.2 16.4 35.3l15.3 8.7c10.7 6 20.8 0.1 22.5-13.3 1.7-13.5-5.6-29.3-16.4-35.3l-15.2-8.7c-10.8-6.1-20.9-0.1-22.6 13.3zm253.6 283.8l-288-163.1-0.5 3.7 288.1 163.1zm-140.1-52.3l-1.9-1.1-6.7 8.5-3.8-14.4-1.9-1.1 5.2 19.7zm-1.5 11.7l-1.9-1.1-6.7 8.5-3.8-14.4-1.9-1.1 5.1 19.7zm-64.1-328l-15.2-8.6c-10.8-6.1-20.9-0.1-22.6 13.3-1.7 13.4 5.7 29.2 16.4 35.3l15.3 8.6c10.7 6.1 20.8 0.2 22.5-13.3 1.7-13.4-5.6-29.2-16.4-35.3zm-11.2-40.1l15.2 8.7c10.8 6.1 20.9 0.1 22.6-13.3 1.7-13.4-5.7-29.2-16.4-35.3l-15.3-8.7c-10.7-6-20.8-0.1-22.5 13.3-1.7 13.4 5.6 29.2 16.4 35.3zm56.1 15.9l122.9 69.6c4.2 2.3 8.1 0 8.8-5.2 0.6-5.2-2.2-11.3-6.4-13.7l-122.9-69.6c-4.2-2.4-8.1 0-8.8 5.2-0.6 5.2 2.2 11.3 6.4 13.7zm149.2 84.5l21.2 12c1.8 4.2 4.6 7.8 8 9.8 6.4 3.5 12.3 0 13.3-7.9 1-7.9-3.3-17.2-9.6-20.8-3.5-1.9-6.8-1.8-9.3 0l-21.2-12c-2.1-1.2-4.1-1.2-5.7-0.3-1.6 1-2.7 2.9-3.1 5.5-0.6 5.2 2.2 11.3 6.4 13.7zm-139.1-164.6l123 69.6c4.1 2.4 8 0.1 8.7-5.1 0.7-5.2-2.2-11.4-6.3-13.7l-123-69.6c-4.1-2.4-8-0.1-8.7 5.1-0.7 5.2 2.2 11.4 6.3 13.7z"/>
			</g>
			<g id="&lt;Clip Group&gt;">
				<g id="&lt;Group&gt;">
					<path id="&lt;Path&gt;" class="s75" d="m2111.5 1622.4c4.2 2.4 7 8.5 6.4 13.7 0.6-5.2-2.2-11.3-6.4-13.7z"/>
				</g>
			</g>
			<g id="&lt;Group&gt;">
				<g id="&lt;Group&gt;">
					<path id="&lt;Path&gt;" class="s62" d="m1813.7 788.5c7.7 4.4 13 15.7 11.8 25.3-1.2 9.6-8.5 13.9-16.2 9.5l-179.4-101.6c-7.7-4.3-12.9-15.6-11.7-25.3 1.2-9.6 8.4-13.8 16.1-9.5z"/>
				</g>
			</g>
			<g id="&lt;Clip Group&gt;">
				<g id="&lt;Group&gt;">
					<path id="&lt;Path&gt;" class="s79" d="m2155 1657.2c-0.4 3.6 0.2 7.5 1.6 11-1.4-3.5-2-7.4-1.6-11z"/>
				</g>
			</g>
			<g id="&lt;Clip Group&gt;">
				<g id="&lt;Group&gt;">
					<path id="&lt;Path&gt;" class="s79" d="m2159.1 1649.3c-2.1 1.5-3.6 4.2-4.1 7.9 0.5-3.7 2-6.4 4.1-7.9z"/>
				</g>
			</g>
			<g id="&lt;Group&gt;">
				<path id="&lt;Path&gt;" class="s80" d="m2159.1 1649.3c-2.1 1.5-3.6 4.2-4.1 7.9-0.4 3.6 0.2 7.5 1.6 11l-21.2-12c-4.2-2.4-7-8.5-6.3-13.8 0.3-2.6 1.4-4.4 3-5.4 1.6-0.9 3.6-0.9 5.7 0.3z"/>
			</g>
			<g id="&lt;Clip Group&gt;">
				<g id="&lt;Group&gt;">
					<path id="&lt;Path&gt;" class="s68" d="m2128 1556.1c0.7-5.2-2.2-11.4-6.3-13.7 4.1 2.3 7 8.5 6.3 13.7z"/>
				</g>
			</g>
			<g id="&lt;Clip Group&gt;">
				<g id="&lt;Group&gt;">
					<path id="&lt;Path&gt;" class="s58" d="m2177.9 1670.1c-0.7 5.8-4.1 9.3-8.4 9.3 4.3 0 7.7-3.5 8.4-9.3z"/>
				</g>
			</g>
			<g id="&lt;Clip Group&gt;">
				<g id="&lt;Group&gt;">
					<path id="&lt;Path&gt;" class="s68" d="m2169.5 1679.4c4.3 0 7.7-3.5 8.4-9.3-0.7 5.8-4.1 9.3-8.4 9.3z"/>
				</g>
			</g>
			<g id="&lt;Group&gt;">
				<path id="&lt;Path&gt;" class="s81" d="m2168.3 1649.3c6.3 3.6 10.6 12.9 9.6 20.8-1 7.9-6.9 11.4-13.3 7.9-3.4-2-6.2-5.6-8-9.8-1.4-3.5-2-7.4-1.6-11 0.5-3.7 2-6.4 4.1-7.9 2.4-1.8 5.7-1.9 9.2 0z"/>
			</g>
			<g id="&lt;Clip Group&gt;">
				<g id="&lt;Group&gt;">
					<path id="&lt;Path&gt;" class="s58" d="m2163.4 1647.9c1.5 0 3.2 0.5 4.9 1.4-1.7-0.9-3.4-1.4-4.9-1.4z"/>
				</g>
			</g>
			<g id="&lt;Group&gt;">
				<path id="&lt;Compound Path&gt;" fill-rule="evenodd" class="s32" d="m2341.6 1172c14.4 8.2 24.2 29.3 22 47.3l-26.5 208.8c-2.3 18-15.8 26-30.2 17.8l-352.5-199.5c-14.4-8.2-24.2-29.3-21.9-47.3l26.5-208.9c2.3-17.9 15.8-25.9 30.2-17.8zm-226.7-78.1c-10.1 7.8-17.3 21.2-19.6 39-5.1 40.2 16.8 87.4 49 105.6q2 1.2 4 2.1c30.6 14.6 58.5-3.4 63.3-41.8 5.1-40.1-16.8-87.4-48.9-105.6-17.9-10.1-35.2-9.1-47.8 0.7zm203.1 281.4c4.8 2.7 9.3 0 10-6 0.8-6-2.5-13-7.3-15.7l-136.6-77.4-209.9-118.8c-2.4-1.4-4.7-1.4-6.5-0.3-1.8 1-3.2 3.2-3.5 6.2-0.8 6 2.5 13 7.3 15.8zm-5 39c4.8 2.7 9.3 0 10.1-5.9 0.7-6-2.5-13.1-7.3-15.8l-277.8-157.3-68.7-38.9c-2.4-1.3-4.8-1.4-6.6-0.3-1.8 1.1-3.1 3.2-3.5 6.2-0.8 6 2.5 13.1 7.3 15.8z"/>
			</g>
			<g id="&lt;Group&gt;">
				<path id="&lt;Path&gt;" class="s82" d="m2038.1 1235.3c4.8 2.7 8 9.8 7.3 15.8-0.8 5.9-5.3 8.6-10.1 5.9l-68.7-38.9c-4.8-2.7-8.1-9.8-7.3-15.8 0.4-3 1.7-5.1 3.5-6.2 1.8-1.1 4.1-1.1 6.5 0.3z"/>
			</g>
			<g id="&lt;Group&gt;">
				<path id="&lt;Path&gt;" class="s70" d="m2189.5 1629.5l-0.5 3.7-288-163.1 0.5-3.7z"/>
			</g>
			<g id="&lt;Clip Group&gt;">
				<g id="&lt;Group&gt;">
					<path id="&lt;Path&gt;" class="s83" d="m2169.1 1245.6q-0.3 0-0.5 0 0.2 0 0.5 0z"/>
					<path id="&lt;Path&gt;" class="s84" d="m2168.6 1245.6q-1.4 0-2.8-0.1 1.4 0.1 2.8 0.1z"/>
					<path id="&lt;Path&gt;" class="s85" d="m2165.8 1245.5q-1.2-0.1-2.4-0.3 1.2 0.2 2.4 0.3z"/>
					<path id="&lt;Path&gt;" class="s86" d="m2163.4 1245.2q-1.1-0.1-2.3-0.3 1.2 0.2 2.3 0.3z"/>
					<path id="&lt;Path&gt;" class="s87" d="m2161.1 1244.9q-1-0.2-2.1-0.5 1.1 0.3 2.1 0.5z"/>
					<path id="&lt;Path&gt;" class="s88" d="m2159 1244.4q-1-0.2-2-0.5 1 0.3 2 0.5z"/>
					<path id="&lt;Path&gt;" class="s89" d="m2157 1243.9q-1-0.3-2-0.6 1 0.3 2 0.6z"/>
					<path id="&lt;Path&gt;" class="s90" d="m2155 1243.3q-1-0.4-2-0.7 1 0.3 2 0.7z"/>
					<path id="&lt;Path&gt;" class="s91" d="m2153 1242.6q-1-0.4-2-0.8 1 0.4 2 0.8z"/>
					<path id="&lt;Path&gt;" class="s92" d="m2151 1241.8q-1-0.4-1.9-0.9 0.9 0.5 1.9 0.9z"/>
					<path id="&lt;Path&gt;" class="s93" d="m2149.1 1240.9q-0.4-0.1-0.8-0.3 0.4 0.2 0.8 0.3z"/>
				</g>
			</g>
			<g id="&lt;Clip Group&gt;">
				<g id="&lt;Group&gt;">
					<path id="&lt;Path&gt;" class="s94" d="m2095.4 1132.9c2.2-17.8 9.4-31.2 19.5-39-10.1 7.8-17.3 21.2-19.5 39z"/>
				</g>
			</g>
			<g id="&lt;Group&gt;">
				<path id="&lt;Path&gt;" class="s32" d="m2146.7 1219.4c-23.6-13.4-39.8-48.3-36-77.8 1.7-13.9 7.5-24.1 15.6-29.7 9.2-6.4 21.4-6.8 34 0.3 23.7 13.4 39.9 48.3 36.1 77.9-3.6 28.4-24.3 41.7-46.9 30.8q-1.3-0.7-2.8-1.5z"/>
			</g>
			<g id="&lt;Group&gt;">
				<path id="&lt;Path&gt;" class="s95" d="m2116.5 1094.6c3 1.7 9.1 6.5 9.8 17.3-8.1 5.6-13.9 15.8-15.6 29.7-3.8 29.5 12.4 64.4 36 77.8q1.5 0.8 2.8 1.5c0.9 1.8 3.3 8.6-1.2 19.7q-2-1-4-2.1c-32.1-18.2-54-65.5-48.9-105.6 2.2-17.8 9.4-31.2 19.5-39 0 0 0.7 0.2 1.6 0.7z"/>
			</g>
			<g id="&lt;Clip Group&gt;">
				<g id="&lt;Group&gt;">
					<path id="&lt;Path&gt;" class="s58" d="m2114.9 1093.9c-9.7 7.5-16.8 20.3-19.3 37.2 2.5-16.9 9.6-29.7 19.3-37.2z"/>
					<path id="&lt;Path&gt;" class="s57" d="m2095.6 1131.1q0 0.5-0.1 0.9 0.1-0.4 0.1-0.9z"/>
					<path id="&lt;Path&gt;" class="s56" d="m2095.5 1132q-0.1 0.4-0.1 0.9 0-0.5 0.1-0.9z"/>
					<path id="&lt;Path&gt;" class="s55" d="m2095.4 1132.9q0 0 0 0 0 0 0 0z"/>
				</g>
			</g>
			<g id="&lt;Clip Group&gt;">
				<g id="&lt;Group&gt;">
					<path id="&lt;Path&gt;" class="s94" d="m2114.9 1093.9c0 0 0.7 0.2 1.6 0.7-0.9-0.5-1.6-0.7-1.6-0.7z"/>
				</g>
			</g>
			<g id="&lt;Group&gt;">
				<path id="&lt;Path&gt;" class="s96" d="m2184.2 1276.2c4.8 2.7 8 9.7 7.3 15.7-0.8 6-5.3 8.7-10.1 6l-209.9-118.9c-4.8-2.7-8-9.8-7.3-15.7 0.4-3 1.7-5.2 3.5-6.3 1.9-1 4.2-1 6.6 0.3z"/>
			</g>
			<g id="&lt;Clip Group&gt;">
				<g id="&lt;Group&gt;">
					<path id="&lt;Path&gt;" class="s97" d="m2142.1 1107c-5.8 0-11.2 1.7-15.8 4.9 4.6-3.2 10-4.9 15.8-4.9z"/>
				</g>
			</g>
			<g id="&lt;Clip Group&gt;">
				<g id="&lt;Group&gt;">
					<path id="&lt;Path&gt;" class="s97" d="m2138 1086c7.8 0 16.2 2.3 24.8 7.2-8.6-4.9-17-7.2-24.8-7.2z"/>
				</g>
			</g>
			<g id="&lt;Clip Group&gt;">
				<g id="&lt;Group&gt;">
					<path id="&lt;Path&gt;" class="s90" d="m2196.4 1190.1q0.2-1.6 0.3-3.2-0.1 1.6-0.3 3.2z"/>
					<path id="&lt;Path&gt;" class="s91" d="m2196.7 1186.9q0.2-1.8 0.2-3.6 0 1.8-0.2 3.6z"/>
					<path id="&lt;Path&gt;" class="s92" d="m2196.9 1183.3q0.1-1.8 0-3.6 0.1 1.8 0 3.6z"/>
					<path id="&lt;Path&gt;" class="s93" d="m2196.9 1179.7q0-1.7-0.1-3.4 0.1 1.7 0.1 3.4z"/>
					<path id="&lt;Path&gt;" class="s98" d="m2196.8 1176.3q-0.1-1.6-0.3-3.1 0.2 1.5 0.3 3.1z"/>
					<path id="&lt;Path&gt;" class="s99" d="m2196.5 1173.2q-0.1-1.5-0.3-2.9 0.2 1.4 0.3 2.9z"/>
					<path id="&lt;Path&gt;" class="s100" d="m2196.2 1170.3q-0.2-1.3-0.5-2.7 0.3 1.4 0.5 2.7z"/>
					<path id="&lt;Path&gt;" class="s101" d="m2195.7 1167.6q-0.2-1.1-0.4-2.2 0.2 1.1 0.4 2.2z"/>
					<path id="&lt;Path&gt;" class="s102" d="m2195.3 1165.4q-0.2-1.1-0.5-2.2 0.3 1.1 0.5 2.2z"/>
					<path id="&lt;Path&gt;" class="s103" d="m2194.8 1163.2q-0.2-1-0.4-1.9 0.2 0.9 0.4 1.9z"/>
					<path id="&lt;Path&gt;" class="s104" d="m2194.4 1161.3q-0.2-0.9-0.5-1.8 0.3 0.9 0.5 1.8z"/>
					<path id="&lt;Path&gt;" class="s105" d="m2193.9 1159.5q-0.2-0.8-0.5-1.7 0.3 0.9 0.5 1.7z"/>
					<path id="&lt;Path&gt;" class="s106" d="m2193.4 1157.8q-0.2-0.8-0.4-1.5 0.2 0.7 0.4 1.5z"/>
					<path id="&lt;Path&gt;" class="s107" d="m2193 1156.3q-0.2-0.8-0.5-1.5 0.3 0.7 0.5 1.5z"/>
					<path id="&lt;Path&gt;" class="s108" d="m2192.5 1154.8q-0.2-0.7-0.5-1.5 0.3 0.8 0.5 1.5z"/>
					<path id="&lt;Path&gt;" class="s13" d="m2192 1153.3q-0.2-0.7-0.5-1.4 0.3 0.7 0.5 1.4z"/>
					<path id="&lt;Path&gt;" class="s13" d="m2191.5 1151.9q-0.2-0.6-0.5-1.3 0.3 0.7 0.5 1.3z"/>
					<path id="&lt;Path&gt;" class="s13" d="m2191 1150.6q-0.3-0.7-0.6-1.4 0.3 0.7 0.6 1.4z"/>
					<path id="&lt;Path&gt;" class="s13" d="m2190.4 1149.2q-0.3-0.8-0.6-1.5 0.3 0.7 0.6 1.5z"/>
					<path id="&lt;Path&gt;" class="s13" d="m2189.8 1147.7q-0.3-0.7-0.6-1.4 0.3 0.7 0.6 1.4z"/>
					<path id="&lt;Path&gt;" class="s13" d="m2189.2 1146.3q-0.4-0.8-0.7-1.6 0.3 0.8 0.7 1.6z"/>
					<path id="&lt;Path&gt;" class="s13" d="m2188.5 1144.7q-0.5-1.1-1-2.1 0.5 1 1 2.1z"/>
					<path id="&lt;Path&gt;" class="s13" d="m2187.5 1142.6q-0.9-1.7-1.8-3.3 0.9 1.6 1.8 3.3z"/>
					<path id="&lt;Path&gt;" class="s13" d="m2185.7 1139.3q-0.9-1.6-1.9-3.3 1 1.7 1.9 3.3z"/>
					<path id="&lt;Path&gt;" class="s13" d="m2183.8 1136q-0.9-1.4-1.8-2.9 0.9 1.5 1.8 2.9z"/>
					<path id="&lt;Path&gt;" class="s13" d="m2182 1133.1q-0.5-0.7-1-1.4 0.5 0.7 1 1.4z"/>
					<path id="&lt;Path&gt;" class="s13" d="m2181 1131.7q-0.5-0.7-1-1.3 0.5 0.6 1 1.3z"/>
					<path id="&lt;Path&gt;" class="s13" d="m2180 1130.4q-0.4-0.7-0.9-1.3 0.5 0.6 0.9 1.3z"/>
					<path id="&lt;Path&gt;" class="s13" d="m2179.1 1129.1q-0.4-0.5-0.9-1.1 0.5 0.6 0.9 1.1z"/>
					<path id="&lt;Path&gt;" class="s13" d="m2178.2 1128q-0.4-0.5-0.8-1.1 0.4 0.6 0.8 1.1z"/>
					<path id="&lt;Path&gt;" class="s13" d="m2177.4 1126.9q-0.5-0.5-0.9-1 0.4 0.5 0.9 1z"/>
					<path id="&lt;Path&gt;" class="s13" d="m2176.5 1125.9q-0.5-0.6-1-1.2 0.5 0.6 1 1.2z"/>
					<path id="&lt;Path&gt;" class="s108" d="m2175.5 1124.7q-0.5-0.5-1.1-1.1 0.6 0.6 1.1 1.1z"/>
					<path id="&lt;Path&gt;" class="s107" d="m2174.4 1123.6q-0.5-0.6-1.1-1.2 0.6 0.6 1.1 1.2z"/>
					<path id="&lt;Path&gt;" class="s106" d="m2173.3 1122.4q-0.7-0.7-1.4-1.4 0.7 0.7 1.4 1.4z"/>
					<path id="&lt;Path&gt;" class="s105" d="m2171.9 1121q-0.7-0.7-1.5-1.4 0.8 0.7 1.5 1.4z"/>
					<path id="&lt;Path&gt;" class="s104" d="m2170.4 1119.6q-0.8-0.8-1.8-1.6 1 0.8 1.8 1.6z"/>
					<path id="&lt;Path&gt;" class="s103" d="m2168.6 1118q-0.9-0.7-1.8-1.4 0.9 0.7 1.8 1.4z"/>
					<path id="&lt;Path&gt;" class="s102" d="m2166.8 1116.6q-0.9-0.7-1.8-1.4 0.9 0.7 1.8 1.4z"/>
					<path id="&lt;Path&gt;" class="s101" d="m2165 1115.2q-0.9-0.6-1.8-1.2 0.9 0.6 1.8 1.2z"/>
					<path id="&lt;Path&gt;" class="s100" d="m2163.2 1114q-0.8-0.6-1.7-1.1 0.9 0.5 1.7 1.1z"/>
					<path id="&lt;Path&gt;" class="s99" d="m2161.5 1112.9q-0.6-0.3-1.2-0.7 0.6 0.4 1.2 0.7z"/>
				</g>
			</g>
			<g id="&lt;Group&gt;">
				<path id="&lt;Path&gt;" class="s109" d="m2305 1460.6c14.4 8.1 24.2 29.3 21.9 47.3l-71.1 560.6c-2.3 17.9-15.8 25.9-30.2 17.8l-352.4-199.6c-14.4-8.1-24.2-29.3-22-47.3l71.2-560.6-71.2 560.6c-2.2 18 7.6 39.2 22 47.3l267.3 151.4 79.4-625.7z"/>
			</g>
			<g id="&lt;Group&gt;">
				<path id="&lt;Path&gt;" class="s13" d="m2162.8 1093.2c32.1 18.1 54 65.4 48.9 105.6-4.9 38.4-32.8 56.3-63.4 41.8q-2-1-4-2.1c-32.1-18.2-54-65.5-48.9-105.6-5.1 40.1 16.8 87.4 48.9 105.6q2 1.1 4 2.1c4.5-11.1 2.1-17.9 1.2-19.7 22.6 10.9 43.3-2.4 46.9-30.8 3.8-29.6-12.4-64.5-36.1-77.9-12.6-7.1-24.8-6.7-34-0.3-0.7-10.8-6.8-15.6-9.8-17.3-0.9-0.5-1.5-0.7-1.6-0.7 12.7-9.8 30-10.9 47.9-0.7z"/>
			</g>
			<g id="&lt;Group&gt;">
				<path id="&lt;Path&gt;" class="s13" d="m2315.8 1392.6c4.8 2.7 8.1 9.7 7.3 15.7-0.7 6-5.2 8.7-10 6l-346.5-196.2c-4.8-2.7-8.1-9.8-7.3-15.8-0.8 6 2.5 13.1 7.3 15.8l68.7 38.9c4.8 2.7 9.3 0 10.1-5.9 0.7-6-2.5-13.1-7.3-15.8z"/>
			</g>
			<g id="&lt;Group&gt;">
				<path id="&lt;Path&gt;" class="s13" d="m2320.8 1353.5c4.8 2.8 8.1 9.8 7.3 15.8-0.8 6-5.3 8.6-10.1 5.9l-346.5-196.2c-4.8-2.7-8-9.8-7.3-15.7-0.7 5.9 2.5 13 7.3 15.7l209.9 118.9c4.8 2.7 9.3 0 10.1-6 0.7-6-2.5-13-7.3-15.7z"/>
			</g>
		</g>
		<g id="&lt;Group&gt;">
			<path id="&lt;Path&gt;" class="s110" d="m1031.7 1593.4c0 3.4-2.2 6.8-6.7 9.4l-127.2 73.4-23.1 13.4c-4.5 2.5-10.3 3.8-16.2 3.8-5.8 0-11.6-1.3-16.1-3.8l-23.1-13.4-127.2-73.4c-4.5-2.6-6.7-6-6.7-9.3 0-3.4 2.2-6.8 6.7-9.4l150.3-86.8c8.9-5.1 23.4-5.1 32.3 0l150.3 86.8c4.5 2.6 6.7 6 6.7 9.3z"/>
			<path id="&lt;Path&gt;" class="s111" d="m1031.7 1593.4v165.5c0 3.4-2.2 6.8-6.7 9.4l-150.3 86.8c-4.5 2.5-10.3 3.8-16.2 3.8v-165.5c5.9 0 11.7-1.3 16.2-3.8l23.1-13.4 127.2-73.4c4.5-2.6 6.7-6 6.7-9.4z"/>
			<path id="&lt;Path&gt;" class="s112" d="m858.5 1693.4v165.5c-5.8 0-11.6-1.3-16.1-3.8l-150.3-86.8c-4.5-2.6-6.7-6-6.7-9.3v-165.5c0 3.3 2.2 6.7 6.7 9.3l127.2 73.4 23.1 13.4c4.5 2.5 10.3 3.8 16.1 3.8z"/>
			<path id="&lt;Path&gt;" class="s113" d="m907.4 1864.7c0 0-16.3 17.5-13.3 27 3 9.4 26.3 42 37.2 52.9 10.9 10.9 20.4 24.1 40.2 21.1 19.8-2.9 31-15.4 15.8-30.5-15.2-15.2-43.4-47.2-47.4-61.8-4.1-14.5-4.1-14.5-4.1-14.5z"/>
			<path id="&lt;Path&gt;" class="s113" d="m995 1756.7c0 0-5.1 18.5-6.5 24.9-1.3 6.5 6 15.7 19.7 23.6 13.7 7.8 41.2 38.4 55.4 44 14.3 5.7 26.7 5.7 26.7-16.6 0-22.3-24.1-32.4-36.9-41.2-12.8-8.7-28.1-16.8-28.1-26.3 0-9.4-30.3-8.4-30.3-8.4z"/>
			<path id="&lt;Path&gt;" class="s114" d="m914.3 1538.4c0 0 66.9 32.4 111.9 69.3 45 36.9 42.7 52.2 27.9 90.4-14.9 38.2-26.1 74.2-26.1 74.2 0 0-11 4.7-19.8-4-8.8-8.8-13.5-10.4-13.5-10.4 0 0 11.2-45.4 18.4-75.1 7.2-29.7-72.6-46.8-115.2-62.1-42.6-15.3-56.4-84.7-56.4-84.7 0 0 56.7-7.8 72.8 2.4z"/>
			<path id="&lt;Path&gt;" class="s115" d="m861 1557.3c0 0 58.6 56.1 85.3 94.5 26.8 38.4 42.7 50.4 25.2 101.9-17.6 51.6-33.2 111.3-32 115.5 1.2 4.2 1.2 4.2 1.2 4.2 0 0-16.2 1.5-27-4.5-10.8-6-6.3-4.2-6.3-4.2 0 0 19.9-106.8 12.5-132-7.4-25.1-120.1-109.3-120.1-109.3 0 0-12-71.7 61.2-66.1z"/>
			<path id="&lt;Path&gt;" class="s116" d="m765.9 1555.8c0 0-8.7 48.6 12.9 65.7 21.6 17.1 17.7 12.6 17.7 12.6 0 0 14.4-61 58.5-71.9 44-10.9 66.2-28.4 66.2-28.4 0 0-19.3 4.8-24.6-14.4-5.2-19.2-121.4 0-121.4 0z"/>
			<path id="&lt;Path&gt;" class="s117" d="m946.7 1490c0 0 8 1.6 8 15.9 0 14.2 10 17.4 19.5 29.1 9.4 11.7 9.4 20.6 12.3 25.2 3 4.6 6.3 4.5 6.3 3.2 0-1.2 0-3.9 0-3.9 0 0 2.6 1.2 3.5-2.2 0.9-3.4-2-16.1-2-16.1 0 0-7-26.6-20.4-39.9-13.3-13.4-27.2-22.5-27.2-22.5z"/>
			<path id="&lt;Path&gt;" class="s118" d="m995.2 1542.5c0 0-6.3 2.8-7.5-9.2-0.3-3.7-1.6-7.7-3.4-11.6-3.9-8.5-10.2-16.3-14-18.8q-1.1-0.7-1.7-0.8c-2.7-0.1-0.5 7.6-4.7 10.5-5 3.5-6-4-6-13.3 0-2.2-0.5-4.4-1.4-6.2-0.9-2.1-2.2-3.9-3.4-5.3-2.3-2.8-4.6-4.4-4.6-4.4l2.7-13.2c0 0 0.7-6 11 8.8 3 4.1 6 8.1 9.1 11.8 7.7 9.7 15.1 18.1 18.5 24.1q0.6 1.1 1.2 2.3c3.7 9.2 4.2 25.3 4.2 25.3z"/>
			<path id="&lt;Path&gt;" class="s119" d="m899.9 1306.8c0 0 19.2 1.3 22.2 48.7 3 47.4 9.9 78.3 24 92.4 14.1 14.1 22.5 33.8 22.5 33.8 0 0-5.4 6.3-10.3 9.9-7 5.1-9.3 3.7-9.3 3.7 0 0-18.6-22.8-38.1-42.4-19.6-19.5-23.3-15.7-23.3-15.7 0 0 4.2-135 12.3-130.4z"/>
			<path id="&lt;Path&gt;" class="s118" d="m889 1538.1c0 0 12.3 4.1 29.4 2.1 17.1-1.9 30.2-5.3 37.2-3.3 6.9 1.9 8.2 6.2 9.1 7 0.8 0.9-5.4 3.2-13.6 4.8-8.2 1.5-22.3 10.2-55.8 8.4-33.5-1.8-48.1-5.9-48.1-5.9l-1.6-15.9c0 0 13.5-3.4 16-3.4 2.4 0 5.1 0 5.1 0 0 0 13.3 4.3 22.3 6.2z"/>
			<path id="&lt;Path&gt;" class="s120" d="m919.9 1560.8c-13.8 2.5-55.6 1.2-67-2.1-11.4-3.3-11.4-3.3-11.4-3.3l10-9.3c0 0 3.5-1.2 7.6-2.5 4-1.1 8.6-2.3 11-2.3 4.8 0 15.7-1.2 24.6-5.4 8.8-4.2 20.2-1.9 13.2 5.1-7 6.9-21.8 9.9-20.6 11.2 0.5 0.5 5.2 0.8 11.6 0.7 11.5-0.2 28.4-1.4 35.5-4.6 11.1-4.9 18.6-1.3 19.8 1.5 1.2 2.9-20.5 8.4-34.3 11z"/>
			<path id="&lt;Path&gt;" class="s121" d="m756.3 1352.2c0 0-22.9 17.1-22.9 50.8 0 33.8-11.3 102.7-11.3 124.9 0 22.2 8.1 35.4 47.1 34.2 39-1.2 86.3-1.9 86.3-1.9 0 0-4.7-10.7 2.5-20.3 7.2-9.6-53.4-141.8-53.4-141.8z"/>
			<path id="&lt;Path&gt;" class="s122" d="m775.2 1320.7l-18.9 31.5c0 0 31.9 32.8 26.5 88.2-5.4 55.3-12.9 91.4-12.9 91.4 0 0 7.4 0.9 34.7 4.5 27.3 3.6 39.6 9.3 53.4 3.6 13.7-5.7 24.2-1.5 29-1.5 4.8 0 3.9-2.4 3.9-2.4 0 0 6-4.2 6-13.8 0-9.6-16-40.4-5.7-62.5 10.4-22 25-38.7 17.7-60.3-7.3-21.5-4.2-29.2-4.2-29.2 0 0 13.1-54.1-11.9-70.2-25-16.2-117.6 20.7-117.6 20.7z"/>
			<path id="&lt;Path&gt;" class="s123" d="m877.7 1319.8c0 0-1.3 39.3-10.1 57.3 0 0-36.3-6.6-43.8-32.4-7.5-25.8 18.2-44.4 18.2-44.4 0 0 24.8-0.8 25.6 0 0.9 0.9 10.1 19.5 10.1 19.5z"/>
			<path id="&lt;Path&gt;" class="s120" d="m889.7 1307.2c0 0-5.4 6.6-5.4 11.3 0 4.6-4.3 5.1-7.5 5.1-3.1 0-9.3 6.2-12.4 9.3-3.1 3-5.7 4.5-17.1 0-11.4-4.5-19-6.9-19-6.9 0 0 12.6-45.8 36.3-54.8 23.6-8.9 36.5-15.1 41.6-2 5.1 13.1-16.5 38-16.5 38z"/>
			<path id="&lt;Path&gt;" class="s124" d="m906.6 1216.9c0 0 16.4 28.3 8 63.6-8.4 35.4-24.9 26.7-24.9 26.7 0 0 3.9-7.2 9-26.4 5.1-19.1-17.4-33.8-17.4-33.8z"/>
			<path id="&lt;Path&gt;" class="s125" d="m908.8 1222.2c0 0 3.6 53.5-30.6 63.4-34.2 9.9-49 23-45.4 58.5 3.6 35.5-20.3 11.3-34.2-8.1-14-19.3-23.4-15.3-23.4-15.3 0 0 21.1-23.4 16.2-56.2-5-32.8 3.9-60.1 23.1-75.4 19.2-15.3 70.4-28.8 94.3 33.1z"/>
			<g id="&lt;Group&gt;">
				<g id="&lt;Group&gt;">
					<path id="&lt;Path&gt;" class="s23" d="m983.1 1507.8c3.4 0.5 4.4 3.1 2.3 5.8l-29.5 37.8c-2.2 2.7-6.6 4.5-10 4.1l-86.5-12.1c-3.4-0.5-4.4-3.1-2.3-5.8l29.5-37.8c2.1-2.7 6.6-4.6 10-4.1z"/>
				</g>
				<g id="&lt;Group&gt;">
					<path id="&lt;Path&gt;" class="s62" d="m983.1 1504.2c3.4 0.5 4.4 3.1 2.3 5.8l-29.5 37.8c-2.2 2.8-6.6 4.6-10 4.1l-86.5-12.1c-3.4-0.5-4.4-3.1-2.3-5.8l29.5-37.8c2.1-2.7 6.6-4.5 10-4.1z"/>
				</g>
				<path id="&lt;Path&gt;" class="s61" d="m947 1548.7q-0.3 0-0.7 0l-86.5-12.1q-0.3-0.1-0.5-0.1 0.1-0.2 0.3-0.5l29.6-37.8c1.2-1.6 4-2.9 6.2-2.9q0.4 0 0.7 0l86.5 12.1q0.3 0.1 0.5 0.2-0.1 0.1-0.3 0.4l-29.5 37.9c-1.2 1.5-4.1 2.8-6.3 2.8z"/>
			</g>
			<path id="&lt;Path&gt;" class="s120" d="m887.3 1552.2c0.5 0.5 5.2 0.8 11.6 0.7-2.6 0.8-5.4 1.4-8.3 1.8-12.6 1.8-23.7-4.6-31.5-11.1 4-1.1 8.6-2.3 11-2.3 4.8 0 15.7-1.2 24.6-5.4 8.8-4.2 20.2-1.9 13.2 5.1-7 6.9-21.8 9.9-20.6 11.2z"/>
			<path id="&lt;Path&gt;" class="s118" d="m968.6 1502.1c-2.7-0.1-0.5 7.6-4.7 10.5-5 3.5-6-4-6-13.3 0-2.2-0.5-4.4-1.4-6.2h12.1c0 0-0.2 4.2 0 9z"/>
		</g>
		<g id="&lt;Group&gt;">
			<path id="&lt;Path&gt;" class="s126" d="m1272 1344c0 0 0.4 14.5-2.1 26.5-2.5 12 3.3 34.2 5 40.4 1.8 6.2 6 7.6 8.4 0.6 2.3-7 8.1-64.6 8.1-66.2 0-1.5-3.9-7.3-5.3-7.3-1.3 0-14.1 6-14.1 6z"/>
			<path id="&lt;Path&gt;" class="s113" d="m1426.1 1789.8c0 0 17.8 1 28.6-2.7 10.8-3.7 19.6-6.2 25.7 0 6.2 6.2 11.5 28.7-2.9 37-14.3 8.3-48.7 27.3-60.2 28.8-11.4 1.6-18.9-1.1-21-3.3-2.2-2.1 1.9-19.1 0-25.7-2-6.6 29.8-34.1 29.8-34.1z"/>
			<path id="&lt;Path&gt;" class="s113" d="m1311 1723.7c0 0 12.6 0.9 16.6-3.1 4-4 18.8-4.9 32.5 0 13.6 4.9-7.5 27.9-20.4 33.3-12.9 5.4-25.8 13.7-35.9 20.6-10 7-22 11-26.6 6.5-4.5-4.5-2.4-20.5 1.4-30.9 3.8-10.4 6.9-17.9 6.9-17.9z"/>
			<path id="&lt;Path&gt;" class="s114" d="m1286.5 1329.8c0 0-0.7 72.7-4.3 128.4-3.7 55.7-22.2 136.8-16.6 185.3 5.7 48.5 13.2 108.3 13.2 108.3 0 0 19.9 1.6 27.6-10 7.7-11.7 9-19.6 8-24.3-1-4.6 8.5-156.1 26.6-207.2 18-51.1 19.1-98.6 19.1-98.6l-27.3-100.1z"/>
			<path id="&lt;Path&gt;" class="s115" d="m1314.4 1351.9c0 0 38.7 65 50.3 117.6 11.6 52.7 4.7 144.8 8.5 206.7 3.9 61.9 21.2 148.1 21.2 148.1 0 0 12.3 6.4 21.4-2.8 9.2-9.2 12.9-35.1 12.9-35.1 0 0 3-73.8 3-103.2 0-29.4 12-134.7 12-195.9 0-61.1 2.6-92.1-8.8-122.6-11.3-30.6-120.5-12.8-120.5-12.8z"/>
			<path id="&lt;Path&gt;" class="s126" d="m1487.9 1028.6c0 0-1.1-10.5-5.9-14.2-4.8-3.8-10.5-12.9-12.5-24.5-2.1-11.6 0.4-19.1 0-22.4-0.5-3.4 5.5-2.8 7.4 5.1 1.8 7.9 0.4 14.9 1.8 16.3 1.4 1.4 1.6-16.5 1.2-21.6-0.5-5.2 0.2-35.7 2-42.8 1.8-7.1 6-6.7 6 5.4 0 12.1 1.1 30.7 1.1 30.7 0 0 2-3.4 5.6-3.4 3.6 0 6.5 4.7 6.5 4.7 0 0 2.7-1.7 5.2-1.7 2.5 0 4.4 5.6 4.4 5.6 0 0 1.1-1.6 5.1-0.3 4 1.3 7 6.5 7 16.2 0 9.7-1.3 25.7-4.4 31.9-3.1 6.2-2.9 22.1-2.9 22.1z"/>
			<path id="&lt;Path&gt;" class="s127" d="m1324.7 1032.2c0 0 2.3 35.6-20.9 35.6 0 0 0.1 25.5 38.3 26.9 38.1 1.4 45.6-2.3 45.6-2.3 0 0-9.4-3.7-10.8-21.9-1.3-18.2 1.2-32.7 3-32.2 1.9 0.6 5.4 1.1 8.8-0.2 3.4-1.2 2.6-28.9 2.6-28.9l-31.6 2.5c0 0-32.9 10.4-35 20.5z"/>
			<path id="&lt;Path&gt;" class="s126" d="m1411.5 946.5c0 0 6 21.4 2.4 32.9-3.7 11.4-2.4 17.2-2.4 24 0 6.7-3.3 24.5-17.1 32.3-13.8 7.7-8.7-2.7-13.9-15-5.3-12.2 31-74.2 31-74.2z"/>
			<path id="&lt;Path&gt;" class="s114" d="m1321.6 1034c0 0-2.5-13.4-16.5-27.4-13.9-13.9-23.2-59.5 3.5-82.8 26.7-23.2 34.2-18.3 59.2-13.6 25 4.6 43.1-12.7 50.8 4.3 7.8 17.1-2.6 37-7.2 41.6-4.7 4.7-4.7 12.6-3.1 20.5 1.5 8-0.5 14.5-1.4 15.3-0.9 0.9 1.2 8.4-1 10.5-2.1 2.1-7.8-5.5-11.6-1.8-3.7 3.8-4.2 25.4-9.7 28.7-5.4 3.3-58.4 27-63 4.7z"/>
			<path id="&lt;Path&gt;" class="s128" d="m1530.4 1156.8c-3.5 14.7-31.4 23.6-61.2 23.6-19.6 0-31.3 3.5-37 9.3-3 3.1-4.4 6.8-4.4 11 0 12.2-8.5 79.6-0.8 111.7 7.8 32.1 11.6 51.5 11.6 51.5 0 0-68.5 15.1-108.3 6.2-36.2-8.1-42.7-21.3-43.6-23.8q0 0-0.1-0.1 0-0.1 0-0.1 0-0.1-0.1-0.1c0 0-5.6 1.2-10.8 1.2-5.2 0-5.2 0-5.2 0 0 0-21.4-101.6-21.4-132.1 0-30.4 2.2-122.8 22.7-137 0 0 9.8-16.2 47-9.5 37.1 6.7 65.5 19.3 80 29.4q3.2 2.3 6.9 4.6c13.9 8.6 31.7 16.8 47.3 18.4 18.3 1.8 34.5-1.6 34.5-15.5 0-14-2-64.5-2-73.3 0-8.8 2-10.1 14.9-10.1 12.9 0 18.3 6.8 18.3 14 0 7.2 15.1 106 11.7 120.7z"/>
			<path id="&lt;Path&gt;" class="s129" d="m1530.4 1156.8c-3.5 14.7-31.4 23.6-61.2 23.6-19.6 0-31.3 3.5-37 9.3-59.8-11.8-78.4-81.2-26.5-87.1 13.9 8.6 31.7 16.8 47.3 18.4 18.3 1.8 34.5-1.6 34.5-15.5 0-14-2-64.5-2-73.3 0-8.8 2-10.1 14.9-10.1 12.9 0 18.3 6.8 18.3 14 0 7.2 15.1 106 11.7 120.7z"/>
			<path id="&lt;Path&gt;" class="s130" d="m1286.5 1346c0 0-5.6 1.2-10.8 1.2-5.2 0-5.2 0-5.2 0 0 0-21.4-101.6-21.4-132.1 0-30.4 2.2-122.8 22.7-137-19.7 69.5-8.4 199.2 14.7 267.9z"/>
		</g>
		<g id="&lt;Group&gt;">
			<g id="&lt;Group&gt;">
				<g id="&lt;Group&gt;">
					<g id="&lt;Group&gt;">
						<path id="&lt;Path&gt;" class="s131" d="m1676.2 2045.2v4.9 113.6c2.5 0 4.9-0.6 6.8-1.6l88.8-51.3c1.8-1.1 2.8-2.5 2.8-3.9l14-125.9c-0.3 1.4-1.3 2.7-3.1 3.7l-101.6 58.6c-2.1 1.3-4.9 1.9-7.7 1.9z"/>
					</g>
					<g id="&lt;Group&gt;">
						<path id="&lt;Path&gt;" class="s132" d="m1563.9 1981.1c0.3 1.3 1.3 2.6 3.1 3.6l101.5 58.6c2.1 1.3 4.9 1.9 7.7 1.9 2.8 0 5.6-0.6 7.7-1.9l101.6-58.6c1.8-1 2.8-2.3 3.1-3.7l0.1-0.7c0-1.7-1.1-3.3-3.2-4.5l-101.6-58.6c-4.2-2.5-11.1-2.5-15.4 0l-101.5 58.6c-2.5 1.4-3.5 3.4-3.1 5.3z"/>
					</g>
					<g id="&lt;Group&gt;">
						<path id="&lt;Path&gt;" class="s133" d="m1578 1981c0.2 1.1 1.1 2.3 2.7 3.1l88.8 51.3c1.8 1.1 4.3 1.6 6.7 1.6 2.5 0 4.9-0.5 6.8-1.6l88.8-51.3c1.6-0.9 2.5-2 2.7-3.2l0.1-0.6c0-1.5-0.9-2.9-2.8-3.9l-88.8-51.3c-3.8-2.2-9.8-2.2-13.5 0l-88.8 51.3c-2.2 1.2-3.1 2.9-2.7 4.6z"/>
					</g>
					<g id="&lt;Group&gt;">
						<path id="&lt;Path&gt;" class="s134" d="m1563.8 1981l14.1 125.9c0 1.4 0.9 2.8 2.8 3.9l88.8 51.3c1.8 1 4.3 1.6 6.7 1.6v-113.6-4.9c-2.8 0-5.6-0.6-7.7-1.9l-101.5-58.6c-1.8-1-2.8-2.3-3.1-3.6z"/>
					</g>
					<g id="&lt;Group&gt;">
						<path id="&lt;Path&gt;" class="s135" d="m1676.2 1980.3c0 0-4.2-70-70.7-70 0 0 12.9 0 21.5 0 8.7 0 18.1-27.2-45.1-27.2 0 0-23-1.4 9.2-6.1 32.2-4.7-51.5-54.7-117.5-24.9 0 0-14.1 35.1 36.7 41.4 50.7 6.3-8.4 6.3-21 1.3-12.5-5-8.6 19.1 16 29.8 24.6 10.8 46.3 12.1 58.5 12.1 12.2 0-5.1 6-30.2 3.4-25.2-2.6-34.3-9.4-34.3-9.4 0 0 55.2 50.5 96 45 40.9-5.5 80.9 4.6 80.9 4.6z"/>
					</g>
					<g id="&lt;Group&gt;">
						<path id="&lt;Path&gt;" class="s136" d="m1680.9 1989.3q-0.2 0-0.3-0.2c-0.3-0.3-24.9-30.3-60.8-61.3-33.2-28.7-83-64.1-132.1-70-0.2 0-0.4-0.2-0.4-0.5 0.1-0.2 0.3-0.4 0.5-0.3 49.3 5.9 99.3 41.4 132.5 70.1 36 31.1 60.7 61.2 60.9 61.5 0.2 0.2 0.1 0.4 0 0.6q-0.2 0.1-0.3 0.1z"/>
					</g>
					<g id="&lt;Group&gt;">
						<path id="&lt;Path&gt;" class="s136" d="m1571.8 1954.2c-8 0-16.7-0.7-26-2.2-0.2 0-0.4-0.2-0.3-0.5 0-0.2 0.2-0.4 0.4-0.3 53.9 8.8 86.6-12.3 86.9-12.5 0.2-0.2 0.5-0.1 0.6 0.1 0.1 0.2 0.1 0.5-0.1 0.6-0.3 0.2-22.9 14.8-61.5 14.8z"/>
					</g>
					<g id="&lt;Group&gt;">
						<path id="&lt;Path&gt;" class="s136" d="m1605.5 1915.8q-0.1 0-0.2-0.1c-0.2-0.1-0.3-0.3-0.2-0.6 0.1-0.1 7.6-15.2-4.9-31.3-0.1-0.2-0.1-0.4 0.1-0.6 0.2-0.1 0.5-0.1 0.6 0.1 12.9 16.5 5.1 32.1 5 32.2-0.1 0.2-0.2 0.3-0.4 0.3z"/>
					</g>
					<g id="&lt;Group&gt;">
						<path id="&lt;Path&gt;" class="s136" d="m1532.1 1910.7c-7.1 0-14.7-0.7-22.7-2.4-0.2 0-0.4-0.3-0.3-0.5 0-0.2 0.3-0.4 0.5-0.3 42 9 71.4-10.2 71.7-10.4 0.2-0.1 0.4 0 0.6 0.2 0.1 0.2 0 0.4-0.2 0.6-0.2 0.1-19.7 12.8-49.6 12.8z"/>
					</g>
					<g id="&lt;Group&gt;">
						<path id="&lt;Path&gt;" class="s136" d="m1544.2 1875.8c-0.2 0-0.4-0.2-0.4-0.4 0-0.2-1.4-20-18.3-29.2-0.2-0.1-0.3-0.3-0.2-0.5 0.2-0.3 0.4-0.3 0.6-0.2 17.3 9.4 18.7 29.6 18.7 29.8 0 0.3-0.1 0.5-0.4 0.5q0 0 0 0z"/>
					</g>
					<g id="&lt;Group&gt;">
						<path id="&lt;Path&gt;" class="s136" d="m1490.1 1871.6c-3.6 0-7.3-0.4-11-1.5-0.3-0.1-0.4-0.3-0.3-0.5 0-0.3 0.3-0.4 0.5-0.3 18.6 5.3 36.7-5.7 36.9-5.8 0.2-0.1 0.5 0 0.6 0.2 0.1 0.2 0.1 0.4-0.1 0.6-0.2 0.1-12.1 7.3-26.6 7.3z"/>
					</g>
					<g id="&lt;Group&gt;">
						<path id="&lt;Path&gt;" class="s137" d="m1677.9 1980.3c0 0 23.6-72.6-6.2-126 0 0-4.8-6.1-4.8 17.4 0 23.4 4-19.8-26.7-50.4-30.6-30.6-70.6-40.8-70.6-40.8 0 0-20.5 71.2 15.7 91.2 0 0 7.3 10-14.2 0-21.4-10.1 14.8 32.9 50.6 48.6 0 0 6.5 11.7-12.3 3.2-18.9-8.5-4.2 38.4 68.5 56.8z"/>
					</g>
					<g id="&lt;Group&gt;">
						<path id="&lt;Path&gt;" class="s136" d="m1680.9 1993.3c-0.2 0-0.4-0.1-0.4-0.3-0.1-0.3-4-29.2-18.5-67.7-13.5-35.6-39-86.7-84.4-128.9-0.2-0.1-0.2-0.4 0-0.6 0.1-0.1 0.4-0.1 0.6 0 45.5 42.3 71.1 93.6 84.6 129.2 14.6 38.6 18.5 67.6 18.5 67.9 0 0.2-0.1 0.4-0.4 0.4q0 0 0 0z"/>
					</g>
					<g id="&lt;Group&gt;">
						<path id="&lt;Path&gt;" class="s136" d="m1662.7 1949.2c-7.9 0-21.9-2.9-42.2-17.6-0.2-0.2-0.3-0.5-0.1-0.6 0.1-0.2 0.4-0.3 0.6-0.1 32.4 23.4 48.8 16.4 48.9 16.3 0.2-0.1 0.5 0 0.6 0.2 0.1 0.2 0 0.5-0.2 0.6-0.3 0.1-2.8 1.2-7.6 1.2z"/>
					</g>
					<g id="&lt;Group&gt;">
						<path id="&lt;Path&gt;" class="s136" d="m1656.9 1911.8c-0.2 0-0.4-0.1-0.4-0.3-0.1-0.2 0-0.5 0.2-0.6 0.1 0 13-5.4 13-47.4 0-0.2 0.2-0.4 0.4-0.4 0.2 0 0.4 0.2 0.4 0.4 0 42.8-12.9 48-13.5 48.2q-0.1 0.1-0.1 0.1z"/>
					</g>
					<g id="&lt;Group&gt;">
						<path id="&lt;Path&gt;" class="s136" d="m1639.8 1880.8c-8.9 0-41.2-1.8-62.3-27.3-0.1-0.2-0.1-0.5 0.1-0.6 0.2-0.2 0.4-0.2 0.6 0 24.2 29.3 63.4 27 63.8 27 0.3 0 0.5 0.2 0.5 0.4 0 0.3-0.2 0.5-0.4 0.5-0.1 0-0.9 0-2.3 0z"/>
					</g>
					<g id="&lt;Group&gt;">
						<path id="&lt;Path&gt;" class="s136" d="m1618.9 1843.3q-0.2 0-0.3-0.1c-0.2-0.1-0.2-0.4-0.1-0.6 0.1-0.1 7.7-8.3-0.1-33.3 0-0.2 0.1-0.4 0.3-0.5 0.3-0.1 0.5 0.1 0.6 0.3 7.9 25.5 0.2 33.8-0.1 34.1q-0.2 0.1-0.3 0.1z"/>
					</g>
					<g id="&lt;Group&gt;">
						<path id="&lt;Path&gt;" class="s138" d="m1683.6 1943.7c0 0-48.1-59.1 1.5-128.2 0 0-28.2 37.7-28.2 5.5 0-32.2 38.4-113.1 132.3-117 93.8-3.9 47.5 67.5 6.6 98.9l37.2-7.8c0 0-8 107.2-149.4 148.6z"/>
					</g>
					<g id="&lt;Group&gt;">
						<path id="&lt;Path&gt;" class="s136" d="m1685.1 1973.3c-0.3 0-0.4-0.2-0.5-0.4 0-0.5-4.3-52 10.6-108.8 8.7-33.3 22.3-61.9 40.3-84.9 22.5-28.8 52-49 87.7-59.9 0.2-0.1 0.5 0 0.5 0.3 0.1 0.2 0 0.4-0.2 0.5-80.6 24.7-113.8 92.1-127.5 144.2-14.8 56.6-10.6 108-10.5 108.5 0 0.3-0.2 0.5-0.4 0.5q0 0 0 0z"/>
					</g>
					<g id="&lt;Group&gt;">
						<path id="&lt;Path&gt;" class="s139" d="m1686.8 1912.8c-0.2 0-0.4-0.2-0.5-0.4 0-0.2 0.2-0.4 0.4-0.5 0.5-0.1 53.4-10.1 103.9-70.7 0.2-0.2 0.4-0.2 0.6-0.1 0.2 0.2 0.2 0.4 0.1 0.6-50.8 61-103.9 71-104.5 71.1q0 0 0 0z"/>
					</g>
					<g id="&lt;Group&gt;">
						<path id="&lt;Path&gt;" class="s136" d="m1693.8 1872c-0.2 0-0.4-0.1-0.4-0.3-0.3-0.7-24.2-72.9 0-112.4 0.1-0.2 0.4-0.3 0.6-0.2 0.2 0.1 0.2 0.4 0.1 0.6-23.9 39.2-0.2 111 0.1 111.8 0 0.2-0.1 0.4-0.3 0.5q-0.1 0-0.1 0z"/>
					</g>
					<g id="&lt;Group&gt;">
						<path id="&lt;Path&gt;" class="s136" d="m1709.4 1837.8c-3.5 0-5.2-0.3-5.3-0.4-0.2 0-0.4-0.2-0.3-0.5 0-0.2 0.3-0.3 0.5-0.3 0.3 0.1 28.6 6.1 84.2-31.9 0.2-0.2 0.5-0.1 0.6 0.1 0.2 0.2 0.1 0.4-0.1 0.6-42.2 28.8-68.9 32.4-79.6 32.4z"/>
					</g>
					<g id="&lt;Group&gt;">
						<path id="&lt;Path&gt;" class="s136" d="m1735.1 1780.8q-0.1 0.1-0.1 0c-0.2 0-0.4-0.2-0.4-0.4 0.1-0.5 4.4-45.6 25.2-66.5 0.2-0.2 0.5-0.2 0.6 0 0.2 0.2 0.2 0.4 0 0.6-20.6 20.7-24.9 65.5-24.9 66 0 0.2-0.2 0.3-0.4 0.3z"/>
					</g>
					<g id="&lt;Group&gt;">
						<path id="&lt;Path&gt;" class="s136" d="m1804.3 1754.1c-22.6 0-32.3-9.1-32.4-9.2-0.2-0.2-0.2-0.5 0-0.6 0.1-0.2 0.4-0.2 0.6 0 0.1 0.1 17.5 16.3 60.4 4.8 0.2-0.1 0.5 0.1 0.5 0.3 0.1 0.2-0.1 0.5-0.3 0.5-11.3 3.1-20.9 4.2-28.8 4.2z"/>
					</g>
					<g id="&lt;Group&gt;">
						<path id="&lt;Path&gt;" class="s140" d="m1681.8 1972.5c0 0 74.6-16.2 105.7-68.9 0 0 2.9-7.2-17.4 4.7-20.3 11.8 19-6.6 30-48.5 11.1-41.9-0.3-81.6-0.3-81.6 0 0-71.9 18.2-70.8 59.5 0 0-5 11.4-7.2-12.2-2.1-23.6-20.9 29.3-16.5 68.2 0 0-6.9 11.5-9-9.1-2.2-20.5-35.2 15.8-14.5 87.9z"/>
					</g>
					<g id="&lt;Group&gt;">
						<path id="&lt;Path&gt;" class="s136" d="m1676.2 1996.5q-0.1 0-0.1 0c-0.3-0.1-0.4-0.3-0.3-0.6 0.7-1.5 64.1-156 114.9-191.2 0.2-0.2 0.5-0.1 0.6 0.1 0.1 0.2 0.1 0.4-0.1 0.6-50.6 35.1-114 189.3-114.6 190.9-0.1 0.1-0.2 0.2-0.4 0.2z"/>
					</g>
					<g id="&lt;Group&gt;">
						<path id="&lt;Path&gt;" class="s139" d="m1689.2 1966.7c-0.2 0-0.4-0.1-0.4-0.3-0.1-0.3 0.1-0.5 0.3-0.5 0.3-0.1 34.1-6.7 79-37.7 0.2-0.1 0.5-0.1 0.6 0.1 0.1 0.2 0.1 0.5-0.1 0.6-45.1 31.1-79 37.7-79.3 37.8q-0.1 0-0.1 0z"/>
					</g>
					<g id="&lt;Group&gt;">
						<path id="&lt;Path&gt;" class="s136" d="m1709.5 1923.9c-0.2 0-0.4-0.1-0.4-0.4-0.1-0.3-6.5-36.6 2.8-63 0-0.3 0.3-0.4 0.5-0.3 0.2 0.1 0.3 0.3 0.3 0.6-9.3 26.2-2.8 62.2-2.8 62.6 0.1 0.2-0.1 0.5-0.3 0.5q0 0-0.1 0z"/>
					</g>
					<g id="&lt;Group&gt;">
						<path id="&lt;Path&gt;" class="s136" d="m1746.8 1885.6c-11 0-14.8-3.8-15-4.1-0.2-0.2-0.2-0.4 0-0.6 0.2-0.2 0.4-0.2 0.6 0 0.1 0.2 11.5 11.5 53.5-5.9 0.2-0.1 0.4 0 0.5 0.2 0.1 0.2 0 0.5-0.2 0.6-18.4 7.6-31 9.8-39.4 9.8z"/>
					</g>
					<g id="&lt;Group&gt;">
						<path id="&lt;Path&gt;" class="s136" d="m1756.2 1843.3c-0.2 0-0.3-0.1-0.4-0.2-0.1-0.2-7.5-21.2 9.6-38.4 0.2-0.1 0.5-0.1 0.6 0 0.2 0.2 0.2 0.5 0 0.6-16.7 16.8-9.5 37.3-9.4 37.5 0.1 0.2 0 0.4-0.2 0.5q-0.1 0-0.2 0z"/>
					</g>
					<g id="&lt;Group&gt;">
						<path id="&lt;Path&gt;" class="s141" d="m1676.2 1980.3c0 0 9.4-90.9 55.8-98.6q0.9-0.1 1.7-0.2c0 0 5.4 9.9 0 21.9-5.4 12.1 37.5-64.2 106.2-31.8 0 0 7.5 4.6-12.5 20.3-20 15.7 30-25 71.7 19 41.7 43.8 41.7 43.8 41.7 43.8 0 0-36.3 44.5-74.6 19.4-38.3-25.1-40.3-21.5-35.8-15.9 4.4 5.6 30 22.8 30 22.8 0 0-52.5 22.4-77.9-17.9 0 0-0.9 7 13.3 17.9 14.1 10.9-62.6-41.3-119.6-0.7z"/>
					</g>
					<g id="&lt;Group&gt;">
						<path id="&lt;Path&gt;" class="s136" d="m1673.7 1987.7q-0.1 0-0.2-0.1c-0.2-0.2-0.3-0.4-0.1-0.6 0.2-0.3 23.9-33.2 64.5-55.2 23.9-12.9 48.8-19.6 74.2-19.9 31.7-0.3 64.1 9.4 96.3 28.9 0.2 0.1 0.2 0.4 0.1 0.6-0.1 0.2-0.4 0.2-0.6 0.1-72.6-44-132.2-29.1-169.5-9-40.5 21.9-64.1 54.6-64.3 55q-0.2 0.2-0.4 0.2z"/>
					</g>
					<g id="&lt;Group&gt;">
						<path id="&lt;Path&gt;" class="s136" d="m1700.7 1959q-0.1 0-0.1 0c-0.2-0.1-0.4-0.3-0.4-0.5 0.1-0.4 4.1-44.5 23.4-63.7 0.1-0.2 0.4-0.2 0.6 0 0.1 0.1 0.1 0.4 0 0.6-19.1 19-23.1 62.7-23.1 63.2 0 0.2-0.2 0.4-0.4 0.4z"/>
					</g>
					<g id="&lt;Group&gt;">
						<path id="&lt;Path&gt;" class="s136" d="m1810.2 1964.3q0 0 0 0c-46-6.7-70.3-32.5-70.5-32.8-0.2-0.2-0.2-0.4 0-0.6 0.2-0.2 0.4-0.2 0.6 0 0.2 0.3 24.4 25.9 70 32.6 0.2 0 0.4 0.2 0.4 0.5-0.1 0.2-0.3 0.3-0.5 0.3z"/>
					</g>
					<g id="&lt;Group&gt;">
						<path id="&lt;Path&gt;" class="s136" d="m1781.2 1916.3q0 0 0 0c-0.3 0-0.5-0.2-0.4-0.4 0-0.3 0.7-8.2 7.1-17.1 6-8.2 18.1-18.8 42.4-22.9 0.3 0 0.5 0.1 0.5 0.4 0.1 0.2-0.1 0.4-0.3 0.5-45.9 7.7-48.9 38.8-48.9 39.2 0 0.2-0.2 0.3-0.4 0.3z"/>
					</g>
					<g id="&lt;Group&gt;">
						<path id="&lt;Path&gt;" class="s136" d="m1864.4 1959q-0.1 0-0.2-0.1c-21.3-9.7-28.6-21.5-30.9-29.7-2.5-8.9 0-15.4 0.1-15.7 0.1-0.2 0.3-0.3 0.6-0.2 0.2 0 0.3 0.3 0.2 0.5 0 0.1-2.5 6.6-0.1 15.2 2.3 8 9.5 19.6 30.5 29.1 0.2 0.1 0.3 0.4 0.2 0.6-0.1 0.2-0.2 0.3-0.4 0.3z"/>
					</g>
					<g id="&lt;Group&gt;">
						<path id="&lt;Path&gt;" class="s136" d="m1905.8 1922.5q-0.1 0-0.2-0.1c-26.8-12.5-36.8-0.2-36.9-0.1-0.2 0.2-0.4 0.2-0.6 0.1-0.2-0.2-0.2-0.4-0.1-0.6 0.1-0.1 10.5-12.9 38-0.1 0.2 0.1 0.3 0.3 0.2 0.5-0.1 0.2-0.3 0.3-0.4 0.3z"/>
					</g>
					<g id="&lt;Group&gt;">
						<path id="&lt;Path&gt;" class="s142" d="m1676.2 1980.3c0 0 49.8-49.7 80.4 0 0 0 13.3 15.8-14.4 9.5-27.8-6.3 2.9 4 15.2 8.1 12.3 4.2 30.2 49.4-11 74.4 0 0-7.2 6.3-14-11-6.8-17.3-6.9 10.2 0 22 6.9 11.7-76.3 65.5-63.4-13.8 0 0-7.4 18.1-7.4 25.9 0 7.9-38.5-36.1-8.7-65.9 0 0 0.4-10.4-13.3 7.5-13.8 18-23.2-65 36.6-56.7z"/>
					</g>
					<g id="&lt;Group&gt;">
						<path id="&lt;Path&gt;" class="s136" d="m1692.2 2093c-0.2 0-0.4-0.1-0.4-0.3-27.9-81.6-24.1-104.3-19.3-110.5 1.8-2.4 3.7-2.4 3.8-2.4 0.2 0 0.4 0.2 0.4 0.5 0 0.2-0.2 0.4-0.5 0.4q0 0 0 0c0 0-1.6 0-3.1 2-4.6 6.2-8.2 28.7 19.5 109.7 0.1 0.2 0 0.5-0.3 0.6q0 0-0.1 0z"/>
					</g>
					<g id="&lt;Group&gt;">
						<path id="&lt;Path&gt;" class="s136" d="m1722 2077.9c-0.1 0-0.3-0.1-0.4-0.2-13.3-33.4-42.8-29.2-43.1-29.2-0.2 0-0.5-0.1-0.5-0.3 0-0.3 0.1-0.5 0.4-0.5 0.3-0.1 30.4-4.3 44 29.6 0.1 0.3 0 0.5-0.2 0.6q-0.1 0-0.2 0z"/>
					</g>
					<g id="&lt;Group&gt;">
						<path id="&lt;Path&gt;" class="s136" d="m1653.2 2077.9c-0.2 0-0.4-0.1-0.4-0.3-6-29.7 18.7-57.3 18.9-57.5 0.2-0.2 0.4-0.2 0.6-0.1 0.2 0.2 0.2 0.5 0 0.6-0.2 0.3-24.6 27.5-18.7 56.8 0.1 0.3-0.1 0.5-0.3 0.5q-0.1 0-0.1 0z"/>
					</g>
					<g id="&lt;Group&gt;">
						<path id="&lt;Path&gt;" class="s136" d="m1746.9 2037.5c-0.2 0-0.3-0.1-0.4-0.3-11-21.8-31.3-30.1-46.3-33.1-16.4-3.4-30.3-1.6-30.4-1.5-0.3 0-0.5-0.2-0.5-0.4 0-0.2 0.1-0.4 0.4-0.5 0.1 0 14.1-1.9 30.6 1.5 15.3 3.1 35.8 11.5 47 33.7 0.1 0.2 0 0.4-0.2 0.5q-0.1 0.1-0.2 0.1z"/>
					</g>
					<g id="&lt;Group&gt;">
						<path id="&lt;Path&gt;" class="s136" d="m1635.3 2022.2q-0.1 0-0.2 0c-0.2-0.1-0.3-0.3-0.2-0.5 10.9-28.8 35.1-33.2 35.3-33.3 0.2 0 0.5 0.2 0.5 0.4 0.1 0.2-0.1 0.4-0.3 0.5-0.3 0-24 4.4-34.7 32.7-0.1 0.1-0.3 0.2-0.4 0.2z"/>
					</g>
					<g id="&lt;Group&gt;">
						<path id="&lt;Path&gt;" class="s136" d="m1746.9 2005.8q-0.2 0-0.3-0.2c-36.5-36.5-74-21.7-74.4-21.6-0.2 0.1-0.5 0-0.6-0.2-0.1-0.2 0-0.5 0.3-0.5 0.1-0.1 9.7-3.9 23.7-3.2 12.9 0.8 32.3 5.7 51.6 24.9 0.2 0.2 0.2 0.5 0 0.6q-0.1 0.2-0.3 0.2z"/>
					</g>
				</g>
			</g>
		</g>
	</g>
</svg>